<?xml version="1.0" encoding="us-ascii" standalone="no"?><svg xmlns="http://www.w3.org/2000/svg" xmlns:xlink="http://www.w3.org/1999/xlink" contentStyleType="text/css" height="799px" preserveAspectRatio="none" style="width:3521px;height:799px;background:#FFFFFF;" version="1.1" viewBox="0 0 3521 799" width="3521px" zoomAndPan="magnify"><defs/><g><!--cluster utils--><g id="cluster_utils"><path d="M1219.5,430 L1250.5,430 A3.75,3.75 0 0 1 1253,432.5 L1260,453.6094 L2230.5,453.6094 A2.5,2.5 0 0 1 2233,456.1094 L2233,789.5 A2.5,2.5 0 0 1 2230.5,792 L1219.5,792 A2.5,2.5 0 0 1 1217,789.5 L1217,432.5 A2.5,2.5 0 0 1 1219.5,430 " fill="none" style="stroke:#000000;stroke-width:1.5;"/><line style="stroke:#000000;stroke-width:1.5;" x1="1217" x2="1260" y1="453.6094" y2="453.6094"/><text fill="#000000" font-family="sans-serif" font-size="14" font-weight="bold" lengthAdjust="spacing" textLength="30" x="1221" y="446.5332">utils</text></g><!--cluster commands--><g id="cluster_commands"><path d="M1243.5,474 L1319.5,474 A3.75,3.75 0 0 1 1322,476.5 L1329,497.6094 L1642.5,497.6094 A2.5,2.5 0 0 1 1645,500.1094 L1645,765.5 A2.5,2.5 0 0 1 1642.5,768 L1243.5,768 A2.5,2.5 0 0 1 1241,765.5 L1241,476.5 A2.5,2.5 0 0 1 1243.5,474 " fill="none" style="stroke:#000000;stroke-width:1.5;"/><line style="stroke:#000000;stroke-width:1.5;" x1="1241" x2="1329" y1="497.6094" y2="497.6094"/><text fill="#000000" font-family="sans-serif" font-size="14" font-weight="bold" lengthAdjust="spacing" textLength="75" x="1245" y="490.5332">commands</text></g><!--cluster handlers--><g id="cluster_handlers"><path d="M1671.5,562 L1734.5,562 A3.75,3.75 0 0 1 1737,564.5 L1744,585.6094 L2206.5,585.6094 A2.5,2.5 0 0 1 2209,588.1094 L2209,677.5 A2.5,2.5 0 0 1 2206.5,680 L1671.5,680 A2.5,2.5 0 0 1 1669,677.5 L1669,564.5 A2.5,2.5 0 0 1 1671.5,562 " fill="none" style="stroke:#000000;stroke-width:1.5;"/><line style="stroke:#000000;stroke-width:1.5;" x1="1669" x2="1744" y1="585.6094" y2="585.6094"/><text fill="#000000" font-family="sans-serif" font-size="14" font-weight="bold" lengthAdjust="spacing" textLength="62" x="1673" y="578.5332">handlers</text></g><!--cluster client--><g id="cluster_client"><path d="M8.5,6 L48.5,6 A3.75,3.75 0 0 1 51,8.5 L58,29.6094 L3511.5,29.6094 A2.5,2.5 0 0 1 3514,32.1094 L3514,329.5 A2.5,2.5 0 0 1 3511.5,332 L8.5,332 A2.5,2.5 0 0 1 6,329.5 L6,8.5 A2.5,2.5 0 0 1 8.5,6 " fill="none" style="stroke:#000000;stroke-width:1.5;"/><line style="stroke:#000000;stroke-width:1.5;" x1="6" x2="58" y1="29.6094" y2="29.6094"/><text fill="#000000" font-family="sans-serif" font-size="14" font-weight="bold" lengthAdjust="spacing" textLength="39" x="10" y="22.5332">client</text></g><!--cluster commands--><g id="cluster_commands"><path d="M679.5,111.5 L755.5,111.5 A3.75,3.75 0 0 1 758,114 L765,135.1094 L1886.5,135.1094 A2.5,2.5 0 0 1 1889,137.6094 L1889,244 A2.5,2.5 0 0 1 1886.5,246.5 L679.5,246.5 A2.5,2.5 0 0 1 677,244 L677,114 A2.5,2.5 0 0 1 679.5,111.5 " fill="none" style="stroke:#000000;stroke-width:1.5;"/><line style="stroke:#000000;stroke-width:1.5;" x1="677" x2="765" y1="135.1094" y2="135.1094"/><text fill="#000000" font-family="sans-serif" font-size="14" font-weight="bold" lengthAdjust="spacing" textLength="75" x="681" y="128.0332">commands</text></g><!--cluster managers--><g id="cluster_managers"><path d="M1915.5,50 L1985.5,50 A3.75,3.75 0 0 1 1988,52.5 L1995,73.6094 L3487.5,73.6094 A2.5,2.5 0 0 1 3490,76.1094 L3490,305.5 A2.5,2.5 0 0 1 3487.5,308 L1915.5,308 A2.5,2.5 0 0 1 1913,305.5 L1913,52.5 A2.5,2.5 0 0 1 1915.5,50 " fill="none" style="stroke:#000000;stroke-width:1.5;"/><line style="stroke:#000000;stroke-width:1.5;" x1="1913" x2="1995" y1="73.6094" y2="73.6094"/><text fill="#000000" font-family="sans-serif" font-size="14" font-weight="bold" lengthAdjust="spacing" textLength="69" x="1917" y="66.5332">managers</text></g><!--class Command--><g id="elem_Command"><rect codeLine="4" fill="#F1F1F1" height="241.7031" id="Command" rx="2.5" ry="2.5" style="stroke:#181818;stroke-width:0.5;" width="372" x="1257" y="510"/><ellipse cx="1406.75" cy="526" fill="#ADD1B2" rx="11" ry="11" style="stroke:#181818;stroke-width:1.0;"/><path d="M1409.5156,521.875 Q1409.6719,521.6563 1409.8594,521.5469 Q1410.0469,521.4375 1410.2656,521.4375 Q1410.6406,521.4375 1410.875,521.7031 Q1411.1094,521.9531 1411.1094,522.5625 L1411.1094,524.0156 Q1411.1094,524.625 1410.875,524.8906 Q1410.6406,525.1563 1410.2656,525.1563 Q1409.9219,525.1563 1409.7188,524.9531 Q1409.5156,524.7656 1409.4063,524.25 Q1409.3594,523.8906 1409.1719,523.7031 Q1408.8438,523.3281 1408.2344,523.1094 Q1407.625,522.8906 1407,522.8906 Q1406.2344,522.8906 1405.5938,523.2188 Q1404.9688,523.5469 1404.4688,524.2969 Q1403.9844,525.0469 1403.9844,526.0781 L1403.9844,527.1719 Q1403.9844,528.4063 1404.875,529.2344 Q1405.7656,530.0469 1407.3594,530.0469 Q1408.2969,530.0469 1408.9531,529.7969 Q1409.3438,529.6406 1409.7656,529.2031 Q1410.0313,528.9375 1410.1719,528.8594 Q1410.3281,528.7813 1410.5313,528.7813 Q1410.8594,528.7813 1411.1094,529.0469 Q1411.375,529.2969 1411.375,529.6406 Q1411.375,529.9844 1411.0313,530.3906 Q1410.5313,530.9688 1409.7344,531.2969 Q1408.6563,531.75 1407.3594,531.75 Q1405.8438,531.75 1404.6406,531.125 Q1403.6563,530.625 1402.9688,529.5625 Q1402.2813,528.4844 1402.2813,527.2031 L1402.2813,526.0469 Q1402.2813,524.7188 1402.8906,523.5781 Q1403.5156,522.4219 1404.6094,521.8125 Q1405.7031,521.1875 1406.9375,521.1875 Q1407.6719,521.1875 1408.3125,521.3594 Q1408.9688,521.5156 1409.5156,521.875 Z " fill="#000000"/><text fill="#000000" font-family="sans-serif" font-size="14" lengthAdjust="spacing" textLength="64" x="1427.25" y="531.7285">Command</text><line style="stroke:#181818;stroke-width:0.5;" x1="1258" x2="1628" y1="542" y2="542"/><rect fill="none" height="6" style="stroke:#C82930;stroke-width:1.0;" width="6" x="1265" y="553.3047"/><text fill="#000000" font-family="sans-serif" font-size="14" lengthAdjust="spacing" textLength="84" x="1277" y="560.5332">name : String</text><rect fill="none" height="6" style="stroke:#C82930;stroke-width:1.0;" width="6" x="1265" y="570.9141"/><text fill="#000000" font-family="sans-serif" font-size="14" lengthAdjust="spacing" textLength="118" x="1277" y="578.1426">description : String</text><rect fill="none" height="6" style="stroke:#C82930;stroke-width:1.0;" width="6" x="1265" y="588.5234"/><text fill="#000000" font-family="sans-serif" font-size="14" lengthAdjust="spacing" textLength="236" x="1277" y="595.752">arguments : ArrayList&lt;Argument&lt;?&gt;&gt;</text><polygon fill="none" points="1268,604.1328,1272,608.1328,1268,612.1328,1264,608.1328" style="stroke:#B38D22;stroke-width:1.0;"/><text fill="#000000" font-family="sans-serif" font-size="14" lengthAdjust="spacing" textLength="153" x="1277" y="613.3613">enviroment : Enviroment</text><line style="stroke:#181818;stroke-width:0.5;" x1="1258" x2="1628" y1="620.4375" y2="620.4375"/><ellipse cx="1268" cy="634.7422" fill="#84BE84" rx="3" ry="3" style="stroke:#038048;stroke-width:1.0;"/><text fill="#000000" font-family="sans-serif" font-size="14" lengthAdjust="spacing" textLength="284" x="1277" y="638.9707">Command(name : String, description : String)</text><ellipse cx="1268" cy="652.3516" fill="#84BE84" rx="3" ry="3" style="stroke:#038048;stroke-width:1.0;"/><text fill="#000000" font-family="sans-serif" font-size="14" lengthAdjust="spacing" textLength="329" x="1277" y="656.5801">setEnviroment(enviroment : Enviroment) : Command</text><polygon fill="#FFFF44" points="1268,664.9609,1272,668.9609,1268,672.9609,1264,668.9609" style="stroke:#B38D22;stroke-width:1.0;"/><text fill="#000000" font-family="sans-serif" font-size="14" lengthAdjust="spacing" textLength="220" x="1277" y="674.1895">initArgs(args : Argument&lt;?&gt;) : void</text><ellipse cx="1268" cy="687.5703" fill="#84BE84" rx="3" ry="3" style="stroke:#038048;stroke-width:1.0;"/><text fill="#000000" font-family="sans-serif" font-size="14" lengthAdjust="spacing" textLength="228" x="1277" y="691.7988">getArgs() : ArrayList&lt;Argument&lt;?&gt;&gt;</text><ellipse cx="1268" cy="705.1797" fill="#84BE84" rx="3" ry="3" style="stroke:#038048;stroke-width:1.0;"/><text fill="#000000" font-family="sans-serif" font-size="14" lengthAdjust="spacing" textLength="115" x="1277" y="709.4082">getName() : String</text><ellipse cx="1268" cy="722.7891" fill="#84BE84" rx="3" ry="3" style="stroke:#038048;stroke-width:1.0;"/><text fill="#000000" font-family="sans-serif" font-size="14" lengthAdjust="spacing" textLength="150" x="1277" y="727.0176">getDescription() : String</text><ellipse cx="1268" cy="740.3984" fill="#84BE84" rx="3" ry="3" style="stroke:#038048;stroke-width:1.0;"/><text fill="#000000" font-family="sans-serif" font-size="14" font-style="italic" lengthAdjust="spacing" textLength="346" x="1277" y="744.627">execute(args : HashMap&lt;String,?&gt;) : ArrayList&lt;String&gt;</text></g><!--class Enviroment--><g id="elem_Enviroment"><rect codeLine="20" fill="#F1F1F1" height="65.6094" id="Enviroment" rx="2.5" ry="2.5" style="stroke:#181818;stroke-width:0.5;" width="507" x="1685.5" y="598"/><ellipse cx="1899.25" cy="614" fill="#ADD1B2" rx="11" ry="11" style="stroke:#181818;stroke-width:1.0;"/><path d="M1902.0156,609.875 Q1902.1719,609.6563 1902.3594,609.5469 Q1902.5469,609.4375 1902.7656,609.4375 Q1903.1406,609.4375 1903.375,609.7031 Q1903.6094,609.9531 1903.6094,610.5625 L1903.6094,612.0156 Q1903.6094,612.625 1903.375,612.8906 Q1903.1406,613.1563 1902.7656,613.1563 Q1902.4219,613.1563 1902.2188,612.9531 Q1902.0156,612.7656 1901.9063,612.25 Q1901.8594,611.8906 1901.6719,611.7031 Q1901.3438,611.3281 1900.7344,611.1094 Q1900.125,610.8906 1899.5,610.8906 Q1898.7344,610.8906 1898.0938,611.2188 Q1897.4688,611.5469 1896.9688,612.2969 Q1896.4844,613.0469 1896.4844,614.0781 L1896.4844,615.1719 Q1896.4844,616.4063 1897.375,617.2344 Q1898.2656,618.0469 1899.8594,618.0469 Q1900.7969,618.0469 1901.4531,617.7969 Q1901.8438,617.6406 1902.2656,617.2031 Q1902.5313,616.9375 1902.6719,616.8594 Q1902.8281,616.7813 1903.0313,616.7813 Q1903.3594,616.7813 1903.6094,617.0469 Q1903.875,617.2969 1903.875,617.6406 Q1903.875,617.9844 1903.5313,618.3906 Q1903.0313,618.9688 1902.2344,619.2969 Q1901.1563,619.75 1899.8594,619.75 Q1898.3438,619.75 1897.1406,619.125 Q1896.1563,618.625 1895.4688,617.5625 Q1894.7813,616.4844 1894.7813,615.2031 L1894.7813,614.0469 Q1894.7813,612.7188 1895.3906,611.5781 Q1896.0156,610.4219 1897.1094,609.8125 Q1898.2031,609.1875 1899.4375,609.1875 Q1900.1719,609.1875 1900.8125,609.3594 Q1901.4688,609.5156 1902.0156,609.875 Z " fill="#000000"/><text fill="#000000" font-family="sans-serif" font-size="14" lengthAdjust="spacing" textLength="71" x="1919.75" y="619.7285">Enviroment</text><line style="stroke:#181818;stroke-width:0.5;" x1="1686.5" x2="2191.5" y1="630" y2="630"/><line style="stroke:#181818;stroke-width:0.5;" x1="1686.5" x2="2191.5" y1="638" y2="638"/><ellipse cx="1696.5" cy="652.3047" fill="#84BE84" rx="3" ry="3" style="stroke:#038048;stroke-width:1.0;"/><text fill="#000000" font-family="sans-serif" font-size="14" lengthAdjust="spacing" textLength="481" x="1705.5" y="656.5332">executeCommand(command : Command, args : HashMap&lt;String,?&gt;) : String</text></g><!--class Client--><g id="elem_Client"><rect codeLine="76" fill="#F1F1F1" height="206.4844" id="Client" rx="2.5" ry="2.5" style="stroke:#181818;stroke-width:0.5;" width="411" x="246.5" y="86"/><ellipse cx="429.75" cy="102" fill="#ADD1B2" rx="11" ry="11" style="stroke:#181818;stroke-width:1.0;"/><path d="M432.5156,97.875 Q432.6719,97.6563 432.8594,97.5469 Q433.0469,97.4375 433.2656,97.4375 Q433.6406,97.4375 433.875,97.7031 Q434.1094,97.9531 434.1094,98.5625 L434.1094,100.0156 Q434.1094,100.625 433.875,100.8906 Q433.6406,101.1563 433.2656,101.1563 Q432.9219,101.1563 432.7188,100.9531 Q432.5156,100.7656 432.4063,100.25 Q432.3594,99.8906 432.1719,99.7031 Q431.8438,99.3281 431.2344,99.1094 Q430.625,98.8906 430,98.8906 Q429.2344,98.8906 428.5938,99.2188 Q427.9688,99.5469 427.4688,100.2969 Q426.9844,101.0469 426.9844,102.0781 L426.9844,103.1719 Q426.9844,104.4063 427.875,105.2344 Q428.7656,106.0469 430.3594,106.0469 Q431.2969,106.0469 431.9531,105.7969 Q432.3438,105.6406 432.7656,105.2031 Q433.0313,104.9375 433.1719,104.8594 Q433.3281,104.7813 433.5313,104.7813 Q433.8594,104.7813 434.1094,105.0469 Q434.375,105.2969 434.375,105.6406 Q434.375,105.9844 434.0313,106.3906 Q433.5313,106.9688 432.7344,107.2969 Q431.6563,107.75 430.3594,107.75 Q428.8438,107.75 427.6406,107.125 Q426.6563,106.625 425.9688,105.5625 Q425.2813,104.4844 425.2813,103.2031 L425.2813,102.0469 Q425.2813,100.7188 425.8906,99.5781 Q426.5156,98.4219 427.6094,97.8125 Q428.7031,97.1875 429.9375,97.1875 Q430.6719,97.1875 431.3125,97.3594 Q431.9688,97.5156 432.5156,97.875 Z " fill="#000000"/><text fill="#000000" font-family="sans-serif" font-size="14" lengthAdjust="spacing" textLength="36" x="450.25" y="107.7285">Client</text><line style="stroke:#181818;stroke-width:0.5;" x1="247.5" x2="656.5" y1="118" y2="118"/><rect fill="none" height="6" style="stroke:#C82930;stroke-width:1.0;" width="6" x="254.5" y="129.3047"/><text fill="#000000" font-family="sans-serif" font-size="14" lengthAdjust="spacing" textLength="182" x="266.5" y="136.5332">dataManager : DataManager</text><rect fill="none" height="6" style="stroke:#C82930;stroke-width:1.0;" width="6" x="254.5" y="146.9141"/><text fill="#000000" font-family="sans-serif" font-size="14" lengthAdjust="spacing" textLength="189" x="266.5" y="154.1426">enviroment : ClientEnviroment</text><rect fill="none" height="6" style="stroke:#C82930;stroke-width:1.0;" width="6" x="254.5" y="164.5234"/><text fill="#000000" font-family="sans-serif" font-size="14" lengthAdjust="spacing" textLength="91" x="266.5" y="171.752">logFile : String</text><rect fill="none" height="6" style="stroke:#C82930;stroke-width:1.0;" width="6" x="254.5" y="182.1328"/><text fill="#000000" font-family="sans-serif" font-size="14" lengthAdjust="spacing" textLength="162" x="266.5" y="189.3613">errorStream : PrintStream</text><line style="stroke:#181818;stroke-width:0.5;" x1="247.5" x2="656.5" y1="196.4375" y2="196.4375"/><ellipse cx="257.5" cy="210.7422" fill="#84BE84" rx="3" ry="3" style="stroke:#038048;stroke-width:1.0;"/><text fill="#000000" font-family="sans-serif" font-size="14" lengthAdjust="spacing" textLength="281" x="266.5" y="214.9707">Client(host : String, port : int, logFile : String)</text><ellipse cx="257.5" cy="228.3516" fill="#84BE84" rx="3" ry="3" style="stroke:#038048;stroke-width:1.0;"/><text fill="#000000" font-family="sans-serif" font-size="14" lengthAdjust="spacing" textLength="76" x="266.5" y="232.5801">start() : void</text><ellipse cx="257.5" cy="245.9609" fill="#84BE84" rx="3" ry="3" style="stroke:#038048;stroke-width:1.0;"/><text fill="#000000" font-family="sans-serif" font-size="14" lengthAdjust="spacing" textLength="328" x="266.5" y="250.1895">processRequest(request : CommandRequest) : void</text><ellipse cx="257.5" cy="263.5703" fill="#84BE84" rx="3" ry="3" style="stroke:#038048;stroke-width:1.0;"/><text fill="#000000" font-family="sans-serif" font-size="14" lengthAdjust="spacing" textLength="350" x="266.5" y="267.7988">processResponce(response : CommandRequest) : void</text><ellipse cx="257.5" cy="281.1797" fill="#84BE84" rx="3" ry="3" style="stroke:#038048;stroke-width:1.0;"/><text fill="#000000" font-family="sans-serif" font-size="14" lengthAdjust="spacing" textLength="385" x="266.5" y="285.4082">readArgs(response : CommandRequest) : CommandRequest</text></g><!--class ClientApp--><g id="elem_ClientApp"><rect codeLine="88" fill="#F1F1F1" height="65.6094" id="ClientApp" rx="2.5" ry="2.5" style="stroke:#181818;stroke-width:0.5;" width="189" x="22.5" y="156"/><ellipse cx="82.25" cy="172" fill="#ADD1B2" rx="11" ry="11" style="stroke:#181818;stroke-width:1.0;"/><path d="M85.0156,167.875 Q85.1719,167.6563 85.3594,167.5469 Q85.5469,167.4375 85.7656,167.4375 Q86.1406,167.4375 86.375,167.7031 Q86.6094,167.9531 86.6094,168.5625 L86.6094,170.0156 Q86.6094,170.625 86.375,170.8906 Q86.1406,171.1563 85.7656,171.1563 Q85.4219,171.1563 85.2188,170.9531 Q85.0156,170.7656 84.9063,170.25 Q84.8594,169.8906 84.6719,169.7031 Q84.3438,169.3281 83.7344,169.1094 Q83.125,168.8906 82.5,168.8906 Q81.7344,168.8906 81.0938,169.2188 Q80.4688,169.5469 79.9688,170.2969 Q79.4844,171.0469 79.4844,172.0781 L79.4844,173.1719 Q79.4844,174.4063 80.375,175.2344 Q81.2656,176.0469 82.8594,176.0469 Q83.7969,176.0469 84.4531,175.7969 Q84.8438,175.6406 85.2656,175.2031 Q85.5313,174.9375 85.6719,174.8594 Q85.8281,174.7813 86.0313,174.7813 Q86.3594,174.7813 86.6094,175.0469 Q86.875,175.2969 86.875,175.6406 Q86.875,175.9844 86.5313,176.3906 Q86.0313,176.9688 85.2344,177.2969 Q84.1563,177.75 82.8594,177.75 Q81.3438,177.75 80.1406,177.125 Q79.1563,176.625 78.4688,175.5625 Q77.7813,174.4844 77.7813,173.2031 L77.7813,172.0469 Q77.7813,170.7188 78.3906,169.5781 Q79.0156,168.4219 80.1094,167.8125 Q81.2031,167.1875 82.4375,167.1875 Q83.1719,167.1875 83.8125,167.3594 Q84.4688,167.5156 85.0156,167.875 Z " fill="#000000"/><text fill="#000000" font-family="sans-serif" font-size="14" lengthAdjust="spacing" textLength="61" x="102.75" y="177.7285">ClientApp</text><line style="stroke:#181818;stroke-width:0.5;" x1="23.5" x2="210.5" y1="188" y2="188"/><line style="stroke:#181818;stroke-width:0.5;" x1="23.5" x2="210.5" y1="196" y2="196"/><ellipse cx="33.5" cy="210.3047" fill="#84BE84" rx="3" ry="3" style="stroke:#038048;stroke-width:1.0;"/><text fill="#000000" font-family="sans-serif" font-size="14" lengthAdjust="spacing" text-decoration="underline" textLength="163" x="42.5" y="214.5332">main(args : String[]) : void</text></g><!--class ExecuteScript--><g id="elem_ExecuteScript"><rect codeLine="28" fill="#F1F1F1" height="83.2188" id="ExecuteScript" rx="2.5" ry="2.5" style="stroke:#181818;stroke-width:0.5;" width="370" x="1503" y="147.5"/><ellipse cx="1640.75" cy="163.5" fill="#ADD1B2" rx="11" ry="11" style="stroke:#181818;stroke-width:1.0;"/><path d="M1643.5156,159.375 Q1643.6719,159.1563 1643.8594,159.0469 Q1644.0469,158.9375 1644.2656,158.9375 Q1644.6406,158.9375 1644.875,159.2031 Q1645.1094,159.4531 1645.1094,160.0625 L1645.1094,161.5156 Q1645.1094,162.125 1644.875,162.3906 Q1644.6406,162.6563 1644.2656,162.6563 Q1643.9219,162.6563 1643.7188,162.4531 Q1643.5156,162.2656 1643.4063,161.75 Q1643.3594,161.3906 1643.1719,161.2031 Q1642.8438,160.8281 1642.2344,160.6094 Q1641.625,160.3906 1641,160.3906 Q1640.2344,160.3906 1639.5938,160.7188 Q1638.9688,161.0469 1638.4688,161.7969 Q1637.9844,162.5469 1637.9844,163.5781 L1637.9844,164.6719 Q1637.9844,165.9063 1638.875,166.7344 Q1639.7656,167.5469 1641.3594,167.5469 Q1642.2969,167.5469 1642.9531,167.2969 Q1643.3438,167.1406 1643.7656,166.7031 Q1644.0313,166.4375 1644.1719,166.3594 Q1644.3281,166.2813 1644.5313,166.2813 Q1644.8594,166.2813 1645.1094,166.5469 Q1645.375,166.7969 1645.375,167.1406 Q1645.375,167.4844 1645.0313,167.8906 Q1644.5313,168.4688 1643.7344,168.7969 Q1642.6563,169.25 1641.3594,169.25 Q1639.8438,169.25 1638.6406,168.625 Q1637.6563,168.125 1636.9688,167.0625 Q1636.2813,165.9844 1636.2813,164.7031 L1636.2813,163.5469 Q1636.2813,162.2188 1636.8906,161.0781 Q1637.5156,159.9219 1638.6094,159.3125 Q1639.7031,158.6875 1640.9375,158.6875 Q1641.6719,158.6875 1642.3125,158.8594 Q1642.9688,159.0156 1643.5156,159.375 Z " fill="#000000"/><text fill="#000000" font-family="sans-serif" font-size="14" lengthAdjust="spacing" textLength="86" x="1661.25" y="169.2285">ExecuteScript</text><line style="stroke:#181818;stroke-width:0.5;" x1="1504" x2="1872" y1="179.5" y2="179.5"/><line style="stroke:#181818;stroke-width:0.5;" x1="1504" x2="1872" y1="187.5" y2="187.5"/><ellipse cx="1514" cy="201.8047" fill="#84BE84" rx="3" ry="3" style="stroke:#038048;stroke-width:1.0;"/><text fill="#000000" font-family="sans-serif" font-size="14" lengthAdjust="spacing" textLength="306" x="1523" y="206.0332">ExecuteScript(name : String, description : String)</text><ellipse cx="1514" cy="219.4141" fill="#84BE84" rx="3" ry="3" style="stroke:#038048;stroke-width:1.0;"/><text fill="#000000" font-family="sans-serif" font-size="14" lengthAdjust="spacing" textLength="344" x="1523" y="223.6426">execute(args : HashMap&lt;String,?&gt;) : ArrayList&lt;String&gt;</text></g><!--class Exit--><g id="elem_Exit"><rect codeLine="33" fill="#F1F1F1" height="83.2188" id="Exit" rx="2.5" ry="2.5" style="stroke:#181818;stroke-width:0.5;" width="370" x="1098" y="147.5"/><ellipse cx="1267.75" cy="163.5" fill="#ADD1B2" rx="11" ry="11" style="stroke:#181818;stroke-width:1.0;"/><path d="M1270.5156,159.375 Q1270.6719,159.1563 1270.8594,159.0469 Q1271.0469,158.9375 1271.2656,158.9375 Q1271.6406,158.9375 1271.875,159.2031 Q1272.1094,159.4531 1272.1094,160.0625 L1272.1094,161.5156 Q1272.1094,162.125 1271.875,162.3906 Q1271.6406,162.6563 1271.2656,162.6563 Q1270.9219,162.6563 1270.7188,162.4531 Q1270.5156,162.2656 1270.4063,161.75 Q1270.3594,161.3906 1270.1719,161.2031 Q1269.8438,160.8281 1269.2344,160.6094 Q1268.625,160.3906 1268,160.3906 Q1267.2344,160.3906 1266.5938,160.7188 Q1265.9688,161.0469 1265.4688,161.7969 Q1264.9844,162.5469 1264.9844,163.5781 L1264.9844,164.6719 Q1264.9844,165.9063 1265.875,166.7344 Q1266.7656,167.5469 1268.3594,167.5469 Q1269.2969,167.5469 1269.9531,167.2969 Q1270.3438,167.1406 1270.7656,166.7031 Q1271.0313,166.4375 1271.1719,166.3594 Q1271.3281,166.2813 1271.5313,166.2813 Q1271.8594,166.2813 1272.1094,166.5469 Q1272.375,166.7969 1272.375,167.1406 Q1272.375,167.4844 1272.0313,167.8906 Q1271.5313,168.4688 1270.7344,168.7969 Q1269.6563,169.25 1268.3594,169.25 Q1266.8438,169.25 1265.6406,168.625 Q1264.6563,168.125 1263.9688,167.0625 Q1263.2813,165.9844 1263.2813,164.7031 L1263.2813,163.5469 Q1263.2813,162.2188 1263.8906,161.0781 Q1264.5156,159.9219 1265.6094,159.3125 Q1266.7031,158.6875 1267.9375,158.6875 Q1268.6719,158.6875 1269.3125,158.8594 Q1269.9688,159.0156 1270.5156,159.375 Z " fill="#000000"/><text fill="#000000" font-family="sans-serif" font-size="14" lengthAdjust="spacing" textLength="22" x="1288.25" y="169.2285">Exit</text><line style="stroke:#181818;stroke-width:0.5;" x1="1099" x2="1467" y1="179.5" y2="179.5"/><line style="stroke:#181818;stroke-width:0.5;" x1="1099" x2="1467" y1="187.5" y2="187.5"/><ellipse cx="1109" cy="201.8047" fill="#84BE84" rx="3" ry="3" style="stroke:#038048;stroke-width:1.0;"/><text fill="#000000" font-family="sans-serif" font-size="14" lengthAdjust="spacing" textLength="242" x="1118" y="206.0332">Exit(name : String, description : String)</text><ellipse cx="1109" cy="219.4141" fill="#84BE84" rx="3" ry="3" style="stroke:#038048;stroke-width:1.0;"/><text fill="#000000" font-family="sans-serif" font-size="14" lengthAdjust="spacing" textLength="344" x="1118" y="223.6426">execute(args : HashMap&lt;String,?&gt;) : ArrayList&lt;String&gt;</text></g><!--class Help--><g id="elem_Help"><rect codeLine="38" fill="#F1F1F1" height="83.2188" id="Help" rx="2.5" ry="2.5" style="stroke:#181818;stroke-width:0.5;" width="370" x="693" y="147.5"/><ellipse cx="859.75" cy="163.5" fill="#ADD1B2" rx="11" ry="11" style="stroke:#181818;stroke-width:1.0;"/><path d="M862.5156,159.375 Q862.6719,159.1563 862.8594,159.0469 Q863.0469,158.9375 863.2656,158.9375 Q863.6406,158.9375 863.875,159.2031 Q864.1094,159.4531 864.1094,160.0625 L864.1094,161.5156 Q864.1094,162.125 863.875,162.3906 Q863.6406,162.6563 863.2656,162.6563 Q862.9219,162.6563 862.7188,162.4531 Q862.5156,162.2656 862.4063,161.75 Q862.3594,161.3906 862.1719,161.2031 Q861.8438,160.8281 861.2344,160.6094 Q860.625,160.3906 860,160.3906 Q859.2344,160.3906 858.5938,160.7188 Q857.9688,161.0469 857.4688,161.7969 Q856.9844,162.5469 856.9844,163.5781 L856.9844,164.6719 Q856.9844,165.9063 857.875,166.7344 Q858.7656,167.5469 860.3594,167.5469 Q861.2969,167.5469 861.9531,167.2969 Q862.3438,167.1406 862.7656,166.7031 Q863.0313,166.4375 863.1719,166.3594 Q863.3281,166.2813 863.5313,166.2813 Q863.8594,166.2813 864.1094,166.5469 Q864.375,166.7969 864.375,167.1406 Q864.375,167.4844 864.0313,167.8906 Q863.5313,168.4688 862.7344,168.7969 Q861.6563,169.25 860.3594,169.25 Q858.8438,169.25 857.6406,168.625 Q856.6563,168.125 855.9688,167.0625 Q855.2813,165.9844 855.2813,164.7031 L855.2813,163.5469 Q855.2813,162.2188 855.8906,161.0781 Q856.5156,159.9219 857.6094,159.3125 Q858.7031,158.6875 859.9375,158.6875 Q860.6719,158.6875 861.3125,158.8594 Q861.9688,159.0156 862.5156,159.375 Z " fill="#000000"/><text fill="#000000" font-family="sans-serif" font-size="14" lengthAdjust="spacing" textLength="28" x="880.25" y="169.2285">Help</text><line style="stroke:#181818;stroke-width:0.5;" x1="694" x2="1062" y1="179.5" y2="179.5"/><line style="stroke:#181818;stroke-width:0.5;" x1="694" x2="1062" y1="187.5" y2="187.5"/><ellipse cx="704" cy="201.8047" fill="#84BE84" rx="3" ry="3" style="stroke:#038048;stroke-width:1.0;"/><text fill="#000000" font-family="sans-serif" font-size="14" lengthAdjust="spacing" textLength="248" x="713" y="206.0332">Help(name : String, description : String)</text><ellipse cx="704" cy="219.4141" fill="#84BE84" rx="3" ry="3" style="stroke:#038048;stroke-width:1.0;"/><text fill="#000000" font-family="sans-serif" font-size="14" lengthAdjust="spacing" textLength="344" x="713" y="223.6426">execute(args : HashMap&lt;String,?&gt;) : ArrayList&lt;String&gt;</text></g><!--class ClientEnviroment--><g id="elem_ClientEnviroment"><rect codeLine="49" fill="#F1F1F1" height="206.4844" id="ClientEnviroment" rx="2.5" ry="2.5" style="stroke:#181818;stroke-width:0.5;" width="1083" x="2390.5" y="86"/><ellipse cx="2874.25" cy="102" fill="#ADD1B2" rx="11" ry="11" style="stroke:#181818;stroke-width:1.0;"/><path d="M2877.0156,97.875 Q2877.1719,97.6563 2877.3594,97.5469 Q2877.5469,97.4375 2877.7656,97.4375 Q2878.1406,97.4375 2878.375,97.7031 Q2878.6094,97.9531 2878.6094,98.5625 L2878.6094,100.0156 Q2878.6094,100.625 2878.375,100.8906 Q2878.1406,101.1563 2877.7656,101.1563 Q2877.4219,101.1563 2877.2188,100.9531 Q2877.0156,100.7656 2876.9063,100.25 Q2876.8594,99.8906 2876.6719,99.7031 Q2876.3438,99.3281 2875.7344,99.1094 Q2875.125,98.8906 2874.5,98.8906 Q2873.7344,98.8906 2873.0938,99.2188 Q2872.4688,99.5469 2871.9688,100.2969 Q2871.4844,101.0469 2871.4844,102.0781 L2871.4844,103.1719 Q2871.4844,104.4063 2872.375,105.2344 Q2873.2656,106.0469 2874.8594,106.0469 Q2875.7969,106.0469 2876.4531,105.7969 Q2876.8438,105.6406 2877.2656,105.2031 Q2877.5313,104.9375 2877.6719,104.8594 Q2877.8281,104.7813 2878.0313,104.7813 Q2878.3594,104.7813 2878.6094,105.0469 Q2878.875,105.2969 2878.875,105.6406 Q2878.875,105.9844 2878.5313,106.3906 Q2878.0313,106.9688 2877.2344,107.2969 Q2876.1563,107.75 2874.8594,107.75 Q2873.3438,107.75 2872.1406,107.125 Q2871.1563,106.625 2870.4688,105.5625 Q2869.7813,104.4844 2869.7813,103.2031 L2869.7813,102.0469 Q2869.7813,100.7188 2870.3906,99.5781 Q2871.0156,98.4219 2872.1094,97.8125 Q2873.2031,97.1875 2874.4375,97.1875 Q2875.1719,97.1875 2875.8125,97.3594 Q2876.4688,97.5156 2877.0156,97.875 Z " fill="#000000"/><text fill="#000000" font-family="sans-serif" font-size="14" lengthAdjust="spacing" textLength="107" x="2894.75" y="107.7285">ClientEnviroment</text><line style="stroke:#181818;stroke-width:0.5;" x1="2391.5" x2="3472.5" y1="118" y2="118"/><rect fill="none" height="6" style="stroke:#C82930;stroke-width:1.0;" width="6" x="2398.5" y="129.3047"/><text fill="#000000" font-family="sans-serif" font-size="14" lengthAdjust="spacing" textLength="235" x="2410.5" y="136.5332">commandHandler : CommandHandler</text><rect fill="none" height="6" style="stroke:#C82930;stroke-width:1.0;" width="6" x="2398.5" y="146.9141"/><text fill="#000000" font-family="sans-serif" font-size="14" lengthAdjust="spacing" textLength="195" x="2410.5" y="154.1426">scanners : ArrayList&lt;Scanner&gt;</text><line style="stroke:#181818;stroke-width:0.5;" x1="2391.5" x2="3472.5" y1="161.2188" y2="161.2188"/><ellipse cx="2401.5" cy="175.5234" fill="#84BE84" rx="3" ry="3" style="stroke:#038048;stroke-width:1.0;"/><text fill="#000000" font-family="sans-serif" font-size="14" lengthAdjust="spacing" textLength="352" x="2410.5" y="179.752">ClientEnviroment(commandHandler : CommandHandler)</text><ellipse cx="2401.5" cy="193.1328" fill="#84BE84" rx="3" ry="3" style="stroke:#038048;stroke-width:1.0;"/><text fill="#000000" font-family="sans-serif" font-size="14" lengthAdjust="spacing" textLength="268" x="2410.5" y="197.3613">getCommandHandler() : CommandHandler</text><ellipse cx="2401.5" cy="210.7422" fill="#84BE84" rx="3" ry="3" style="stroke:#038048;stroke-width:1.0;"/><text fill="#000000" font-family="sans-serif" font-size="14" lengthAdjust="spacing" textLength="1057" x="2410.5" y="214.9707">getListOfLines(filename : String, linesAlreadyRead : ArrayList&lt;String&gt;, filesAlreadyRead : ArrayList&lt;String&gt;, recursionEntryPoint : Predicate&lt;String&gt;) : ArrayList&lt;String&gt;</text><ellipse cx="2401.5" cy="228.3516" fill="#84BE84" rx="3" ry="3" style="stroke:#038048;stroke-width:1.0;"/><text fill="#000000" font-family="sans-serif" font-size="14" lengthAdjust="spacing" textLength="241" x="2410.5" y="232.5801">addScanner(scanner : Scanner) : void</text><ellipse cx="2401.5" cy="245.9609" fill="#84BE84" rx="3" ry="3" style="stroke:#038048;stroke-width:1.0;"/><text fill="#000000" font-family="sans-serif" font-size="14" lengthAdjust="spacing" textLength="148" x="2410.5" y="250.1895">getScanner() : Scanner</text><ellipse cx="2401.5" cy="263.5703" fill="#84BE84" rx="3" ry="3" style="stroke:#038048;stroke-width:1.0;"/><text fill="#000000" font-family="sans-serif" font-size="14" lengthAdjust="spacing" textLength="178" x="2410.5" y="267.7988">getScannersStackSize() : int</text><ellipse cx="2401.5" cy="281.1797" fill="#84BE84" rx="3" ry="3" style="stroke:#038048;stroke-width:1.0;"/><text fill="#000000" font-family="sans-serif" font-size="14" lengthAdjust="spacing" textLength="125" x="2410.5" y="285.4082">popScanner() : void</text></g><!--class DataManager--><g id="elem_DataManager"><rect codeLine="61" fill="#F1F1F1" height="206.4844" id="DataManager" rx="2.5" ry="2.5" style="stroke:#181818;stroke-width:0.5;" width="426" x="1929" y="86"/><ellipse cx="2094.75" cy="102" fill="#ADD1B2" rx="11" ry="11" style="stroke:#181818;stroke-width:1.0;"/><path d="M2097.5156,97.875 Q2097.6719,97.6563 2097.8594,97.5469 Q2098.0469,97.4375 2098.2656,97.4375 Q2098.6406,97.4375 2098.875,97.7031 Q2099.1094,97.9531 2099.1094,98.5625 L2099.1094,100.0156 Q2099.1094,100.625 2098.875,100.8906 Q2098.6406,101.1563 2098.2656,101.1563 Q2097.9219,101.1563 2097.7188,100.9531 Q2097.5156,100.7656 2097.4063,100.25 Q2097.3594,99.8906 2097.1719,99.7031 Q2096.8438,99.3281 2096.2344,99.1094 Q2095.625,98.8906 2095,98.8906 Q2094.2344,98.8906 2093.5938,99.2188 Q2092.9688,99.5469 2092.4688,100.2969 Q2091.9844,101.0469 2091.9844,102.0781 L2091.9844,103.1719 Q2091.9844,104.4063 2092.875,105.2344 Q2093.7656,106.0469 2095.3594,106.0469 Q2096.2969,106.0469 2096.9531,105.7969 Q2097.3438,105.6406 2097.7656,105.2031 Q2098.0313,104.9375 2098.1719,104.8594 Q2098.3281,104.7813 2098.5313,104.7813 Q2098.8594,104.7813 2099.1094,105.0469 Q2099.375,105.2969 2099.375,105.6406 Q2099.375,105.9844 2099.0313,106.3906 Q2098.5313,106.9688 2097.7344,107.2969 Q2096.6563,107.75 2095.3594,107.75 Q2093.8438,107.75 2092.6406,107.125 Q2091.6563,106.625 2090.9688,105.5625 Q2090.2813,104.4844 2090.2813,103.2031 L2090.2813,102.0469 Q2090.2813,100.7188 2090.8906,99.5781 Q2091.5156,98.4219 2092.6094,97.8125 Q2093.7031,97.1875 2094.9375,97.1875 Q2095.6719,97.1875 2096.3125,97.3594 Q2096.9688,97.5156 2097.5156,97.875 Z " fill="#000000"/><text fill="#000000" font-family="sans-serif" font-size="14" lengthAdjust="spacing" textLength="86" x="2115.25" y="107.7285">DataManager</text><line style="stroke:#181818;stroke-width:0.5;" x1="1930" x2="2354" y1="118" y2="118"/><rect fill="none" height="6" style="stroke:#C82930;stroke-width:1.0;" width="6" x="1937" y="129.3047"/><text fill="#000000" font-family="sans-serif" font-size="14" lengthAdjust="spacing" textLength="194" x="1949" y="136.5332">clientChannel : SocketChannel</text><rect fill="none" height="6" style="stroke:#C82930;stroke-width:1.0;" width="6" x="1937" y="146.9141"/><text fill="#000000" font-family="sans-serif" font-size="14" lengthAdjust="spacing" textLength="76" x="1949" y="154.1426">host : String</text><rect fill="none" height="6" style="stroke:#C82930;stroke-width:1.0;" width="6" x="1937" y="164.5234"/><text fill="#000000" font-family="sans-serif" font-size="14" lengthAdjust="spacing" textLength="52" x="1949" y="171.752">port : int</text><line style="stroke:#181818;stroke-width:0.5;" x1="1930" x2="2354" y1="178.8281" y2="178.8281"/><ellipse cx="1940" cy="193.1328" fill="#84BE84" rx="3" ry="3" style="stroke:#038048;stroke-width:1.0;"/><text fill="#000000" font-family="sans-serif" font-size="14" lengthAdjust="spacing" textLength="232" x="1949" y="197.3613">DataManager(host : String, port : int)</text><ellipse cx="1940" cy="210.7422" fill="#84BE84" rx="3" ry="3" style="stroke:#038048;stroke-width:1.0;"/><text fill="#000000" font-family="sans-serif" font-size="14" lengthAdjust="spacing" textLength="400" x="1949" y="214.9707">sendRequest(request : CommandRequest) : CommandRequest</text><ellipse cx="1940" cy="228.3516" fill="#84BE84" rx="3" ry="3" style="stroke:#038048;stroke-width:1.0;"/><text fill="#000000" font-family="sans-serif" font-size="14" lengthAdjust="spacing" textLength="147" x="1949" y="232.5801">is_available() : boolean</text><ellipse cx="1940" cy="245.9609" fill="#84BE84" rx="3" ry="3" style="stroke:#038048;stroke-width:1.0;"/><text fill="#000000" font-family="sans-serif" font-size="14" lengthAdjust="spacing" textLength="98" x="1949" y="250.1895">connect() : void</text><ellipse cx="1940" cy="263.5703" fill="#84BE84" rx="3" ry="3" style="stroke:#038048;stroke-width:1.0;"/><text fill="#000000" font-family="sans-serif" font-size="14" lengthAdjust="spacing" textLength="111" x="1949" y="267.7988">reconnect() : void</text><ellipse cx="1940" cy="281.1797" fill="#84BE84" rx="3" ry="3" style="stroke:#038048;stroke-width:1.0;"/><text fill="#000000" font-family="sans-serif" font-size="14" lengthAdjust="spacing" textLength="81" x="1949" y="285.4082">close() : void</text></g><!--link ExecuteScript to Command--><g id="link_ExecuteScript_Command"><path codeLine="43" d="M1665.39,230.61 C1630.39,293.47 1570.4663,401.0834 1518.6463,494.1534 " fill="none" id="ExecuteScript-to-Command" style="stroke:#181818;stroke-width:1.0;"/><polygon fill="none" points="1509.89,509.88,1523.8886,497.0722,1513.4041,491.2346,1509.89,509.88" style="stroke:#181818;stroke-width:1.0;"/></g><!--link Exit to Command--><g id="link_Exit_Command"><path codeLine="44" d="M1297.77,230.61 C1320.63,293.47 1359.3292,399.8935 1393.1692,492.9635 " fill="none" id="Exit-to-Command" style="stroke:#181818;stroke-width:1.0;"/><polygon fill="none" points="1399.32,509.88,1398.808,490.9132,1387.5304,495.0138,1399.32,509.88" style="stroke:#181818;stroke-width:1.0;"/></g><!--link Help to Command--><g id="link_Help_Command"><path codeLine="45" d="M930.14,230.61 C1010.87,293.47 1155.0384,405.7504 1274.5484,498.8204 " fill="none" id="Help-to-Command" style="stroke:#181818;stroke-width:1.0;"/><polygon fill="none" points="1288.75,509.88,1278.235,494.0865,1270.8619,503.5542,1288.75,509.88" style="stroke:#181818;stroke-width:1.0;"/></g><!--link ClientEnviroment to Enviroment--><g id="link_ClientEnviroment_Enviroment"><path codeLine="73" d="M2701.69,292.05 C2478.82,390.81 2170.8069,527.2881 2027.7669,590.6681 " fill="none" id="ClientEnviroment-to-Enviroment" style="stroke:#181818;stroke-width:1.0;"/><polygon fill="none" points="2011.31,597.96,2030.1975,596.1537,2025.3362,585.1825,2011.31,597.96" style="stroke:#181818;stroke-width:1.0;"/></g><!--SRC=[pLR1Zjem4Btp5P5wIRJ01wpGLeYbuh3RhfPZLLN6cGLhZPtQ1fLk-VUEuvWuJWAqFRGvG3AUyJpFl9bnGUWhMKEoCuphv6sGu5DKCYgtMo9oBxOFvKJhPEOM0hbzHeaWMqXkawLHJAoZjHmqLQmmJ8e-5QBMkoq8er5XgXGvF31j9jDAEdb_TzSmU9U0s3CbxI9Qp4yV3QqRZpPje1js0ieYKmsctZRjSPVXL-KZmiS4CmXVftWoTwZJKQpHNh8yShW6Pv1T5uBIu2EUgpJe26gfS5-Vj5_lZQoqKOIQOmBVWUuCUDGBeZUFf9XKWNFOQt1ENECw3jnlWqeR30u7rQPI7SQ8JJSUXazVnSOwsCFa7C3ea1uLuZhHcxFQxKNEpnsQPHd95jR6wfymxMzZtaBBka2o_m7R0dZHmcQ5_nHRsG37FlrZt-8cFqUxOZGQDJFy6rRiUcKRWwxYGItywoYUMSdWtX8QUJOlNFNLfLC98crDYH3MJoDaJXZtdTXrUi5LrcvBJOKqEm-lDB68FhqyC04wVM4S8i9mkp3b2aX-UCQVhjmF4sjuMKjXkfL6wis5KOSdoSgk_wGWPvGOy8hd-UM0apolefXM8RQOtLl_7F0cMQtSgwIN1hcoP3_S862j6LZ88joluR5LeFV4a4V7kJQZohpFDdOlRf59-Wh-EzBTI6twPdqXbUb46ZXF6niC0vlsd1RvCtpRWJQfSlyrcwg5h2M9Dc7wAzaJnicAkp2kfEH0HAH69HwLchGdSyYRymgKImrdi-3wX1-Puw2-JwqYBh-mROIz8SWVNi62lDw6WGvq6dUSJYzEZylr1woZTdfn2wMaGYcGRLanc2_tDOZRHt-2Xoq7MM2j3L4TyKMQAqb1wskeq6Uf2oaeeAbzqN2DhUqavQtjh547zpeIDYt2sOZNCZohOVI8Gu09F-LSH3v_QM2nTvjV]--></g></svg>