<?xml version="1.0" encoding="us-ascii" standalone="no"?><svg xmlns="http://www.w3.org/2000/svg" xmlns:xlink="http://www.w3.org/1999/xlink" contentStyleType="text/css" height="1046px" preserveAspectRatio="none" style="width:5546px;height:1046px;background:#FFFFFF;" version="1.1" viewBox="0 0 5546 1046" width="5546px" zoomAndPan="magnify"><defs/><g><!--cluster utils--><g id="cluster_utils"><path d="M8.5,6 L39.5,6 A3.75,3.75 0 0 1 42,8.5 L49,29.6094 L5536.5,29.6094 A2.5,2.5 0 0 1 5539,32.1094 L5539,1036.5 A2.5,2.5 0 0 1 5536.5,1039 L8.5,1039 A2.5,2.5 0 0 1 6,1036.5 L6,8.5 A2.5,2.5 0 0 1 8.5,6 " fill="none" style="stroke:#000000;stroke-width:1.5;"/><line style="stroke:#000000;stroke-width:1.5;" x1="6" x2="49" y1="29.6094" y2="29.6094"/><text fill="#000000" font-family="sans-serif" font-size="14" font-weight="bold" lengthAdjust="spacing" textLength="30" x="10" y="22.5332">utils</text></g><!--cluster commands--><g id="cluster_commands"><path d="M4165.5,226 L4241.5,226 A3.75,3.75 0 0 1 4244,228.5 L4251,249.6094 L5512.5,249.6094 A2.5,2.5 0 0 1 5515,252.1094 L5515,517.5 A2.5,2.5 0 0 1 5512.5,520 L4165.5,520 A2.5,2.5 0 0 1 4163,517.5 L4163,228.5 A2.5,2.5 0 0 1 4165.5,226 " fill="none" style="stroke:#000000;stroke-width:1.5;"/><line style="stroke:#000000;stroke-width:1.5;" x1="4163" x2="4251" y1="249.6094" y2="249.6094"/><text fill="#000000" font-family="sans-serif" font-size="14" font-weight="bold" lengthAdjust="spacing" textLength="75" x="4167" y="242.5332">commands</text></g><!--cluster types--><g id="cluster_types"><path d="M5337.5,323 L5376.5,323 A3.75,3.75 0 0 1 5379,325.5 L5386,346.6094 L5488.5,346.6094 A2.5,2.5 0 0 1 5491,349.1094 L5491,420.5 A2.5,2.5 0 0 1 5488.5,423 L5337.5,423 A2.5,2.5 0 0 1 5335,420.5 L5335,325.5 A2.5,2.5 0 0 1 5337.5,323 " fill="none" style="stroke:#000000;stroke-width:1.5;"/><line style="stroke:#000000;stroke-width:1.5;" x1="5335" x2="5386" y1="346.6094" y2="346.6094"/><text fill="#000000" font-family="sans-serif" font-size="14" font-weight="bold" lengthAdjust="spacing" textLength="38" x="5339" y="339.5332">types</text></g><!--cluster exceptions--><g id="cluster_exceptions"><path d="M5123.5,323 L5202.5,323 A3.75,3.75 0 0 1 5205,325.5 L5212,346.6094 L5308.5,346.6094 A2.5,2.5 0 0 1 5311,349.1094 L5311,420.5 A2.5,2.5 0 0 1 5308.5,423 L5123.5,423 A2.5,2.5 0 0 1 5121,420.5 L5121,325.5 A2.5,2.5 0 0 1 5123.5,323 " fill="none" style="stroke:#000000;stroke-width:1.5;"/><line style="stroke:#000000;stroke-width:1.5;" x1="5121" x2="5212" y1="346.6094" y2="346.6094"/><text fill="#000000" font-family="sans-serif" font-size="14" font-weight="bold" lengthAdjust="spacing" textLength="78" x="5125" y="339.5332">exceptions</text></g><!--cluster handlers--><g id="cluster_handlers"><path d="M3244.5,288 L3307.5,288 A3.75,3.75 0 0 1 3310,290.5 L3317,311.6094 L4136.5,311.6094 A2.5,2.5 0 0 1 4139,314.1094 L4139,455.5 A2.5,2.5 0 0 1 4136.5,458 L3244.5,458 A2.5,2.5 0 0 1 3242,455.5 L3242,290.5 A2.5,2.5 0 0 1 3244.5,288 " fill="none" style="stroke:#000000;stroke-width:1.5;"/><line style="stroke:#000000;stroke-width:1.5;" x1="3242" x2="3317" y1="311.6094" y2="311.6094"/><text fill="#000000" font-family="sans-serif" font-size="14" font-weight="bold" lengthAdjust="spacing" textLength="62" x="3246" y="304.5332">handlers</text></g><!--cluster request--><g id="cluster_request"><path d="M2657.5,182 L2713.5,182 A3.75,3.75 0 0 1 2716,184.5 L2723,205.6094 L3215.5,205.6094 A2.5,2.5 0 0 1 3218,208.1094 L3218,561.5 A2.5,2.5 0 0 1 3215.5,564 L2657.5,564 A2.5,2.5 0 0 1 2655,561.5 L2655,184.5 A2.5,2.5 0 0 1 2657.5,182 " fill="none" style="stroke:#000000;stroke-width:1.5;"/><line style="stroke:#000000;stroke-width:1.5;" x1="2655" x2="2723" y1="205.6094" y2="205.6094"/><text fill="#000000" font-family="sans-serif" font-size="14" font-weight="bold" lengthAdjust="spacing" textLength="55" x="2659" y="198.5332">request</text></g><!--cluster caster--><g id="cluster_caster"><path d="M2020.5,314 L2065.5,314 A3.75,3.75 0 0 1 2068,316.5 L2075,337.6094 L2628.5,337.6094 A2.5,2.5 0 0 1 2631,340.1094 L2631,429.5 A2.5,2.5 0 0 1 2628.5,432 L2020.5,432 A2.5,2.5 0 0 1 2018,429.5 L2018,316.5 A2.5,2.5 0 0 1 2020.5,314 " fill="none" style="stroke:#000000;stroke-width:1.5;"/><line style="stroke:#000000;stroke-width:1.5;" x1="2018" x2="2075" y1="337.6094" y2="337.6094"/><text fill="#000000" font-family="sans-serif" font-size="14" font-weight="bold" lengthAdjust="spacing" textLength="44" x="2022" y="330.5332">caster</text></g><!--cluster database--><g id="cluster_database"><path d="M32.5,50 L97.5,50 A3.75,3.75 0 0 1 100,52.5 L107,73.6094 L1991.5,73.6094 A2.5,2.5 0 0 1 1994,76.1094 L1994,1012.5 A2.5,2.5 0 0 1 1991.5,1015 L32.5,1015 A2.5,2.5 0 0 1 30,1012.5 L30,52.5 A2.5,2.5 0 0 1 32.5,50 " fill="none" style="stroke:#000000;stroke-width:1.5;"/><line style="stroke:#000000;stroke-width:1.5;" x1="30" x2="107" y1="73.6094" y2="73.6094"/><text fill="#000000" font-family="sans-serif" font-size="14" font-weight="bold" lengthAdjust="spacing" textLength="64" x="34" y="66.5332">database</text></g><!--cluster components--><g id="cluster_components"><path d="M1263.5,217.5 L1351.5,217.5 A3.75,3.75 0 0 1 1354,220 L1361,241.1094 L1967.5,241.1094 A2.5,2.5 0 0 1 1970,243.6094 L1970,966 A2.5,2.5 0 0 1 1967.5,968.5 L1263.5,968.5 A2.5,2.5 0 0 1 1261,966 L1261,220 A2.5,2.5 0 0 1 1263.5,217.5 " fill="none" style="stroke:#000000;stroke-width:1.5;"/><line style="stroke:#000000;stroke-width:1.5;" x1="1261" x2="1361" y1="241.1094" y2="241.1094"/><text fill="#000000" font-family="sans-serif" font-size="14" font-weight="bold" lengthAdjust="spacing" textLength="87" x="1265" y="234.0332">components</text></g><!--cluster vehicle--><g id="cluster_vehicle"><path d="M1287.5,261.5 L1340.5,261.5 A3.75,3.75 0 0 1 1343,264 L1350,285.1094 L1943.5,285.1094 A2.5,2.5 0 0 1 1946,287.6094 L1946,942 A2.5,2.5 0 0 1 1943.5,944.5 L1287.5,944.5 A2.5,2.5 0 0 1 1285,942 L1285,264 A2.5,2.5 0 0 1 1287.5,261.5 " fill="none" style="stroke:#000000;stroke-width:1.5;"/><line style="stroke:#000000;stroke-width:1.5;" x1="1285" x2="1350" y1="285.1094" y2="285.1094"/><text fill="#000000" font-family="sans-serif" font-size="14" font-weight="bold" lengthAdjust="spacing" textLength="52" x="1289" y="278.0332">vehicle</text></g><!--class Argument--><g id="elem_Argument"><rect codeLine="12" fill="#F1F1F1" height="206.4844" id="Argument" rx="2.5" ry="2.5" style="stroke:#181818;stroke-width:0.5;" width="516" x="4586" y="280"/><ellipse cx="4809.25" cy="296" fill="#ADD1B2" rx="11" ry="11" style="stroke:#181818;stroke-width:1.0;"/><path d="M4812.0156,291.875 Q4812.1719,291.6563 4812.3594,291.5469 Q4812.5469,291.4375 4812.7656,291.4375 Q4813.1406,291.4375 4813.375,291.7031 Q4813.6094,291.9531 4813.6094,292.5625 L4813.6094,294.0156 Q4813.6094,294.625 4813.375,294.8906 Q4813.1406,295.1563 4812.7656,295.1563 Q4812.4219,295.1563 4812.2188,294.9531 Q4812.0156,294.7656 4811.9063,294.25 Q4811.8594,293.8906 4811.6719,293.7031 Q4811.3438,293.3281 4810.7344,293.1094 Q4810.125,292.8906 4809.5,292.8906 Q4808.7344,292.8906 4808.0938,293.2188 Q4807.4688,293.5469 4806.9688,294.2969 Q4806.4844,295.0469 4806.4844,296.0781 L4806.4844,297.1719 Q4806.4844,298.4063 4807.375,299.2344 Q4808.2656,300.0469 4809.8594,300.0469 Q4810.7969,300.0469 4811.4531,299.7969 Q4811.8438,299.6406 4812.2656,299.2031 Q4812.5313,298.9375 4812.6719,298.8594 Q4812.8281,298.7813 4813.0313,298.7813 Q4813.3594,298.7813 4813.6094,299.0469 Q4813.875,299.2969 4813.875,299.6406 Q4813.875,299.9844 4813.5313,300.3906 Q4813.0313,300.9688 4812.2344,301.2969 Q4811.1563,301.75 4809.8594,301.75 Q4808.3438,301.75 4807.1406,301.125 Q4806.1563,300.625 4805.4688,299.5625 Q4804.7813,298.4844 4804.7813,297.2031 L4804.7813,296.0469 Q4804.7813,294.7188 4805.3906,293.5781 Q4806.0156,292.4219 4807.1094,291.8125 Q4808.2031,291.1875 4809.4375,291.1875 Q4810.1719,291.1875 4810.8125,291.3594 Q4811.4688,291.5156 4812.0156,291.875 Z " fill="#000000"/><text fill="#000000" font-family="sans-serif" font-size="14" lengthAdjust="spacing" textLength="61" x="4829.75" y="301.7285">Argument</text><line style="stroke:#181818;stroke-width:0.5;" x1="4587" x2="5101" y1="312" y2="312"/><rect fill="none" height="6" style="stroke:#C82930;stroke-width:1.0;" width="6" x="4594" y="323.3047"/><text fill="#000000" font-family="sans-serif" font-size="14" lengthAdjust="spacing" textLength="84" x="4606" y="330.5332">name : String</text><rect fill="none" height="6" style="stroke:#C82930;stroke-width:1.0;" width="6" x="4594" y="340.9141"/><text fill="#000000" font-family="sans-serif" font-size="14" lengthAdjust="spacing" textLength="111" x="4606" y="348.1426">decription : String</text><rect fill="none" height="6" style="stroke:#C82930;stroke-width:1.0;" width="6" x="4594" y="358.5234"/><text fill="#000000" font-family="sans-serif" font-size="14" lengthAdjust="spacing" textLength="55" x="4606" y="365.752">value : T</text><rect fill="none" height="6" style="stroke:#C82930;stroke-width:1.0;" width="6" x="4594" y="376.1328"/><text fill="#000000" font-family="sans-serif" font-size="14" lengthAdjust="spacing" textLength="208" x="4606" y="383.3613">castToType : Function&lt;String,T&gt;</text><line style="stroke:#181818;stroke-width:0.5;" x1="4587" x2="5101" y1="390.4375" y2="390.4375"/><ellipse cx="4597" cy="404.7422" fill="#84BE84" rx="3" ry="3" style="stroke:#038048;stroke-width:1.0;"/><text fill="#000000" font-family="sans-serif" font-size="14" lengthAdjust="spacing" textLength="490" x="4606" y="408.9707">Argument(name : String, decription : String, castToType : Function&lt;String,T&gt;)</text><ellipse cx="4597" cy="422.3516" fill="#84BE84" rx="3" ry="3" style="stroke:#038048;stroke-width:1.0;"/><text fill="#000000" font-family="sans-serif" font-size="14" lengthAdjust="spacing" textLength="186" x="4606" y="426.5801">setValue(value : String) : void</text><ellipse cx="4597" cy="439.9609" fill="#84BE84" rx="3" ry="3" style="stroke:#038048;stroke-width:1.0;"/><text fill="#000000" font-family="sans-serif" font-size="14" lengthAdjust="spacing" textLength="87" x="4606" y="444.1895">getValue() : T</text><ellipse cx="4597" cy="457.5703" fill="#84BE84" rx="3" ry="3" style="stroke:#038048;stroke-width:1.0;"/><text fill="#000000" font-family="sans-serif" font-size="14" lengthAdjust="spacing" textLength="115" x="4606" y="461.7988">getName() : String</text><ellipse cx="4597" cy="475.1797" fill="#84BE84" rx="3" ry="3" style="stroke:#038048;stroke-width:1.0;"/><text fill="#000000" font-family="sans-serif" font-size="14" lengthAdjust="spacing" textLength="150" x="4606" y="479.4082">getDescription() : String</text></g><!--class Command--><g id="elem_Command"><rect codeLine="24" fill="#F1F1F1" height="241.7031" id="Command" rx="2.5" ry="2.5" style="stroke:#181818;stroke-width:0.5;" width="372" x="4179" y="262"/><ellipse cx="4328.75" cy="278" fill="#ADD1B2" rx="11" ry="11" style="stroke:#181818;stroke-width:1.0;"/><path d="M4331.5156,273.875 Q4331.6719,273.6563 4331.8594,273.5469 Q4332.0469,273.4375 4332.2656,273.4375 Q4332.6406,273.4375 4332.875,273.7031 Q4333.1094,273.9531 4333.1094,274.5625 L4333.1094,276.0156 Q4333.1094,276.625 4332.875,276.8906 Q4332.6406,277.1563 4332.2656,277.1563 Q4331.9219,277.1563 4331.7188,276.9531 Q4331.5156,276.7656 4331.4063,276.25 Q4331.3594,275.8906 4331.1719,275.7031 Q4330.8438,275.3281 4330.2344,275.1094 Q4329.625,274.8906 4329,274.8906 Q4328.2344,274.8906 4327.5938,275.2188 Q4326.9688,275.5469 4326.4688,276.2969 Q4325.9844,277.0469 4325.9844,278.0781 L4325.9844,279.1719 Q4325.9844,280.4063 4326.875,281.2344 Q4327.7656,282.0469 4329.3594,282.0469 Q4330.2969,282.0469 4330.9531,281.7969 Q4331.3438,281.6406 4331.7656,281.2031 Q4332.0313,280.9375 4332.1719,280.8594 Q4332.3281,280.7813 4332.5313,280.7813 Q4332.8594,280.7813 4333.1094,281.0469 Q4333.375,281.2969 4333.375,281.6406 Q4333.375,281.9844 4333.0313,282.3906 Q4332.5313,282.9688 4331.7344,283.2969 Q4330.6563,283.75 4329.3594,283.75 Q4327.8438,283.75 4326.6406,283.125 Q4325.6563,282.625 4324.9688,281.5625 Q4324.2813,280.4844 4324.2813,279.2031 L4324.2813,278.0469 Q4324.2813,276.7188 4324.8906,275.5781 Q4325.5156,274.4219 4326.6094,273.8125 Q4327.7031,273.1875 4328.9375,273.1875 Q4329.6719,273.1875 4330.3125,273.3594 Q4330.9688,273.5156 4331.5156,273.875 Z " fill="#000000"/><text fill="#000000" font-family="sans-serif" font-size="14" lengthAdjust="spacing" textLength="64" x="4349.25" y="283.7285">Command</text><line style="stroke:#181818;stroke-width:0.5;" x1="4180" x2="4550" y1="294" y2="294"/><rect fill="none" height="6" style="stroke:#C82930;stroke-width:1.0;" width="6" x="4187" y="305.3047"/><text fill="#000000" font-family="sans-serif" font-size="14" lengthAdjust="spacing" textLength="84" x="4199" y="312.5332">name : String</text><rect fill="none" height="6" style="stroke:#C82930;stroke-width:1.0;" width="6" x="4187" y="322.9141"/><text fill="#000000" font-family="sans-serif" font-size="14" lengthAdjust="spacing" textLength="118" x="4199" y="330.1426">description : String</text><rect fill="none" height="6" style="stroke:#C82930;stroke-width:1.0;" width="6" x="4187" y="340.5234"/><text fill="#000000" font-family="sans-serif" font-size="14" lengthAdjust="spacing" textLength="236" x="4199" y="347.752">arguments : ArrayList&lt;Argument&lt;?&gt;&gt;</text><polygon fill="none" points="4190,356.1328,4194,360.1328,4190,364.1328,4186,360.1328" style="stroke:#B38D22;stroke-width:1.0;"/><text fill="#000000" font-family="sans-serif" font-size="14" lengthAdjust="spacing" textLength="153" x="4199" y="365.3613">enviroment : Enviroment</text><line style="stroke:#181818;stroke-width:0.5;" x1="4180" x2="4550" y1="372.4375" y2="372.4375"/><ellipse cx="4190" cy="386.7422" fill="#84BE84" rx="3" ry="3" style="stroke:#038048;stroke-width:1.0;"/><text fill="#000000" font-family="sans-serif" font-size="14" lengthAdjust="spacing" textLength="284" x="4199" y="390.9707">Command(name : String, description : String)</text><ellipse cx="4190" cy="404.3516" fill="#84BE84" rx="3" ry="3" style="stroke:#038048;stroke-width:1.0;"/><text fill="#000000" font-family="sans-serif" font-size="14" lengthAdjust="spacing" textLength="329" x="4199" y="408.5801">setEnviroment(enviroment : Enviroment) : Command</text><polygon fill="#FFFF44" points="4190,416.9609,4194,420.9609,4190,424.9609,4186,420.9609" style="stroke:#B38D22;stroke-width:1.0;"/><text fill="#000000" font-family="sans-serif" font-size="14" lengthAdjust="spacing" textLength="220" x="4199" y="426.1895">initArgs(args : Argument&lt;?&gt;) : void</text><ellipse cx="4190" cy="439.5703" fill="#84BE84" rx="3" ry="3" style="stroke:#038048;stroke-width:1.0;"/><text fill="#000000" font-family="sans-serif" font-size="14" lengthAdjust="spacing" textLength="228" x="4199" y="443.7988">getArgs() : ArrayList&lt;Argument&lt;?&gt;&gt;</text><ellipse cx="4190" cy="457.1797" fill="#84BE84" rx="3" ry="3" style="stroke:#038048;stroke-width:1.0;"/><text fill="#000000" font-family="sans-serif" font-size="14" lengthAdjust="spacing" textLength="115" x="4199" y="461.4082">getName() : String</text><ellipse cx="4190" cy="474.7891" fill="#84BE84" rx="3" ry="3" style="stroke:#038048;stroke-width:1.0;"/><text fill="#000000" font-family="sans-serif" font-size="14" lengthAdjust="spacing" textLength="150" x="4199" y="479.0176">getDescription() : String</text><ellipse cx="4190" cy="492.3984" fill="#84BE84" rx="3" ry="3" style="stroke:#038048;stroke-width:1.0;"/><text fill="#000000" font-family="sans-serif" font-size="14" font-style="italic" lengthAdjust="spacing" textLength="346" x="4199" y="496.627">execute(args : HashMap&lt;String,?&gt;) : ArrayList&lt;String&gt;</text></g><!--class OnlyForServer--><g id="elem_OnlyForServer"><rect codeLine="5" fill="#F1F1F1" height="48" id="OnlyForServer" rx="2.5" ry="2.5" style="stroke:#181818;stroke-width:0.5;" width="124" x="5351" y="359"/><ellipse cx="5366" cy="375" fill="#B4A7E5" rx="11" ry="11" style="stroke:#181818;stroke-width:1.0;"/><path d="M5366.9531,371.6406 L5366.9531,378.2969 L5368.6719,378.2969 Q5369.2813,378.2969 5369.5469,378.5313 Q5369.8125,378.7656 5369.8125,379.1563 Q5369.8125,379.5313 5369.5469,379.7656 Q5369.2813,380 5368.6719,380 L5363.5313,380 Q5362.9219,380 5362.6563,379.7656 Q5362.3906,379.5313 5362.3906,379.1406 Q5362.3906,378.7656 5362.6563,378.5313 Q5362.9219,378.2969 5363.5313,378.2969 L5365.25,378.2969 L5365.25,371.6406 L5363.5313,371.6406 Q5362.9219,371.6406 5362.6563,371.4063 Q5362.3906,371.1719 5362.3906,370.7813 Q5362.3906,370.4063 5362.6563,370.1719 Q5362.9219,369.9375 5363.5313,369.9375 L5368.6719,369.9375 Q5369.2813,369.9375 5369.5469,370.1719 Q5369.8125,370.4063 5369.8125,370.7813 Q5369.8125,371.1719 5369.5469,371.4063 Q5369.2813,371.6406 5368.6719,371.6406 L5366.9531,371.6406 Z " fill="#000000"/><text fill="#000000" font-family="sans-serif" font-size="14" font-style="italic" lengthAdjust="spacing" textLength="92" x="5380" y="380.7285">OnlyForServer</text><line style="stroke:#181818;stroke-width:0.5;" x1="5352" x2="5474" y1="391" y2="391"/><line style="stroke:#181818;stroke-width:0.5;" x1="5352" x2="5474" y1="399" y2="399"/></g><!--class TerminateException--><g id="elem_TerminateException"><rect codeLine="9" fill="#F1F1F1" height="48" id="TerminateException" rx="2.5" ry="2.5" style="stroke:#181818;stroke-width:0.5;" width="157" x="5137.5" y="359"/><ellipse cx="5152.5" cy="375" fill="#ADD1B2" rx="11" ry="11" style="stroke:#181818;stroke-width:1.0;"/><path d="M5155.2656,370.875 Q5155.4219,370.6563 5155.6094,370.5469 Q5155.7969,370.4375 5156.0156,370.4375 Q5156.3906,370.4375 5156.625,370.7031 Q5156.8594,370.9531 5156.8594,371.5625 L5156.8594,373.0156 Q5156.8594,373.625 5156.625,373.8906 Q5156.3906,374.1563 5156.0156,374.1563 Q5155.6719,374.1563 5155.4688,373.9531 Q5155.2656,373.7656 5155.1563,373.25 Q5155.1094,372.8906 5154.9219,372.7031 Q5154.5938,372.3281 5153.9844,372.1094 Q5153.375,371.8906 5152.75,371.8906 Q5151.9844,371.8906 5151.3438,372.2188 Q5150.7188,372.5469 5150.2188,373.2969 Q5149.7344,374.0469 5149.7344,375.0781 L5149.7344,376.1719 Q5149.7344,377.4063 5150.625,378.2344 Q5151.5156,379.0469 5153.1094,379.0469 Q5154.0469,379.0469 5154.7031,378.7969 Q5155.0938,378.6406 5155.5156,378.2031 Q5155.7813,377.9375 5155.9219,377.8594 Q5156.0781,377.7813 5156.2813,377.7813 Q5156.6094,377.7813 5156.8594,378.0469 Q5157.125,378.2969 5157.125,378.6406 Q5157.125,378.9844 5156.7813,379.3906 Q5156.2813,379.9688 5155.4844,380.2969 Q5154.4063,380.75 5153.1094,380.75 Q5151.5938,380.75 5150.3906,380.125 Q5149.4063,379.625 5148.7188,378.5625 Q5148.0313,377.4844 5148.0313,376.2031 L5148.0313,375.0469 Q5148.0313,373.7188 5148.6406,372.5781 Q5149.2656,371.4219 5150.3594,370.8125 Q5151.4531,370.1875 5152.6875,370.1875 Q5153.4219,370.1875 5154.0625,370.3594 Q5154.7188,370.5156 5155.2656,370.875 Z " fill="#000000"/><text fill="#000000" font-family="sans-serif" font-size="14" lengthAdjust="spacing" textLength="125" x="5166.5" y="380.7285">TerminateException</text><line style="stroke:#181818;stroke-width:0.5;" x1="5138.5" x2="5293.5" y1="391" y2="391"/><line style="stroke:#181818;stroke-width:0.5;" x1="5138.5" x2="5293.5" y1="399" y2="399"/></g><!--class CommandHandler--><g id="elem_CommandHandler"><rect codeLine="40" fill="#F1F1F1" height="118.4375" id="CommandHandler" rx="2.5" ry="2.5" style="stroke:#181818;stroke-width:0.5;" width="322" x="3801" y="324"/><ellipse cx="3901.25" cy="340" fill="#ADD1B2" rx="11" ry="11" style="stroke:#181818;stroke-width:1.0;"/><path d="M3904.0156,335.875 Q3904.1719,335.6563 3904.3594,335.5469 Q3904.5469,335.4375 3904.7656,335.4375 Q3905.1406,335.4375 3905.375,335.7031 Q3905.6094,335.9531 3905.6094,336.5625 L3905.6094,338.0156 Q3905.6094,338.625 3905.375,338.8906 Q3905.1406,339.1563 3904.7656,339.1563 Q3904.4219,339.1563 3904.2188,338.9531 Q3904.0156,338.7656 3903.9063,338.25 Q3903.8594,337.8906 3903.6719,337.7031 Q3903.3438,337.3281 3902.7344,337.1094 Q3902.125,336.8906 3901.5,336.8906 Q3900.7344,336.8906 3900.0938,337.2188 Q3899.4688,337.5469 3898.9688,338.2969 Q3898.4844,339.0469 3898.4844,340.0781 L3898.4844,341.1719 Q3898.4844,342.4063 3899.375,343.2344 Q3900.2656,344.0469 3901.8594,344.0469 Q3902.7969,344.0469 3903.4531,343.7969 Q3903.8438,343.6406 3904.2656,343.2031 Q3904.5313,342.9375 3904.6719,342.8594 Q3904.8281,342.7813 3905.0313,342.7813 Q3905.3594,342.7813 3905.6094,343.0469 Q3905.875,343.2969 3905.875,343.6406 Q3905.875,343.9844 3905.5313,344.3906 Q3905.0313,344.9688 3904.2344,345.2969 Q3903.1563,345.75 3901.8594,345.75 Q3900.3438,345.75 3899.1406,345.125 Q3898.1563,344.625 3897.4688,343.5625 Q3896.7813,342.4844 3896.7813,341.2031 L3896.7813,340.0469 Q3896.7813,338.7188 3897.3906,337.5781 Q3898.0156,336.4219 3899.1094,335.8125 Q3900.2031,335.1875 3901.4375,335.1875 Q3902.1719,335.1875 3902.8125,335.3594 Q3903.4688,335.5156 3904.0156,335.875 Z " fill="#000000"/><text fill="#000000" font-family="sans-serif" font-size="14" lengthAdjust="spacing" textLength="113" x="3921.75" y="345.7285">CommandHandler</text><line style="stroke:#181818;stroke-width:0.5;" x1="3802" x2="4122" y1="356" y2="356"/><rect fill="none" height="6" style="stroke:#C82930;stroke-width:1.0;" width="6" x="3809" y="367.3047"/><text fill="#000000" font-family="sans-serif" font-size="14" lengthAdjust="spacing" textLength="260" x="3821" y="374.5332">commands : HashMap&lt;String,Command&gt;</text><line style="stroke:#181818;stroke-width:0.5;" x1="3802" x2="4122" y1="381.6094" y2="381.6094"/><ellipse cx="3812" cy="395.9141" fill="#84BE84" rx="3" ry="3" style="stroke:#038048;stroke-width:1.0;"/><text fill="#000000" font-family="sans-serif" font-size="14" lengthAdjust="spacing" textLength="296" x="3821" y="400.1426">add(command : Command) : CommandHandler</text><ellipse cx="3812" cy="413.5234" fill="#84BE84" rx="3" ry="3" style="stroke:#038048;stroke-width:1.0;"/><text fill="#000000" font-family="sans-serif" font-size="14" lengthAdjust="spacing" textLength="254" x="3821" y="417.752">getCommand(name : String) : Command</text><ellipse cx="3812" cy="431.1328" fill="#84BE84" rx="3" ry="3" style="stroke:#038048;stroke-width:1.0;"/><text fill="#000000" font-family="sans-serif" font-size="14" lengthAdjust="spacing" textLength="270" x="3821" y="435.3613">getAllCommands() : Collection&lt;Command&gt;</text></g><!--class Enviroment--><g id="elem_Enviroment"><rect codeLine="47" fill="#F1F1F1" height="65.6094" id="Enviroment" rx="2.5" ry="2.5" style="stroke:#181818;stroke-width:0.5;" width="507" x="3258.5" y="350"/><ellipse cx="3472.25" cy="366" fill="#ADD1B2" rx="11" ry="11" style="stroke:#181818;stroke-width:1.0;"/><path d="M3475.0156,361.875 Q3475.1719,361.6563 3475.3594,361.5469 Q3475.5469,361.4375 3475.7656,361.4375 Q3476.1406,361.4375 3476.375,361.7031 Q3476.6094,361.9531 3476.6094,362.5625 L3476.6094,364.0156 Q3476.6094,364.625 3476.375,364.8906 Q3476.1406,365.1563 3475.7656,365.1563 Q3475.4219,365.1563 3475.2188,364.9531 Q3475.0156,364.7656 3474.9063,364.25 Q3474.8594,363.8906 3474.6719,363.7031 Q3474.3438,363.3281 3473.7344,363.1094 Q3473.125,362.8906 3472.5,362.8906 Q3471.7344,362.8906 3471.0938,363.2188 Q3470.4688,363.5469 3469.9688,364.2969 Q3469.4844,365.0469 3469.4844,366.0781 L3469.4844,367.1719 Q3469.4844,368.4063 3470.375,369.2344 Q3471.2656,370.0469 3472.8594,370.0469 Q3473.7969,370.0469 3474.4531,369.7969 Q3474.8438,369.6406 3475.2656,369.2031 Q3475.5313,368.9375 3475.6719,368.8594 Q3475.8281,368.7813 3476.0313,368.7813 Q3476.3594,368.7813 3476.6094,369.0469 Q3476.875,369.2969 3476.875,369.6406 Q3476.875,369.9844 3476.5313,370.3906 Q3476.0313,370.9688 3475.2344,371.2969 Q3474.1563,371.75 3472.8594,371.75 Q3471.3438,371.75 3470.1406,371.125 Q3469.1563,370.625 3468.4688,369.5625 Q3467.7813,368.4844 3467.7813,367.2031 L3467.7813,366.0469 Q3467.7813,364.7188 3468.3906,363.5781 Q3469.0156,362.4219 3470.1094,361.8125 Q3471.2031,361.1875 3472.4375,361.1875 Q3473.1719,361.1875 3473.8125,361.3594 Q3474.4688,361.5156 3475.0156,361.875 Z " fill="#000000"/><text fill="#000000" font-family="sans-serif" font-size="14" lengthAdjust="spacing" textLength="71" x="3492.75" y="371.7285">Enviroment</text><line style="stroke:#181818;stroke-width:0.5;" x1="3259.5" x2="3764.5" y1="382" y2="382"/><line style="stroke:#181818;stroke-width:0.5;" x1="3259.5" x2="3764.5" y1="390" y2="390"/><ellipse cx="3269.5" cy="404.3047" fill="#84BE84" rx="3" ry="3" style="stroke:#038048;stroke-width:1.0;"/><text fill="#000000" font-family="sans-serif" font-size="14" lengthAdjust="spacing" textLength="481" x="3278.5" y="408.5332">executeCommand(command : Command, args : HashMap&lt;String,?&gt;) : String</text></g><!--class CommandRequest--><g id="elem_CommandRequest"><rect codeLine="53" fill="#F1F1F1" height="329.75" id="CommandRequest" rx="2.5" ry="2.5" style="stroke:#181818;stroke-width:0.5;" width="370" x="2832" y="218"/><ellipse cx="2954.25" cy="234" fill="#ADD1B2" rx="11" ry="11" style="stroke:#181818;stroke-width:1.0;"/><path d="M2957.0156,229.875 Q2957.1719,229.6563 2957.3594,229.5469 Q2957.5469,229.4375 2957.7656,229.4375 Q2958.1406,229.4375 2958.375,229.7031 Q2958.6094,229.9531 2958.6094,230.5625 L2958.6094,232.0156 Q2958.6094,232.625 2958.375,232.8906 Q2958.1406,233.1563 2957.7656,233.1563 Q2957.4219,233.1563 2957.2188,232.9531 Q2957.0156,232.7656 2956.9063,232.25 Q2956.8594,231.8906 2956.6719,231.7031 Q2956.3438,231.3281 2955.7344,231.1094 Q2955.125,230.8906 2954.5,230.8906 Q2953.7344,230.8906 2953.0938,231.2188 Q2952.4688,231.5469 2951.9688,232.2969 Q2951.4844,233.0469 2951.4844,234.0781 L2951.4844,235.1719 Q2951.4844,236.4063 2952.375,237.2344 Q2953.2656,238.0469 2954.8594,238.0469 Q2955.7969,238.0469 2956.4531,237.7969 Q2956.8438,237.6406 2957.2656,237.2031 Q2957.5313,236.9375 2957.6719,236.8594 Q2957.8281,236.7813 2958.0313,236.7813 Q2958.3594,236.7813 2958.6094,237.0469 Q2958.875,237.2969 2958.875,237.6406 Q2958.875,237.9844 2958.5313,238.3906 Q2958.0313,238.9688 2957.2344,239.2969 Q2956.1563,239.75 2954.8594,239.75 Q2953.3438,239.75 2952.1406,239.125 Q2951.1563,238.625 2950.4688,237.5625 Q2949.7813,236.4844 2949.7813,235.2031 L2949.7813,234.0469 Q2949.7813,232.7188 2950.3906,231.5781 Q2951.0156,230.4219 2952.1094,229.8125 Q2953.2031,229.1875 2954.4375,229.1875 Q2955.1719,229.1875 2955.8125,229.3594 Q2956.4688,229.5156 2957.0156,229.875 Z " fill="#000000"/><text fill="#000000" font-family="sans-serif" font-size="14" lengthAdjust="spacing" textLength="117" x="2974.75" y="239.7285">CommandRequest</text><line style="stroke:#181818;stroke-width:0.5;" x1="2833" x2="3201" y1="250" y2="250"/><rect fill="none" height="6" style="stroke:#C82930;stroke-width:1.0;" width="6" x="2840" y="261.3047"/><text fill="#000000" font-family="sans-serif" font-size="14" lengthAdjust="spacing" textLength="143" x="2852" y="268.5332">status : RequestStatus</text><rect fill="none" height="6" style="stroke:#C82930;stroke-width:1.0;" width="6" x="2840" y="278.9141"/><text fill="#000000" font-family="sans-serif" font-size="14" lengthAdjust="spacing" textLength="108" x="2852" y="286.1426">response : String</text><rect fill="none" height="6" style="stroke:#C82930;stroke-width:1.0;" width="6" x="2840" y="296.5234"/><text fill="#000000" font-family="sans-serif" font-size="14" lengthAdjust="spacing" textLength="110" x="2852" y="303.752">command : String</text><rect fill="none" height="6" style="stroke:#C82930;stroke-width:1.0;" width="6" x="2840" y="314.1328"/><text fill="#000000" font-family="sans-serif" font-size="14" lengthAdjust="spacing" textLength="197" x="2852" y="321.3613">args : ArrayList&lt;Argument&lt;?&gt;&gt;</text><rect fill="none" height="6" style="stroke:#C82930;stroke-width:1.0;" width="6" x="2840" y="331.7422"/><text fill="#000000" font-family="sans-serif" font-size="14" lengthAdjust="spacing" textLength="238" x="2852" y="338.9707">argsCache : HashMap&lt;String,Object&gt;</text><line style="stroke:#181818;stroke-width:0.5;" x1="2833" x2="3201" y1="346.0469" y2="346.0469"/><ellipse cx="2843" cy="360.3516" fill="#84BE84" rx="3" ry="3" style="stroke:#038048;stroke-width:1.0;"/><text fill="#000000" font-family="sans-serif" font-size="14" lengthAdjust="spacing" textLength="237" x="2852" y="364.5801">CommandRequest(command : String)</text><ellipse cx="2843" cy="377.9609" fill="#84BE84" rx="3" ry="3" style="stroke:#038048;stroke-width:1.0;"/><text fill="#000000" font-family="sans-serif" font-size="14" lengthAdjust="spacing" textLength="143" x="2852" y="382.1895">getCommand() : String</text><ellipse cx="2843" cy="395.5703" fill="#84BE84" rx="3" ry="3" style="stroke:#038048;stroke-width:1.0;"/><text fill="#000000" font-family="sans-serif" font-size="14" lengthAdjust="spacing" textLength="250" x="2852" y="399.7988">setStatus(status : RequestStatus) : void</text><ellipse cx="2843" cy="413.1797" fill="#84BE84" rx="3" ry="3" style="stroke:#038048;stroke-width:1.0;"/><text fill="#000000" font-family="sans-serif" font-size="14" lengthAdjust="spacing" textLength="175" x="2852" y="417.4082">getStatus() : RequestStatus</text><ellipse cx="2843" cy="430.7891" fill="#84BE84" rx="3" ry="3" style="stroke:#038048;stroke-width:1.0;"/><text fill="#000000" font-family="sans-serif" font-size="14" lengthAdjust="spacing" textLength="239" x="2852" y="435.0176">setResponse(response : String) : void</text><ellipse cx="2843" cy="448.3984" fill="#84BE84" rx="3" ry="3" style="stroke:#038048;stroke-width:1.0;"/><text fill="#000000" font-family="sans-serif" font-size="14" lengthAdjust="spacing" textLength="143" x="2852" y="452.627">getResponse() : String</text><ellipse cx="2843" cy="466.0078" fill="#84BE84" rx="3" ry="3" style="stroke:#038048;stroke-width:1.0;"/><text fill="#000000" font-family="sans-serif" font-size="14" lengthAdjust="spacing" textLength="228" x="2852" y="470.2363">getArgs() : ArrayList&lt;Argument&lt;?&gt;&gt;</text><ellipse cx="2843" cy="483.6172" fill="#84BE84" rx="3" ry="3" style="stroke:#038048;stroke-width:1.0;"/><text fill="#000000" font-family="sans-serif" font-size="14" lengthAdjust="spacing" textLength="251" x="2852" y="487.8457">addArg(argument : Argument&lt;?&gt;) : void</text><ellipse cx="2843" cy="501.2266" fill="#84BE84" rx="3" ry="3" style="stroke:#038048;stroke-width:1.0;"/><text fill="#000000" font-family="sans-serif" font-size="14" lengthAdjust="spacing" textLength="337" x="2852" y="505.4551">addArgs(arguments : ArrayList&lt;Argument&lt;?&gt;&gt;) : void</text><ellipse cx="2843" cy="518.8359" fill="#84BE84" rx="3" ry="3" style="stroke:#038048;stroke-width:1.0;"/><text fill="#000000" font-family="sans-serif" font-size="14" lengthAdjust="spacing" textLength="269" x="2852" y="523.0645">getArgsCache() : HashMap&lt;String,Object&gt;</text><ellipse cx="2843" cy="536.4453" fill="#84BE84" rx="3" ry="3" style="stroke:#038048;stroke-width:1.0;"/><text fill="#000000" font-family="sans-serif" font-size="14" lengthAdjust="spacing" textLength="344" x="2852" y="540.6738">setArgsCache(cache : HashMap&lt;String,Object&gt;) : void</text></g><!--class RequestStatus--><g id="elem_RequestStatus"><rect codeLine="72" fill="#F1F1F1" height="100.8281" id="RequestStatus" rx="2.5" ry="2.5" style="stroke:#181818;stroke-width:0.5;" width="125" x="2671.5" y="332.5"/><ellipse cx="2686.5" cy="348.5" fill="#EB937F" rx="11" ry="11" style="stroke:#181818;stroke-width:1.0;"/><path d="M2685.3594,349.2969 L2685.3594,351.7969 L2689.6875,351.7969 L2689.6875,350.875 Q2689.6875,350.2656 2689.9219,350 Q2690.1719,349.7344 2690.5469,349.7344 Q2690.9219,349.7344 2691.1563,350 Q2691.3906,350.2656 2691.3906,350.875 L2691.3906,353.5 L2683.3906,353.5 Q2682.7656,353.5 2682.5,353.2656 Q2682.25,353.0313 2682.25,352.6406 Q2682.25,352.2656 2682.5156,352.0313 Q2682.7813,351.7969 2683.3906,351.7969 L2683.6563,351.7969 L2683.6563,345.1406 L2683.3906,345.1406 Q2682.7656,345.1406 2682.5,344.9063 Q2682.25,344.6719 2682.25,344.2813 Q2682.25,343.9063 2682.5,343.6719 Q2682.7656,343.4375 2683.3906,343.4375 L2691.0156,343.4375 L2691.0156,346.0313 Q2691.0156,346.6406 2690.7813,346.9063 Q2690.5625,347.1563 2690.1719,347.1563 Q2689.7969,347.1563 2689.5625,346.9063 Q2689.3281,346.6406 2689.3281,346.0313 L2689.3281,345.1406 L2685.3594,345.1406 L2685.3594,347.5938 L2686.8438,347.5938 Q2686.8438,346.9375 2686.9688,346.75 Q2687.2344,346.3438 2687.7031,346.3438 Q2688.0781,346.3438 2688.3125,346.6094 Q2688.5469,346.8594 2688.5469,347.4688 L2688.5469,349.4375 Q2688.5469,349.9844 2688.4219,350.1719 Q2688.1563,350.5625 2687.7031,350.5625 Q2687.2344,350.5625 2686.9688,350.1563 Q2686.8438,349.9688 2686.8438,349.2969 L2685.3594,349.2969 Z " fill="#000000"/><text fill="#000000" font-family="sans-serif" font-size="14" lengthAdjust="spacing" textLength="93" x="2700.5" y="354.2285">RequestStatus</text><line style="stroke:#181818;stroke-width:0.5;" x1="2672.5" x2="2795.5" y1="364.5" y2="364.5"/><text fill="#000000" font-family="sans-serif" font-size="14" lengthAdjust="spacing" textLength="73" x="2677.5" y="383.0332">FULLFILED</text><text fill="#000000" font-family="sans-serif" font-size="14" lengthAdjust="spacing" textLength="60" x="2677.5" y="400.6426">PENDING</text><text fill="#000000" font-family="sans-serif" font-size="14" lengthAdjust="spacing" textLength="72" x="2677.5" y="418.252">REJECTED</text><line style="stroke:#181818;stroke-width:0.5;" x1="2672.5" x2="2795.5" y1="425.3281" y2="425.3281"/></g><!--class CasterException--><g id="elem_CasterException"><rect codeLine="80" fill="#F1F1F1" height="65.6094" id="CasterException" rx="2.5" ry="2.5" style="stroke:#181818;stroke-width:0.5;" width="215" x="2399.5" y="350"/><ellipse cx="2451.25" cy="366" fill="#ADD1B2" rx="11" ry="11" style="stroke:#181818;stroke-width:1.0;"/><path d="M2454.0156,361.875 Q2454.1719,361.6563 2454.3594,361.5469 Q2454.5469,361.4375 2454.7656,361.4375 Q2455.1406,361.4375 2455.375,361.7031 Q2455.6094,361.9531 2455.6094,362.5625 L2455.6094,364.0156 Q2455.6094,364.625 2455.375,364.8906 Q2455.1406,365.1563 2454.7656,365.1563 Q2454.4219,365.1563 2454.2188,364.9531 Q2454.0156,364.7656 2453.9063,364.25 Q2453.8594,363.8906 2453.6719,363.7031 Q2453.3438,363.3281 2452.7344,363.1094 Q2452.125,362.8906 2451.5,362.8906 Q2450.7344,362.8906 2450.0938,363.2188 Q2449.4688,363.5469 2448.9688,364.2969 Q2448.4844,365.0469 2448.4844,366.0781 L2448.4844,367.1719 Q2448.4844,368.4063 2449.375,369.2344 Q2450.2656,370.0469 2451.8594,370.0469 Q2452.7969,370.0469 2453.4531,369.7969 Q2453.8438,369.6406 2454.2656,369.2031 Q2454.5313,368.9375 2454.6719,368.8594 Q2454.8281,368.7813 2455.0313,368.7813 Q2455.3594,368.7813 2455.6094,369.0469 Q2455.875,369.2969 2455.875,369.6406 Q2455.875,369.9844 2455.5313,370.3906 Q2455.0313,370.9688 2454.2344,371.2969 Q2453.1563,371.75 2451.8594,371.75 Q2450.3438,371.75 2449.1406,371.125 Q2448.1563,370.625 2447.4688,369.5625 Q2446.7813,368.4844 2446.7813,367.2031 L2446.7813,366.0469 Q2446.7813,364.7188 2447.3906,363.5781 Q2448.0156,362.4219 2449.1094,361.8125 Q2450.2031,361.1875 2451.4375,361.1875 Q2452.1719,361.1875 2452.8125,361.3594 Q2453.4688,361.5156 2454.0156,361.875 Z " fill="#000000"/><text fill="#000000" font-family="sans-serif" font-size="14" lengthAdjust="spacing" textLength="103" x="2471.75" y="371.7285">CasterException</text><line style="stroke:#181818;stroke-width:0.5;" x1="2400.5" x2="2613.5" y1="382" y2="382"/><line style="stroke:#181818;stroke-width:0.5;" x1="2400.5" x2="2613.5" y1="390" y2="390"/><ellipse cx="2410.5" cy="404.3047" fill="#84BE84" rx="3" ry="3" style="stroke:#038048;stroke-width:1.0;"/><text fill="#000000" font-family="sans-serif" font-size="14" lengthAdjust="spacing" textLength="189" x="2419.5" y="408.5332">CasterException(String string)</text></g><!--class CasterUtil--><g id="elem_CasterUtil"><rect codeLine="84" fill="#F1F1F1" height="65.6094" id="CasterUtil" rx="2.5" ry="2.5" style="stroke:#181818;stroke-width:0.5;" width="330" x="2034" y="350"/><ellipse cx="2164.25" cy="366" fill="#ADD1B2" rx="11" ry="11" style="stroke:#181818;stroke-width:1.0;"/><path d="M2167.0156,361.875 Q2167.1719,361.6563 2167.3594,361.5469 Q2167.5469,361.4375 2167.7656,361.4375 Q2168.1406,361.4375 2168.375,361.7031 Q2168.6094,361.9531 2168.6094,362.5625 L2168.6094,364.0156 Q2168.6094,364.625 2168.375,364.8906 Q2168.1406,365.1563 2167.7656,365.1563 Q2167.4219,365.1563 2167.2188,364.9531 Q2167.0156,364.7656 2166.9063,364.25 Q2166.8594,363.8906 2166.6719,363.7031 Q2166.3438,363.3281 2165.7344,363.1094 Q2165.125,362.8906 2164.5,362.8906 Q2163.7344,362.8906 2163.0938,363.2188 Q2162.4688,363.5469 2161.9688,364.2969 Q2161.4844,365.0469 2161.4844,366.0781 L2161.4844,367.1719 Q2161.4844,368.4063 2162.375,369.2344 Q2163.2656,370.0469 2164.8594,370.0469 Q2165.7969,370.0469 2166.4531,369.7969 Q2166.8438,369.6406 2167.2656,369.2031 Q2167.5313,368.9375 2167.6719,368.8594 Q2167.8281,368.7813 2168.0313,368.7813 Q2168.3594,368.7813 2168.6094,369.0469 Q2168.875,369.2969 2168.875,369.6406 Q2168.875,369.9844 2168.5313,370.3906 Q2168.0313,370.9688 2167.2344,371.2969 Q2166.1563,371.75 2164.8594,371.75 Q2163.3438,371.75 2162.1406,371.125 Q2161.1563,370.625 2160.4688,369.5625 Q2159.7813,368.4844 2159.7813,367.2031 L2159.7813,366.0469 Q2159.7813,364.7188 2160.3906,363.5781 Q2161.0156,362.4219 2162.1094,361.8125 Q2163.2031,361.1875 2164.4375,361.1875 Q2165.1719,361.1875 2165.8125,361.3594 Q2166.4688,361.5156 2167.0156,361.875 Z " fill="#000000"/><text fill="#000000" font-family="sans-serif" font-size="14" lengthAdjust="spacing" textLength="61" x="2184.75" y="371.7285">CasterUtil</text><line style="stroke:#181818;stroke-width:0.5;" x1="2035" x2="2363" y1="382" y2="382"/><ellipse cx="2045" cy="396.3047" fill="none" rx="3" ry="3" style="stroke:#038048;stroke-width:1.0;"/><text fill="#000000" font-family="sans-serif" font-size="14" lengthAdjust="spacing" textLength="304" x="2054" y="400.5332">static final Function&lt;String, String&gt; castToString</text><line style="stroke:#181818;stroke-width:0.5;" x1="2035" x2="2363" y1="407.6094" y2="407.6094"/></g><!--class User--><g id="elem_User"><rect codeLine="123" fill="#F1F1F1" height="206.4844" id="User" rx="2.5" ry="2.5" style="stroke:#181818;stroke-width:0.5;" width="278" x="967" y="280"/><ellipse cx="1087.25" cy="296" fill="#ADD1B2" rx="11" ry="11" style="stroke:#181818;stroke-width:1.0;"/><path d="M1090.0156,291.875 Q1090.1719,291.6563 1090.3594,291.5469 Q1090.5469,291.4375 1090.7656,291.4375 Q1091.1406,291.4375 1091.375,291.7031 Q1091.6094,291.9531 1091.6094,292.5625 L1091.6094,294.0156 Q1091.6094,294.625 1091.375,294.8906 Q1091.1406,295.1563 1090.7656,295.1563 Q1090.4219,295.1563 1090.2188,294.9531 Q1090.0156,294.7656 1089.9063,294.25 Q1089.8594,293.8906 1089.6719,293.7031 Q1089.3438,293.3281 1088.7344,293.1094 Q1088.125,292.8906 1087.5,292.8906 Q1086.7344,292.8906 1086.0938,293.2188 Q1085.4688,293.5469 1084.9688,294.2969 Q1084.4844,295.0469 1084.4844,296.0781 L1084.4844,297.1719 Q1084.4844,298.4063 1085.375,299.2344 Q1086.2656,300.0469 1087.8594,300.0469 Q1088.7969,300.0469 1089.4531,299.7969 Q1089.8438,299.6406 1090.2656,299.2031 Q1090.5313,298.9375 1090.6719,298.8594 Q1090.8281,298.7813 1091.0313,298.7813 Q1091.3594,298.7813 1091.6094,299.0469 Q1091.875,299.2969 1091.875,299.6406 Q1091.875,299.9844 1091.5313,300.3906 Q1091.0313,300.9688 1090.2344,301.2969 Q1089.1563,301.75 1087.8594,301.75 Q1086.3438,301.75 1085.1406,301.125 Q1084.1563,300.625 1083.4688,299.5625 Q1082.7813,298.4844 1082.7813,297.2031 L1082.7813,296.0469 Q1082.7813,294.7188 1083.3906,293.5781 Q1084.0156,292.4219 1085.1094,291.8125 Q1086.2031,291.1875 1087.4375,291.1875 Q1088.1719,291.1875 1088.8125,291.3594 Q1089.4688,291.5156 1090.0156,291.875 Z " fill="#000000"/><text fill="#000000" font-family="sans-serif" font-size="14" lengthAdjust="spacing" textLength="29" x="1107.75" y="301.7285">User</text><line style="stroke:#181818;stroke-width:0.5;" x1="968" x2="1244" y1="312" y2="312"/><rect fill="none" height="6" style="stroke:#C82930;stroke-width:1.0;" width="6" x="975" y="323.3047"/><text fill="#000000" font-family="sans-serif" font-size="14" lengthAdjust="spacing" textLength="47" x="987" y="330.5332">Long id</text><rect fill="none" height="6" style="stroke:#C82930;stroke-width:1.0;" width="6" x="975" y="340.9141"/><text fill="#000000" font-family="sans-serif" font-size="14" lengthAdjust="spacing" textLength="104" x="987" y="348.1426">String username</text><rect fill="none" height="6" style="stroke:#C82930;stroke-width:1.0;" width="6" x="975" y="358.5234"/><text fill="#000000" font-family="sans-serif" font-size="14" lengthAdjust="spacing" textLength="149" x="987" y="365.752">String hashedPassword</text><line style="stroke:#181818;stroke-width:0.5;" x1="968" x2="1244" y1="372.8281" y2="372.8281"/><ellipse cx="978" cy="387.1328" fill="#84BE84" rx="3" ry="3" style="stroke:#038048;stroke-width:1.0;"/><text fill="#000000" font-family="sans-serif" font-size="14" lengthAdjust="spacing" textLength="39" x="987" y="391.3613">User()</text><ellipse cx="978" cy="404.7422" fill="#84BE84" rx="3" ry="3" style="stroke:#038048;stroke-width:1.0;"/><text fill="#000000" font-family="sans-serif" font-size="14" lengthAdjust="spacing" textLength="252" x="987" y="408.9707">User(String username, String password)</text><text fill="#000000" font-family="sans-serif" font-size="14" lengthAdjust="spacing" textLength="4" x="987" y="426.5801">&#160;</text><ellipse cx="978" cy="439.9609" fill="#84BE84" rx="3" ry="3" style="stroke:#038048;stroke-width:1.0;"/><text fill="#000000" font-family="sans-serif" font-size="14" lengthAdjust="spacing" textLength="77" x="987" y="444.1895">Long getId()</text><ellipse cx="978" cy="457.5703" fill="#84BE84" rx="3" ry="3" style="stroke:#038048;stroke-width:1.0;"/><text fill="#000000" font-family="sans-serif" font-size="14" lengthAdjust="spacing" textLength="135" x="987" y="461.7988">String getUsername()</text><ellipse cx="978" cy="475.1797" fill="#84BE84" rx="3" ry="3" style="stroke:#038048;stroke-width:1.0;"/><text fill="#000000" font-family="sans-serif" font-size="14" lengthAdjust="spacing" textLength="180" x="987" y="479.4082">String getHashedPassword()</text></g><!--class Vehicle--><g id="elem_Vehicle"><rect codeLine="136" fill="#F1F1F1" height="593.8906" id="Vehicle" rx="2.5" ry="2.5" style="stroke:#181818;stroke-width:0.5;" width="885" x="46.5" y="86"/><ellipse cx="461.75" cy="102" fill="#ADD1B2" rx="11" ry="11" style="stroke:#181818;stroke-width:1.0;"/><path d="M464.5156,97.875 Q464.6719,97.6563 464.8594,97.5469 Q465.0469,97.4375 465.2656,97.4375 Q465.6406,97.4375 465.875,97.7031 Q466.1094,97.9531 466.1094,98.5625 L466.1094,100.0156 Q466.1094,100.625 465.875,100.8906 Q465.6406,101.1563 465.2656,101.1563 Q464.9219,101.1563 464.7188,100.9531 Q464.5156,100.7656 464.4063,100.25 Q464.3594,99.8906 464.1719,99.7031 Q463.8438,99.3281 463.2344,99.1094 Q462.625,98.8906 462,98.8906 Q461.2344,98.8906 460.5938,99.2188 Q459.9688,99.5469 459.4688,100.2969 Q458.9844,101.0469 458.9844,102.0781 L458.9844,103.1719 Q458.9844,104.4063 459.875,105.2344 Q460.7656,106.0469 462.3594,106.0469 Q463.2969,106.0469 463.9531,105.7969 Q464.3438,105.6406 464.7656,105.2031 Q465.0313,104.9375 465.1719,104.8594 Q465.3281,104.7813 465.5313,104.7813 Q465.8594,104.7813 466.1094,105.0469 Q466.375,105.2969 466.375,105.6406 Q466.375,105.9844 466.0313,106.3906 Q465.5313,106.9688 464.7344,107.2969 Q463.6563,107.75 462.3594,107.75 Q460.8438,107.75 459.6406,107.125 Q458.6563,106.625 457.9688,105.5625 Q457.2813,104.4844 457.2813,103.2031 L457.2813,102.0469 Q457.2813,100.7188 457.8906,99.5781 Q458.5156,98.4219 459.6094,97.8125 Q460.7031,97.1875 461.9375,97.1875 Q462.6719,97.1875 463.3125,97.3594 Q463.9688,97.5156 464.5156,97.875 Z " fill="#000000"/><text fill="#000000" font-family="sans-serif" font-size="14" lengthAdjust="spacing" textLength="46" x="482.25" y="107.7285">Vehicle</text><line style="stroke:#181818;stroke-width:0.5;" x1="47.5" x2="930.5" y1="118" y2="118"/><rect fill="none" height="6" style="stroke:#C82930;stroke-width:1.0;" width="6" x="54.5" y="129.3047"/><text fill="#000000" font-family="sans-serif" font-size="14" lengthAdjust="spacing" textLength="42" x="66.5" y="136.5332">long id</text><rect fill="none" height="6" style="stroke:#C82930;stroke-width:1.0;" width="6" x="54.5" y="146.9141"/><text fill="#000000" font-family="sans-serif" font-size="14" lengthAdjust="spacing" textLength="76" x="66.5" y="154.1426">String name</text><rect fill="none" height="6" style="stroke:#C82930;stroke-width:1.0;" width="6" x="54.5" y="164.5234"/><text fill="#000000" font-family="sans-serif" font-size="14" lengthAdjust="spacing" textLength="155" x="66.5" y="171.752">Coordinates coordinates</text><rect fill="none" height="6" style="stroke:#C82930;stroke-width:1.0;" width="6" x="54.5" y="182.1328"/><text fill="#000000" font-family="sans-serif" font-size="14" lengthAdjust="spacing" textLength="246" x="66.5" y="189.3613">java.time.ZonedDateTime creationDate</text><rect fill="none" height="6" style="stroke:#C82930;stroke-width:1.0;" width="6" x="54.5" y="199.7422"/><text fill="#000000" font-family="sans-serif" font-size="14" lengthAdjust="spacing" textLength="118" x="66.5" y="206.9707">Float enginePower</text><rect fill="none" height="6" style="stroke:#C82930;stroke-width:1.0;" width="6" x="54.5" y="217.3516"/><text fill="#000000" font-family="sans-serif" font-size="14" lengthAdjust="spacing" textLength="158" x="66.5" y="224.5801">Integer numberOfWheels</text><rect fill="none" height="6" style="stroke:#C82930;stroke-width:1.0;" width="6" x="54.5" y="234.9609"/><text fill="#000000" font-family="sans-serif" font-size="14" lengthAdjust="spacing" textLength="137" x="66.5" y="242.1895">float fuelConsumption</text><rect fill="none" height="6" style="stroke:#C82930;stroke-width:1.0;" width="6" x="54.5" y="252.5703"/><text fill="#000000" font-family="sans-serif" font-size="14" lengthAdjust="spacing" textLength="119" x="66.5" y="259.7988">FuelType fuelType</text><text fill="#000000" font-family="sans-serif" font-size="14" lengthAdjust="spacing" textLength="4" x="66.5" y="277.4082">&#160;</text><rect fill="none" height="6" style="stroke:#C82930;stroke-width:1.0;" width="6" x="54.5" y="287.7891"/><text fill="#000000" font-family="sans-serif" font-size="14" lengthAdjust="spacing" textLength="149" x="66.5" y="295.0176">static long currentMaxId</text><rect fill="none" height="6" style="stroke:#C82930;stroke-width:1.0;" width="6" x="54.5" y="305.3984"/><text fill="#000000" font-family="sans-serif" font-size="14" lengthAdjust="spacing" textLength="335" x="66.5" y="312.627">static Map&lt;String, Consumer&lt;String&gt;&gt; mutableFields</text><line style="stroke:#181818;stroke-width:0.5;" x1="47.5" x2="930.5" y1="319.7031" y2="319.7031"/><ellipse cx="57.5" cy="334.0078" fill="#84BE84" rx="3" ry="3" style="stroke:#038048;stroke-width:1.0;"/><text fill="#000000" font-family="sans-serif" font-size="14" lengthAdjust="spacing" textLength="859" x="66.5" y="338.2363">Vehicle(String name, Coordinates coordinates, Float enginePower, Integer numberOfWheels, float fuelConsumption, FuelType fuelType)</text><ellipse cx="57.5" cy="351.6172" fill="#84BE84" rx="3" ry="3" style="stroke:#038048;stroke-width:1.0;"/><text fill="#000000" font-family="sans-serif" font-size="14" lengthAdjust="spacing" textLength="233" x="66.5" y="355.8457">static Set&lt;String&gt; getMutableFields()</text><ellipse cx="57.5" cy="369.2266" fill="#84BE84" rx="3" ry="3" style="stroke:#038048;stroke-width:1.0;"/><text fill="#000000" font-family="sans-serif" font-size="14" lengthAdjust="spacing" textLength="301" x="66.5" y="373.4551">void setFieldByName(String name, String value)</text><ellipse cx="57.5" cy="386.8359" fill="#84BE84" rx="3" ry="3" style="stroke:#038048;stroke-width:1.0;"/><text fill="#000000" font-family="sans-serif" font-size="14" lengthAdjust="spacing" textLength="72" x="66.5" y="391.0645">long getId()</text><ellipse cx="57.5" cy="404.4453" fill="#84BE84" rx="3" ry="3" style="stroke:#038048;stroke-width:1.0;"/><text fill="#000000" font-family="sans-serif" font-size="14" lengthAdjust="spacing" textLength="107" x="66.5" y="408.6738">String getName()</text><ellipse cx="57.5" cy="422.0547" fill="#84BE84" rx="3" ry="3" style="stroke:#038048;stroke-width:1.0;"/><text fill="#000000" font-family="sans-serif" font-size="14" lengthAdjust="spacing" textLength="188" x="66.5" y="426.2832">Coordinates getCoordinates()</text><ellipse cx="57.5" cy="439.6641" fill="#84BE84" rx="3" ry="3" style="stroke:#038048;stroke-width:1.0;"/><text fill="#000000" font-family="sans-serif" font-size="14" lengthAdjust="spacing" textLength="279" x="66.5" y="443.8926">java.time.ZonedDateTime getCreationDate()</text><ellipse cx="57.5" cy="457.2734" fill="#84BE84" rx="3" ry="3" style="stroke:#038048;stroke-width:1.0;"/><text fill="#000000" font-family="sans-serif" font-size="14" lengthAdjust="spacing" textLength="149" x="66.5" y="461.502">Float getEnginePower()</text><ellipse cx="57.5" cy="474.8828" fill="#84BE84" rx="3" ry="3" style="stroke:#038048;stroke-width:1.0;"/><text fill="#000000" font-family="sans-serif" font-size="14" lengthAdjust="spacing" textLength="189" x="66.5" y="479.1113">Integer getNumberOfWheels()</text><ellipse cx="57.5" cy="492.4922" fill="#84BE84" rx="3" ry="3" style="stroke:#038048;stroke-width:1.0;"/><text fill="#000000" font-family="sans-serif" font-size="14" lengthAdjust="spacing" textLength="172" x="66.5" y="496.7207">float getFuelConsumption()</text><ellipse cx="57.5" cy="510.1016" fill="#84BE84" rx="3" ry="3" style="stroke:#038048;stroke-width:1.0;"/><text fill="#000000" font-family="sans-serif" font-size="14" lengthAdjust="spacing" textLength="154" x="66.5" y="514.3301">FuelType getFuelType()</text><ellipse cx="57.5" cy="527.7109" fill="#84BE84" rx="3" ry="3" style="stroke:#038048;stroke-width:1.0;"/><text fill="#000000" font-family="sans-serif" font-size="14" lengthAdjust="spacing" textLength="171" x="66.5" y="531.9395">void setName(String name)</text><ellipse cx="57.5" cy="545.3203" fill="#84BE84" rx="3" ry="3" style="stroke:#038048;stroke-width:1.0;"/><text fill="#000000" font-family="sans-serif" font-size="14" lengthAdjust="spacing" textLength="291" x="66.5" y="549.5488">void setCoordinates(Coordinates coordinates)</text><ellipse cx="57.5" cy="562.9297" fill="#84BE84" rx="3" ry="3" style="stroke:#038048;stroke-width:1.0;"/><text fill="#000000" font-family="sans-serif" font-size="14" lengthAdjust="spacing" textLength="260" x="66.5" y="567.1582">void setEnginePower(Float enginePower)</text><ellipse cx="57.5" cy="580.5391" fill="#84BE84" rx="3" ry="3" style="stroke:#038048;stroke-width:1.0;"/><text fill="#000000" font-family="sans-serif" font-size="14" lengthAdjust="spacing" textLength="328" x="66.5" y="584.7676">void setNumberOfWheels(Integer numberOfWheels)</text><ellipse cx="57.5" cy="598.1484" fill="#84BE84" rx="3" ry="3" style="stroke:#038048;stroke-width:1.0;"/><text fill="#000000" font-family="sans-serif" font-size="14" lengthAdjust="spacing" textLength="307" x="66.5" y="602.377">void setFuelConsumption(float fuelConsumption)</text><ellipse cx="57.5" cy="615.7578" fill="#84BE84" rx="3" ry="3" style="stroke:#038048;stroke-width:1.0;"/><text fill="#000000" font-family="sans-serif" font-size="14" lengthAdjust="spacing" textLength="238" x="66.5" y="619.9863">void setFuelType(FuelType fuelType)</text><ellipse cx="57.5" cy="633.3672" fill="#84BE84" rx="3" ry="3" style="stroke:#038048;stroke-width:1.0;"/><text fill="#000000" font-family="sans-serif" font-size="14" lengthAdjust="spacing" textLength="292" x="66.5" y="637.5957">static void setCurrentMaxId(long currentMaxId)</text><ellipse cx="57.5" cy="650.9766" fill="#84BE84" rx="3" ry="3" style="stroke:#038048;stroke-width:1.0;"/><text fill="#000000" font-family="sans-serif" font-size="14" lengthAdjust="spacing" textLength="100" x="66.5" y="655.2051">String toString()</text><ellipse cx="57.5" cy="668.5859" fill="#84BE84" rx="3" ry="3" style="stroke:#038048;stroke-width:1.0;"/><text fill="#000000" font-family="sans-serif" font-size="14" lengthAdjust="spacing" textLength="158" x="66.5" y="672.8145">int compareTo(Vehicle v)</text></g><!--class Caster--><g id="elem_Caster"><rect codeLine="171" fill="#F1F1F1" height="153.6563" id="Caster" rx="2.5" ry="2.5" style="stroke:#181818;stroke-width:0.5;" width="411" x="164.5" y="792.5"/><ellipse cx="344.75" cy="808.5" fill="#ADD1B2" rx="11" ry="11" style="stroke:#181818;stroke-width:1.0;"/><path d="M347.5156,804.375 Q347.6719,804.1563 347.8594,804.0469 Q348.0469,803.9375 348.2656,803.9375 Q348.6406,803.9375 348.875,804.2031 Q349.1094,804.4531 349.1094,805.0625 L349.1094,806.5156 Q349.1094,807.125 348.875,807.3906 Q348.6406,807.6563 348.2656,807.6563 Q347.9219,807.6563 347.7188,807.4531 Q347.5156,807.2656 347.4063,806.75 Q347.3594,806.3906 347.1719,806.2031 Q346.8438,805.8281 346.2344,805.6094 Q345.625,805.3906 345,805.3906 Q344.2344,805.3906 343.5938,805.7188 Q342.9688,806.0469 342.4688,806.7969 Q341.9844,807.5469 341.9844,808.5781 L341.9844,809.6719 Q341.9844,810.9063 342.875,811.7344 Q343.7656,812.5469 345.3594,812.5469 Q346.2969,812.5469 346.9531,812.2969 Q347.3438,812.1406 347.7656,811.7031 Q348.0313,811.4375 348.1719,811.3594 Q348.3281,811.2813 348.5313,811.2813 Q348.8594,811.2813 349.1094,811.5469 Q349.375,811.7969 349.375,812.1406 Q349.375,812.4844 349.0313,812.8906 Q348.5313,813.4688 347.7344,813.7969 Q346.6563,814.25 345.3594,814.25 Q343.8438,814.25 342.6406,813.625 Q341.6563,813.125 340.9688,812.0625 Q340.2813,810.9844 340.2813,809.7031 L340.2813,808.5469 Q340.2813,807.2188 340.8906,806.0781 Q341.5156,804.9219 342.6094,804.3125 Q343.7031,803.6875 344.9375,803.6875 Q345.6719,803.6875 346.3125,803.8594 Q346.9688,804.0156 347.5156,804.375 Z " fill="#000000"/><text fill="#000000" font-family="sans-serif" font-size="14" lengthAdjust="spacing" textLength="42" x="365.25" y="814.2285">Caster</text><line style="stroke:#181818;stroke-width:0.5;" x1="165.5" x2="574.5" y1="824.5" y2="824.5"/><ellipse cx="175.5" cy="838.8047" fill="none" rx="3" ry="3" style="stroke:#038048;stroke-width:1.0;"/><text fill="#000000" font-family="sans-serif" font-size="14" lengthAdjust="spacing" textLength="273" x="184.5" y="843.0332">static final Function&lt;String, Long&gt; castToId</text><ellipse cx="175.5" cy="856.4141" fill="none" rx="3" ry="3" style="stroke:#038048;stroke-width:1.0;"/><text fill="#000000" font-family="sans-serif" font-size="14" lengthAdjust="spacing" textLength="303" x="184.5" y="860.6426">static final Function&lt;String, String&gt; castToName</text><ellipse cx="175.5" cy="874.0234" fill="none" rx="3" ry="3" style="stroke:#038048;stroke-width:1.0;"/><text fill="#000000" font-family="sans-serif" font-size="14" lengthAdjust="spacing" textLength="345" x="184.5" y="878.252">static final Function&lt;String, Float&gt; castToEnginePower</text><ellipse cx="175.5" cy="891.6328" fill="none" rx="3" ry="3" style="stroke:#038048;stroke-width:1.0;"/><text fill="#000000" font-family="sans-serif" font-size="14" lengthAdjust="spacing" textLength="385" x="184.5" y="895.8613">static final Function&lt;String, Integer&gt; castToNumberOfWheels</text><ellipse cx="175.5" cy="909.2422" fill="none" rx="3" ry="3" style="stroke:#038048;stroke-width:1.0;"/><text fill="#000000" font-family="sans-serif" font-size="14" lengthAdjust="spacing" textLength="373" x="184.5" y="913.4707">static final Function&lt;String, Float&gt; castToFuelConsumption</text><ellipse cx="175.5" cy="926.8516" fill="none" rx="3" ry="3" style="stroke:#038048;stroke-width:1.0;"/><text fill="#000000" font-family="sans-serif" font-size="14" lengthAdjust="spacing" textLength="350" x="184.5" y="931.0801">static final Function&lt;String, FuelType&gt; castToFuelType</text><line style="stroke:#181818;stroke-width:0.5;" x1="165.5" x2="574.5" y1="938.1563" y2="938.1563"/></g><!--class Validator--><g id="elem_Validator"><rect codeLine="180" fill="#F1F1F1" height="259.3125" id="Validator" rx="2.5" ry="2.5" style="stroke:#181818;stroke-width:0.5;" width="421" x="610.5" y="740"/><ellipse cx="788.75" cy="756" fill="#ADD1B2" rx="11" ry="11" style="stroke:#181818;stroke-width:1.0;"/><path d="M791.5156,751.875 Q791.6719,751.6563 791.8594,751.5469 Q792.0469,751.4375 792.2656,751.4375 Q792.6406,751.4375 792.875,751.7031 Q793.1094,751.9531 793.1094,752.5625 L793.1094,754.0156 Q793.1094,754.625 792.875,754.8906 Q792.6406,755.1563 792.2656,755.1563 Q791.9219,755.1563 791.7188,754.9531 Q791.5156,754.7656 791.4063,754.25 Q791.3594,753.8906 791.1719,753.7031 Q790.8438,753.3281 790.2344,753.1094 Q789.625,752.8906 789,752.8906 Q788.2344,752.8906 787.5938,753.2188 Q786.9688,753.5469 786.4688,754.2969 Q785.9844,755.0469 785.9844,756.0781 L785.9844,757.1719 Q785.9844,758.4063 786.875,759.2344 Q787.7656,760.0469 789.3594,760.0469 Q790.2969,760.0469 790.9531,759.7969 Q791.3438,759.6406 791.7656,759.2031 Q792.0313,758.9375 792.1719,758.8594 Q792.3281,758.7813 792.5313,758.7813 Q792.8594,758.7813 793.1094,759.0469 Q793.375,759.2969 793.375,759.6406 Q793.375,759.9844 793.0313,760.3906 Q792.5313,760.9688 791.7344,761.2969 Q790.6563,761.75 789.3594,761.75 Q787.8438,761.75 786.6406,761.125 Q785.6563,760.625 784.9688,759.5625 Q784.2813,758.4844 784.2813,757.2031 L784.2813,756.0469 Q784.2813,754.7188 784.8906,753.5781 Q785.5156,752.4219 786.6094,751.8125 Q787.7031,751.1875 788.9375,751.1875 Q789.6719,751.1875 790.3125,751.3594 Q790.9688,751.5156 791.5156,751.875 Z " fill="#000000"/><text fill="#000000" font-family="sans-serif" font-size="14" lengthAdjust="spacing" textLength="56" x="809.25" y="761.7285">Validator</text><line style="stroke:#181818;stroke-width:0.5;" x1="611.5" x2="1030.5" y1="772" y2="772"/><ellipse cx="621.5" cy="786.3047" fill="none" rx="3" ry="3" style="stroke:#038048;stroke-width:1.0;"/><text fill="#000000" font-family="sans-serif" font-size="14" lengthAdjust="spacing" textLength="286" x="630.5" y="790.5332">static String nameHumanIntelligibleConditions</text><ellipse cx="621.5" cy="803.9141" fill="none" rx="3" ry="3" style="stroke:#038048;stroke-width:1.0;"/><text fill="#000000" font-family="sans-serif" font-size="14" lengthAdjust="spacing" textLength="333" x="630.5" y="808.1426">static String enginePowerHumanIntelligibleConditions</text><ellipse cx="621.5" cy="821.5234" fill="none" rx="3" ry="3" style="stroke:#038048;stroke-width:1.0;"/><text fill="#000000" font-family="sans-serif" font-size="14" lengthAdjust="spacing" textLength="361" x="630.5" y="825.752">static String numberOfWheelsHumanIntelligibleConditions</text><ellipse cx="621.5" cy="839.1328" fill="none" rx="3" ry="3" style="stroke:#038048;stroke-width:1.0;"/><text fill="#000000" font-family="sans-serif" font-size="14" lengthAdjust="spacing" textLength="357" x="630.5" y="843.3613">static String fuelConsumptionHumanIntelligibleConditions</text><ellipse cx="621.5" cy="856.7422" fill="none" rx="3" ry="3" style="stroke:#038048;stroke-width:1.0;"/><text fill="#000000" font-family="sans-serif" font-size="14" lengthAdjust="spacing" textLength="248" x="630.5" y="860.9707">static ArrayList&lt;String&gt; fuelTypeValues</text><ellipse cx="621.5" cy="874.3516" fill="none" rx="3" ry="3" style="stroke:#038048;stroke-width:1.0;"/><text fill="#000000" font-family="sans-serif" font-size="14" lengthAdjust="spacing" textLength="306" x="630.5" y="878.5801">static String fuelTypeHumanIntelligibleConditions</text><line style="stroke:#181818;stroke-width:0.5;" x1="611.5" x2="1030.5" y1="885.6563" y2="885.6563"/><ellipse cx="621.5" cy="899.9609" fill="#84BE84" rx="3" ry="3" style="stroke:#038048;stroke-width:1.0;"/><text fill="#000000" font-family="sans-serif" font-size="14" lengthAdjust="spacing" textLength="238" x="630.5" y="904.1895">static void validateName(String name)</text><ellipse cx="621.5" cy="917.5703" fill="#84BE84" rx="3" ry="3" style="stroke:#038048;stroke-width:1.0;"/><text fill="#000000" font-family="sans-serif" font-size="14" lengthAdjust="spacing" textLength="358" x="630.5" y="921.7988">static void validateCoordinates(Coordinates coordinates)</text><ellipse cx="621.5" cy="935.1797" fill="#84BE84" rx="3" ry="3" style="stroke:#038048;stroke-width:1.0;"/><text fill="#000000" font-family="sans-serif" font-size="14" lengthAdjust="spacing" textLength="327" x="630.5" y="939.4082">static void validateEnginePower(Float enginePower)</text><ellipse cx="621.5" cy="952.7891" fill="#84BE84" rx="3" ry="3" style="stroke:#038048;stroke-width:1.0;"/><text fill="#000000" font-family="sans-serif" font-size="14" lengthAdjust="spacing" textLength="395" x="630.5" y="957.0176">static void validateNumberOfWheels(Integer numberOfWheels)</text><ellipse cx="621.5" cy="970.3984" fill="#84BE84" rx="3" ry="3" style="stroke:#038048;stroke-width:1.0;"/><text fill="#000000" font-family="sans-serif" font-size="14" lengthAdjust="spacing" textLength="374" x="630.5" y="974.627">static void validateFuelConsumption(float fuelConsumption)</text><ellipse cx="621.5" cy="988.0078" fill="#84BE84" rx="3" ry="3" style="stroke:#038048;stroke-width:1.0;"/><text fill="#000000" font-family="sans-serif" font-size="14" lengthAdjust="spacing" textLength="305" x="630.5" y="992.2363">static void validateFuelType(FuelType fuelType)</text></g><!--class Coordinates--><g id="elem_Coordinates"><rect codeLine="91" fill="#F1F1F1" height="171.2656" id="Coordinates" rx="2.5" ry="2.5" style="stroke:#181818;stroke-width:0.5;" width="212" x="1620" y="297.5"/><ellipse cx="1683.25" cy="313.5" fill="#ADD1B2" rx="11" ry="11" style="stroke:#181818;stroke-width:1.0;"/><path d="M1686.0156,309.375 Q1686.1719,309.1563 1686.3594,309.0469 Q1686.5469,308.9375 1686.7656,308.9375 Q1687.1406,308.9375 1687.375,309.2031 Q1687.6094,309.4531 1687.6094,310.0625 L1687.6094,311.5156 Q1687.6094,312.125 1687.375,312.3906 Q1687.1406,312.6563 1686.7656,312.6563 Q1686.4219,312.6563 1686.2188,312.4531 Q1686.0156,312.2656 1685.9063,311.75 Q1685.8594,311.3906 1685.6719,311.2031 Q1685.3438,310.8281 1684.7344,310.6094 Q1684.125,310.3906 1683.5,310.3906 Q1682.7344,310.3906 1682.0938,310.7188 Q1681.4688,311.0469 1680.9688,311.7969 Q1680.4844,312.5469 1680.4844,313.5781 L1680.4844,314.6719 Q1680.4844,315.9063 1681.375,316.7344 Q1682.2656,317.5469 1683.8594,317.5469 Q1684.7969,317.5469 1685.4531,317.2969 Q1685.8438,317.1406 1686.2656,316.7031 Q1686.5313,316.4375 1686.6719,316.3594 Q1686.8281,316.2813 1687.0313,316.2813 Q1687.3594,316.2813 1687.6094,316.5469 Q1687.875,316.7969 1687.875,317.1406 Q1687.875,317.4844 1687.5313,317.8906 Q1687.0313,318.4688 1686.2344,318.7969 Q1685.1563,319.25 1683.8594,319.25 Q1682.3438,319.25 1681.1406,318.625 Q1680.1563,318.125 1679.4688,317.0625 Q1678.7813,315.9844 1678.7813,314.7031 L1678.7813,313.5469 Q1678.7813,312.2188 1679.3906,311.0781 Q1680.0156,309.9219 1681.1094,309.3125 Q1682.2031,308.6875 1683.4375,308.6875 Q1684.1719,308.6875 1684.8125,308.8594 Q1685.4688,309.0156 1686.0156,309.375 Z " fill="#000000"/><text fill="#000000" font-family="sans-serif" font-size="14" lengthAdjust="spacing" textLength="77" x="1703.75" y="319.2285">Coordinates</text><line style="stroke:#181818;stroke-width:0.5;" x1="1621" x2="1831" y1="329.5" y2="329.5"/><rect fill="none" height="6" style="stroke:#C82930;stroke-width:1.0;" width="6" x="1628" y="340.8047"/><text fill="#000000" font-family="sans-serif" font-size="14" lengthAdjust="spacing" textLength="53" x="1640" y="348.0332">double x</text><rect fill="none" height="6" style="stroke:#C82930;stroke-width:1.0;" width="6" x="1628" y="358.4141"/><text fill="#000000" font-family="sans-serif" font-size="14" lengthAdjust="spacing" textLength="38" x="1640" y="365.6426">float y</text><line style="stroke:#181818;stroke-width:0.5;" x1="1621" x2="1831" y1="372.7188" y2="372.7188"/><ellipse cx="1631" cy="387.0234" fill="#84BE84" rx="3" ry="3" style="stroke:#038048;stroke-width:1.0;"/><text fill="#000000" font-family="sans-serif" font-size="14" lengthAdjust="spacing" textLength="186" x="1640" y="391.252">Coordinates(double x, float y)</text><ellipse cx="1631" cy="404.6328" fill="#84BE84" rx="3" ry="3" style="stroke:#038048;stroke-width:1.0;"/><text fill="#000000" font-family="sans-serif" font-size="14" lengthAdjust="spacing" textLength="85" x="1640" y="408.8613">double getX()</text><ellipse cx="1631" cy="422.2422" fill="#84BE84" rx="3" ry="3" style="stroke:#038048;stroke-width:1.0;"/><text fill="#000000" font-family="sans-serif" font-size="14" lengthAdjust="spacing" textLength="70" x="1640" y="426.4707">float getY()</text><ellipse cx="1631" cy="439.8516" fill="#84BE84" rx="3" ry="3" style="stroke:#038048;stroke-width:1.0;"/><text fill="#000000" font-family="sans-serif" font-size="14" lengthAdjust="spacing" textLength="120" x="1640" y="444.0801">void setX(double x)</text><ellipse cx="1631" cy="457.4609" fill="#84BE84" rx="3" ry="3" style="stroke:#038048;stroke-width:1.0;"/><text fill="#000000" font-family="sans-serif" font-size="14" lengthAdjust="spacing" textLength="106" x="1640" y="461.6895">void setY(float y)</text></g><!--class Caster--><g id="elem_Caster"><rect codeLine="101" fill="#F1F1F1" height="83.2188" id="Caster" rx="2.5" ry="2.5" style="stroke:#181818;stroke-width:0.5;" width="309" x="1301.5" y="828"/><ellipse cx="1430.75" cy="844" fill="#ADD1B2" rx="11" ry="11" style="stroke:#181818;stroke-width:1.0;"/><path d="M1433.5156,839.875 Q1433.6719,839.6563 1433.8594,839.5469 Q1434.0469,839.4375 1434.2656,839.4375 Q1434.6406,839.4375 1434.875,839.7031 Q1435.1094,839.9531 1435.1094,840.5625 L1435.1094,842.0156 Q1435.1094,842.625 1434.875,842.8906 Q1434.6406,843.1563 1434.2656,843.1563 Q1433.9219,843.1563 1433.7188,842.9531 Q1433.5156,842.7656 1433.4063,842.25 Q1433.3594,841.8906 1433.1719,841.7031 Q1432.8438,841.3281 1432.2344,841.1094 Q1431.625,840.8906 1431,840.8906 Q1430.2344,840.8906 1429.5938,841.2188 Q1428.9688,841.5469 1428.4688,842.2969 Q1427.9844,843.0469 1427.9844,844.0781 L1427.9844,845.1719 Q1427.9844,846.4063 1428.875,847.2344 Q1429.7656,848.0469 1431.3594,848.0469 Q1432.2969,848.0469 1432.9531,847.7969 Q1433.3438,847.6406 1433.7656,847.2031 Q1434.0313,846.9375 1434.1719,846.8594 Q1434.3281,846.7813 1434.5313,846.7813 Q1434.8594,846.7813 1435.1094,847.0469 Q1435.375,847.2969 1435.375,847.6406 Q1435.375,847.9844 1435.0313,848.3906 Q1434.5313,848.9688 1433.7344,849.2969 Q1432.6563,849.75 1431.3594,849.75 Q1429.8438,849.75 1428.6406,849.125 Q1427.6563,848.625 1426.9688,847.5625 Q1426.2813,846.4844 1426.2813,845.2031 L1426.2813,844.0469 Q1426.2813,842.7188 1426.8906,841.5781 Q1427.5156,840.4219 1428.6094,839.8125 Q1429.7031,839.1875 1430.9375,839.1875 Q1431.6719,839.1875 1432.3125,839.3594 Q1432.9688,839.5156 1433.5156,839.875 Z " fill="#000000"/><text fill="#000000" font-family="sans-serif" font-size="14" lengthAdjust="spacing" textLength="42" x="1451.25" y="849.7285">Caster</text><line style="stroke:#181818;stroke-width:0.5;" x1="1302.5" x2="1609.5" y1="860" y2="860"/><ellipse cx="1312.5" cy="874.3047" fill="none" rx="3" ry="3" style="stroke:#038048;stroke-width:1.0;"/><text fill="#000000" font-family="sans-serif" font-size="14" lengthAdjust="spacing" textLength="283" x="1321.5" y="878.5332">static final Function&lt;String, Double&gt; castToX</text><ellipse cx="1312.5" cy="891.9141" fill="none" rx="3" ry="3" style="stroke:#038048;stroke-width:1.0;"/><text fill="#000000" font-family="sans-serif" font-size="14" lengthAdjust="spacing" textLength="271" x="1321.5" y="896.1426">static final Function&lt;String, Float&gt; castToY</text><line style="stroke:#181818;stroke-width:0.5;" x1="1302.5" x2="1609.5" y1="903.2188" y2="903.2188"/></g><!--class Validator--><g id="elem_Validator"><rect codeLine="106" fill="#F1F1F1" height="118.4375" id="Validator" rx="2.5" ry="2.5" style="stroke:#181818;stroke-width:0.5;" width="284" x="1646" y="810.5"/><ellipse cx="1755.75" cy="826.5" fill="#ADD1B2" rx="11" ry="11" style="stroke:#181818;stroke-width:1.0;"/><path d="M1758.5156,822.375 Q1758.6719,822.1563 1758.8594,822.0469 Q1759.0469,821.9375 1759.2656,821.9375 Q1759.6406,821.9375 1759.875,822.2031 Q1760.1094,822.4531 1760.1094,823.0625 L1760.1094,824.5156 Q1760.1094,825.125 1759.875,825.3906 Q1759.6406,825.6563 1759.2656,825.6563 Q1758.9219,825.6563 1758.7188,825.4531 Q1758.5156,825.2656 1758.4063,824.75 Q1758.3594,824.3906 1758.1719,824.2031 Q1757.8438,823.8281 1757.2344,823.6094 Q1756.625,823.3906 1756,823.3906 Q1755.2344,823.3906 1754.5938,823.7188 Q1753.9688,824.0469 1753.4688,824.7969 Q1752.9844,825.5469 1752.9844,826.5781 L1752.9844,827.6719 Q1752.9844,828.9063 1753.875,829.7344 Q1754.7656,830.5469 1756.3594,830.5469 Q1757.2969,830.5469 1757.9531,830.2969 Q1758.3438,830.1406 1758.7656,829.7031 Q1759.0313,829.4375 1759.1719,829.3594 Q1759.3281,829.2813 1759.5313,829.2813 Q1759.8594,829.2813 1760.1094,829.5469 Q1760.375,829.7969 1760.375,830.1406 Q1760.375,830.4844 1760.0313,830.8906 Q1759.5313,831.4688 1758.7344,831.7969 Q1757.6563,832.25 1756.3594,832.25 Q1754.8438,832.25 1753.6406,831.625 Q1752.6563,831.125 1751.9688,830.0625 Q1751.2813,828.9844 1751.2813,827.7031 L1751.2813,826.5469 Q1751.2813,825.2188 1751.8906,824.0781 Q1752.5156,822.9219 1753.6094,822.3125 Q1754.7031,821.6875 1755.9375,821.6875 Q1756.6719,821.6875 1757.3125,821.8594 Q1757.9688,822.0156 1758.5156,822.375 Z " fill="#000000"/><text fill="#000000" font-family="sans-serif" font-size="14" lengthAdjust="spacing" textLength="56" x="1776.25" y="832.2285">Validator</text><line style="stroke:#181818;stroke-width:0.5;" x1="1647" x2="1929" y1="842.5" y2="842.5"/><ellipse cx="1657" cy="856.8047" fill="none" rx="3" ry="3" style="stroke:#038048;stroke-width:1.0;"/><text fill="#000000" font-family="sans-serif" font-size="14" lengthAdjust="spacing" textLength="257" x="1666" y="861.0332">static String xHumanIntelligibleConditions</text><ellipse cx="1657" cy="874.4141" fill="none" rx="3" ry="3" style="stroke:#038048;stroke-width:1.0;"/><text fill="#000000" font-family="sans-serif" font-size="14" lengthAdjust="spacing" textLength="258" x="1666" y="878.6426">static String yHumanIntelligibleConditions</text><line style="stroke:#181818;stroke-width:0.5;" x1="1647" x2="1929" y1="885.7188" y2="885.7188"/><ellipse cx="1657" cy="900.0234" fill="#84BE84" rx="3" ry="3" style="stroke:#038048;stroke-width:1.0;"/><text fill="#000000" font-family="sans-serif" font-size="14" lengthAdjust="spacing" textLength="189" x="1666" y="904.252">static void validateX(Double x)</text><ellipse cx="1657" cy="917.6328" fill="#84BE84" rx="3" ry="3" style="stroke:#038048;stroke-width:1.0;"/><text fill="#000000" font-family="sans-serif" font-size="14" lengthAdjust="spacing" textLength="178" x="1666" y="921.8613">static void validateY(Float y)</text></g><!--class FuelType--><g id="elem_FuelType"><rect codeLine="116" fill="#F1F1F1" height="100.8281" id="FuelType" rx="2.5" ry="2.5" style="stroke:#181818;stroke-width:0.5;" width="99" x="1424.5" y="332.5"/><ellipse cx="1442.65" cy="348.5" fill="#EB937F" rx="11" ry="11" style="stroke:#181818;stroke-width:1.0;"/><path d="M1441.5094,349.2969 L1441.5094,351.7969 L1445.8375,351.7969 L1445.8375,350.875 Q1445.8375,350.2656 1446.0719,350 Q1446.3219,349.7344 1446.6969,349.7344 Q1447.0719,349.7344 1447.3063,350 Q1447.5406,350.2656 1447.5406,350.875 L1447.5406,353.5 L1439.5406,353.5 Q1438.9156,353.5 1438.65,353.2656 Q1438.4,353.0313 1438.4,352.6406 Q1438.4,352.2656 1438.6656,352.0313 Q1438.9313,351.7969 1439.5406,351.7969 L1439.8063,351.7969 L1439.8063,345.1406 L1439.5406,345.1406 Q1438.9156,345.1406 1438.65,344.9063 Q1438.4,344.6719 1438.4,344.2813 Q1438.4,343.9063 1438.65,343.6719 Q1438.9156,343.4375 1439.5406,343.4375 L1447.1656,343.4375 L1447.1656,346.0313 Q1447.1656,346.6406 1446.9313,346.9063 Q1446.7125,347.1563 1446.3219,347.1563 Q1445.9469,347.1563 1445.7125,346.9063 Q1445.4781,346.6406 1445.4781,346.0313 L1445.4781,345.1406 L1441.5094,345.1406 L1441.5094,347.5938 L1442.9938,347.5938 Q1442.9938,346.9375 1443.1188,346.75 Q1443.3844,346.3438 1443.8531,346.3438 Q1444.2281,346.3438 1444.4625,346.6094 Q1444.6969,346.8594 1444.6969,347.4688 L1444.6969,349.4375 Q1444.6969,349.9844 1444.5719,350.1719 Q1444.3063,350.5625 1443.8531,350.5625 Q1443.3844,350.5625 1443.1188,350.1563 Q1442.9938,349.9688 1442.9938,349.2969 L1441.5094,349.2969 Z " fill="#000000"/><text fill="#000000" font-family="sans-serif" font-size="14" lengthAdjust="spacing" textLength="60" x="1457.35" y="354.2285">FuelType</text><line style="stroke:#181818;stroke-width:0.5;" x1="1425.5" x2="1522.5" y1="364.5" y2="364.5"/><text fill="#000000" font-family="sans-serif" font-size="14" lengthAdjust="spacing" textLength="75" x="1430.5" y="383.0332">KEROSENE</text><text fill="#000000" font-family="sans-serif" font-size="14" lengthAdjust="spacing" textLength="64" x="1430.5" y="400.6426">NUCLEAR</text><text fill="#000000" font-family="sans-serif" font-size="14" lengthAdjust="spacing" textLength="87" x="1430.5" y="418.252">ANTIMATTER</text><line style="stroke:#181818;stroke-width:0.5;" x1="1425.5" x2="1522.5" y1="425.3281" y2="425.3281"/></g><!--reverse link Coordinates to Caster--><g id="link_Coordinates_Caster"><path codeLine="113" d="M1671.0309,482.646 C1612.4509,587.756 1522.7,748.81 1478.73,827.72 " fill="none" id="Coordinates-backto-Caster" style="stroke:#181818;stroke-width:1.0;"/><ellipse cx="1674.9254" cy="475.658" fill="#FFFFFF" rx="8" ry="8" style="stroke:#181818;stroke-width:1.0;"/><line style="stroke:#181818;stroke-width:1.0;" x1="1671.0309" x2="1678.82" y1="482.646" y2="468.67"/><line style="stroke:#181818;stroke-width:1.0;" x1="1667.9374" x2="1681.9134" y1="471.7634" y2="479.5526"/></g><!--reverse link Coordinates to Validator--><g id="link_Coordinates_Validator"><path codeLine="114" d="M1738.8708,484.5406 C1751.4008,582.4606 1769.66,725.2 1780.54,810.23 " fill="none" id="Coordinates-backto-Validator" style="stroke:#181818;stroke-width:1.0;"/><ellipse cx="1737.8554" cy="476.6053" fill="#FFFFFF" rx="8" ry="8" style="stroke:#181818;stroke-width:1.0;"/><line style="stroke:#181818;stroke-width:1.0;" x1="1738.8708" x2="1736.84" y1="484.5406" y2="468.67"/><line style="stroke:#181818;stroke-width:1.0;" x1="1729.9201" x2="1745.7907" y1="477.6207" y2="475.5899"/></g><!--reverse link Vehicle to Caster--><g id="link_Vehicle_Caster"><path codeLine="195" d="M412.4458,695.6787 C402.3058,736.9887 396.51,760.56 388.71,792.33 " fill="none" id="Vehicle-backto-Caster" style="stroke:#181818;stroke-width:1.0;"/><ellipse cx="414.3529" cy="687.9094" fill="#FFFFFF" rx="8" ry="8" style="stroke:#181818;stroke-width:1.0;"/><line style="stroke:#181818;stroke-width:1.0;" x1="412.4458" x2="416.26" y1="695.6787" y2="680.14"/><line style="stroke:#181818;stroke-width:1.0;" x1="406.5836" x2="422.1223" y1="686.0023" y2="689.8164"/></g><!--reverse link Vehicle to Validator--><g id="link_Vehicle_Validator"><path codeLine="196" d="M700.9711,693.3407 C715.1211,714.0007 719.86,720.9 732.82,739.82 " fill="none" id="Vehicle-backto-Validator" style="stroke:#181818;stroke-width:1.0;"/><ellipse cx="696.4506" cy="686.7403" fill="#FFFFFF" rx="8" ry="8" style="stroke:#181818;stroke-width:1.0;"/><line style="stroke:#181818;stroke-width:1.0;" x1="700.9711" x2="691.93" y1="693.3407" y2="680.14"/><line style="stroke:#181818;stroke-width:1.0;" x1="689.8502" x2="703.0509" y1="691.2609" y2="682.2198"/></g><!--SRC=[hLXRS-es47xFh_1CNym4yWFEPEYaO3UqX6I8EKtwfjW2V6fiAjkSC9dyzwvkHjR5G2XFeBrezUstgnLR5F-3LjYhgpGhlOyh3pvRiHONcmtA4xciYghz5glhz9Fc5IPB56FlCS_sOK6UCTbXudryDcgVLuOd_1xZRPKMkUukpb1PUX4ccpH75GwadiCVLxyZgtg3yqhpDV1ojC7UD- -v8cc-qcG9ZadAVJiqTYYhgNcahSUehA8Y0Z106DPvJ9tSSXVzQDZIlcw2yrl1z6txzu-vxcc-Irnzfq7wCbIksODlko9DDEsLrEuPXsB26GJ8P1OqcC8Obp9ccvwHbn6dqfbfAO_b1Gb4Ir2u8mJjfsbPtKgSRtyTjbFmYuVpNKeAnf1lNj3yq0ueeZNpP0PaoSF1hU_OZY8czj3YI_EqWl1B7qx63zKSnPrAPj0x3OB_9RrSxmEzbHL1SVK9HOpZki8owdjKhX_GLhALntu8ZYyF5ROed95zOGtWP9YeNQ55fNikrmdLz2mZ2c6dmu6In1T6Xwme2HBxc1XPIUBABCzJbWaPJzUeo3BCwze8pgYW0ti-DCy2V1cFSPY-rvKMet8jkI3utngNbIiLSoxMKr5MgAhflaB-p7vhIWINM-ZzpYPmE8sh0PnO-rntXE8rDg5uVFi1YHZQsu08tzT3wRavuQmPQ0yS1j-EZhl8XLcl4q-smLn0wXlOkhqtDbrTuRm-0uK5Kb-sw9EQ6RSf_UDzlRiRiZIpK4zATAbQnPqKCVPL2XNdzQQTd7P9X8lfD9nCWt5hzIcOZIUptrjhy-2FO1GfYjQof2C2dQ_qgcJBohoaqxejz_a1eLpRf3RlS6QtW47HS4d9dCRU4YQrp1XM19-6OgGvfU4ag49l29XhJfvGXS1KoesR7LwdSOQjS-EeA4Z21aTzhXJ3HL6_WUcxHRJC2bHvUqDohJhrfOE-rEzP38GIiFB5jycvAOXVhM9AD4hEbsQtBgrNtng9aaSzbnPaZkLop0AHkNmvspwa8KhpLorGtPabS1XRKs17qHcxOFJxVGtTU0BFaYnBLod4FIho96MF3RSnWtF7jy4l_hW3-VPs-yktU_N34rAeSljwC139x5HfO6jxOXqhh776tXacedy6yyVdO1OOWjbYD0tkviRwtIoQFDn5KJ1tfDReAelIuE70cnQ0fzRS1nBd6Ypeq6MNhg5ju-G9NFy42AwqHaLtytksHSsvx5hGTxYdjf7cWSKBPJn93EV23GWNmdM7odqhUB-Z6N-tzhw1btKXPq5D9Kfy-Avf_K0xT5Eb6tppD_JUP0mg4VpoOe8HvJTTq4muaN6-IdFyLFpK-3dmQ9si8FN0m3TC7fT_hJ7Ez7rvGri2GQ6Kodh3BYnz8qdVfVXoPPb3eT0OCd5D2DmT3-XzajZLb2lVuvjY8byiGszJmyMKuJ35MLBgv18vyHMq-ow0-oP0VGScVJiCVVFaFVkr_8oRDnSbsODw1eECyZPXuj_sxAdOEf3umVvdq8spK-fWPgi15IOsI1zkMbtLHKPgfl3Hi0lbPHiSC3UKP0fedAqi69hDtHssysBkAzCaTEbt9-mwtYuz5I07nLocwl4D4ZhZQeDXPwgJInf2LZvt6JF8JgLx0v5IwxvH_Gv-Lc8-DHAKmXE6pfw8uAZmPVlT7PsNpvoLwKqYnwD9Si6OFTDx_LcJMU3esyUS25uqGRYR-rdXX1qtm557WYsgBtPDkEzMnuof3toqFa-T-Uppth5gjzbyeVBROIlLVbdqPpKI3ReMCIu4yIkjgHsEreekY-TBtKuuCluaRPeT-x- -F7eAgdfv-CVwhL8oiXDQ7YAgwF00uVQVL_y1]--></g></svg>