<?xml version="1.0" encoding="us-ascii" standalone="no"?><svg xmlns="http://www.w3.org/2000/svg" xmlns:xlink="http://www.w3.org/1999/xlink" contentStyleType="text/css" height="865px" preserveAspectRatio="none" style="width:8187px;height:865px;background:#FFFFFF;" version="1.1" viewBox="0 0 8187 865" width="8187px" zoomAndPan="magnify"><defs/><g><!--cluster main--><g id="cluster_main"><path d="M8.5,6 L42.5,6 A3.75,3.75 0 0 1 45,8.5 L52,29.6094 L7300.5,29.6094 A2.5,2.5 0 0 1 7303,32.1094 L7303,855.5 A2.5,2.5 0 0 1 7300.5,858 L8.5,858 A2.5,2.5 0 0 1 6,855.5 L6,8.5 A2.5,2.5 0 0 1 8.5,6 " fill="none" style="stroke:#000000;stroke-width:1.5;"/><line style="stroke:#000000;stroke-width:1.5;" x1="6" x2="52" y1="29.6094" y2="29.6094"/><text fill="#000000" font-family="sans-serif" font-size="14" font-weight="bold" lengthAdjust="spacing" textLength="33" x="10" y="22.5332">main</text></g><!--cluster java--><g id="cluster_java"><path d="M32.5,50 L62.5,50 A3.75,3.75 0 0 1 65,52.5 L72,73.6094 L7276.5,73.6094 A2.5,2.5 0 0 1 7279,76.1094 L7279,831.5 A2.5,2.5 0 0 1 7276.5,834 L32.5,834 A2.5,2.5 0 0 1 30,831.5 L30,52.5 A2.5,2.5 0 0 1 32.5,50 " fill="none" style="stroke:#000000;stroke-width:1.5;"/><line style="stroke:#000000;stroke-width:1.5;" x1="30" x2="72" y1="73.6094" y2="73.6094"/><text fill="#000000" font-family="sans-serif" font-size="14" font-weight="bold" lengthAdjust="spacing" textLength="29" x="34" y="66.5332">java</text></g><!--cluster server--><g id="cluster_server"><path d="M56.5,94 L104.5,94 A3.75,3.75 0 0 1 107,96.5 L114,117.6094 L7252.5,117.6094 A2.5,2.5 0 0 1 7255,120.1094 L7255,807.5 A2.5,2.5 0 0 1 7252.5,810 L56.5,810 A2.5,2.5 0 0 1 54,807.5 L54,96.5 A2.5,2.5 0 0 1 56.5,94 " fill="none" style="stroke:#000000;stroke-width:1.5;"/><line style="stroke:#000000;stroke-width:1.5;" x1="54" x2="114" y1="117.6094" y2="117.6094"/><text fill="#000000" font-family="sans-serif" font-size="14" font-weight="bold" lengthAdjust="spacing" textLength="47" x="58" y="110.5332">server</text></g><!--cluster commands--><g id="cluster_commands"><path d="M2035.5,305 L2111.5,305 A3.75,3.75 0 0 1 2114,307.5 L2121,328.6094 L7228.5,328.6094 A2.5,2.5 0 0 1 7231,331.1094 L7231,420.5 A2.5,2.5 0 0 1 7228.5,423 L2035.5,423 A2.5,2.5 0 0 1 2033,420.5 L2033,307.5 A2.5,2.5 0 0 1 2035.5,305 " fill="none" style="stroke:#000000;stroke-width:1.5;"/><line style="stroke:#000000;stroke-width:1.5;" x1="2033" x2="2121" y1="328.6094" y2="328.6094"/><text fill="#000000" font-family="sans-serif" font-size="14" font-weight="bold" lengthAdjust="spacing" textLength="75" x="2037" y="321.5332">commands</text></g><!--cluster managers--><g id="cluster_managers"><path d="M246.5,138 L316.5,138 A3.75,3.75 0 0 1 319,140.5 L326,161.6094 L1519.5,161.6094 A2.5,2.5 0 0 1 1522,164.1094 L1522,783.5 A2.5,2.5 0 0 1 1519.5,786 L246.5,786 A2.5,2.5 0 0 1 244,783.5 L244,140.5 A2.5,2.5 0 0 1 246.5,138 " fill="none" style="stroke:#000000;stroke-width:1.5;"/><line style="stroke:#000000;stroke-width:1.5;" x1="244" x2="326" y1="161.6094" y2="161.6094"/><text fill="#000000" font-family="sans-serif" font-size="14" font-weight="bold" lengthAdjust="spacing" textLength="69" x="248" y="154.5332">managers</text></g><!--class Server--><g id="elem_Server"><rect codeLine="3" fill="#F1F1F1" height="206.4844" id="Server" rx="2.5" ry="2.5" style="stroke:#181818;stroke-width:0.5;" width="333" x="1541.5" y="271"/><ellipse cx="1682.75" cy="287" fill="#ADD1B2" rx="11" ry="11" style="stroke:#181818;stroke-width:1.0;"/><path d="M1685.5156,282.875 Q1685.6719,282.6563 1685.8594,282.5469 Q1686.0469,282.4375 1686.2656,282.4375 Q1686.6406,282.4375 1686.875,282.7031 Q1687.1094,282.9531 1687.1094,283.5625 L1687.1094,285.0156 Q1687.1094,285.625 1686.875,285.8906 Q1686.6406,286.1563 1686.2656,286.1563 Q1685.9219,286.1563 1685.7188,285.9531 Q1685.5156,285.7656 1685.4063,285.25 Q1685.3594,284.8906 1685.1719,284.7031 Q1684.8438,284.3281 1684.2344,284.1094 Q1683.625,283.8906 1683,283.8906 Q1682.2344,283.8906 1681.5938,284.2188 Q1680.9688,284.5469 1680.4688,285.2969 Q1679.9844,286.0469 1679.9844,287.0781 L1679.9844,288.1719 Q1679.9844,289.4063 1680.875,290.2344 Q1681.7656,291.0469 1683.3594,291.0469 Q1684.2969,291.0469 1684.9531,290.7969 Q1685.3438,290.6406 1685.7656,290.2031 Q1686.0313,289.9375 1686.1719,289.8594 Q1686.3281,289.7813 1686.5313,289.7813 Q1686.8594,289.7813 1687.1094,290.0469 Q1687.375,290.2969 1687.375,290.6406 Q1687.375,290.9844 1687.0313,291.3906 Q1686.5313,291.9688 1685.7344,292.2969 Q1684.6563,292.75 1683.3594,292.75 Q1681.8438,292.75 1680.6406,292.125 Q1679.6563,291.625 1678.9688,290.5625 Q1678.2813,289.4844 1678.2813,288.2031 L1678.2813,287.0469 Q1678.2813,285.7188 1678.8906,284.5781 Q1679.5156,283.4219 1680.6094,282.8125 Q1681.7031,282.1875 1682.9375,282.1875 Q1683.6719,282.1875 1684.3125,282.3594 Q1684.9688,282.5156 1685.5156,282.875 Z " fill="#000000"/><text fill="#000000" font-family="sans-serif" font-size="14" lengthAdjust="spacing" textLength="42" x="1703.25" y="292.7285">Server</text><line style="stroke:#181818;stroke-width:0.5;" x1="1542.5" x2="1873.5" y1="303" y2="303"/><text fill="#000000" font-family="sans-serif" font-size="14" lengthAdjust="spacing" textLength="113" x="1547.5" y="321.5332">LOGGER: Logger</text><text fill="#000000" font-family="sans-serif" font-size="14" lengthAdjust="spacing" textLength="176" x="1547.5" y="339.1426">serverSocket: ServerSocket</text><text fill="#000000" font-family="sans-serif" font-size="14" lengthAdjust="spacing" textLength="179" x="1547.5" y="356.752">threadPool: ExecutorService</text><text fill="#000000" font-family="sans-serif" font-size="14" lengthAdjust="spacing" textLength="191" x="1547.5" y="374.3613">enviroment: ServerEnviroment</text><line style="stroke:#181818;stroke-width:0.5;" x1="1542.5" x2="1873.5" y1="381.4375" y2="381.4375"/><text fill="#000000" font-family="sans-serif" font-size="14" lengthAdjust="spacing" textLength="321" x="1547.5" y="399.9707">setEnviroment(ServerEnviroment enviroment): void</text><text fill="#000000" font-family="sans-serif" font-size="14" lengthAdjust="spacing" textLength="77" x="1547.5" y="417.5801">listen(): void</text><text fill="#000000" font-family="sans-serif" font-size="14" lengthAdjust="spacing" textLength="175" x="1547.5" y="435.1895">acceptConnection(): Socket</text><text fill="#000000" font-family="sans-serif" font-size="14" lengthAdjust="spacing" textLength="235" x="1547.5" y="452.7988">processRequest(Socket socket): void</text><text fill="#000000" font-family="sans-serif" font-size="14" lengthAdjust="spacing" textLength="77" x="1547.5" y="470.4082">close(): void</text></g><!--class Task--><g id="elem_Task"><rect codeLine="14" fill="#F1F1F1" height="83.2188" id="Task" rx="2.5" ry="2.5" style="stroke:#181818;stroke-width:0.5;" width="104" x="1910" y="332.5"/><ellipse cx="1943.45" cy="348.5" fill="#ADD1B2" rx="11" ry="11" style="stroke:#181818;stroke-width:1.0;"/><path d="M1946.2156,344.375 Q1946.3719,344.1563 1946.5594,344.0469 Q1946.7469,343.9375 1946.9656,343.9375 Q1947.3406,343.9375 1947.575,344.2031 Q1947.8094,344.4531 1947.8094,345.0625 L1947.8094,346.5156 Q1947.8094,347.125 1947.575,347.3906 Q1947.3406,347.6563 1946.9656,347.6563 Q1946.6219,347.6563 1946.4188,347.4531 Q1946.2156,347.2656 1946.1063,346.75 Q1946.0594,346.3906 1945.8719,346.2031 Q1945.5438,345.8281 1944.9344,345.6094 Q1944.325,345.3906 1943.7,345.3906 Q1942.9344,345.3906 1942.2938,345.7188 Q1941.6688,346.0469 1941.1688,346.7969 Q1940.6844,347.5469 1940.6844,348.5781 L1940.6844,349.6719 Q1940.6844,350.9063 1941.575,351.7344 Q1942.4656,352.5469 1944.0594,352.5469 Q1944.9969,352.5469 1945.6531,352.2969 Q1946.0438,352.1406 1946.4656,351.7031 Q1946.7313,351.4375 1946.8719,351.3594 Q1947.0281,351.2813 1947.2313,351.2813 Q1947.5594,351.2813 1947.8094,351.5469 Q1948.075,351.7969 1948.075,352.1406 Q1948.075,352.4844 1947.7313,352.8906 Q1947.2313,353.4688 1946.4344,353.7969 Q1945.3563,354.25 1944.0594,354.25 Q1942.5438,354.25 1941.3406,353.625 Q1940.3563,353.125 1939.6688,352.0625 Q1938.9813,350.9844 1938.9813,349.7031 L1938.9813,348.5469 Q1938.9813,347.2188 1939.5906,346.0781 Q1940.2156,344.9219 1941.3094,344.3125 Q1942.4031,343.6875 1943.6375,343.6875 Q1944.3719,343.6875 1945.0125,343.8594 Q1945.6688,344.0156 1946.2156,344.375 Z " fill="#000000"/><text fill="#000000" font-family="sans-serif" font-size="14" lengthAdjust="spacing" textLength="31" x="1961.55" y="354.2285">Task</text><line style="stroke:#181818;stroke-width:0.5;" x1="1911" x2="2013" y1="364.5" y2="364.5"/><text fill="#000000" font-family="sans-serif" font-size="14" lengthAdjust="spacing" textLength="92" x="1916" y="383.0332">socket: Socket</text><line style="stroke:#181818;stroke-width:0.5;" x1="1911" x2="2013" y1="390.1094" y2="390.1094"/><text fill="#000000" font-family="sans-serif" font-size="14" lengthAdjust="spacing" textLength="65" x="1916" y="408.6426">run(): void</text></g><!--class ServerApp--><g id="elem_ServerApp"><rect codeLine="18" fill="#F1F1F1" height="118.4375" id="ServerApp" rx="2.5" ry="2.5" style="stroke:#181818;stroke-width:0.5;" width="155" x="70.5" y="315"/><ellipse cx="110.7" cy="331" fill="#ADD1B2" rx="11" ry="11" style="stroke:#181818;stroke-width:1.0;"/><path d="M113.4656,326.875 Q113.6219,326.6563 113.8094,326.5469 Q113.9969,326.4375 114.2156,326.4375 Q114.5906,326.4375 114.825,326.7031 Q115.0594,326.9531 115.0594,327.5625 L115.0594,329.0156 Q115.0594,329.625 114.825,329.8906 Q114.5906,330.1563 114.2156,330.1563 Q113.8719,330.1563 113.6688,329.9531 Q113.4656,329.7656 113.3563,329.25 Q113.3094,328.8906 113.1219,328.7031 Q112.7938,328.3281 112.1844,328.1094 Q111.575,327.8906 110.95,327.8906 Q110.1844,327.8906 109.5438,328.2188 Q108.9188,328.5469 108.4188,329.2969 Q107.9344,330.0469 107.9344,331.0781 L107.9344,332.1719 Q107.9344,333.4063 108.825,334.2344 Q109.7156,335.0469 111.3094,335.0469 Q112.2469,335.0469 112.9031,334.7969 Q113.2938,334.6406 113.7156,334.2031 Q113.9813,333.9375 114.1219,333.8594 Q114.2781,333.7813 114.4813,333.7813 Q114.8094,333.7813 115.0594,334.0469 Q115.325,334.2969 115.325,334.6406 Q115.325,334.9844 114.9813,335.3906 Q114.4813,335.9688 113.6844,336.2969 Q112.6063,336.75 111.3094,336.75 Q109.7938,336.75 108.5906,336.125 Q107.6063,335.625 106.9188,334.5625 Q106.2313,333.4844 106.2313,332.2031 L106.2313,331.0469 Q106.2313,329.7188 106.8406,328.5781 Q107.4656,327.4219 108.5594,326.8125 Q109.6531,326.1875 110.8875,326.1875 Q111.6219,326.1875 112.2625,326.3594 Q112.9188,326.5156 113.4656,326.875 Z " fill="#000000"/><text fill="#000000" font-family="sans-serif" font-size="14" lengthAdjust="spacing" textLength="67" x="130.3" y="336.7285">ServerApp</text><line style="stroke:#181818;stroke-width:0.5;" x1="71.5" x2="224.5" y1="347" y2="347"/><text fill="#000000" font-family="sans-serif" font-size="14" lengthAdjust="spacing" textLength="113" x="76.5" y="365.5332">LOGGER: Logger</text><text fill="#000000" font-family="sans-serif" font-size="14" lengthAdjust="spacing" textLength="83" x="76.5" y="383.1426">HOST: String</text><text fill="#000000" font-family="sans-serif" font-size="14" lengthAdjust="spacing" textLength="62" x="76.5" y="400.752">PORT: int</text><line style="stroke:#181818;stroke-width:0.5;" x1="71.5" x2="224.5" y1="407.8281" y2="407.8281"/><text fill="#000000" font-family="sans-serif" font-size="14" lengthAdjust="spacing" textLength="143" x="76.5" y="426.3613">main(String args): void</text></g><!--class Add--><g id="elem_Add"><rect codeLine="27" fill="#F1F1F1" height="65.6094" id="Add" rx="2.5" ry="2.5" style="stroke:#181818;stroke-width:0.5;" width="365" x="5249.5" y="341"/><ellipse cx="5415.25" cy="357" fill="#ADD1B2" rx="11" ry="11" style="stroke:#181818;stroke-width:1.0;"/><path d="M5418.0156,352.875 Q5418.1719,352.6563 5418.3594,352.5469 Q5418.5469,352.4375 5418.7656,352.4375 Q5419.1406,352.4375 5419.375,352.7031 Q5419.6094,352.9531 5419.6094,353.5625 L5419.6094,355.0156 Q5419.6094,355.625 5419.375,355.8906 Q5419.1406,356.1563 5418.7656,356.1563 Q5418.4219,356.1563 5418.2188,355.9531 Q5418.0156,355.7656 5417.9063,355.25 Q5417.8594,354.8906 5417.6719,354.7031 Q5417.3438,354.3281 5416.7344,354.1094 Q5416.125,353.8906 5415.5,353.8906 Q5414.7344,353.8906 5414.0938,354.2188 Q5413.4688,354.5469 5412.9688,355.2969 Q5412.4844,356.0469 5412.4844,357.0781 L5412.4844,358.1719 Q5412.4844,359.4063 5413.375,360.2344 Q5414.2656,361.0469 5415.8594,361.0469 Q5416.7969,361.0469 5417.4531,360.7969 Q5417.8438,360.6406 5418.2656,360.2031 Q5418.5313,359.9375 5418.6719,359.8594 Q5418.8281,359.7813 5419.0313,359.7813 Q5419.3594,359.7813 5419.6094,360.0469 Q5419.875,360.2969 5419.875,360.6406 Q5419.875,360.9844 5419.5313,361.3906 Q5419.0313,361.9688 5418.2344,362.2969 Q5417.1563,362.75 5415.8594,362.75 Q5414.3438,362.75 5413.1406,362.125 Q5412.1563,361.625 5411.4688,360.5625 Q5410.7813,359.4844 5410.7813,358.2031 L5410.7813,357.0469 Q5410.7813,355.7188 5411.3906,354.5781 Q5412.0156,353.4219 5413.1094,352.8125 Q5414.2031,352.1875 5415.4375,352.1875 Q5416.1719,352.1875 5416.8125,352.3594 Q5417.4688,352.5156 5418.0156,352.875 Z " fill="#000000"/><text fill="#000000" font-family="sans-serif" font-size="14" lengthAdjust="spacing" textLength="25" x="5435.75" y="362.7285">Add</text><line style="stroke:#181818;stroke-width:0.5;" x1="5250.5" x2="5613.5" y1="373" y2="373"/><line style="stroke:#181818;stroke-width:0.5;" x1="5250.5" x2="5613.5" y1="381" y2="381"/><text fill="#000000" font-family="sans-serif" font-size="14" lengthAdjust="spacing" textLength="353" x="5255.5" y="399.5332">execute(CommandRequest request): CommandRequest</text></g><!--class Clear--><g id="elem_Clear"><rect codeLine="30" fill="#F1F1F1" height="65.6094" id="Clear" rx="2.5" ry="2.5" style="stroke:#181818;stroke-width:0.5;" width="365" x="4849.5" y="341"/><ellipse cx="5010.75" cy="357" fill="#ADD1B2" rx="11" ry="11" style="stroke:#181818;stroke-width:1.0;"/><path d="M5013.5156,352.875 Q5013.6719,352.6563 5013.8594,352.5469 Q5014.0469,352.4375 5014.2656,352.4375 Q5014.6406,352.4375 5014.875,352.7031 Q5015.1094,352.9531 5015.1094,353.5625 L5015.1094,355.0156 Q5015.1094,355.625 5014.875,355.8906 Q5014.6406,356.1563 5014.2656,356.1563 Q5013.9219,356.1563 5013.7188,355.9531 Q5013.5156,355.7656 5013.4063,355.25 Q5013.3594,354.8906 5013.1719,354.7031 Q5012.8438,354.3281 5012.2344,354.1094 Q5011.625,353.8906 5011,353.8906 Q5010.2344,353.8906 5009.5938,354.2188 Q5008.9688,354.5469 5008.4688,355.2969 Q5007.9844,356.0469 5007.9844,357.0781 L5007.9844,358.1719 Q5007.9844,359.4063 5008.875,360.2344 Q5009.7656,361.0469 5011.3594,361.0469 Q5012.2969,361.0469 5012.9531,360.7969 Q5013.3438,360.6406 5013.7656,360.2031 Q5014.0313,359.9375 5014.1719,359.8594 Q5014.3281,359.7813 5014.5313,359.7813 Q5014.8594,359.7813 5015.1094,360.0469 Q5015.375,360.2969 5015.375,360.6406 Q5015.375,360.9844 5015.0313,361.3906 Q5014.5313,361.9688 5013.7344,362.2969 Q5012.6563,362.75 5011.3594,362.75 Q5009.8438,362.75 5008.6406,362.125 Q5007.6563,361.625 5006.9688,360.5625 Q5006.2813,359.4844 5006.2813,358.2031 L5006.2813,357.0469 Q5006.2813,355.7188 5006.8906,354.5781 Q5007.5156,353.4219 5008.6094,352.8125 Q5009.7031,352.1875 5010.9375,352.1875 Q5011.6719,352.1875 5012.3125,352.3594 Q5012.9688,352.5156 5013.5156,352.875 Z " fill="#000000"/><text fill="#000000" font-family="sans-serif" font-size="14" lengthAdjust="spacing" textLength="34" x="5031.25" y="362.7285">Clear</text><line style="stroke:#181818;stroke-width:0.5;" x1="4850.5" x2="5213.5" y1="373" y2="373"/><line style="stroke:#181818;stroke-width:0.5;" x1="4850.5" x2="5213.5" y1="381" y2="381"/><text fill="#000000" font-family="sans-serif" font-size="14" lengthAdjust="spacing" textLength="353" x="4855.5" y="399.5332">execute(CommandRequest request): CommandRequest</text></g><!--class CountLessThanEnginePower--><g id="elem_CountLessThanEnginePower"><rect codeLine="33" fill="#F1F1F1" height="65.6094" id="CountLessThanEnginePower" rx="2.5" ry="2.5" style="stroke:#181818;stroke-width:0.5;" width="365" x="4449.5" y="341"/><ellipse cx="4535.75" cy="357" fill="#ADD1B2" rx="11" ry="11" style="stroke:#181818;stroke-width:1.0;"/><path d="M4538.5156,352.875 Q4538.6719,352.6563 4538.8594,352.5469 Q4539.0469,352.4375 4539.2656,352.4375 Q4539.6406,352.4375 4539.875,352.7031 Q4540.1094,352.9531 4540.1094,353.5625 L4540.1094,355.0156 Q4540.1094,355.625 4539.875,355.8906 Q4539.6406,356.1563 4539.2656,356.1563 Q4538.9219,356.1563 4538.7188,355.9531 Q4538.5156,355.7656 4538.4063,355.25 Q4538.3594,354.8906 4538.1719,354.7031 Q4537.8438,354.3281 4537.2344,354.1094 Q4536.625,353.8906 4536,353.8906 Q4535.2344,353.8906 4534.5938,354.2188 Q4533.9688,354.5469 4533.4688,355.2969 Q4532.9844,356.0469 4532.9844,357.0781 L4532.9844,358.1719 Q4532.9844,359.4063 4533.875,360.2344 Q4534.7656,361.0469 4536.3594,361.0469 Q4537.2969,361.0469 4537.9531,360.7969 Q4538.3438,360.6406 4538.7656,360.2031 Q4539.0313,359.9375 4539.1719,359.8594 Q4539.3281,359.7813 4539.5313,359.7813 Q4539.8594,359.7813 4540.1094,360.0469 Q4540.375,360.2969 4540.375,360.6406 Q4540.375,360.9844 4540.0313,361.3906 Q4539.5313,361.9688 4538.7344,362.2969 Q4537.6563,362.75 4536.3594,362.75 Q4534.8438,362.75 4533.6406,362.125 Q4532.6563,361.625 4531.9688,360.5625 Q4531.2813,359.4844 4531.2813,358.2031 L4531.2813,357.0469 Q4531.2813,355.7188 4531.8906,354.5781 Q4532.5156,353.4219 4533.6094,352.8125 Q4534.7031,352.1875 4535.9375,352.1875 Q4536.6719,352.1875 4537.3125,352.3594 Q4537.9688,352.5156 4538.5156,352.875 Z " fill="#000000"/><text fill="#000000" font-family="sans-serif" font-size="14" lengthAdjust="spacing" textLength="184" x="4556.25" y="362.7285">CountLessThanEnginePower</text><line style="stroke:#181818;stroke-width:0.5;" x1="4450.5" x2="4813.5" y1="373" y2="373"/><line style="stroke:#181818;stroke-width:0.5;" x1="4450.5" x2="4813.5" y1="381" y2="381"/><text fill="#000000" font-family="sans-serif" font-size="14" lengthAdjust="spacing" textLength="353" x="4455.5" y="399.5332">execute(CommandRequest request): CommandRequest</text></g><!--class FilterGreaterThanFuelConsumption--><g id="elem_FilterGreaterThanFuelConsumption"><rect codeLine="36" fill="#F1F1F1" height="65.6094" id="FilterGreaterThanFuelConsumption" rx="2.5" ry="2.5" style="stroke:#181818;stroke-width:0.5;" width="365" x="4049.5" y="341"/><ellipse cx="4115.25" cy="357" fill="#ADD1B2" rx="11" ry="11" style="stroke:#181818;stroke-width:1.0;"/><path d="M4118.0156,352.875 Q4118.1719,352.6563 4118.3594,352.5469 Q4118.5469,352.4375 4118.7656,352.4375 Q4119.1406,352.4375 4119.375,352.7031 Q4119.6094,352.9531 4119.6094,353.5625 L4119.6094,355.0156 Q4119.6094,355.625 4119.375,355.8906 Q4119.1406,356.1563 4118.7656,356.1563 Q4118.4219,356.1563 4118.2188,355.9531 Q4118.0156,355.7656 4117.9063,355.25 Q4117.8594,354.8906 4117.6719,354.7031 Q4117.3438,354.3281 4116.7344,354.1094 Q4116.125,353.8906 4115.5,353.8906 Q4114.7344,353.8906 4114.0938,354.2188 Q4113.4688,354.5469 4112.9688,355.2969 Q4112.4844,356.0469 4112.4844,357.0781 L4112.4844,358.1719 Q4112.4844,359.4063 4113.375,360.2344 Q4114.2656,361.0469 4115.8594,361.0469 Q4116.7969,361.0469 4117.4531,360.7969 Q4117.8438,360.6406 4118.2656,360.2031 Q4118.5313,359.9375 4118.6719,359.8594 Q4118.8281,359.7813 4119.0313,359.7813 Q4119.3594,359.7813 4119.6094,360.0469 Q4119.875,360.2969 4119.875,360.6406 Q4119.875,360.9844 4119.5313,361.3906 Q4119.0313,361.9688 4118.2344,362.2969 Q4117.1563,362.75 4115.8594,362.75 Q4114.3438,362.75 4113.1406,362.125 Q4112.1563,361.625 4111.4688,360.5625 Q4110.7813,359.4844 4110.7813,358.2031 L4110.7813,357.0469 Q4110.7813,355.7188 4111.3906,354.5781 Q4112.0156,353.4219 4113.1094,352.8125 Q4114.2031,352.1875 4115.4375,352.1875 Q4116.1719,352.1875 4116.8125,352.3594 Q4117.4688,352.5156 4118.0156,352.875 Z " fill="#000000"/><text fill="#000000" font-family="sans-serif" font-size="14" lengthAdjust="spacing" textLength="225" x="4135.75" y="362.7285">FilterGreaterThanFuelConsumption</text><line style="stroke:#181818;stroke-width:0.5;" x1="4050.5" x2="4413.5" y1="373" y2="373"/><line style="stroke:#181818;stroke-width:0.5;" x1="4050.5" x2="4413.5" y1="381" y2="381"/><text fill="#000000" font-family="sans-serif" font-size="14" lengthAdjust="spacing" textLength="353" x="4055.5" y="399.5332">execute(CommandRequest request): CommandRequest</text></g><!--class FilterStartsWithName--><g id="elem_FilterStartsWithName"><rect codeLine="39" fill="#F1F1F1" height="65.6094" id="FilterStartsWithName" rx="2.5" ry="2.5" style="stroke:#181818;stroke-width:0.5;" width="365" x="3649.5" y="341"/><ellipse cx="3761.25" cy="357" fill="#ADD1B2" rx="11" ry="11" style="stroke:#181818;stroke-width:1.0;"/><path d="M3764.0156,352.875 Q3764.1719,352.6563 3764.3594,352.5469 Q3764.5469,352.4375 3764.7656,352.4375 Q3765.1406,352.4375 3765.375,352.7031 Q3765.6094,352.9531 3765.6094,353.5625 L3765.6094,355.0156 Q3765.6094,355.625 3765.375,355.8906 Q3765.1406,356.1563 3764.7656,356.1563 Q3764.4219,356.1563 3764.2188,355.9531 Q3764.0156,355.7656 3763.9063,355.25 Q3763.8594,354.8906 3763.6719,354.7031 Q3763.3438,354.3281 3762.7344,354.1094 Q3762.125,353.8906 3761.5,353.8906 Q3760.7344,353.8906 3760.0938,354.2188 Q3759.4688,354.5469 3758.9688,355.2969 Q3758.4844,356.0469 3758.4844,357.0781 L3758.4844,358.1719 Q3758.4844,359.4063 3759.375,360.2344 Q3760.2656,361.0469 3761.8594,361.0469 Q3762.7969,361.0469 3763.4531,360.7969 Q3763.8438,360.6406 3764.2656,360.2031 Q3764.5313,359.9375 3764.6719,359.8594 Q3764.8281,359.7813 3765.0313,359.7813 Q3765.3594,359.7813 3765.6094,360.0469 Q3765.875,360.2969 3765.875,360.6406 Q3765.875,360.9844 3765.5313,361.3906 Q3765.0313,361.9688 3764.2344,362.2969 Q3763.1563,362.75 3761.8594,362.75 Q3760.3438,362.75 3759.1406,362.125 Q3758.1563,361.625 3757.4688,360.5625 Q3756.7813,359.4844 3756.7813,358.2031 L3756.7813,357.0469 Q3756.7813,355.7188 3757.3906,354.5781 Q3758.0156,353.4219 3759.1094,352.8125 Q3760.2031,352.1875 3761.4375,352.1875 Q3762.1719,352.1875 3762.8125,352.3594 Q3763.4688,352.5156 3764.0156,352.875 Z " fill="#000000"/><text fill="#000000" font-family="sans-serif" font-size="14" lengthAdjust="spacing" textLength="133" x="3781.75" y="362.7285">FilterStartsWithName</text><line style="stroke:#181818;stroke-width:0.5;" x1="3650.5" x2="4013.5" y1="373" y2="373"/><line style="stroke:#181818;stroke-width:0.5;" x1="3650.5" x2="4013.5" y1="381" y2="381"/><text fill="#000000" font-family="sans-serif" font-size="14" lengthAdjust="spacing" textLength="353" x="3655.5" y="399.5332">execute(CommandRequest request): CommandRequest</text></g><!--class Info--><g id="elem_Info"><rect codeLine="42" fill="#F1F1F1" height="65.6094" id="Info" rx="2.5" ry="2.5" style="stroke:#181818;stroke-width:0.5;" width="365" x="3249.5" y="341"/><ellipse cx="3416.25" cy="357" fill="#ADD1B2" rx="11" ry="11" style="stroke:#181818;stroke-width:1.0;"/><path d="M3419.0156,352.875 Q3419.1719,352.6563 3419.3594,352.5469 Q3419.5469,352.4375 3419.7656,352.4375 Q3420.1406,352.4375 3420.375,352.7031 Q3420.6094,352.9531 3420.6094,353.5625 L3420.6094,355.0156 Q3420.6094,355.625 3420.375,355.8906 Q3420.1406,356.1563 3419.7656,356.1563 Q3419.4219,356.1563 3419.2188,355.9531 Q3419.0156,355.7656 3418.9063,355.25 Q3418.8594,354.8906 3418.6719,354.7031 Q3418.3438,354.3281 3417.7344,354.1094 Q3417.125,353.8906 3416.5,353.8906 Q3415.7344,353.8906 3415.0938,354.2188 Q3414.4688,354.5469 3413.9688,355.2969 Q3413.4844,356.0469 3413.4844,357.0781 L3413.4844,358.1719 Q3413.4844,359.4063 3414.375,360.2344 Q3415.2656,361.0469 3416.8594,361.0469 Q3417.7969,361.0469 3418.4531,360.7969 Q3418.8438,360.6406 3419.2656,360.2031 Q3419.5313,359.9375 3419.6719,359.8594 Q3419.8281,359.7813 3420.0313,359.7813 Q3420.3594,359.7813 3420.6094,360.0469 Q3420.875,360.2969 3420.875,360.6406 Q3420.875,360.9844 3420.5313,361.3906 Q3420.0313,361.9688 3419.2344,362.2969 Q3418.1563,362.75 3416.8594,362.75 Q3415.3438,362.75 3414.1406,362.125 Q3413.1563,361.625 3412.4688,360.5625 Q3411.7813,359.4844 3411.7813,358.2031 L3411.7813,357.0469 Q3411.7813,355.7188 3412.3906,354.5781 Q3413.0156,353.4219 3414.1094,352.8125 Q3415.2031,352.1875 3416.4375,352.1875 Q3417.1719,352.1875 3417.8125,352.3594 Q3418.4688,352.5156 3419.0156,352.875 Z " fill="#000000"/><text fill="#000000" font-family="sans-serif" font-size="14" lengthAdjust="spacing" textLength="23" x="3436.75" y="362.7285">Info</text><line style="stroke:#181818;stroke-width:0.5;" x1="3250.5" x2="3613.5" y1="373" y2="373"/><line style="stroke:#181818;stroke-width:0.5;" x1="3250.5" x2="3613.5" y1="381" y2="381"/><text fill="#000000" font-family="sans-serif" font-size="14" lengthAdjust="spacing" textLength="353" x="3255.5" y="399.5332">execute(CommandRequest request): CommandRequest</text></g><!--class Registration--><g id="elem_Registration"><rect codeLine="45" fill="#F1F1F1" height="65.6094" id="Registration" rx="2.5" ry="2.5" style="stroke:#181818;stroke-width:0.5;" width="365" x="6849.5" y="341"/><ellipse cx="6989.75" cy="357" fill="#ADD1B2" rx="11" ry="11" style="stroke:#181818;stroke-width:1.0;"/><path d="M6992.5156,352.875 Q6992.6719,352.6563 6992.8594,352.5469 Q6993.0469,352.4375 6993.2656,352.4375 Q6993.6406,352.4375 6993.875,352.7031 Q6994.1094,352.9531 6994.1094,353.5625 L6994.1094,355.0156 Q6994.1094,355.625 6993.875,355.8906 Q6993.6406,356.1563 6993.2656,356.1563 Q6992.9219,356.1563 6992.7188,355.9531 Q6992.5156,355.7656 6992.4063,355.25 Q6992.3594,354.8906 6992.1719,354.7031 Q6991.8438,354.3281 6991.2344,354.1094 Q6990.625,353.8906 6990,353.8906 Q6989.2344,353.8906 6988.5938,354.2188 Q6987.9688,354.5469 6987.4688,355.2969 Q6986.9844,356.0469 6986.9844,357.0781 L6986.9844,358.1719 Q6986.9844,359.4063 6987.875,360.2344 Q6988.7656,361.0469 6990.3594,361.0469 Q6991.2969,361.0469 6991.9531,360.7969 Q6992.3438,360.6406 6992.7656,360.2031 Q6993.0313,359.9375 6993.1719,359.8594 Q6993.3281,359.7813 6993.5313,359.7813 Q6993.8594,359.7813 6994.1094,360.0469 Q6994.375,360.2969 6994.375,360.6406 Q6994.375,360.9844 6994.0313,361.3906 Q6993.5313,361.9688 6992.7344,362.2969 Q6991.6563,362.75 6990.3594,362.75 Q6988.8438,362.75 6987.6406,362.125 Q6986.6563,361.625 6985.9688,360.5625 Q6985.2813,359.4844 6985.2813,358.2031 L6985.2813,357.0469 Q6985.2813,355.7188 6985.8906,354.5781 Q6986.5156,353.4219 6987.6094,352.8125 Q6988.7031,352.1875 6989.9375,352.1875 Q6990.6719,352.1875 6991.3125,352.3594 Q6991.9688,352.5156 6992.5156,352.875 Z " fill="#000000"/><text fill="#000000" font-family="sans-serif" font-size="14" lengthAdjust="spacing" textLength="76" x="7010.25" y="362.7285">Registration</text><line style="stroke:#181818;stroke-width:0.5;" x1="6850.5" x2="7213.5" y1="373" y2="373"/><line style="stroke:#181818;stroke-width:0.5;" x1="6850.5" x2="7213.5" y1="381" y2="381"/><text fill="#000000" font-family="sans-serif" font-size="14" lengthAdjust="spacing" textLength="353" x="6855.5" y="399.5332">execute(CommandRequest request): CommandRequest</text></g><!--class RemoveById--><g id="elem_RemoveById"><rect codeLine="48" fill="#F1F1F1" height="65.6094" id="RemoveById" rx="2.5" ry="2.5" style="stroke:#181818;stroke-width:0.5;" width="365" x="2449.5" y="341"/><ellipse cx="2588.25" cy="357" fill="#ADD1B2" rx="11" ry="11" style="stroke:#181818;stroke-width:1.0;"/><path d="M2591.0156,352.875 Q2591.1719,352.6563 2591.3594,352.5469 Q2591.5469,352.4375 2591.7656,352.4375 Q2592.1406,352.4375 2592.375,352.7031 Q2592.6094,352.9531 2592.6094,353.5625 L2592.6094,355.0156 Q2592.6094,355.625 2592.375,355.8906 Q2592.1406,356.1563 2591.7656,356.1563 Q2591.4219,356.1563 2591.2188,355.9531 Q2591.0156,355.7656 2590.9063,355.25 Q2590.8594,354.8906 2590.6719,354.7031 Q2590.3438,354.3281 2589.7344,354.1094 Q2589.125,353.8906 2588.5,353.8906 Q2587.7344,353.8906 2587.0938,354.2188 Q2586.4688,354.5469 2585.9688,355.2969 Q2585.4844,356.0469 2585.4844,357.0781 L2585.4844,358.1719 Q2585.4844,359.4063 2586.375,360.2344 Q2587.2656,361.0469 2588.8594,361.0469 Q2589.7969,361.0469 2590.4531,360.7969 Q2590.8438,360.6406 2591.2656,360.2031 Q2591.5313,359.9375 2591.6719,359.8594 Q2591.8281,359.7813 2592.0313,359.7813 Q2592.3594,359.7813 2592.6094,360.0469 Q2592.875,360.2969 2592.875,360.6406 Q2592.875,360.9844 2592.5313,361.3906 Q2592.0313,361.9688 2591.2344,362.2969 Q2590.1563,362.75 2588.8594,362.75 Q2587.3438,362.75 2586.1406,362.125 Q2585.1563,361.625 2584.4688,360.5625 Q2583.7813,359.4844 2583.7813,358.2031 L2583.7813,357.0469 Q2583.7813,355.7188 2584.3906,354.5781 Q2585.0156,353.4219 2586.1094,352.8125 Q2587.2031,352.1875 2588.4375,352.1875 Q2589.1719,352.1875 2589.8125,352.3594 Q2590.4688,352.5156 2591.0156,352.875 Z " fill="#000000"/><text fill="#000000" font-family="sans-serif" font-size="14" lengthAdjust="spacing" textLength="79" x="2608.75" y="362.7285">RemoveById</text><line style="stroke:#181818;stroke-width:0.5;" x1="2450.5" x2="2813.5" y1="373" y2="373"/><line style="stroke:#181818;stroke-width:0.5;" x1="2450.5" x2="2813.5" y1="381" y2="381"/><text fill="#000000" font-family="sans-serif" font-size="14" lengthAdjust="spacing" textLength="353" x="2455.5" y="399.5332">execute(CommandRequest request): CommandRequest</text></g><!--class RemoveFirst--><g id="elem_RemoveFirst"><rect codeLine="51" fill="#F1F1F1" height="65.6094" id="RemoveFirst" rx="2.5" ry="2.5" style="stroke:#181818;stroke-width:0.5;" width="365" x="2049.5" y="341"/><ellipse cx="2187.75" cy="357" fill="#ADD1B2" rx="11" ry="11" style="stroke:#181818;stroke-width:1.0;"/><path d="M2190.5156,352.875 Q2190.6719,352.6563 2190.8594,352.5469 Q2191.0469,352.4375 2191.2656,352.4375 Q2191.6406,352.4375 2191.875,352.7031 Q2192.1094,352.9531 2192.1094,353.5625 L2192.1094,355.0156 Q2192.1094,355.625 2191.875,355.8906 Q2191.6406,356.1563 2191.2656,356.1563 Q2190.9219,356.1563 2190.7188,355.9531 Q2190.5156,355.7656 2190.4063,355.25 Q2190.3594,354.8906 2190.1719,354.7031 Q2189.8438,354.3281 2189.2344,354.1094 Q2188.625,353.8906 2188,353.8906 Q2187.2344,353.8906 2186.5938,354.2188 Q2185.9688,354.5469 2185.4688,355.2969 Q2184.9844,356.0469 2184.9844,357.0781 L2184.9844,358.1719 Q2184.9844,359.4063 2185.875,360.2344 Q2186.7656,361.0469 2188.3594,361.0469 Q2189.2969,361.0469 2189.9531,360.7969 Q2190.3438,360.6406 2190.7656,360.2031 Q2191.0313,359.9375 2191.1719,359.8594 Q2191.3281,359.7813 2191.5313,359.7813 Q2191.8594,359.7813 2192.1094,360.0469 Q2192.375,360.2969 2192.375,360.6406 Q2192.375,360.9844 2192.0313,361.3906 Q2191.5313,361.9688 2190.7344,362.2969 Q2189.6563,362.75 2188.3594,362.75 Q2186.8438,362.75 2185.6406,362.125 Q2184.6563,361.625 2183.9688,360.5625 Q2183.2813,359.4844 2183.2813,358.2031 L2183.2813,357.0469 Q2183.2813,355.7188 2183.8906,354.5781 Q2184.5156,353.4219 2185.6094,352.8125 Q2186.7031,352.1875 2187.9375,352.1875 Q2188.6719,352.1875 2189.3125,352.3594 Q2189.9688,352.5156 2190.5156,352.875 Z " fill="#000000"/><text fill="#000000" font-family="sans-serif" font-size="14" lengthAdjust="spacing" textLength="80" x="2208.25" y="362.7285">RemoveFirst</text><line style="stroke:#181818;stroke-width:0.5;" x1="2050.5" x2="2413.5" y1="373" y2="373"/><line style="stroke:#181818;stroke-width:0.5;" x1="2050.5" x2="2413.5" y1="381" y2="381"/><text fill="#000000" font-family="sans-serif" font-size="14" lengthAdjust="spacing" textLength="353" x="2055.5" y="399.5332">execute(CommandRequest request): CommandRequest</text></g><!--class RemoveHead--><g id="elem_RemoveHead"><rect codeLine="54" fill="#F1F1F1" height="65.6094" id="RemoveHead" rx="2.5" ry="2.5" style="stroke:#181818;stroke-width:0.5;" width="365" x="6049.5" y="341"/><ellipse cx="6185.25" cy="357" fill="#ADD1B2" rx="11" ry="11" style="stroke:#181818;stroke-width:1.0;"/><path d="M6188.0156,352.875 Q6188.1719,352.6563 6188.3594,352.5469 Q6188.5469,352.4375 6188.7656,352.4375 Q6189.1406,352.4375 6189.375,352.7031 Q6189.6094,352.9531 6189.6094,353.5625 L6189.6094,355.0156 Q6189.6094,355.625 6189.375,355.8906 Q6189.1406,356.1563 6188.7656,356.1563 Q6188.4219,356.1563 6188.2188,355.9531 Q6188.0156,355.7656 6187.9063,355.25 Q6187.8594,354.8906 6187.6719,354.7031 Q6187.3438,354.3281 6186.7344,354.1094 Q6186.125,353.8906 6185.5,353.8906 Q6184.7344,353.8906 6184.0938,354.2188 Q6183.4688,354.5469 6182.9688,355.2969 Q6182.4844,356.0469 6182.4844,357.0781 L6182.4844,358.1719 Q6182.4844,359.4063 6183.375,360.2344 Q6184.2656,361.0469 6185.8594,361.0469 Q6186.7969,361.0469 6187.4531,360.7969 Q6187.8438,360.6406 6188.2656,360.2031 Q6188.5313,359.9375 6188.6719,359.8594 Q6188.8281,359.7813 6189.0313,359.7813 Q6189.3594,359.7813 6189.6094,360.0469 Q6189.875,360.2969 6189.875,360.6406 Q6189.875,360.9844 6189.5313,361.3906 Q6189.0313,361.9688 6188.2344,362.2969 Q6187.1563,362.75 6185.8594,362.75 Q6184.3438,362.75 6183.1406,362.125 Q6182.1563,361.625 6181.4688,360.5625 Q6180.7813,359.4844 6180.7813,358.2031 L6180.7813,357.0469 Q6180.7813,355.7188 6181.3906,354.5781 Q6182.0156,353.4219 6183.1094,352.8125 Q6184.2031,352.1875 6185.4375,352.1875 Q6186.1719,352.1875 6186.8125,352.3594 Q6187.4688,352.5156 6188.0156,352.875 Z " fill="#000000"/><text fill="#000000" font-family="sans-serif" font-size="14" lengthAdjust="spacing" textLength="85" x="6205.75" y="362.7285">RemoveHead</text><line style="stroke:#181818;stroke-width:0.5;" x1="6050.5" x2="6413.5" y1="373" y2="373"/><line style="stroke:#181818;stroke-width:0.5;" x1="6050.5" x2="6413.5" y1="381" y2="381"/><text fill="#000000" font-family="sans-serif" font-size="14" lengthAdjust="spacing" textLength="353" x="6055.5" y="399.5332">execute(CommandRequest request): CommandRequest</text></g><!--class RemoveLower--><g id="elem_RemoveLower"><rect codeLine="57" fill="#F1F1F1" height="65.6094" id="RemoveLower" rx="2.5" ry="2.5" style="stroke:#181818;stroke-width:0.5;" width="365" x="5649.5" y="341"/><ellipse cx="5782.75" cy="357" fill="#ADD1B2" rx="11" ry="11" style="stroke:#181818;stroke-width:1.0;"/><path d="M5785.5156,352.875 Q5785.6719,352.6563 5785.8594,352.5469 Q5786.0469,352.4375 5786.2656,352.4375 Q5786.6406,352.4375 5786.875,352.7031 Q5787.1094,352.9531 5787.1094,353.5625 L5787.1094,355.0156 Q5787.1094,355.625 5786.875,355.8906 Q5786.6406,356.1563 5786.2656,356.1563 Q5785.9219,356.1563 5785.7188,355.9531 Q5785.5156,355.7656 5785.4063,355.25 Q5785.3594,354.8906 5785.1719,354.7031 Q5784.8438,354.3281 5784.2344,354.1094 Q5783.625,353.8906 5783,353.8906 Q5782.2344,353.8906 5781.5938,354.2188 Q5780.9688,354.5469 5780.4688,355.2969 Q5779.9844,356.0469 5779.9844,357.0781 L5779.9844,358.1719 Q5779.9844,359.4063 5780.875,360.2344 Q5781.7656,361.0469 5783.3594,361.0469 Q5784.2969,361.0469 5784.9531,360.7969 Q5785.3438,360.6406 5785.7656,360.2031 Q5786.0313,359.9375 5786.1719,359.8594 Q5786.3281,359.7813 5786.5313,359.7813 Q5786.8594,359.7813 5787.1094,360.0469 Q5787.375,360.2969 5787.375,360.6406 Q5787.375,360.9844 5787.0313,361.3906 Q5786.5313,361.9688 5785.7344,362.2969 Q5784.6563,362.75 5783.3594,362.75 Q5781.8438,362.75 5780.6406,362.125 Q5779.6563,361.625 5778.9688,360.5625 Q5778.2813,359.4844 5778.2813,358.2031 L5778.2813,357.0469 Q5778.2813,355.7188 5778.8906,354.5781 Q5779.5156,353.4219 5780.6094,352.8125 Q5781.7031,352.1875 5782.9375,352.1875 Q5783.6719,352.1875 5784.3125,352.3594 Q5784.9688,352.5156 5785.5156,352.875 Z " fill="#000000"/><text fill="#000000" font-family="sans-serif" font-size="14" lengthAdjust="spacing" textLength="90" x="5803.25" y="362.7285">RemoveLower</text><line style="stroke:#181818;stroke-width:0.5;" x1="5650.5" x2="6013.5" y1="373" y2="373"/><line style="stroke:#181818;stroke-width:0.5;" x1="5650.5" x2="6013.5" y1="381" y2="381"/><text fill="#000000" font-family="sans-serif" font-size="14" lengthAdjust="spacing" textLength="353" x="5655.5" y="399.5332">execute(CommandRequest request): CommandRequest</text></g><!--class Show--><g id="elem_Show"><rect codeLine="60" fill="#F1F1F1" height="65.6094" id="Show" rx="2.5" ry="2.5" style="stroke:#181818;stroke-width:0.5;" width="365" x="2849.5" y="341"/><ellipse cx="3010.75" cy="357" fill="#ADD1B2" rx="11" ry="11" style="stroke:#181818;stroke-width:1.0;"/><path d="M3013.5156,352.875 Q3013.6719,352.6563 3013.8594,352.5469 Q3014.0469,352.4375 3014.2656,352.4375 Q3014.6406,352.4375 3014.875,352.7031 Q3015.1094,352.9531 3015.1094,353.5625 L3015.1094,355.0156 Q3015.1094,355.625 3014.875,355.8906 Q3014.6406,356.1563 3014.2656,356.1563 Q3013.9219,356.1563 3013.7188,355.9531 Q3013.5156,355.7656 3013.4063,355.25 Q3013.3594,354.8906 3013.1719,354.7031 Q3012.8438,354.3281 3012.2344,354.1094 Q3011.625,353.8906 3011,353.8906 Q3010.2344,353.8906 3009.5938,354.2188 Q3008.9688,354.5469 3008.4688,355.2969 Q3007.9844,356.0469 3007.9844,357.0781 L3007.9844,358.1719 Q3007.9844,359.4063 3008.875,360.2344 Q3009.7656,361.0469 3011.3594,361.0469 Q3012.2969,361.0469 3012.9531,360.7969 Q3013.3438,360.6406 3013.7656,360.2031 Q3014.0313,359.9375 3014.1719,359.8594 Q3014.3281,359.7813 3014.5313,359.7813 Q3014.8594,359.7813 3015.1094,360.0469 Q3015.375,360.2969 3015.375,360.6406 Q3015.375,360.9844 3015.0313,361.3906 Q3014.5313,361.9688 3013.7344,362.2969 Q3012.6563,362.75 3011.3594,362.75 Q3009.8438,362.75 3008.6406,362.125 Q3007.6563,361.625 3006.9688,360.5625 Q3006.2813,359.4844 3006.2813,358.2031 L3006.2813,357.0469 Q3006.2813,355.7188 3006.8906,354.5781 Q3007.5156,353.4219 3008.6094,352.8125 Q3009.7031,352.1875 3010.9375,352.1875 Q3011.6719,352.1875 3012.3125,352.3594 Q3012.9688,352.5156 3013.5156,352.875 Z " fill="#000000"/><text fill="#000000" font-family="sans-serif" font-size="14" lengthAdjust="spacing" textLength="34" x="3031.25" y="362.7285">Show</text><line style="stroke:#181818;stroke-width:0.5;" x1="2850.5" x2="3213.5" y1="373" y2="373"/><line style="stroke:#181818;stroke-width:0.5;" x1="2850.5" x2="3213.5" y1="381" y2="381"/><text fill="#000000" font-family="sans-serif" font-size="14" lengthAdjust="spacing" textLength="353" x="2855.5" y="399.5332">execute(CommandRequest request): CommandRequest</text></g><!--class UpdateById--><g id="elem_UpdateById"><rect codeLine="63" fill="#F1F1F1" height="65.6094" id="UpdateById" rx="2.5" ry="2.5" style="stroke:#181818;stroke-width:0.5;" width="365" x="6449.5" y="341"/><ellipse cx="6591.75" cy="357" fill="#ADD1B2" rx="11" ry="11" style="stroke:#181818;stroke-width:1.0;"/><path d="M6594.5156,352.875 Q6594.6719,352.6563 6594.8594,352.5469 Q6595.0469,352.4375 6595.2656,352.4375 Q6595.6406,352.4375 6595.875,352.7031 Q6596.1094,352.9531 6596.1094,353.5625 L6596.1094,355.0156 Q6596.1094,355.625 6595.875,355.8906 Q6595.6406,356.1563 6595.2656,356.1563 Q6594.9219,356.1563 6594.7188,355.9531 Q6594.5156,355.7656 6594.4063,355.25 Q6594.3594,354.8906 6594.1719,354.7031 Q6593.8438,354.3281 6593.2344,354.1094 Q6592.625,353.8906 6592,353.8906 Q6591.2344,353.8906 6590.5938,354.2188 Q6589.9688,354.5469 6589.4688,355.2969 Q6588.9844,356.0469 6588.9844,357.0781 L6588.9844,358.1719 Q6588.9844,359.4063 6589.875,360.2344 Q6590.7656,361.0469 6592.3594,361.0469 Q6593.2969,361.0469 6593.9531,360.7969 Q6594.3438,360.6406 6594.7656,360.2031 Q6595.0313,359.9375 6595.1719,359.8594 Q6595.3281,359.7813 6595.5313,359.7813 Q6595.8594,359.7813 6596.1094,360.0469 Q6596.375,360.2969 6596.375,360.6406 Q6596.375,360.9844 6596.0313,361.3906 Q6595.5313,361.9688 6594.7344,362.2969 Q6593.6563,362.75 6592.3594,362.75 Q6590.8438,362.75 6589.6406,362.125 Q6588.6563,361.625 6587.9688,360.5625 Q6587.2813,359.4844 6587.2813,358.2031 L6587.2813,357.0469 Q6587.2813,355.7188 6587.8906,354.5781 Q6588.5156,353.4219 6589.6094,352.8125 Q6590.7031,352.1875 6591.9375,352.1875 Q6592.6719,352.1875 6593.3125,352.3594 Q6593.9688,352.5156 6594.5156,352.875 Z " fill="#000000"/><text fill="#000000" font-family="sans-serif" font-size="14" lengthAdjust="spacing" textLength="72" x="6612.25" y="362.7285">UpdateById</text><line style="stroke:#181818;stroke-width:0.5;" x1="6450.5" x2="6813.5" y1="373" y2="373"/><line style="stroke:#181818;stroke-width:0.5;" x1="6450.5" x2="6813.5" y1="381" y2="381"/><text fill="#000000" font-family="sans-serif" font-size="14" lengthAdjust="spacing" textLength="353" x="6455.5" y="399.5332">execute(CommandRequest request): CommandRequest</text></g><!--class AuthManager--><g id="elem_AuthManager"><rect codeLine="69" fill="#F1F1F1" height="118.4375" id="AuthManager" rx="2.5" ry="2.5" style="stroke:#181818;stroke-width:0.5;" width="375" x="260.5" y="315"/><ellipse cx="401.25" cy="331" fill="#ADD1B2" rx="11" ry="11" style="stroke:#181818;stroke-width:1.0;"/><path d="M404.0156,326.875 Q404.1719,326.6563 404.3594,326.5469 Q404.5469,326.4375 404.7656,326.4375 Q405.1406,326.4375 405.375,326.7031 Q405.6094,326.9531 405.6094,327.5625 L405.6094,329.0156 Q405.6094,329.625 405.375,329.8906 Q405.1406,330.1563 404.7656,330.1563 Q404.4219,330.1563 404.2188,329.9531 Q404.0156,329.7656 403.9063,329.25 Q403.8594,328.8906 403.6719,328.7031 Q403.3438,328.3281 402.7344,328.1094 Q402.125,327.8906 401.5,327.8906 Q400.7344,327.8906 400.0938,328.2188 Q399.4688,328.5469 398.9688,329.2969 Q398.4844,330.0469 398.4844,331.0781 L398.4844,332.1719 Q398.4844,333.4063 399.375,334.2344 Q400.2656,335.0469 401.8594,335.0469 Q402.7969,335.0469 403.4531,334.7969 Q403.8438,334.6406 404.2656,334.2031 Q404.5313,333.9375 404.6719,333.8594 Q404.8281,333.7813 405.0313,333.7813 Q405.3594,333.7813 405.6094,334.0469 Q405.875,334.2969 405.875,334.6406 Q405.875,334.9844 405.5313,335.3906 Q405.0313,335.9688 404.2344,336.2969 Q403.1563,336.75 401.8594,336.75 Q400.3438,336.75 399.1406,336.125 Q398.1563,335.625 397.4688,334.5625 Q396.7813,333.4844 396.7813,332.2031 L396.7813,331.0469 Q396.7813,329.7188 397.3906,328.5781 Q398.0156,327.4219 399.1094,326.8125 Q400.2031,326.1875 401.4375,326.1875 Q402.1719,326.1875 402.8125,326.3594 Q403.4688,326.5156 404.0156,326.875 Z " fill="#000000"/><text fill="#000000" font-family="sans-serif" font-size="14" lengthAdjust="spacing" textLength="85" x="421.75" y="336.7285">AuthManager</text><line style="stroke:#181818;stroke-width:0.5;" x1="261.5" x2="634.5" y1="347" y2="347"/><text fill="#000000" font-family="sans-serif" font-size="14" lengthAdjust="spacing" textLength="191" x="266.5" y="365.5332">enviroment: ServerEnviroment</text><line style="stroke:#181818;stroke-width:0.5;" x1="261.5" x2="634.5" y1="372.6094" y2="372.6094"/><text fill="#000000" font-family="sans-serif" font-size="14" lengthAdjust="spacing" textLength="363" x="266.5" y="391.1426">setServerEnviroment(ServerEnviroment enviroment): void</text><text fill="#000000" font-family="sans-serif" font-size="14" lengthAdjust="spacing" textLength="153" x="266.5" y="408.752">register(User user): void</text><text fill="#000000" font-family="sans-serif" font-size="14" lengthAdjust="spacing" textLength="158" x="266.5" y="426.3613">auth(User user): boolean</text></g><!--class DatabaseManager--><g id="elem_DatabaseManager"><rect codeLine="75" fill="#F1F1F1" height="400.1875" id="DatabaseManager" rx="2.5" ry="2.5" style="stroke:#181818;stroke-width:0.5;" width="516" x="671" y="174"/><ellipse cx="866.25" cy="190" fill="#ADD1B2" rx="11" ry="11" style="stroke:#181818;stroke-width:1.0;"/><path d="M869.0156,185.875 Q869.1719,185.6563 869.3594,185.5469 Q869.5469,185.4375 869.7656,185.4375 Q870.1406,185.4375 870.375,185.7031 Q870.6094,185.9531 870.6094,186.5625 L870.6094,188.0156 Q870.6094,188.625 870.375,188.8906 Q870.1406,189.1563 869.7656,189.1563 Q869.4219,189.1563 869.2188,188.9531 Q869.0156,188.7656 868.9063,188.25 Q868.8594,187.8906 868.6719,187.7031 Q868.3438,187.3281 867.7344,187.1094 Q867.125,186.8906 866.5,186.8906 Q865.7344,186.8906 865.0938,187.2188 Q864.4688,187.5469 863.9688,188.2969 Q863.4844,189.0469 863.4844,190.0781 L863.4844,191.1719 Q863.4844,192.4063 864.375,193.2344 Q865.2656,194.0469 866.8594,194.0469 Q867.7969,194.0469 868.4531,193.7969 Q868.8438,193.6406 869.2656,193.2031 Q869.5313,192.9375 869.6719,192.8594 Q869.8281,192.7813 870.0313,192.7813 Q870.3594,192.7813 870.6094,193.0469 Q870.875,193.2969 870.875,193.6406 Q870.875,193.9844 870.5313,194.3906 Q870.0313,194.9688 869.2344,195.2969 Q868.1563,195.75 866.8594,195.75 Q865.3438,195.75 864.1406,195.125 Q863.1563,194.625 862.4688,193.5625 Q861.7813,192.4844 861.7813,191.2031 L861.7813,190.0469 Q861.7813,188.7188 862.3906,187.5781 Q863.0156,186.4219 864.1094,185.8125 Q865.2031,185.1875 866.4375,185.1875 Q867.1719,185.1875 867.8125,185.3594 Q868.4688,185.5156 869.0156,185.875 Z " fill="#000000"/><text fill="#000000" font-family="sans-serif" font-size="14" lengthAdjust="spacing" textLength="117" x="886.75" y="195.7285">DatabaseManager</text><line style="stroke:#181818;stroke-width:0.5;" x1="672" x2="1186" y1="206" y2="206"/><text fill="#000000" font-family="sans-serif" font-size="14" lengthAdjust="spacing" textLength="154" x="677" y="224.5332">collection: PriorityQueue</text><text fill="#000000" font-family="sans-serif" font-size="14" lengthAdjust="spacing" textLength="202" x="677" y="242.1426">sessionFactory: SessionFactory</text><text fill="#000000" font-family="sans-serif" font-size="14" lengthAdjust="spacing" textLength="99" x="677" y="259.752">createdAt: Date</text><line style="stroke:#181818;stroke-width:0.5;" x1="672" x2="1186" y1="266.8281" y2="266.8281"/><text fill="#000000" font-family="sans-serif" font-size="14" lengthAdjust="spacing" textLength="201" x="677" y="285.3613">userExsists(User user): boolean</text><text fill="#000000" font-family="sans-serif" font-size="14" lengthAdjust="spacing" textLength="279" x="677" y="302.9707">usernameExsists(String username): boolean</text><text fill="#000000" font-family="sans-serif" font-size="14" lengthAdjust="spacing" textLength="158" x="677" y="320.5801">addUser(User user): void</text><text fill="#000000" font-family="sans-serif" font-size="14" lengthAdjust="spacing" textLength="156" x="677" y="338.1895">getCollection(): ArrayList</text><text fill="#000000" font-family="sans-serif" font-size="14" lengthAdjust="spacing" textLength="430" x="677" y="355.7988">removeElements(Function compareFunction, String username): void</text><text fill="#000000" font-family="sans-serif" font-size="14" lengthAdjust="spacing" textLength="504" x="677" y="373.4082">removeElements(Function compareFunction, String username, long count): void</text><text fill="#000000" font-family="sans-serif" font-size="14" lengthAdjust="spacing" textLength="295" x="677" y="391.0176">countElements(Function compareFunction): int</text><text fill="#000000" font-family="sans-serif" font-size="14" lengthAdjust="spacing" textLength="321" x="677" y="408.627">getElements(Function compareFunction): ArrayList</text><text fill="#000000" font-family="sans-serif" font-size="14" lengthAdjust="spacing" textLength="267" x="677" y="426.2363">getFirstElement(String username): Vehicle</text><text fill="#000000" font-family="sans-serif" font-size="14" lengthAdjust="spacing" textLength="125" x="677" y="443.8457">add(Vehicle v): void</text><text fill="#000000" font-family="sans-serif" font-size="14" lengthAdjust="spacing" textLength="303" x="677" y="461.4551">update(Vehicle v, String field, String value): void</text><text fill="#000000" font-family="sans-serif" font-size="14" lengthAdjust="spacing" textLength="153" x="677" y="479.0645">getById(long id): Vehicle</text><text fill="#000000" font-family="sans-serif" font-size="14" lengthAdjust="spacing" textLength="192" x="677" y="496.6738">pop(String username): Vehicle</text><text fill="#000000" font-family="sans-serif" font-size="14" lengthAdjust="spacing" textLength="57" x="677" y="514.2832">size(): int</text><text fill="#000000" font-family="sans-serif" font-size="14" lengthAdjust="spacing" textLength="109" x="677" y="531.8926">createdAt(): Date</text><text fill="#000000" font-family="sans-serif" font-size="14" lengthAdjust="spacing" textLength="80" x="677" y="549.502">type(): Class</text><text fill="#000000" font-family="sans-serif" font-size="14" lengthAdjust="spacing" textLength="179" x="677" y="567.1113">clear(String username): void</text></g><!--class HibernateUtil--><g id="elem_HibernateUtil"><rect codeLine="97" fill="#F1F1F1" height="136.0469" id="HibernateUtil" rx="2.5" ry="2.5" style="stroke:#181818;stroke-width:0.5;" width="256" x="320" y="634"/><ellipse cx="403.75" cy="650" fill="#ADD1B2" rx="11" ry="11" style="stroke:#181818;stroke-width:1.0;"/><path d="M406.5156,645.875 Q406.6719,645.6563 406.8594,645.5469 Q407.0469,645.4375 407.2656,645.4375 Q407.6406,645.4375 407.875,645.7031 Q408.1094,645.9531 408.1094,646.5625 L408.1094,648.0156 Q408.1094,648.625 407.875,648.8906 Q407.6406,649.1563 407.2656,649.1563 Q406.9219,649.1563 406.7188,648.9531 Q406.5156,648.7656 406.4063,648.25 Q406.3594,647.8906 406.1719,647.7031 Q405.8438,647.3281 405.2344,647.1094 Q404.625,646.8906 404,646.8906 Q403.2344,646.8906 402.5938,647.2188 Q401.9688,647.5469 401.4688,648.2969 Q400.9844,649.0469 400.9844,650.0781 L400.9844,651.1719 Q400.9844,652.4063 401.875,653.2344 Q402.7656,654.0469 404.3594,654.0469 Q405.2969,654.0469 405.9531,653.7969 Q406.3438,653.6406 406.7656,653.2031 Q407.0313,652.9375 407.1719,652.8594 Q407.3281,652.7813 407.5313,652.7813 Q407.8594,652.7813 408.1094,653.0469 Q408.375,653.2969 408.375,653.6406 Q408.375,653.9844 408.0313,654.3906 Q407.5313,654.9688 406.7344,655.2969 Q405.6563,655.75 404.3594,655.75 Q402.8438,655.75 401.6406,655.125 Q400.6563,654.625 399.9688,653.5625 Q399.2813,652.4844 399.2813,651.2031 L399.2813,650.0469 Q399.2813,648.7188 399.8906,647.5781 Q400.5156,646.4219 401.6094,645.8125 Q402.7031,645.1875 403.9375,645.1875 Q404.6719,645.1875 405.3125,645.3594 Q405.9688,645.5156 406.5156,645.875 Z " fill="#000000"/><text fill="#000000" font-family="sans-serif" font-size="14" lengthAdjust="spacing" textLength="80" x="424.25" y="655.7285">HibernateUtil</text><line style="stroke:#181818;stroke-width:0.5;" x1="321" x2="575" y1="666" y2="666"/><text fill="#000000" font-family="sans-serif" font-size="14" lengthAdjust="spacing" textLength="113" x="326" y="684.5332">LOGGER: Logger</text><text fill="#000000" font-family="sans-serif" font-size="14" lengthAdjust="spacing" textLength="202" x="326" y="702.1426">sessionFactory: SessionFactory</text><line style="stroke:#181818;stroke-width:0.5;" x1="321" x2="575" y1="709.2188" y2="709.2188"/><text fill="#000000" font-family="sans-serif" font-size="14" lengthAdjust="spacing" textLength="244" x="326" y="727.752">buildSessionFactory(): SessionFactory</text><text fill="#000000" font-family="sans-serif" font-size="14" lengthAdjust="spacing" textLength="234" x="326" y="745.3613">getSessionFactory(): SessionFactory</text><text fill="#000000" font-family="sans-serif" font-size="14" lengthAdjust="spacing" textLength="104" x="326" y="762.9707">shutdown(): void</text></g><!--class ServerEnviroment--><g id="elem_ServerEnviroment"><rect codeLine="104" fill="#F1F1F1" height="118.4375" id="ServerEnviroment" rx="2.5" ry="2.5" style="stroke:#181818;stroke-width:0.5;" width="284" x="1222" y="315"/><ellipse cx="1303.25" cy="331" fill="#ADD1B2" rx="11" ry="11" style="stroke:#181818;stroke-width:1.0;"/><path d="M1306.0156,326.875 Q1306.1719,326.6563 1306.3594,326.5469 Q1306.5469,326.4375 1306.7656,326.4375 Q1307.1406,326.4375 1307.375,326.7031 Q1307.6094,326.9531 1307.6094,327.5625 L1307.6094,329.0156 Q1307.6094,329.625 1307.375,329.8906 Q1307.1406,330.1563 1306.7656,330.1563 Q1306.4219,330.1563 1306.2188,329.9531 Q1306.0156,329.7656 1305.9063,329.25 Q1305.8594,328.8906 1305.6719,328.7031 Q1305.3438,328.3281 1304.7344,328.1094 Q1304.125,327.8906 1303.5,327.8906 Q1302.7344,327.8906 1302.0938,328.2188 Q1301.4688,328.5469 1300.9688,329.2969 Q1300.4844,330.0469 1300.4844,331.0781 L1300.4844,332.1719 Q1300.4844,333.4063 1301.375,334.2344 Q1302.2656,335.0469 1303.8594,335.0469 Q1304.7969,335.0469 1305.4531,334.7969 Q1305.8438,334.6406 1306.2656,334.2031 Q1306.5313,333.9375 1306.6719,333.8594 Q1306.8281,333.7813 1307.0313,333.7813 Q1307.3594,333.7813 1307.6094,334.0469 Q1307.875,334.2969 1307.875,334.6406 Q1307.875,334.9844 1307.5313,335.3906 Q1307.0313,335.9688 1306.2344,336.2969 Q1305.1563,336.75 1303.8594,336.75 Q1302.3438,336.75 1301.1406,336.125 Q1300.1563,335.625 1299.4688,334.5625 Q1298.7813,333.4844 1298.7813,332.2031 L1298.7813,331.0469 Q1298.7813,329.7188 1299.3906,328.5781 Q1300.0156,327.4219 1301.1094,326.8125 Q1302.2031,326.1875 1303.4375,326.1875 Q1304.1719,326.1875 1304.8125,326.3594 Q1305.4688,326.5156 1306.0156,326.875 Z " fill="#000000"/><text fill="#000000" font-family="sans-serif" font-size="14" lengthAdjust="spacing" textLength="113" x="1323.75" y="336.7285">ServerEnviroment</text><line style="stroke:#181818;stroke-width:0.5;" x1="1223" x2="1505" y1="347" y2="347"/><text fill="#000000" font-family="sans-serif" font-size="14" lengthAdjust="spacing" textLength="240" x="1228" y="365.5332">databaseManager: DatabaseManager</text><text fill="#000000" font-family="sans-serif" font-size="14" lengthAdjust="spacing" textLength="231" x="1228" y="383.1426">commandHandler: CommandHandler</text><line style="stroke:#181818;stroke-width:0.5;" x1="1223" x2="1505" y1="390.2188" y2="390.2188"/><text fill="#000000" font-family="sans-serif" font-size="14" lengthAdjust="spacing" textLength="264" x="1228" y="408.752">getCommandHandler(): CommandHandler</text><text fill="#000000" font-family="sans-serif" font-size="14" lengthAdjust="spacing" textLength="272" x="1228" y="426.3613">getDatabaseManager(): DatabaseManager</text></g><!--class AutoCloseable--><g id="elem_AutoCloseable"><rect fill="#F1F1F1" height="48" id="AutoCloseable" rx="2.5" ry="2.5" style="stroke:#181818;stroke-width:0.5;" width="124" x="7458" y="678"/><ellipse cx="7473" cy="694" fill="#ADD1B2" rx="11" ry="11" style="stroke:#181818;stroke-width:1.0;"/><path d="M7475.7656,689.875 Q7475.9219,689.6563 7476.1094,689.5469 Q7476.2969,689.4375 7476.5156,689.4375 Q7476.8906,689.4375 7477.125,689.7031 Q7477.3594,689.9531 7477.3594,690.5625 L7477.3594,692.0156 Q7477.3594,692.625 7477.125,692.8906 Q7476.8906,693.1563 7476.5156,693.1563 Q7476.1719,693.1563 7475.9688,692.9531 Q7475.7656,692.7656 7475.6563,692.25 Q7475.6094,691.8906 7475.4219,691.7031 Q7475.0938,691.3281 7474.4844,691.1094 Q7473.875,690.8906 7473.25,690.8906 Q7472.4844,690.8906 7471.8438,691.2188 Q7471.2188,691.5469 7470.7188,692.2969 Q7470.2344,693.0469 7470.2344,694.0781 L7470.2344,695.1719 Q7470.2344,696.4063 7471.125,697.2344 Q7472.0156,698.0469 7473.6094,698.0469 Q7474.5469,698.0469 7475.2031,697.7969 Q7475.5938,697.6406 7476.0156,697.2031 Q7476.2813,696.9375 7476.4219,696.8594 Q7476.5781,696.7813 7476.7813,696.7813 Q7477.1094,696.7813 7477.3594,697.0469 Q7477.625,697.2969 7477.625,697.6406 Q7477.625,697.9844 7477.2813,698.3906 Q7476.7813,698.9688 7475.9844,699.2969 Q7474.9063,699.75 7473.6094,699.75 Q7472.0938,699.75 7470.8906,699.125 Q7469.9063,698.625 7469.2188,697.5625 Q7468.5313,696.4844 7468.5313,695.2031 L7468.5313,694.0469 Q7468.5313,692.7188 7469.1406,691.5781 Q7469.7656,690.4219 7470.8594,689.8125 Q7471.9531,689.1875 7473.1875,689.1875 Q7473.9219,689.1875 7474.5625,689.3594 Q7475.2188,689.5156 7475.7656,689.875 Z " fill="#000000"/><text fill="#000000" font-family="sans-serif" font-size="14" lengthAdjust="spacing" textLength="92" x="7487" y="699.7285">AutoCloseable</text><line style="stroke:#181818;stroke-width:0.5;" x1="7459" x2="7581" y1="710" y2="710"/><line style="stroke:#181818;stroke-width:0.5;" x1="7459" x2="7581" y1="718" y2="718"/></g><!--class Runnable--><g id="elem_Runnable"><rect fill="#F1F1F1" height="48" id="Runnable" rx="2.5" ry="2.5" style="stroke:#181818;stroke-width:0.5;" width="93" x="7617.5" y="678"/><ellipse cx="7632.5" cy="694" fill="#ADD1B2" rx="11" ry="11" style="stroke:#181818;stroke-width:1.0;"/><path d="M7635.2656,689.875 Q7635.4219,689.6563 7635.6094,689.5469 Q7635.7969,689.4375 7636.0156,689.4375 Q7636.3906,689.4375 7636.625,689.7031 Q7636.8594,689.9531 7636.8594,690.5625 L7636.8594,692.0156 Q7636.8594,692.625 7636.625,692.8906 Q7636.3906,693.1563 7636.0156,693.1563 Q7635.6719,693.1563 7635.4688,692.9531 Q7635.2656,692.7656 7635.1563,692.25 Q7635.1094,691.8906 7634.9219,691.7031 Q7634.5938,691.3281 7633.9844,691.1094 Q7633.375,690.8906 7632.75,690.8906 Q7631.9844,690.8906 7631.3438,691.2188 Q7630.7188,691.5469 7630.2188,692.2969 Q7629.7344,693.0469 7629.7344,694.0781 L7629.7344,695.1719 Q7629.7344,696.4063 7630.625,697.2344 Q7631.5156,698.0469 7633.1094,698.0469 Q7634.0469,698.0469 7634.7031,697.7969 Q7635.0938,697.6406 7635.5156,697.2031 Q7635.7813,696.9375 7635.9219,696.8594 Q7636.0781,696.7813 7636.2813,696.7813 Q7636.6094,696.7813 7636.8594,697.0469 Q7637.125,697.2969 7637.125,697.6406 Q7637.125,697.9844 7636.7813,698.3906 Q7636.2813,698.9688 7635.4844,699.2969 Q7634.4063,699.75 7633.1094,699.75 Q7631.5938,699.75 7630.3906,699.125 Q7629.4063,698.625 7628.7188,697.5625 Q7628.0313,696.4844 7628.0313,695.2031 L7628.0313,694.0469 Q7628.0313,692.7188 7628.6406,691.5781 Q7629.2656,690.4219 7630.3594,689.8125 Q7631.4531,689.1875 7632.6875,689.1875 Q7633.4219,689.1875 7634.0625,689.3594 Q7634.7188,689.5156 7635.2656,689.875 Z " fill="#000000"/><text fill="#000000" font-family="sans-serif" font-size="14" lengthAdjust="spacing" textLength="61" x="7646.5" y="699.7285">Runnable</text><line style="stroke:#181818;stroke-width:0.5;" x1="7618.5" x2="7709.5" y1="710" y2="710"/><line style="stroke:#181818;stroke-width:0.5;" x1="7618.5" x2="7709.5" y1="718" y2="718"/></g><!--class Command--><g id="elem_Command"><rect fill="#F1F1F1" height="48" id="Command" rx="2.5" ry="2.5" style="stroke:#181818;stroke-width:0.5;" width="96" x="7945" y="678"/><ellipse cx="7960" cy="694" fill="#ADD1B2" rx="11" ry="11" style="stroke:#181818;stroke-width:1.0;"/><path d="M7962.7656,689.875 Q7962.9219,689.6563 7963.1094,689.5469 Q7963.2969,689.4375 7963.5156,689.4375 Q7963.8906,689.4375 7964.125,689.7031 Q7964.3594,689.9531 7964.3594,690.5625 L7964.3594,692.0156 Q7964.3594,692.625 7964.125,692.8906 Q7963.8906,693.1563 7963.5156,693.1563 Q7963.1719,693.1563 7962.9688,692.9531 Q7962.7656,692.7656 7962.6563,692.25 Q7962.6094,691.8906 7962.4219,691.7031 Q7962.0938,691.3281 7961.4844,691.1094 Q7960.875,690.8906 7960.25,690.8906 Q7959.4844,690.8906 7958.8438,691.2188 Q7958.2188,691.5469 7957.7188,692.2969 Q7957.2344,693.0469 7957.2344,694.0781 L7957.2344,695.1719 Q7957.2344,696.4063 7958.125,697.2344 Q7959.0156,698.0469 7960.6094,698.0469 Q7961.5469,698.0469 7962.2031,697.7969 Q7962.5938,697.6406 7963.0156,697.2031 Q7963.2813,696.9375 7963.4219,696.8594 Q7963.5781,696.7813 7963.7813,696.7813 Q7964.1094,696.7813 7964.3594,697.0469 Q7964.625,697.2969 7964.625,697.6406 Q7964.625,697.9844 7964.2813,698.3906 Q7963.7813,698.9688 7962.9844,699.2969 Q7961.9063,699.75 7960.6094,699.75 Q7959.0938,699.75 7957.8906,699.125 Q7956.9063,698.625 7956.2188,697.5625 Q7955.5313,696.4844 7955.5313,695.2031 L7955.5313,694.0469 Q7955.5313,692.7188 7956.1406,691.5781 Q7956.7656,690.4219 7957.8594,689.8125 Q7958.9531,689.1875 7960.1875,689.1875 Q7960.9219,689.1875 7961.5625,689.3594 Q7962.2188,689.5156 7962.7656,689.875 Z " fill="#000000"/><text fill="#000000" font-family="sans-serif" font-size="14" lengthAdjust="spacing" textLength="64" x="7974" y="699.7285">Command</text><line style="stroke:#181818;stroke-width:0.5;" x1="7946" x2="8040" y1="710" y2="710"/><line style="stroke:#181818;stroke-width:0.5;" x1="7946" x2="8040" y1="718" y2="718"/></g><!--class RequireAuthorization--><g id="elem_RequireAuthorization"><rect fill="#F1F1F1" height="48" id="RequireAuthorization" rx="2.5" ry="2.5" style="stroke:#181818;stroke-width:0.5;" width="164" x="7746" y="678"/><ellipse cx="7761" cy="694" fill="#ADD1B2" rx="11" ry="11" style="stroke:#181818;stroke-width:1.0;"/><path d="M7763.7656,689.875 Q7763.9219,689.6563 7764.1094,689.5469 Q7764.2969,689.4375 7764.5156,689.4375 Q7764.8906,689.4375 7765.125,689.7031 Q7765.3594,689.9531 7765.3594,690.5625 L7765.3594,692.0156 Q7765.3594,692.625 7765.125,692.8906 Q7764.8906,693.1563 7764.5156,693.1563 Q7764.1719,693.1563 7763.9688,692.9531 Q7763.7656,692.7656 7763.6563,692.25 Q7763.6094,691.8906 7763.4219,691.7031 Q7763.0938,691.3281 7762.4844,691.1094 Q7761.875,690.8906 7761.25,690.8906 Q7760.4844,690.8906 7759.8438,691.2188 Q7759.2188,691.5469 7758.7188,692.2969 Q7758.2344,693.0469 7758.2344,694.0781 L7758.2344,695.1719 Q7758.2344,696.4063 7759.125,697.2344 Q7760.0156,698.0469 7761.6094,698.0469 Q7762.5469,698.0469 7763.2031,697.7969 Q7763.5938,697.6406 7764.0156,697.2031 Q7764.2813,696.9375 7764.4219,696.8594 Q7764.5781,696.7813 7764.7813,696.7813 Q7765.1094,696.7813 7765.3594,697.0469 Q7765.625,697.2969 7765.625,697.6406 Q7765.625,697.9844 7765.2813,698.3906 Q7764.7813,698.9688 7763.9844,699.2969 Q7762.9063,699.75 7761.6094,699.75 Q7760.0938,699.75 7758.8906,699.125 Q7757.9063,698.625 7757.2188,697.5625 Q7756.5313,696.4844 7756.5313,695.2031 L7756.5313,694.0469 Q7756.5313,692.7188 7757.1406,691.5781 Q7757.7656,690.4219 7758.8594,689.8125 Q7759.9531,689.1875 7761.1875,689.1875 Q7761.9219,689.1875 7762.5625,689.3594 Q7763.2188,689.5156 7763.7656,689.875 Z " fill="#000000"/><text fill="#000000" font-family="sans-serif" font-size="14" lengthAdjust="spacing" textLength="132" x="7775" y="699.7285">RequireAuthorization</text><line style="stroke:#181818;stroke-width:0.5;" x1="7747" x2="7909" y1="710" y2="710"/><line style="stroke:#181818;stroke-width:0.5;" x1="7747" x2="7909" y1="718" y2="718"/></g><!--class Serializable--><g id="elem_Serializable"><rect fill="#F1F1F1" height="48" id="Serializable" rx="2.5" ry="2.5" style="stroke:#181818;stroke-width:0.5;" width="104" x="8076" y="678"/><ellipse cx="8091" cy="694" fill="#ADD1B2" rx="11" ry="11" style="stroke:#181818;stroke-width:1.0;"/><path d="M8093.7656,689.875 Q8093.9219,689.6563 8094.1094,689.5469 Q8094.2969,689.4375 8094.5156,689.4375 Q8094.8906,689.4375 8095.125,689.7031 Q8095.3594,689.9531 8095.3594,690.5625 L8095.3594,692.0156 Q8095.3594,692.625 8095.125,692.8906 Q8094.8906,693.1563 8094.5156,693.1563 Q8094.1719,693.1563 8093.9688,692.9531 Q8093.7656,692.7656 8093.6563,692.25 Q8093.6094,691.8906 8093.4219,691.7031 Q8093.0938,691.3281 8092.4844,691.1094 Q8091.875,690.8906 8091.25,690.8906 Q8090.4844,690.8906 8089.8438,691.2188 Q8089.2188,691.5469 8088.7188,692.2969 Q8088.2344,693.0469 8088.2344,694.0781 L8088.2344,695.1719 Q8088.2344,696.4063 8089.125,697.2344 Q8090.0156,698.0469 8091.6094,698.0469 Q8092.5469,698.0469 8093.2031,697.7969 Q8093.5938,697.6406 8094.0156,697.2031 Q8094.2813,696.9375 8094.4219,696.8594 Q8094.5781,696.7813 8094.7813,696.7813 Q8095.1094,696.7813 8095.3594,697.0469 Q8095.625,697.2969 8095.625,697.6406 Q8095.625,697.9844 8095.2813,698.3906 Q8094.7813,698.9688 8093.9844,699.2969 Q8092.9063,699.75 8091.6094,699.75 Q8090.0938,699.75 8088.8906,699.125 Q8087.9063,698.625 8087.2188,697.5625 Q8086.5313,696.4844 8086.5313,695.2031 L8086.5313,694.0469 Q8086.5313,692.7188 8087.1406,691.5781 Q8087.7656,690.4219 8088.8594,689.8125 Q8089.9531,689.1875 8091.1875,689.1875 Q8091.9219,689.1875 8092.5625,689.3594 Q8093.2188,689.5156 8093.7656,689.875 Z " fill="#000000"/><text fill="#000000" font-family="sans-serif" font-size="14" lengthAdjust="spacing" textLength="72" x="8105" y="699.7285">Serializable</text><line style="stroke:#181818;stroke-width:0.5;" x1="8077" x2="8179" y1="710" y2="710"/><line style="stroke:#181818;stroke-width:0.5;" x1="8077" x2="8179" y1="718" y2="718"/></g><!--class Enviroment--><g id="elem_Enviroment"><rect fill="#F1F1F1" height="48" id="Enviroment" rx="2.5" ry="2.5" style="stroke:#181818;stroke-width:0.5;" width="103" x="7319.5" y="678"/><ellipse cx="7334.5" cy="694" fill="#ADD1B2" rx="11" ry="11" style="stroke:#181818;stroke-width:1.0;"/><path d="M7337.2656,689.875 Q7337.4219,689.6563 7337.6094,689.5469 Q7337.7969,689.4375 7338.0156,689.4375 Q7338.3906,689.4375 7338.625,689.7031 Q7338.8594,689.9531 7338.8594,690.5625 L7338.8594,692.0156 Q7338.8594,692.625 7338.625,692.8906 Q7338.3906,693.1563 7338.0156,693.1563 Q7337.6719,693.1563 7337.4688,692.9531 Q7337.2656,692.7656 7337.1563,692.25 Q7337.1094,691.8906 7336.9219,691.7031 Q7336.5938,691.3281 7335.9844,691.1094 Q7335.375,690.8906 7334.75,690.8906 Q7333.9844,690.8906 7333.3438,691.2188 Q7332.7188,691.5469 7332.2188,692.2969 Q7331.7344,693.0469 7331.7344,694.0781 L7331.7344,695.1719 Q7331.7344,696.4063 7332.625,697.2344 Q7333.5156,698.0469 7335.1094,698.0469 Q7336.0469,698.0469 7336.7031,697.7969 Q7337.0938,697.6406 7337.5156,697.2031 Q7337.7813,696.9375 7337.9219,696.8594 Q7338.0781,696.7813 7338.2813,696.7813 Q7338.6094,696.7813 7338.8594,697.0469 Q7339.125,697.2969 7339.125,697.6406 Q7339.125,697.9844 7338.7813,698.3906 Q7338.2813,698.9688 7337.4844,699.2969 Q7336.4063,699.75 7335.1094,699.75 Q7333.5938,699.75 7332.3906,699.125 Q7331.4063,698.625 7330.7188,697.5625 Q7330.0313,696.4844 7330.0313,695.2031 L7330.0313,694.0469 Q7330.0313,692.7188 7330.6406,691.5781 Q7331.2656,690.4219 7332.3594,689.8125 Q7333.4531,689.1875 7334.6875,689.1875 Q7335.4219,689.1875 7336.0625,689.3594 Q7336.7188,689.5156 7337.2656,689.875 Z " fill="#000000"/><text fill="#000000" font-family="sans-serif" font-size="14" lengthAdjust="spacing" textLength="71" x="7348.5" y="699.7285">Enviroment</text><line style="stroke:#181818;stroke-width:0.5;" x1="7320.5" x2="7421.5" y1="710" y2="710"/><line style="stroke:#181818;stroke-width:0.5;" x1="7320.5" x2="7421.5" y1="718" y2="718"/></g><!--link Server to AutoCloseable--><g id="link_Server_AutoCloseable"><path codeLine="112" d="M1775.03,477.22 C1805.73,514.93 1845.66,553.43 1892,574 C2173.74,699.03 7150.87,527.15 7440,634 C7463.96,642.86 7473.4494,649.1857 7488.2294,664.8557 " fill="none" id="Server-to-AutoCloseable" style="stroke:#181818;stroke-width:1.0;stroke-dasharray:7.0,7.0;"/><polygon fill="none" points="7500.58,677.95,7492.5941,660.7388,7483.8646,668.9725,7500.58,677.95" style="stroke:#181818;stroke-width:1.0;"/></g><!--link Task to Runnable--><g id="link_Task_Runnable"><path codeLine="113" d="M1963.54,415.86 C1967.75,462.81 1982.53,538.01 2033,574 C2158.92,663.78 7458.14,572.42 7600,634 C7620.66,642.97 7627.2524,647.6177 7638.6024,663.1777 " fill="none" id="Task-to-Runnable" style="stroke:#181818;stroke-width:1.0;stroke-dasharray:7.0,7.0;"/><polygon fill="none" points="7649.21,677.72,7643.4498,659.6418,7633.7549,666.7136,7649.21,677.72" style="stroke:#181818;stroke-width:1.0;"/></g><!--link Add to Command--><g id="link_Add_Command"><path codeLine="114" d="M5452.45,407.25 C5484.27,454.08 5550.5,539.11 5632,574 C5866.6,674.44 7694.29,531.5 7928,634 C7948.78,643.11 7955.4953,647.8811 7967.0853,663.3911 " fill="none" id="Add-to-Command" style="stroke:#181818;stroke-width:1.0;"/><polygon fill="none" points="7977.86,677.81,7971.8916,659.7995,7962.279,666.9826,7977.86,677.81" style="stroke:#181818;stroke-width:1.0;"/></g><!--link Add to RequireAuthorization--><g id="link_Add_RequireAuthorization"><path codeLine="115" d="M5452.47,407.22 C5484.29,454.02 5550.54,539.01 5632,574 C5846.07,665.96 7506.08,563.05 7728,634 C7755.87,642.91 7769.2353,650.7037 7788.2553,666.2837 " fill="none" id="Add-to-RequireAuthorization" style="stroke:#181818;stroke-width:1.0;stroke-dasharray:7.0,7.0;"/><polygon fill="none" points="7802.18,677.69,7792.0574,661.6422,7784.4532,670.9253,7802.18,677.69" style="stroke:#181818;stroke-width:1.0;"/></g><!--link Clear to Command--><g id="link_Clear_Command"><path codeLine="116" d="M5052.44,407.29 C5084.23,454.17 5150.43,539.27 5232,574 C5507.68,691.39 7653.37,514.18 7928,634 C7948.8,643.07 7955.5302,647.83 7967.1102,663.36 " fill="none" id="Clear-to-Command" style="stroke:#181818;stroke-width:1.0;"/><polygon fill="none" points="7977.87,677.79,7971.9202,659.7733,7962.3002,666.9466,7977.87,677.79" style="stroke:#181818;stroke-width:1.0;"/></g><!--link Clear to RequireAuthorization--><g id="link_Clear_RequireAuthorization"><path codeLine="117" d="M5052.44,407.27 C5084.24,454.13 5150.46,539.19 5232,574 C5487.14,682.91 7463.57,550.12 7728,634 C7756.09,642.91 7769.6704,650.8932 7788.6904,666.5432 " fill="none" id="Clear-to-RequireAuthorization" style="stroke:#181818;stroke-width:1.0;stroke-dasharray:7.0,7.0;"/><polygon fill="none" points="7802.59,677.98,7792.5027,661.91,7784.8781,671.1764,7802.59,677.98" style="stroke:#181818;stroke-width:1.0;"/></g><!--link CountLessThanEnginePower to Command--><g id="link_CountLessThanEnginePower_Command"><path codeLine="118" d="M4652.42,407.32 C4684.2,454.24 4750.38,539.38 4832,574 C5148.75,708.34 7612.45,496.86 7928,634 C7948.81,643.04 7955.5506,647.7922 7967.1206,663.3322 " fill="none" id="CountLessThanEnginePower-to-Command" style="stroke:#181818;stroke-width:1.0;"/><polygon fill="none" points="7977.87,677.77,7971.9332,659.7491,7962.308,666.9153,7977.87,677.77" style="stroke:#181818;stroke-width:1.0;"/></g><!--link CountLessThanEnginePower to RequireAuthorization--><g id="link_CountLessThanEnginePower_RequireAuthorization"><path codeLine="119" d="M4652.43,407.31 C4684.21,454.21 4750.4,539.33 4832,574 C5128.21,699.87 7421.06,537.19 7728,634 C7756.1,642.86 7769.684,650.8488 7788.704,666.5088 " fill="none" id="CountLessThanEnginePower-to-RequireAuthorization" style="stroke:#181818;stroke-width:1.0;stroke-dasharray:7.0,7.0;"/><polygon fill="none" points="7802.6,677.95,7792.5177,661.8768,7784.8903,671.1408,7802.6,677.95" style="stroke:#181818;stroke-width:1.0;"/></g><!--link FilterGreaterThanFuelConsumption to Command--><g id="link_FilterGreaterThanFuelConsumption_Command"><path codeLine="120" d="M4252.41,407.34 C4284.17,454.29 4350.34,539.47 4432,574 C4789.83,725.3 7571.52,479.55 7928,634 C7948.82,643.02 7955.5606,647.7722 7967.1306,663.3122 " fill="none" id="FilterGreaterThanFuelConsumption-to-Command" style="stroke:#181818;stroke-width:1.0;"/><polygon fill="none" points="7977.88,677.75,7971.9432,659.7291,7962.318,666.8953,7977.88,677.75" style="stroke:#181818;stroke-width:1.0;"/></g><!--link FilterGreaterThanFuelConsumption to RequireAuthorization--><g id="link_FilterGreaterThanFuelConsumption_RequireAuthorization"><path codeLine="121" d="M4252.42,407.33 C4284.19,454.27 4350.36,539.43 4432,574 C4769.29,716.82 7378.54,524.27 7728,634 C7756.11,642.83 7769.6976,650.8145 7788.7176,666.4845 " fill="none" id="FilterGreaterThanFuelConsumption-to-RequireAuthorization" style="stroke:#181818;stroke-width:1.0;stroke-dasharray:7.0,7.0;"/><polygon fill="none" points="7802.61,677.93,7792.5328,661.8536,7784.9024,671.1153,7802.61,677.93" style="stroke:#181818;stroke-width:1.0;"/></g><!--link FilterStartsWithName to Command--><g id="link_FilterStartsWithName_Command"><path codeLine="122" d="M3852.41,407.36 C3884.16,454.33 3950.31,539.54 4032,574 C4430.91,742.25 7530.59,462.23 7928,634 C7948.83,643 7955.5546,647.7666 7967.1346,663.3066 " fill="none" id="FilterStartsWithName-to-Command" style="stroke:#181818;stroke-width:1.0;"/><polygon fill="none" points="7977.89,677.74,7971.9458,659.7215,7962.3235,666.8918,7977.89,677.74" style="stroke:#181818;stroke-width:1.0;"/></g><!--link FilterStartsWithName to RequireAuthorization--><g id="link_FilterStartsWithName_RequireAuthorization"><path codeLine="123" d="M3852.41,407.35 C3884.17,454.31 3950.33,539.51 4032,574 C4221.18,653.89 7532.01,572.67 7728,634 C7756.12,642.8 7769.7112,650.7801 7788.7312,666.4601 " fill="none" id="FilterStartsWithName-to-RequireAuthorization" style="stroke:#181818;stroke-width:1.0;stroke-dasharray:7.0,7.0;"/><polygon fill="none" points="7802.62,677.91,7792.5478,661.8305,7784.9145,671.0897,7802.62,677.91" style="stroke:#181818;stroke-width:1.0;"/></g><!--link Info to Command--><g id="link_Info_Command"><path codeLine="124" d="M3452.4,407.38 C3484.14,454.37 3550.29,539.6 3632,574 C3851.99,666.6 7708.83,539.46 7928,634 C7948.83,642.99 7955.5751,647.7389 7967.1451,663.2889 " fill="none" id="Info-to-Command" style="stroke:#181818;stroke-width:1.0;"/><polygon fill="none" points="7977.89,677.73,7971.9588,659.7072,7962.3313,666.8705,7977.89,677.73" style="stroke:#181818;stroke-width:1.0;"/></g><!--link Info to RequireAuthorization--><g id="link_Info_RequireAuthorization"><path codeLine="125" d="M3452.4,407.37 C3484.15,454.35 3550.3,539.58 3632,574 C3841.72,662.37 7510.75,566.21 7728,634 C7756.13,642.78 7769.7277,650.7522 7788.7377,666.4422 " fill="none" id="Info-to-RequireAuthorization" style="stroke:#181818;stroke-width:1.0;stroke-dasharray:7.0,7.0;"/><polygon fill="none" points="7802.62,677.9,7792.557,661.8147,7784.9184,671.0696,7802.62,677.9" style="stroke:#181818;stroke-width:1.0;"/></g><!--link Registration to Command--><g id="link_Registration_Command"><path codeLine="126" d="M7214.75,399.48 C7404.06,431.08 7703.14,498.92 7928,634 C7946.75,645.27 7952.3731,649.3723 7964.3031,663.8923 " fill="none" id="Registration-to-Command" style="stroke:#181818;stroke-width:1.0;"/><polygon fill="none" points="7975.73,677.8,7968.939,660.0833,7959.6671,667.7013,7975.73,677.8" style="stroke:#181818;stroke-width:1.0;"/></g><!--link Registration to Serializable--><g id="link_Registration_Serializable"><path codeLine="127" d="M7214.61,392.13 C7428.57,418.51 7788.22,482.94 8059,634 C8078.83,645.06 8085.2636,649.6929 8097.9936,664.3429 " fill="none" id="Registration-to-Serializable" style="stroke:#181818;stroke-width:1.0;stroke-dasharray:7.0,7.0;"/><polygon fill="none" points="8109.8,677.93,8102.5226,660.4074,8093.4646,668.2784,8109.8,677.93" style="stroke:#181818;stroke-width:1.0;"/></g><!--link RemoveById to Command--><g id="link_RemoveById_Command"><path codeLine="128" d="M2652.13,407.01 C2683.76,453.95 2750.02,539.6 2832,574 C3093.07,683.56 7667.9,522.14 7928,634 C7948.84,642.96 7955.5895,647.7156 7967.1595,663.2756 " fill="none" id="RemoveById-to-Command" style="stroke:#181818;stroke-width:1.0;"/><polygon fill="none" points="7977.9,677.72,7971.9743,659.6954,7962.3447,666.8557,7977.9,677.72" style="stroke:#181818;stroke-width:1.0;"/></g><!--link RemoveById to RequireAuthorization--><g id="link_RemoveById_RequireAuthorization"><path codeLine="129" d="M2652.13,407.01 C2683.76,453.94 2750.03,539.58 2832,574 C3082.8,679.32 7468.23,553.28 7728,634 C7756.14,642.74 7769.7413,650.7178 7788.7513,666.4178 " fill="none" id="RemoveById-to-RequireAuthorization" style="stroke:#181818;stroke-width:1.0;stroke-dasharray:7.0,7.0;"/><polygon fill="none" points="7802.63,677.88,7792.572,661.7916,7784.9306,671.0441,7802.63,677.88" style="stroke:#181818;stroke-width:1.0;"/></g><!--link RemoveFirst to Command--><g id="link_RemoveFirst_Command"><path codeLine="130" d="M2252.12,407.02 C2283.75,453.97 2350.01,539.63 2432,574 C2713.61,692.04 7647.44,513.48 7928,634 C7948.85,642.96 7955.5895,647.7056 7967.1595,663.2656 " fill="none" id="RemoveFirst-to-Command" style="stroke:#181818;stroke-width:1.0;"/><polygon fill="none" points="7977.9,677.71,7971.9743,659.6854,7962.3447,666.8457,7977.9,677.71" style="stroke:#181818;stroke-width:1.0;"/></g><!--link RemoveFirst to RequireAuthorization--><g id="link_RemoveFirst_RequireAuthorization"><path codeLine="131" d="M2252.13,407.02 C2283.75,453.96 2350.02,539.62 2432,574 C2703.34,687.8 7446.97,546.82 7728,634 C7756.14,642.73 7769.7413,650.7078 7788.7513,666.4078 " fill="none" id="RemoveFirst-to-RequireAuthorization" style="stroke:#181818;stroke-width:1.0;stroke-dasharray:7.0,7.0;"/><polygon fill="none" points="7802.63,677.87,7792.572,661.7816,7784.9306,671.0341,7802.63,677.87" style="stroke:#181818;stroke-width:1.0;"/></g><!--link RemoveHead to Command--><g id="link_RemoveHead_Command"><path codeLine="132" d="M6252.52,407.1 C6284.41,453.74 6350.74,538.54 6432,574 C6736.94,707.08 7624.25,498.24 7928,634 C7948.71,643.26 7955.4055,648.0334 7967.0155,663.5034 " fill="none" id="RemoveHead-to-Command" style="stroke:#181818;stroke-width:1.0;"/><polygon fill="none" points="7977.82,677.9,7971.8144,659.9019,7962.2167,667.1048,7977.82,677.9" style="stroke:#181818;stroke-width:1.0;"/></g><!--link RemoveHead to RequireAuthorization--><g id="link_RemoveHead_RequireAuthorization"><path codeLine="133" d="M6252.55,407.04 C6284.47,453.6 6350.85,538.29 6432,574 C6695.88,690.13 7454.17,543.78 7728,634 C7755.79,643.16 7769.1307,650.9761 7788.1707,666.4761 " fill="none" id="RemoveHead-to-RequireAuthorization" style="stroke:#181818;stroke-width:1.0;stroke-dasharray:7.0,7.0;"/><polygon fill="none" points="7802.13,677.84,7791.9587,661.823,7784.3827,671.1292,7802.13,677.84" style="stroke:#181818;stroke-width:1.0;"/></g><!--link RemoveLower to Command--><g id="link_RemoveLower_Command"><path codeLine="134" d="M5852.48,407.19 C5884.32,453.94 5950.59,538.88 6032,574 C6419.07,740.97 7542.42,463.62 7928,634 C7948.75,643.17 7955.4708,647.9344 7967.0608,663.4344 " fill="none" id="RemoveLower-to-Command" style="stroke:#181818;stroke-width:1.0;"/><polygon fill="none" points="7977.84,677.85,7971.866,659.8413,7962.2556,667.0274,7977.84,677.85" style="stroke:#181818;stroke-width:1.0;"/></g><!--link RemoveLower to RequireAuthorization--><g id="link_RemoveLower_RequireAuthorization"><path codeLine="135" d="M5852.5,407.15 C5884.36,453.86 5950.66,538.73 6032,574 C6378,724.02 7369.18,517.94 7728,634 C7755.84,643 7769.188,650.8149 7788.218,666.3549 " fill="none" id="RemoveLower-to-RequireAuthorization" style="stroke:#181818;stroke-width:1.0;stroke-dasharray:7.0,7.0;"/><polygon fill="none" points="7802.16,677.74,7792.013,661.7076,7784.423,671.0022,7802.16,677.74" style="stroke:#181818;stroke-width:1.0;"/></g><!--link Show to Command--><g id="link_Show_Command"><path codeLine="136" d="M3052.39,407.39 C3084.13,454.4 3150.27,539.65 3232,574 C3472.53,675.08 7688.37,530.8 7928,634 C7948.84,642.97 7955.5795,647.7256 7967.1495,663.2856 " fill="none" id="Show-to-Command" style="stroke:#181818;stroke-width:1.0;"/><polygon fill="none" points="7977.89,677.73,7971.9643,659.7054,7962.3347,666.8657,7977.89,677.73" style="stroke:#181818;stroke-width:1.0;"/></g><!--link Show to RequireAuthorization--><g id="link_Show_RequireAuthorization"><path codeLine="137" d="M3052.4,407.38 C3084.14,454.38 3150.28,539.63 3232,574 C3462.26,670.84 7489.49,559.74 7728,634 C7756.13,642.76 7769.7313,650.7278 7788.7413,666.4278 " fill="none" id="Show-to-RequireAuthorization" style="stroke:#181818;stroke-width:1.0;stroke-dasharray:7.0,7.0;"/><polygon fill="none" points="7802.62,677.89,7792.562,661.8016,7784.9206,671.0541,7802.62,677.89" style="stroke:#181818;stroke-width:1.0;"/></g><!--link UpdateById to Command--><g id="link_UpdateById_Command"><path codeLine="138" d="M6652.85,407.34 C6684.93,453.86 6751.23,538.05 6832,574 C7054.84,673.19 7706.04,532.84 7928,634 C7948.65,643.41 7955.3217,648.1813 7966.9417,663.6113 " fill="none" id="UpdateById-to-Command" style="stroke:#181818;stroke-width:1.0;"/><polygon fill="none" points="7977.77,677.99,7971.7346,660.0018,7962.1488,667.2207,7977.77,677.99" style="stroke:#181818;stroke-width:1.0;"/></g><!--link UpdateById to Serializable--><g id="link_UpdateById_Serializable"><path codeLine="139" d="M6652.56,407.01 C6684.5,453.53 6750.9,538.18 6832,574 C7081.72,684.29 7808.61,525.24 8059,634 C8080.44,643.31 8087.7648,648.4731 8100.2348,663.9231 " fill="none" id="UpdateById-to-Serializable" style="stroke:#181818;stroke-width:1.0;stroke-dasharray:7.0,7.0;"/><polygon fill="none" points="8111.54,677.93,8104.9037,660.1547,8095.5658,667.6915,8111.54,677.93" style="stroke:#181818;stroke-width:1.0;"/></g><!--link UpdateById to RequireAuthorization--><g id="link_UpdateById_RequireAuthorization"><path codeLine="140" d="M6652.91,407.21 C6685.06,453.57 6751.45,537.56 6832,574 C7013.81,656.26 7539.12,569.6 7728,634 C7755.49,643.37 7768.5975,651.0217 7787.6475,666.3817 " fill="none" id="UpdateById-to-RequireAuthorization" style="stroke:#181818;stroke-width:1.0;stroke-dasharray:7.0,7.0;"/><polygon fill="none" points="7801.66,677.68,7791.4136,661.7109,7783.8814,671.0526,7801.66,677.68" style="stroke:#181818;stroke-width:1.0;"/></g><!--link ServerEnviroment to Enviroment--><g id="link_ServerEnviroment_Enviroment"><path codeLine="141" d="M1388.8,433.37 C1412.39,480.69 1452.79,544.23 1510,574 C1646.38,644.96 6731.2108,694.9598 7301.3708,700.3498 " fill="none" id="ServerEnviroment-to-Enviroment" style="stroke:#181818;stroke-width:1.0;"/><polygon fill="none" points="7319.37,700.52,7301.4275,694.3501,7301.3141,706.3496,7319.37,700.52" style="stroke:#181818;stroke-width:1.0;"/></g><!--SRC=[jLTVKzim37_dK_Wnt44_G1zsrtKjSDSDriBsx2OYzN3jp7OAPUExJrQQD2aDIRFB0-GaI_f9ilMd2G-VU0nipOKQ_E8RFh1WDc3OdxDGSclV7GmM-JbZizkhgybyo6OwZi4W8nDPwF09t90jIXGUkfK17jrfBOTiyW9XwhJn8Y84F0Mr4KQlGHMAau93bjsU3Wu5IjhdGxRH8a8LAQm35UmPF0mXSMEj58HEQ3egl4kC3i7QEVnEmI82yPcbpzv4ABM5mkHRNOxkkNsY3Day5JcCILMpUXRUA4cEP_dwTd6F9fqHAaRoxdQEfA0qULD1TiAuYUqUwktiBAcvwq6erskk8bj_wRd4O1H5v1JG1K8mpWvsQMCc-o9izQ0-riBoM08tVTdMgN8plDxx5LSJ5Gi5T_eP-eAR2kd0NE5pnu-7dAOWyTtPT9tuXzShxC9nu-nFuLRV-1fwWhfHZxedqtE8iN0Dxp5HSrZh3NpUtaIz0ao5GJDz8bnZG-qLODPZbInM-hadqmz9XANt7nVyKRT4IUIR3xfbBZ4OfMxrDICoHng7t26ttQWpL3DWWWVqWANuhpJrq8SAVuaJ6BYgJsFX_XVk-99RA8SGQYcpyJbaTqPe8zpsUmefaF_Mui6KXpZQjpx4CksLgIL68mmVRNiLxzFanQBtzgYJcOJ2JfPBxQPRpgx8yYZoHewb8GQS_BdhVWIFZE7R6Pga_Fd7Ff7Wqsg3QQf838DT9zn0Jb-mz-353NIpSC6aHZBq0wgqPdYoqTXvFlKnjZR2vOXHXThJJkz8Ld_0IeGIigm6EufjzawcL6JxaoAsHm4oAgWDbobKxi7NPK1XYwW2bEZaGqUiUANbAukwU4oUjNjERfkGnDY_RDhNSAa8QcwjkG2knTAhE7XmGjQjl0rlVfaA6LMvj7WUoiM- -1kbx2fraNvkiKGMGRph83wEg5hQbC0oWnuXDSLh_9DUOboXyv8gyuBpur87jdVtLO6ZbbltMsCm-Fk9OI_LOxz-yoK-XkChDmdEKwMEorIssCjBbDrvso2QcSNX80pubevDxvNsaxEcTRObI2RS2QPkissBNAVVnPd6lRUbKurskZjti1sVvD21RXSdQ6zk2KgoNK0g6tHBi8eEWMBj2IuHxUDIAktIhQ4AZMxHxNVhan0pbUwGj6oVX4WQtG5dfnHoMQKB96tZBR58jWj8QIzl2LNIEELL7ggryxD-P9AtfLtz7m00]--></g></svg>