<?xml version="1.0" encoding="us-ascii" standalone="no"?><svg xmlns="http://www.w3.org/2000/svg" xmlns:xlink="http://www.w3.org/1999/xlink" contentStyleType="text/css" height="909px" preserveAspectRatio="none" style="width:4909px;height:909px;background:#FFFFFF;" version="1.1" viewBox="0 0 4909 909" width="4909px" zoomAndPan="magnify"><defs/><g><!--cluster main--><g id="cluster_main"><path d="M8.5,6 L42.5,6 A3.75,3.75 0 0 1 45,8.5 L52,29.6094 L4899.5,29.6094 A2.5,2.5 0 0 1 4902,32.1094 L4902,835.5 A2.5,2.5 0 0 1 4899.5,838 L8.5,838 A2.5,2.5 0 0 1 6,835.5 L6,8.5 A2.5,2.5 0 0 1 8.5,6 " fill="none" style="stroke:#000000;stroke-width:1.5;"/><line style="stroke:#000000;stroke-width:1.5;" x1="6" x2="52" y1="29.6094" y2="29.6094"/><text fill="#000000" font-family="sans-serif" font-size="14" font-weight="bold" lengthAdjust="spacing" textLength="33" x="10" y="22.5332">main</text></g><!--cluster java--><g id="cluster_java"><path d="M32.5,50 L62.5,50 A3.75,3.75 0 0 1 65,52.5 L72,73.6094 L4875.5,73.6094 A2.5,2.5 0 0 1 4878,76.1094 L4878,811.5 A2.5,2.5 0 0 1 4875.5,814 L32.5,814 A2.5,2.5 0 0 1 30,811.5 L30,52.5 A2.5,2.5 0 0 1 32.5,50 " fill="none" style="stroke:#000000;stroke-width:1.5;"/><line style="stroke:#000000;stroke-width:1.5;" x1="30" x2="72" y1="73.6094" y2="73.6094"/><text fill="#000000" font-family="sans-serif" font-size="14" font-weight="bold" lengthAdjust="spacing" textLength="29" x="34" y="66.5332">java</text></g><!--cluster shared--><g id="cluster_shared"><path d="M56.5,94 L106.5,94 A3.75,3.75 0 0 1 109,96.5 L116,117.6094 L4851.5,117.6094 A2.5,2.5 0 0 1 4854,120.1094 L4854,787.5 A2.5,2.5 0 0 1 4851.5,790 L56.5,790 A2.5,2.5 0 0 1 54,787.5 L54,96.5 A2.5,2.5 0 0 1 56.5,94 " fill="none" style="stroke:#000000;stroke-width:1.5;"/><line style="stroke:#000000;stroke-width:1.5;" x1="54" x2="116" y1="117.6094" y2="117.6094"/><text fill="#000000" font-family="sans-serif" font-size="14" font-weight="bold" lengthAdjust="spacing" textLength="49" x="58" y="110.5332">shared</text></g><!--cluster caster--><g id="cluster_caster"><path d="M4474.5,384.5 L4519.5,384.5 A3.75,3.75 0 0 1 4522,387 L4529,408.1094 L4827.5,408.1094 A2.5,2.5 0 0 1 4830,410.6094 L4830,517 A2.5,2.5 0 0 1 4827.5,519.5 L4474.5,519.5 A2.5,2.5 0 0 1 4472,517 L4472,387 A2.5,2.5 0 0 1 4474.5,384.5 " fill="none" style="stroke:#000000;stroke-width:1.5;"/><line style="stroke:#000000;stroke-width:1.5;" x1="4472" x2="4529" y1="408.1094" y2="408.1094"/><text fill="#000000" font-family="sans-serif" font-size="14" font-weight="bold" lengthAdjust="spacing" textLength="44" x="4476" y="401.0332">caster</text></g><!--cluster commands--><g id="cluster_commands"><path d="M3233.5,314 L3309.5,314 A3.75,3.75 0 0 1 3312,316.5 L3319,337.6094 L4445.5,337.6094 A2.5,2.5 0 0 1 4448,340.1094 L4448,587.5 A2.5,2.5 0 0 1 4445.5,590 L3233.5,590 A2.5,2.5 0 0 1 3231,587.5 L3231,316.5 A2.5,2.5 0 0 1 3233.5,314 " fill="none" style="stroke:#000000;stroke-width:1.5;"/><line style="stroke:#000000;stroke-width:1.5;" x1="3231" x2="3319" y1="337.6094" y2="337.6094"/><text fill="#000000" font-family="sans-serif" font-size="14" font-weight="bold" lengthAdjust="spacing" textLength="75" x="3235" y="330.5332">commands</text></g><!--cluster exceptions--><g id="cluster_exceptions"><path d="M4236.5,402 L4315.5,402 A3.75,3.75 0 0 1 4318,404.5 L4325,425.6094 L4421.5,425.6094 A2.5,2.5 0 0 1 4424,428.1094 L4424,499.5 A2.5,2.5 0 0 1 4421.5,502 L4236.5,502 A2.5,2.5 0 0 1 4234,499.5 L4234,404.5 A2.5,2.5 0 0 1 4236.5,402 " fill="none" style="stroke:#000000;stroke-width:1.5;"/><line style="stroke:#000000;stroke-width:1.5;" x1="4234" x2="4325" y1="425.6094" y2="425.6094"/><text fill="#000000" font-family="sans-serif" font-size="14" font-weight="bold" lengthAdjust="spacing" textLength="78" x="4238" y="418.5332">exceptions</text></g><!--cluster types--><g id="cluster_types"><path d="M3855.5,402 L3894.5,402 A3.75,3.75 0 0 1 3897,404.5 L3904,425.6094 L4207.5,425.6094 A2.5,2.5 0 0 1 4210,428.1094 L4210,499.5 A2.5,2.5 0 0 1 4207.5,502 L3855.5,502 A2.5,2.5 0 0 1 3853,499.5 L3853,404.5 A2.5,2.5 0 0 1 3855.5,402 " fill="none" style="stroke:#000000;stroke-width:1.5;"/><line style="stroke:#000000;stroke-width:1.5;" x1="3853" x2="3904" y1="425.6094" y2="425.6094"/><text fill="#000000" font-family="sans-serif" font-size="14" font-weight="bold" lengthAdjust="spacing" textLength="38" x="3857" y="418.5332">types</text></g><!--cluster database--><g id="cluster_database"><path d="M1279.5,138 L1344.5,138 A3.75,3.75 0 0 1 1347,140.5 L1354,161.6094 L3204.5,161.6094 A2.5,2.5 0 0 1 3207,164.1094 L3207,763.5 A2.5,2.5 0 0 1 3204.5,766 L1279.5,766 A2.5,2.5 0 0 1 1277,763.5 L1277,140.5 A2.5,2.5 0 0 1 1279.5,138 " fill="none" style="stroke:#000000;stroke-width:1.5;"/><line style="stroke:#000000;stroke-width:1.5;" x1="1277" x2="1354" y1="161.6094" y2="161.6094"/><text fill="#000000" font-family="sans-serif" font-size="14" font-weight="bold" lengthAdjust="spacing" textLength="64" x="1281" y="154.5332">database</text></g><!--cluster components--><g id="cluster_components"><path d="M1507.5,296.5 L1595.5,296.5 A3.75,3.75 0 0 1 1598,299 L1605,320.1094 L2154.5,320.1094 A2.5,2.5 0 0 1 2157,322.6094 L2157,585 A2.5,2.5 0 0 1 2154.5,587.5 L1507.5,587.5 A2.5,2.5 0 0 1 1505,585 L1505,299 A2.5,2.5 0 0 1 1507.5,296.5 " fill="none" style="stroke:#000000;stroke-width:1.5;"/><line style="stroke:#000000;stroke-width:1.5;" x1="1505" x2="1605" y1="320.1094" y2="320.1094"/><text fill="#000000" font-family="sans-serif" font-size="14" font-weight="bold" lengthAdjust="spacing" textLength="87" x="1509" y="313.0332">components</text></g><!--cluster vehicle--><g id="cluster_vehicle"><path d="M1531.5,340.5 L1584.5,340.5 A3.75,3.75 0 0 1 1587,343 L1594,364.1094 L2130.5,364.1094 A2.5,2.5 0 0 1 2133,366.6094 L2133,561 A2.5,2.5 0 0 1 2130.5,563.5 L1531.5,563.5 A2.5,2.5 0 0 1 1529,561 L1529,343 A2.5,2.5 0 0 1 1531.5,340.5 " fill="none" style="stroke:#000000;stroke-width:1.5;"/><line style="stroke:#000000;stroke-width:1.5;" x1="1529" x2="1594" y1="364.1094" y2="364.1094"/><text fill="#000000" font-family="sans-serif" font-size="14" font-weight="bold" lengthAdjust="spacing" textLength="52" x="1533" y="357.0332">vehicle</text></g><!--cluster handlers--><g id="cluster_handlers"><path d="M406.5,367 L469.5,367 A3.75,3.75 0 0 1 472,369.5 L479,390.6094 L1250.5,390.6094 A2.5,2.5 0 0 1 1253,393.1094 L1253,534.5 A2.5,2.5 0 0 1 1250.5,537 L406.5,537 A2.5,2.5 0 0 1 404,534.5 L404,369.5 A2.5,2.5 0 0 1 406.5,367 " fill="none" style="stroke:#000000;stroke-width:1.5;"/><line style="stroke:#000000;stroke-width:1.5;" x1="404" x2="479" y1="390.6094" y2="390.6094"/><text fill="#000000" font-family="sans-serif" font-size="14" font-weight="bold" lengthAdjust="spacing" textLength="62" x="408" y="383.5332">handlers</text></g><!--cluster request--><g id="cluster_request"><path d="M80.5,261 L136.5,261 A3.75,3.75 0 0 1 139,263.5 L146,284.6094 L377.5,284.6094 A2.5,2.5 0 0 1 380,287.1094 L380,640.5 A2.5,2.5 0 0 1 377.5,643 L80.5,643 A2.5,2.5 0 0 1 78,640.5 L78,263.5 A2.5,2.5 0 0 1 80.5,261 " fill="none" style="stroke:#000000;stroke-width:1.5;"/><line style="stroke:#000000;stroke-width:1.5;" x1="78" x2="146" y1="284.6094" y2="284.6094"/><text fill="#000000" font-family="sans-serif" font-size="14" font-weight="bold" lengthAdjust="spacing" textLength="55" x="82" y="277.5332">request</text></g><!--class CasterException--><g id="elem_CasterException"><rect codeLine="3" fill="#F1F1F1" height="48" id="CasterException" rx="2.5" ry="2.5" style="stroke:#181818;stroke-width:0.5;" width="135" x="4678.5" y="438"/><ellipse cx="4693.5" cy="454" fill="#ADD1B2" rx="11" ry="11" style="stroke:#181818;stroke-width:1.0;"/><path d="M4696.2656,449.875 Q4696.4219,449.6563 4696.6094,449.5469 Q4696.7969,449.4375 4697.0156,449.4375 Q4697.3906,449.4375 4697.625,449.7031 Q4697.8594,449.9531 4697.8594,450.5625 L4697.8594,452.0156 Q4697.8594,452.625 4697.625,452.8906 Q4697.3906,453.1563 4697.0156,453.1563 Q4696.6719,453.1563 4696.4688,452.9531 Q4696.2656,452.7656 4696.1563,452.25 Q4696.1094,451.8906 4695.9219,451.7031 Q4695.5938,451.3281 4694.9844,451.1094 Q4694.375,450.8906 4693.75,450.8906 Q4692.9844,450.8906 4692.3438,451.2188 Q4691.7188,451.5469 4691.2188,452.2969 Q4690.7344,453.0469 4690.7344,454.0781 L4690.7344,455.1719 Q4690.7344,456.4063 4691.625,457.2344 Q4692.5156,458.0469 4694.1094,458.0469 Q4695.0469,458.0469 4695.7031,457.7969 Q4696.0938,457.6406 4696.5156,457.2031 Q4696.7813,456.9375 4696.9219,456.8594 Q4697.0781,456.7813 4697.2813,456.7813 Q4697.6094,456.7813 4697.8594,457.0469 Q4698.125,457.2969 4698.125,457.6406 Q4698.125,457.9844 4697.7813,458.3906 Q4697.2813,458.9688 4696.4844,459.2969 Q4695.4063,459.75 4694.1094,459.75 Q4692.5938,459.75 4691.3906,459.125 Q4690.4063,458.625 4689.7188,457.5625 Q4689.0313,456.4844 4689.0313,455.2031 L4689.0313,454.0469 Q4689.0313,452.7188 4689.6406,451.5781 Q4690.2656,450.4219 4691.3594,449.8125 Q4692.4531,449.1875 4693.6875,449.1875 Q4694.4219,449.1875 4695.0625,449.3594 Q4695.7188,449.5156 4696.2656,449.875 Z " fill="#000000"/><text fill="#000000" font-family="sans-serif" font-size="14" lengthAdjust="spacing" textLength="103" x="4707.5" y="459.7285">CasterException</text><line style="stroke:#181818;stroke-width:0.5;" x1="4679.5" x2="4812.5" y1="470" y2="470"/><line style="stroke:#181818;stroke-width:0.5;" x1="4679.5" x2="4812.5" y1="478" y2="478"/></g><!--class CasterUtil--><g id="elem_CasterUtil"><rect codeLine="5" fill="#F1F1F1" height="83.2188" id="CasterUtil" rx="2.5" ry="2.5" style="stroke:#181818;stroke-width:0.5;" width="155" x="4488.5" y="420.5"/><ellipse cx="4531.4" cy="436.5" fill="#ADD1B2" rx="11" ry="11" style="stroke:#181818;stroke-width:1.0;"/><path d="M4534.1656,432.375 Q4534.3219,432.1563 4534.5094,432.0469 Q4534.6969,431.9375 4534.9156,431.9375 Q4535.2906,431.9375 4535.525,432.2031 Q4535.7594,432.4531 4535.7594,433.0625 L4535.7594,434.5156 Q4535.7594,435.125 4535.525,435.3906 Q4535.2906,435.6563 4534.9156,435.6563 Q4534.5719,435.6563 4534.3688,435.4531 Q4534.1656,435.2656 4534.0563,434.75 Q4534.0094,434.3906 4533.8219,434.2031 Q4533.4938,433.8281 4532.8844,433.6094 Q4532.275,433.3906 4531.65,433.3906 Q4530.8844,433.3906 4530.2438,433.7188 Q4529.6188,434.0469 4529.1188,434.7969 Q4528.6344,435.5469 4528.6344,436.5781 L4528.6344,437.6719 Q4528.6344,438.9063 4529.525,439.7344 Q4530.4156,440.5469 4532.0094,440.5469 Q4532.9469,440.5469 4533.6031,440.2969 Q4533.9938,440.1406 4534.4156,439.7031 Q4534.6813,439.4375 4534.8219,439.3594 Q4534.9781,439.2813 4535.1813,439.2813 Q4535.5094,439.2813 4535.7594,439.5469 Q4536.025,439.7969 4536.025,440.1406 Q4536.025,440.4844 4535.6813,440.8906 Q4535.1813,441.4688 4534.3844,441.7969 Q4533.3063,442.25 4532.0094,442.25 Q4530.4938,442.25 4529.2906,441.625 Q4528.3063,441.125 4527.6188,440.0625 Q4526.9313,438.9844 4526.9313,437.7031 L4526.9313,436.5469 Q4526.9313,435.2188 4527.5406,434.0781 Q4528.1656,432.9219 4529.2594,432.3125 Q4530.3531,431.6875 4531.5875,431.6875 Q4532.3219,431.6875 4532.9625,431.8594 Q4533.6188,432.0156 4534.1656,432.375 Z " fill="#000000"/><text fill="#000000" font-family="sans-serif" font-size="14" lengthAdjust="spacing" textLength="61" x="4551.6" y="442.2285">CasterUtil</text><line style="stroke:#181818;stroke-width:0.5;" x1="4489.5" x2="4642.5" y1="452.5" y2="452.5"/><text fill="#000000" font-family="sans-serif" font-size="14" lengthAdjust="spacing" textLength="143" x="4494.5" y="471.0332">castToString: Function</text><text fill="#000000" font-family="sans-serif" font-size="14" lengthAdjust="spacing" textLength="138" x="4494.5" y="488.6426">castToLong: Function</text><line style="stroke:#181818;stroke-width:0.5;" x1="4489.5" x2="4642.5" y1="495.7188" y2="495.7188"/></g><!--class Argument--><g id="elem_Argument"><rect codeLine="12" fill="#F1F1F1" height="188.875" id="Argument" rx="2.5" ry="2.5" style="stroke:#181818;stroke-width:0.5;" width="186" x="3648" y="367.5"/><ellipse cx="3706.25" cy="383.5" fill="#ADD1B2" rx="11" ry="11" style="stroke:#181818;stroke-width:1.0;"/><path d="M3709.0156,379.375 Q3709.1719,379.1563 3709.3594,379.0469 Q3709.5469,378.9375 3709.7656,378.9375 Q3710.1406,378.9375 3710.375,379.2031 Q3710.6094,379.4531 3710.6094,380.0625 L3710.6094,381.5156 Q3710.6094,382.125 3710.375,382.3906 Q3710.1406,382.6563 3709.7656,382.6563 Q3709.4219,382.6563 3709.2188,382.4531 Q3709.0156,382.2656 3708.9063,381.75 Q3708.8594,381.3906 3708.6719,381.2031 Q3708.3438,380.8281 3707.7344,380.6094 Q3707.125,380.3906 3706.5,380.3906 Q3705.7344,380.3906 3705.0938,380.7188 Q3704.4688,381.0469 3703.9688,381.7969 Q3703.4844,382.5469 3703.4844,383.5781 L3703.4844,384.6719 Q3703.4844,385.9063 3704.375,386.7344 Q3705.2656,387.5469 3706.8594,387.5469 Q3707.7969,387.5469 3708.4531,387.2969 Q3708.8438,387.1406 3709.2656,386.7031 Q3709.5313,386.4375 3709.6719,386.3594 Q3709.8281,386.2813 3710.0313,386.2813 Q3710.3594,386.2813 3710.6094,386.5469 Q3710.875,386.7969 3710.875,387.1406 Q3710.875,387.4844 3710.5313,387.8906 Q3710.0313,388.4688 3709.2344,388.7969 Q3708.1563,389.25 3706.8594,389.25 Q3705.3438,389.25 3704.1406,388.625 Q3703.1563,388.125 3702.4688,387.0625 Q3701.7813,385.9844 3701.7813,384.7031 L3701.7813,383.5469 Q3701.7813,382.2188 3702.3906,381.0781 Q3703.0156,379.9219 3704.1094,379.3125 Q3705.2031,378.6875 3706.4375,378.6875 Q3707.1719,378.6875 3707.8125,378.8594 Q3708.4688,379.0156 3709.0156,379.375 Z " fill="#000000"/><text fill="#000000" font-family="sans-serif" font-size="14" lengthAdjust="spacing" textLength="61" x="3726.75" y="389.2285">Argument</text><line style="stroke:#181818;stroke-width:0.5;" x1="3649" x2="3833" y1="399.5" y2="399.5"/><text fill="#000000" font-family="sans-serif" font-size="14" lengthAdjust="spacing" textLength="80" x="3654" y="418.0332">name: String</text><text fill="#000000" font-family="sans-serif" font-size="14" lengthAdjust="spacing" textLength="107" x="3654" y="435.6426">decription: String</text><text fill="#000000" font-family="sans-serif" font-size="14" lengthAdjust="spacing" textLength="51" x="3654" y="453.252">value: T</text><text fill="#000000" font-family="sans-serif" font-size="14" lengthAdjust="spacing" textLength="138" x="3654" y="470.8613">castToType: Function</text><line style="stroke:#181818;stroke-width:0.5;" x1="3649" x2="3833" y1="477.9375" y2="477.9375"/><text fill="#000000" font-family="sans-serif" font-size="14" lengthAdjust="spacing" textLength="174" x="3654" y="496.4707">setValue(String value): void</text><text fill="#000000" font-family="sans-serif" font-size="14" lengthAdjust="spacing" textLength="83" x="3654" y="514.0801">getValue(): T</text><text fill="#000000" font-family="sans-serif" font-size="14" lengthAdjust="spacing" textLength="111" x="3654" y="531.6895">getName(): String</text><text fill="#000000" font-family="sans-serif" font-size="14" lengthAdjust="spacing" textLength="146" x="3654" y="549.2988">getDescription(): String</text></g><!--class Command--><g id="elem_Command"><rect codeLine="22" fill="#F1F1F1" height="224.0938" id="Command" rx="2.5" ry="2.5" style="stroke:#181818;stroke-width:0.5;" width="365" x="3247.5" y="350"/><ellipse cx="3393.75" cy="366" fill="#ADD1B2" rx="11" ry="11" style="stroke:#181818;stroke-width:1.0;"/><path d="M3396.5156,361.875 Q3396.6719,361.6563 3396.8594,361.5469 Q3397.0469,361.4375 3397.2656,361.4375 Q3397.6406,361.4375 3397.875,361.7031 Q3398.1094,361.9531 3398.1094,362.5625 L3398.1094,364.0156 Q3398.1094,364.625 3397.875,364.8906 Q3397.6406,365.1563 3397.2656,365.1563 Q3396.9219,365.1563 3396.7188,364.9531 Q3396.5156,364.7656 3396.4063,364.25 Q3396.3594,363.8906 3396.1719,363.7031 Q3395.8438,363.3281 3395.2344,363.1094 Q3394.625,362.8906 3394,362.8906 Q3393.2344,362.8906 3392.5938,363.2188 Q3391.9688,363.5469 3391.4688,364.2969 Q3390.9844,365.0469 3390.9844,366.0781 L3390.9844,367.1719 Q3390.9844,368.4063 3391.875,369.2344 Q3392.7656,370.0469 3394.3594,370.0469 Q3395.2969,370.0469 3395.9531,369.7969 Q3396.3438,369.6406 3396.7656,369.2031 Q3397.0313,368.9375 3397.1719,368.8594 Q3397.3281,368.7813 3397.5313,368.7813 Q3397.8594,368.7813 3398.1094,369.0469 Q3398.375,369.2969 3398.375,369.6406 Q3398.375,369.9844 3398.0313,370.3906 Q3397.5313,370.9688 3396.7344,371.2969 Q3395.6563,371.75 3394.3594,371.75 Q3392.8438,371.75 3391.6406,371.125 Q3390.6563,370.625 3389.9688,369.5625 Q3389.2813,368.4844 3389.2813,367.2031 L3389.2813,366.0469 Q3389.2813,364.7188 3389.8906,363.5781 Q3390.5156,362.4219 3391.6094,361.8125 Q3392.7031,361.1875 3393.9375,361.1875 Q3394.6719,361.1875 3395.3125,361.3594 Q3395.9688,361.5156 3396.5156,361.875 Z " fill="#000000"/><text fill="#000000" font-family="sans-serif" font-size="14" lengthAdjust="spacing" textLength="64" x="3414.25" y="371.7285">Command</text><line style="stroke:#181818;stroke-width:0.5;" x1="3248.5" x2="3611.5" y1="382" y2="382"/><text fill="#000000" font-family="sans-serif" font-size="14" lengthAdjust="spacing" textLength="80" x="3253.5" y="400.5332">name: String</text><text fill="#000000" font-family="sans-serif" font-size="14" lengthAdjust="spacing" textLength="114" x="3253.5" y="418.1426">description: String</text><text fill="#000000" font-family="sans-serif" font-size="14" lengthAdjust="spacing" textLength="131" x="3253.5" y="435.752">arguments: ArrayList</text><text fill="#000000" font-family="sans-serif" font-size="14" lengthAdjust="spacing" textLength="149" x="3253.5" y="453.3613">enviroment: Enviroment</text><line style="stroke:#181818;stroke-width:0.5;" x1="3248.5" x2="3611.5" y1="460.4375" y2="460.4375"/><text fill="#000000" font-family="sans-serif" font-size="14" lengthAdjust="spacing" textLength="317" x="3253.5" y="478.9707">setEnviroment(Enviroment enviroment): Command</text><text fill="#000000" font-family="sans-serif" font-size="14" lengthAdjust="spacing" textLength="184" x="3253.5" y="496.5801">initArgs(Argument args): void</text><text fill="#000000" font-family="sans-serif" font-size="14" lengthAdjust="spacing" textLength="123" x="3253.5" y="514.1895">getArgs(): ArrayList</text><text fill="#000000" font-family="sans-serif" font-size="14" lengthAdjust="spacing" textLength="111" x="3253.5" y="531.7988">getName(): String</text><text fill="#000000" font-family="sans-serif" font-size="14" lengthAdjust="spacing" textLength="146" x="3253.5" y="549.4082">getDescription(): String</text><text fill="#000000" font-family="sans-serif" font-size="14" lengthAdjust="spacing" textLength="353" x="3253.5" y="567.0176">execute(CommandRequest request): CommandRequest</text></g><!--class TerminateException--><g id="elem_TerminateException"><rect codeLine="37" fill="#F1F1F1" height="48" id="TerminateException" rx="2.5" ry="2.5" style="stroke:#181818;stroke-width:0.5;" width="157" x="4250.5" y="438"/><ellipse cx="4265.5" cy="454" fill="#ADD1B2" rx="11" ry="11" style="stroke:#181818;stroke-width:1.0;"/><path d="M4268.2656,449.875 Q4268.4219,449.6563 4268.6094,449.5469 Q4268.7969,449.4375 4269.0156,449.4375 Q4269.3906,449.4375 4269.625,449.7031 Q4269.8594,449.9531 4269.8594,450.5625 L4269.8594,452.0156 Q4269.8594,452.625 4269.625,452.8906 Q4269.3906,453.1563 4269.0156,453.1563 Q4268.6719,453.1563 4268.4688,452.9531 Q4268.2656,452.7656 4268.1563,452.25 Q4268.1094,451.8906 4267.9219,451.7031 Q4267.5938,451.3281 4266.9844,451.1094 Q4266.375,450.8906 4265.75,450.8906 Q4264.9844,450.8906 4264.3438,451.2188 Q4263.7188,451.5469 4263.2188,452.2969 Q4262.7344,453.0469 4262.7344,454.0781 L4262.7344,455.1719 Q4262.7344,456.4063 4263.625,457.2344 Q4264.5156,458.0469 4266.1094,458.0469 Q4267.0469,458.0469 4267.7031,457.7969 Q4268.0938,457.6406 4268.5156,457.2031 Q4268.7813,456.9375 4268.9219,456.8594 Q4269.0781,456.7813 4269.2813,456.7813 Q4269.6094,456.7813 4269.8594,457.0469 Q4270.125,457.2969 4270.125,457.6406 Q4270.125,457.9844 4269.7813,458.3906 Q4269.2813,458.9688 4268.4844,459.2969 Q4267.4063,459.75 4266.1094,459.75 Q4264.5938,459.75 4263.3906,459.125 Q4262.4063,458.625 4261.7188,457.5625 Q4261.0313,456.4844 4261.0313,455.2031 L4261.0313,454.0469 Q4261.0313,452.7188 4261.6406,451.5781 Q4262.2656,450.4219 4263.3594,449.8125 Q4264.4531,449.1875 4265.6875,449.1875 Q4266.4219,449.1875 4267.0625,449.3594 Q4267.7188,449.5156 4268.2656,449.875 Z " fill="#000000"/><text fill="#000000" font-family="sans-serif" font-size="14" lengthAdjust="spacing" textLength="125" x="4279.5" y="459.7285">TerminateException</text><line style="stroke:#181818;stroke-width:0.5;" x1="4251.5" x2="4406.5" y1="470" y2="470"/><line style="stroke:#181818;stroke-width:0.5;" x1="4251.5" x2="4406.5" y1="478" y2="478"/></g><!--class OnlyForServer--><g id="elem_OnlyForServer"><rect codeLine="42" fill="#F1F1F1" height="48" id="OnlyForServer" rx="2.5" ry="2.5" style="stroke:#181818;stroke-width:0.5;" width="124" x="4070" y="438"/><ellipse cx="4085" cy="454" fill="#B4A7E5" rx="11" ry="11" style="stroke:#181818;stroke-width:1.0;"/><path d="M4085.9531,450.6406 L4085.9531,457.2969 L4087.6719,457.2969 Q4088.2813,457.2969 4088.5469,457.5313 Q4088.8125,457.7656 4088.8125,458.1563 Q4088.8125,458.5313 4088.5469,458.7656 Q4088.2813,459 4087.6719,459 L4082.5313,459 Q4081.9219,459 4081.6563,458.7656 Q4081.3906,458.5313 4081.3906,458.1406 Q4081.3906,457.7656 4081.6563,457.5313 Q4081.9219,457.2969 4082.5313,457.2969 L4084.25,457.2969 L4084.25,450.6406 L4082.5313,450.6406 Q4081.9219,450.6406 4081.6563,450.4063 Q4081.3906,450.1719 4081.3906,449.7813 Q4081.3906,449.4063 4081.6563,449.1719 Q4081.9219,448.9375 4082.5313,448.9375 L4087.6719,448.9375 Q4088.2813,448.9375 4088.5469,449.1719 Q4088.8125,449.4063 4088.8125,449.7813 Q4088.8125,450.1719 4088.5469,450.4063 Q4088.2813,450.6406 4087.6719,450.6406 L4085.9531,450.6406 Z " fill="#000000"/><text fill="#000000" font-family="sans-serif" font-size="14" font-style="italic" lengthAdjust="spacing" textLength="92" x="4099" y="459.7285">OnlyForServer</text><line style="stroke:#181818;stroke-width:0.5;" x1="4071" x2="4193" y1="470" y2="470"/><line style="stroke:#181818;stroke-width:0.5;" x1="4071" x2="4193" y1="478" y2="478"/></g><!--class RequireAuthorization--><g id="elem_RequireAuthorization"><rect codeLine="44" fill="#F1F1F1" height="48" id="RequireAuthorization" rx="2.5" ry="2.5" style="stroke:#181818;stroke-width:0.5;" width="165" x="3869.5" y="438"/><ellipse cx="3884.5" cy="454" fill="#B4A7E5" rx="11" ry="11" style="stroke:#181818;stroke-width:1.0;"/><path d="M3885.4531,450.6406 L3885.4531,457.2969 L3887.1719,457.2969 Q3887.7813,457.2969 3888.0469,457.5313 Q3888.3125,457.7656 3888.3125,458.1563 Q3888.3125,458.5313 3888.0469,458.7656 Q3887.7813,459 3887.1719,459 L3882.0313,459 Q3881.4219,459 3881.1563,458.7656 Q3880.8906,458.5313 3880.8906,458.1406 Q3880.8906,457.7656 3881.1563,457.5313 Q3881.4219,457.2969 3882.0313,457.2969 L3883.75,457.2969 L3883.75,450.6406 L3882.0313,450.6406 Q3881.4219,450.6406 3881.1563,450.4063 Q3880.8906,450.1719 3880.8906,449.7813 Q3880.8906,449.4063 3881.1563,449.1719 Q3881.4219,448.9375 3882.0313,448.9375 L3887.1719,448.9375 Q3887.7813,448.9375 3888.0469,449.1719 Q3888.3125,449.4063 3888.3125,449.7813 Q3888.3125,450.1719 3888.0469,450.4063 Q3887.7813,450.6406 3887.1719,450.6406 L3885.4531,450.6406 Z " fill="#000000"/><text fill="#000000" font-family="sans-serif" font-size="14" font-style="italic" lengthAdjust="spacing" textLength="133" x="3898.5" y="459.7285">RequireAuthorization</text><line style="stroke:#181818;stroke-width:0.5;" x1="3870.5" x2="4033.5" y1="470" y2="470"/><line style="stroke:#181818;stroke-width:0.5;" x1="3870.5" x2="4033.5" y1="478" y2="478"/></g><!--class User--><g id="elem_User"><rect codeLine="49" fill="#F1F1F1" height="153.6563" id="User" rx="2.5" ry="2.5" style="stroke:#181818;stroke-width:0.5;" width="196" x="1293" y="385"/><ellipse cx="1372.25" cy="401" fill="#ADD1B2" rx="11" ry="11" style="stroke:#181818;stroke-width:1.0;"/><path d="M1375.0156,396.875 Q1375.1719,396.6563 1375.3594,396.5469 Q1375.5469,396.4375 1375.7656,396.4375 Q1376.1406,396.4375 1376.375,396.7031 Q1376.6094,396.9531 1376.6094,397.5625 L1376.6094,399.0156 Q1376.6094,399.625 1376.375,399.8906 Q1376.1406,400.1563 1375.7656,400.1563 Q1375.4219,400.1563 1375.2188,399.9531 Q1375.0156,399.7656 1374.9063,399.25 Q1374.8594,398.8906 1374.6719,398.7031 Q1374.3438,398.3281 1373.7344,398.1094 Q1373.125,397.8906 1372.5,397.8906 Q1371.7344,397.8906 1371.0938,398.2188 Q1370.4688,398.5469 1369.9688,399.2969 Q1369.4844,400.0469 1369.4844,401.0781 L1369.4844,402.1719 Q1369.4844,403.4063 1370.375,404.2344 Q1371.2656,405.0469 1372.8594,405.0469 Q1373.7969,405.0469 1374.4531,404.7969 Q1374.8438,404.6406 1375.2656,404.2031 Q1375.5313,403.9375 1375.6719,403.8594 Q1375.8281,403.7813 1376.0313,403.7813 Q1376.3594,403.7813 1376.6094,404.0469 Q1376.875,404.2969 1376.875,404.6406 Q1376.875,404.9844 1376.5313,405.3906 Q1376.0313,405.9688 1375.2344,406.2969 Q1374.1563,406.75 1372.8594,406.75 Q1371.3438,406.75 1370.1406,406.125 Q1369.1563,405.625 1368.4688,404.5625 Q1367.7813,403.4844 1367.7813,402.2031 L1367.7813,401.0469 Q1367.7813,399.7188 1368.3906,398.5781 Q1369.0156,397.4219 1370.1094,396.8125 Q1371.2031,396.1875 1372.4375,396.1875 Q1373.1719,396.1875 1373.8125,396.3594 Q1374.4688,396.5156 1375.0156,396.875 Z " fill="#000000"/><text fill="#000000" font-family="sans-serif" font-size="14" lengthAdjust="spacing" textLength="29" x="1392.75" y="406.7285">User</text><line style="stroke:#181818;stroke-width:0.5;" x1="1294" x2="1488" y1="417" y2="417"/><text fill="#000000" font-family="sans-serif" font-size="14" lengthAdjust="spacing" textLength="51" x="1299" y="435.5332">id: Long</text><text fill="#000000" font-family="sans-serif" font-size="14" lengthAdjust="spacing" textLength="108" x="1299" y="453.1426">username: String</text><text fill="#000000" font-family="sans-serif" font-size="14" lengthAdjust="spacing" textLength="153" x="1299" y="470.752">hashedPassword: String</text><line style="stroke:#181818;stroke-width:0.5;" x1="1294" x2="1488" y1="477.8281" y2="477.8281"/><text fill="#000000" font-family="sans-serif" font-size="14" lengthAdjust="spacing" textLength="81" x="1299" y="496.3613">getId(): Long</text><text fill="#000000" font-family="sans-serif" font-size="14" lengthAdjust="spacing" textLength="139" x="1299" y="513.9707">getUsername(): String</text><text fill="#000000" font-family="sans-serif" font-size="14" lengthAdjust="spacing" textLength="184" x="1299" y="531.5801">getHashedPassword(): String</text></g><!--class Vehicle--><g id="elem_Vehicle"><rect codeLine="57" fill="#F1F1F1" height="576.2813" id="Vehicle" rx="2.5" ry="2.5" style="stroke:#181818;stroke-width:0.5;" width="344" x="2847" y="174"/><ellipse cx="2991.75" cy="190" fill="#ADD1B2" rx="11" ry="11" style="stroke:#181818;stroke-width:1.0;"/><path d="M2994.5156,185.875 Q2994.6719,185.6563 2994.8594,185.5469 Q2995.0469,185.4375 2995.2656,185.4375 Q2995.6406,185.4375 2995.875,185.7031 Q2996.1094,185.9531 2996.1094,186.5625 L2996.1094,188.0156 Q2996.1094,188.625 2995.875,188.8906 Q2995.6406,189.1563 2995.2656,189.1563 Q2994.9219,189.1563 2994.7188,188.9531 Q2994.5156,188.7656 2994.4063,188.25 Q2994.3594,187.8906 2994.1719,187.7031 Q2993.8438,187.3281 2993.2344,187.1094 Q2992.625,186.8906 2992,186.8906 Q2991.2344,186.8906 2990.5938,187.2188 Q2989.9688,187.5469 2989.4688,188.2969 Q2988.9844,189.0469 2988.9844,190.0781 L2988.9844,191.1719 Q2988.9844,192.4063 2989.875,193.2344 Q2990.7656,194.0469 2992.3594,194.0469 Q2993.2969,194.0469 2993.9531,193.7969 Q2994.3438,193.6406 2994.7656,193.2031 Q2995.0313,192.9375 2995.1719,192.8594 Q2995.3281,192.7813 2995.5313,192.7813 Q2995.8594,192.7813 2996.1094,193.0469 Q2996.375,193.2969 2996.375,193.6406 Q2996.375,193.9844 2996.0313,194.3906 Q2995.5313,194.9688 2994.7344,195.2969 Q2993.6563,195.75 2992.3594,195.75 Q2990.8438,195.75 2989.6406,195.125 Q2988.6563,194.625 2987.9688,193.5625 Q2987.2813,192.4844 2987.2813,191.2031 L2987.2813,190.0469 Q2987.2813,188.7188 2987.8906,187.5781 Q2988.5156,186.4219 2989.6094,185.8125 Q2990.7031,185.1875 2991.9375,185.1875 Q2992.6719,185.1875 2993.3125,185.3594 Q2993.9688,185.5156 2994.5156,185.875 Z " fill="#000000"/><text fill="#000000" font-family="sans-serif" font-size="14" lengthAdjust="spacing" textLength="46" x="3012.25" y="195.7285">Vehicle</text><line style="stroke:#181818;stroke-width:0.5;" x1="2848" x2="3190" y1="206" y2="206"/><text fill="#000000" font-family="sans-serif" font-size="14" lengthAdjust="spacing" textLength="46" x="2853" y="224.5332">id: long</text><text fill="#000000" font-family="sans-serif" font-size="14" lengthAdjust="spacing" textLength="80" x="2853" y="242.1426">name: String</text><text fill="#000000" font-family="sans-serif" font-size="14" lengthAdjust="spacing" textLength="159" x="2853" y="259.752">coordinates: Coordinates</text><text fill="#000000" font-family="sans-serif" font-size="14" lengthAdjust="spacing" textLength="115" x="2853" y="277.3613">creationDate: java</text><text fill="#000000" font-family="sans-serif" font-size="14" lengthAdjust="spacing" textLength="122" x="2853" y="294.9707">enginePower: Float</text><text fill="#000000" font-family="sans-serif" font-size="14" lengthAdjust="spacing" textLength="162" x="2853" y="312.5801">numberOfWheels: Integer</text><text fill="#000000" font-family="sans-serif" font-size="14" lengthAdjust="spacing" textLength="141" x="2853" y="330.1895">fuelConsumption: float</text><text fill="#000000" font-family="sans-serif" font-size="14" lengthAdjust="spacing" textLength="123" x="2853" y="347.7988">fuelType: FuelType</text><text fill="#000000" font-family="sans-serif" font-size="14" lengthAdjust="spacing" textLength="108" x="2853" y="365.4082">username: String</text><line style="stroke:#181818;stroke-width:0.5;" x1="2848" x2="3190" y1="372.4844" y2="372.4844"/><text fill="#000000" font-family="sans-serif" font-size="14" lengthAdjust="spacing" textLength="305" x="2853" y="391.0176">setFieldByName(String name, String value): void</text><text fill="#000000" font-family="sans-serif" font-size="14" lengthAdjust="spacing" textLength="76" x="2853" y="408.627">getId(): long</text><text fill="#000000" font-family="sans-serif" font-size="14" lengthAdjust="spacing" textLength="111" x="2853" y="426.2363">getName(): String</text><text fill="#000000" font-family="sans-serif" font-size="14" lengthAdjust="spacing" textLength="192" x="2853" y="443.8457">getCoordinates(): Coordinates</text><text fill="#000000" font-family="sans-serif" font-size="14" lengthAdjust="spacing" textLength="148" x="2853" y="461.4551">getCreationDate(): java</text><text fill="#000000" font-family="sans-serif" font-size="14" lengthAdjust="spacing" textLength="153" x="2853" y="479.0645">getEnginePower(): Float</text><text fill="#000000" font-family="sans-serif" font-size="14" lengthAdjust="spacing" textLength="193" x="2853" y="496.6738">getNumberOfWheels(): Integer</text><text fill="#000000" font-family="sans-serif" font-size="14" lengthAdjust="spacing" textLength="176" x="2853" y="514.2832">getFuelConsumption(): float</text><text fill="#000000" font-family="sans-serif" font-size="14" lengthAdjust="spacing" textLength="158" x="2853" y="531.8926">getFuelType(): FuelType</text><text fill="#000000" font-family="sans-serif" font-size="14" lengthAdjust="spacing" textLength="175" x="2853" y="549.502">setName(String name): void</text><text fill="#000000" font-family="sans-serif" font-size="14" lengthAdjust="spacing" textLength="295" x="2853" y="567.1113">setCoordinates(Coordinates coordinates): void</text><text fill="#000000" font-family="sans-serif" font-size="14" lengthAdjust="spacing" textLength="264" x="2853" y="584.7207">setEnginePower(Float enginePower): void</text><text fill="#000000" font-family="sans-serif" font-size="14" lengthAdjust="spacing" textLength="332" x="2853" y="602.3301">setNumberOfWheels(Integer numberOfWheels): void</text><text fill="#000000" font-family="sans-serif" font-size="14" lengthAdjust="spacing" textLength="311" x="2853" y="619.9395">setFuelConsumption(float fuelConsumption): void</text><text fill="#000000" font-family="sans-serif" font-size="14" lengthAdjust="spacing" textLength="242" x="2853" y="637.5488">setFuelType(FuelType fuelType): void</text><text fill="#000000" font-family="sans-serif" font-size="14" lengthAdjust="spacing" textLength="139" x="2853" y="655.1582">getUsername(): String</text><text fill="#000000" font-family="sans-serif" font-size="14" lengthAdjust="spacing" textLength="222" x="2853" y="672.7676">getFieldValue(String name): Object</text><text fill="#000000" font-family="sans-serif" font-size="14" lengthAdjust="spacing" textLength="164" x="2853" y="690.377">equals(Object o): boolean</text><text fill="#000000" font-family="sans-serif" font-size="14" lengthAdjust="spacing" textLength="98" x="2853" y="707.9863">hashCode(): int</text><text fill="#000000" font-family="sans-serif" font-size="14" lengthAdjust="spacing" textLength="104" x="2853" y="725.5957">toString(): String</text><text fill="#000000" font-family="sans-serif" font-size="14" lengthAdjust="spacing" textLength="162" x="2853" y="743.2051">compareTo(Vehicle v): int</text></g><!--class Caster--><g id="elem_Caster"><rect codeLine="89" fill="#F1F1F1" height="153.6563" id="Caster" rx="2.5" ry="2.5" style="stroke:#181818;stroke-width:0.5;" width="229" x="2173.5" y="385"/><ellipse cx="2262.75" cy="401" fill="#ADD1B2" rx="11" ry="11" style="stroke:#181818;stroke-width:1.0;"/><path d="M2265.5156,396.875 Q2265.6719,396.6563 2265.8594,396.5469 Q2266.0469,396.4375 2266.2656,396.4375 Q2266.6406,396.4375 2266.875,396.7031 Q2267.1094,396.9531 2267.1094,397.5625 L2267.1094,399.0156 Q2267.1094,399.625 2266.875,399.8906 Q2266.6406,400.1563 2266.2656,400.1563 Q2265.9219,400.1563 2265.7188,399.9531 Q2265.5156,399.7656 2265.4063,399.25 Q2265.3594,398.8906 2265.1719,398.7031 Q2264.8438,398.3281 2264.2344,398.1094 Q2263.625,397.8906 2263,397.8906 Q2262.2344,397.8906 2261.5938,398.2188 Q2260.9688,398.5469 2260.4688,399.2969 Q2259.9844,400.0469 2259.9844,401.0781 L2259.9844,402.1719 Q2259.9844,403.4063 2260.875,404.2344 Q2261.7656,405.0469 2263.3594,405.0469 Q2264.2969,405.0469 2264.9531,404.7969 Q2265.3438,404.6406 2265.7656,404.2031 Q2266.0313,403.9375 2266.1719,403.8594 Q2266.3281,403.7813 2266.5313,403.7813 Q2266.8594,403.7813 2267.1094,404.0469 Q2267.375,404.2969 2267.375,404.6406 Q2267.375,404.9844 2267.0313,405.3906 Q2266.5313,405.9688 2265.7344,406.2969 Q2264.6563,406.75 2263.3594,406.75 Q2261.8438,406.75 2260.6406,406.125 Q2259.6563,405.625 2258.9688,404.5625 Q2258.2813,403.4844 2258.2813,402.2031 L2258.2813,401.0469 Q2258.2813,399.7188 2258.8906,398.5781 Q2259.5156,397.4219 2260.6094,396.8125 Q2261.7031,396.1875 2262.9375,396.1875 Q2263.6719,396.1875 2264.3125,396.3594 Q2264.9688,396.5156 2265.5156,396.875 Z " fill="#000000"/><text fill="#000000" font-family="sans-serif" font-size="14" lengthAdjust="spacing" textLength="42" x="2283.25" y="406.7285">Caster</text><line style="stroke:#181818;stroke-width:0.5;" x1="2174.5" x2="2401.5" y1="417" y2="417"/><text fill="#000000" font-family="sans-serif" font-size="14" lengthAdjust="spacing" textLength="117" x="2179.5" y="435.5332">castToId: Function</text><text fill="#000000" font-family="sans-serif" font-size="14" lengthAdjust="spacing" textLength="142" x="2179.5" y="453.1426">castToName: Function</text><text fill="#000000" font-family="sans-serif" font-size="14" lengthAdjust="spacing" textLength="189" x="2179.5" y="470.752">castToEnginePower: Function</text><text fill="#000000" font-family="sans-serif" font-size="14" lengthAdjust="spacing" textLength="217" x="2179.5" y="488.3613">castToNumberOfWheels: Function</text><text fill="#000000" font-family="sans-serif" font-size="14" lengthAdjust="spacing" textLength="217" x="2179.5" y="505.9707">castToFuelConsumption: Function</text><text fill="#000000" font-family="sans-serif" font-size="14" lengthAdjust="spacing" textLength="166" x="2179.5" y="523.5801">castToFuelType: Function</text><line style="stroke:#181818;stroke-width:0.5;" x1="2174.5" x2="2401.5" y1="530.6563" y2="530.6563"/></g><!--class Validator--><g id="elem_Validator"><rect codeLine="97" fill="#F1F1F1" height="259.3125" id="Validator" rx="2.5" ry="2.5" style="stroke:#181818;stroke-width:0.5;" width="374" x="2438" y="332.5"/><ellipse cx="2592.75" cy="348.5" fill="#ADD1B2" rx="11" ry="11" style="stroke:#181818;stroke-width:1.0;"/><path d="M2595.5156,344.375 Q2595.6719,344.1563 2595.8594,344.0469 Q2596.0469,343.9375 2596.2656,343.9375 Q2596.6406,343.9375 2596.875,344.2031 Q2597.1094,344.4531 2597.1094,345.0625 L2597.1094,346.5156 Q2597.1094,347.125 2596.875,347.3906 Q2596.6406,347.6563 2596.2656,347.6563 Q2595.9219,347.6563 2595.7188,347.4531 Q2595.5156,347.2656 2595.4063,346.75 Q2595.3594,346.3906 2595.1719,346.2031 Q2594.8438,345.8281 2594.2344,345.6094 Q2593.625,345.3906 2593,345.3906 Q2592.2344,345.3906 2591.5938,345.7188 Q2590.9688,346.0469 2590.4688,346.7969 Q2589.9844,347.5469 2589.9844,348.5781 L2589.9844,349.6719 Q2589.9844,350.9063 2590.875,351.7344 Q2591.7656,352.5469 2593.3594,352.5469 Q2594.2969,352.5469 2594.9531,352.2969 Q2595.3438,352.1406 2595.7656,351.7031 Q2596.0313,351.4375 2596.1719,351.3594 Q2596.3281,351.2813 2596.5313,351.2813 Q2596.8594,351.2813 2597.1094,351.5469 Q2597.375,351.7969 2597.375,352.1406 Q2597.375,352.4844 2597.0313,352.8906 Q2596.5313,353.4688 2595.7344,353.7969 Q2594.6563,354.25 2593.3594,354.25 Q2591.8438,354.25 2590.6406,353.625 Q2589.6563,353.125 2588.9688,352.0625 Q2588.2813,350.9844 2588.2813,349.7031 L2588.2813,348.5469 Q2588.2813,347.2188 2588.8906,346.0781 Q2589.5156,344.9219 2590.6094,344.3125 Q2591.7031,343.6875 2592.9375,343.6875 Q2593.6719,343.6875 2594.3125,343.8594 Q2594.9688,344.0156 2595.5156,344.375 Z " fill="#000000"/><text fill="#000000" font-family="sans-serif" font-size="14" lengthAdjust="spacing" textLength="56" x="2613.25" y="354.2285">Validator</text><line style="stroke:#181818;stroke-width:0.5;" x1="2439" x2="2811" y1="364.5" y2="364.5"/><text fill="#000000" font-family="sans-serif" font-size="14" lengthAdjust="spacing" textLength="253" x="2444" y="383.0332">nameHumanIntelligibleConditions: String</text><text fill="#000000" font-family="sans-serif" font-size="14" lengthAdjust="spacing" textLength="300" x="2444" y="400.6426">enginePowerHumanIntelligibleConditions: String</text><text fill="#000000" font-family="sans-serif" font-size="14" lengthAdjust="spacing" textLength="328" x="2444" y="418.252">numberOfWheelsHumanIntelligibleConditions: String</text><text fill="#000000" font-family="sans-serif" font-size="14" lengthAdjust="spacing" textLength="324" x="2444" y="435.8613">fuelConsumptionHumanIntelligibleConditions: String</text><text fill="#000000" font-family="sans-serif" font-size="14" lengthAdjust="spacing" textLength="162" x="2444" y="453.4707">fuelTypeValues: ArrayList</text><text fill="#000000" font-family="sans-serif" font-size="14" lengthAdjust="spacing" textLength="273" x="2444" y="471.0801">fuelTypeHumanIntelligibleConditions: String</text><line style="stroke:#181818;stroke-width:0.5;" x1="2439" x2="2811" y1="478.1563" y2="478.1563"/><text fill="#000000" font-family="sans-serif" font-size="14" lengthAdjust="spacing" textLength="205" x="2444" y="496.6895">validateName(String name): void</text><text fill="#000000" font-family="sans-serif" font-size="14" lengthAdjust="spacing" textLength="325" x="2444" y="514.2988">validateCoordinates(Coordinates coordinates): void</text><text fill="#000000" font-family="sans-serif" font-size="14" lengthAdjust="spacing" textLength="294" x="2444" y="531.9082">validateEnginePower(Float enginePower): void</text><text fill="#000000" font-family="sans-serif" font-size="14" lengthAdjust="spacing" textLength="362" x="2444" y="549.5176">validateNumberOfWheels(Integer numberOfWheels): void</text><text fill="#000000" font-family="sans-serif" font-size="14" lengthAdjust="spacing" textLength="341" x="2444" y="567.127">validateFuelConsumption(float fuelConsumption): void</text><text fill="#000000" font-family="sans-serif" font-size="14" lengthAdjust="spacing" textLength="272" x="2444" y="584.7363">validateFuelType(FuelType fuelType): void</text></g><!--class Coordinates--><g id="elem_Coordinates"><rect codeLine="114" fill="#F1F1F1" height="171.2656" id="Coordinates" rx="2.5" ry="2.5" style="stroke:#181818;stroke-width:0.5;" width="136" x="1708" y="376.5"/><ellipse cx="1735.15" cy="392.5" fill="#ADD1B2" rx="11" ry="11" style="stroke:#181818;stroke-width:1.0;"/><path d="M1737.9156,388.375 Q1738.0719,388.1563 1738.2594,388.0469 Q1738.4469,387.9375 1738.6656,387.9375 Q1739.0406,387.9375 1739.275,388.2031 Q1739.5094,388.4531 1739.5094,389.0625 L1739.5094,390.5156 Q1739.5094,391.125 1739.275,391.3906 Q1739.0406,391.6563 1738.6656,391.6563 Q1738.3219,391.6563 1738.1188,391.4531 Q1737.9156,391.2656 1737.8063,390.75 Q1737.7594,390.3906 1737.5719,390.2031 Q1737.2438,389.8281 1736.6344,389.6094 Q1736.025,389.3906 1735.4,389.3906 Q1734.6344,389.3906 1733.9938,389.7188 Q1733.3688,390.0469 1732.8688,390.7969 Q1732.3844,391.5469 1732.3844,392.5781 L1732.3844,393.6719 Q1732.3844,394.9063 1733.275,395.7344 Q1734.1656,396.5469 1735.7594,396.5469 Q1736.6969,396.5469 1737.3531,396.2969 Q1737.7438,396.1406 1738.1656,395.7031 Q1738.4313,395.4375 1738.5719,395.3594 Q1738.7281,395.2813 1738.9313,395.2813 Q1739.2594,395.2813 1739.5094,395.5469 Q1739.775,395.7969 1739.775,396.1406 Q1739.775,396.4844 1739.4313,396.8906 Q1738.9313,397.4688 1738.1344,397.7969 Q1737.0563,398.25 1735.7594,398.25 Q1734.2438,398.25 1733.0406,397.625 Q1732.0563,397.125 1731.3688,396.0625 Q1730.6813,394.9844 1730.6813,393.7031 L1730.6813,392.5469 Q1730.6813,391.2188 1731.2906,390.0781 Q1731.9156,388.9219 1733.0094,388.3125 Q1734.1031,387.6875 1735.3375,387.6875 Q1736.0719,387.6875 1736.7125,387.8594 Q1737.3688,388.0156 1737.9156,388.375 Z " fill="#000000"/><text fill="#000000" font-family="sans-serif" font-size="14" lengthAdjust="spacing" textLength="77" x="1751.85" y="398.2285">Coordinates</text><line style="stroke:#181818;stroke-width:0.5;" x1="1709" x2="1843" y1="408.5" y2="408.5"/><text fill="#000000" font-family="sans-serif" font-size="14" lengthAdjust="spacing" textLength="51" x="1714" y="427.0332">id: Long</text><text fill="#000000" font-family="sans-serif" font-size="14" lengthAdjust="spacing" textLength="57" x="1714" y="444.6426">x: double</text><text fill="#000000" font-family="sans-serif" font-size="14" lengthAdjust="spacing" textLength="42" x="1714" y="462.252">y: float</text><line style="stroke:#181818;stroke-width:0.5;" x1="1709" x2="1843" y1="469.3281" y2="469.3281"/><text fill="#000000" font-family="sans-serif" font-size="14" lengthAdjust="spacing" textLength="89" x="1714" y="487.8613">getX(): double</text><text fill="#000000" font-family="sans-serif" font-size="14" lengthAdjust="spacing" textLength="74" x="1714" y="505.4707">getY(): float</text><text fill="#000000" font-family="sans-serif" font-size="14" lengthAdjust="spacing" textLength="124" x="1714" y="523.0801">setX(double x): void</text><text fill="#000000" font-family="sans-serif" font-size="14" lengthAdjust="spacing" textLength="110" x="1714" y="540.6895">setY(float y): void</text></g><!--class Caster--><g id="elem_Caster"><rect codeLine="123" fill="#F1F1F1" height="83.2188" id="Caster" rx="2.5" ry="2.5" style="stroke:#181818;stroke-width:0.5;" width="127" x="1545.5" y="420.5"/><ellipse cx="1584.35" cy="436.5" fill="#ADD1B2" rx="11" ry="11" style="stroke:#181818;stroke-width:1.0;"/><path d="M1587.1156,432.375 Q1587.2719,432.1563 1587.4594,432.0469 Q1587.6469,431.9375 1587.8656,431.9375 Q1588.2406,431.9375 1588.475,432.2031 Q1588.7094,432.4531 1588.7094,433.0625 L1588.7094,434.5156 Q1588.7094,435.125 1588.475,435.3906 Q1588.2406,435.6563 1587.8656,435.6563 Q1587.5219,435.6563 1587.3188,435.4531 Q1587.1156,435.2656 1587.0063,434.75 Q1586.9594,434.3906 1586.7719,434.2031 Q1586.4438,433.8281 1585.8344,433.6094 Q1585.225,433.3906 1584.6,433.3906 Q1583.8344,433.3906 1583.1938,433.7188 Q1582.5688,434.0469 1582.0688,434.7969 Q1581.5844,435.5469 1581.5844,436.5781 L1581.5844,437.6719 Q1581.5844,438.9063 1582.475,439.7344 Q1583.3656,440.5469 1584.9594,440.5469 Q1585.8969,440.5469 1586.5531,440.2969 Q1586.9438,440.1406 1587.3656,439.7031 Q1587.6313,439.4375 1587.7719,439.3594 Q1587.9281,439.2813 1588.1313,439.2813 Q1588.4594,439.2813 1588.7094,439.5469 Q1588.975,439.7969 1588.975,440.1406 Q1588.975,440.4844 1588.6313,440.8906 Q1588.1313,441.4688 1587.3344,441.7969 Q1586.2563,442.25 1584.9594,442.25 Q1583.4438,442.25 1582.2406,441.625 Q1581.2563,441.125 1580.5688,440.0625 Q1579.8813,438.9844 1579.8813,437.7031 L1579.8813,436.5469 Q1579.8813,435.2188 1580.4906,434.0781 Q1581.1156,432.9219 1582.2094,432.3125 Q1583.3031,431.6875 1584.5375,431.6875 Q1585.2719,431.6875 1585.9125,431.8594 Q1586.5688,432.0156 1587.1156,432.375 Z " fill="#000000"/><text fill="#000000" font-family="sans-serif" font-size="14" lengthAdjust="spacing" textLength="42" x="1603.65" y="442.2285">Caster</text><line style="stroke:#181818;stroke-width:0.5;" x1="1546.5" x2="1671.5" y1="452.5" y2="452.5"/><text fill="#000000" font-family="sans-serif" font-size="14" lengthAdjust="spacing" textLength="114" x="1551.5" y="471.0332">castToX: Function</text><text fill="#000000" font-family="sans-serif" font-size="14" lengthAdjust="spacing" textLength="115" x="1551.5" y="488.6426">castToY: Function</text><line style="stroke:#181818;stroke-width:0.5;" x1="1546.5" x2="1671.5" y1="495.7188" y2="495.7188"/></g><!--class Validator--><g id="elem_Validator"><rect codeLine="127" fill="#F1F1F1" height="118.4375" id="Validator" rx="2.5" ry="2.5" style="stroke:#181818;stroke-width:0.5;" width="237" x="1879.5" y="403"/><ellipse cx="1965.75" cy="419" fill="#ADD1B2" rx="11" ry="11" style="stroke:#181818;stroke-width:1.0;"/><path d="M1968.5156,414.875 Q1968.6719,414.6563 1968.8594,414.5469 Q1969.0469,414.4375 1969.2656,414.4375 Q1969.6406,414.4375 1969.875,414.7031 Q1970.1094,414.9531 1970.1094,415.5625 L1970.1094,417.0156 Q1970.1094,417.625 1969.875,417.8906 Q1969.6406,418.1563 1969.2656,418.1563 Q1968.9219,418.1563 1968.7188,417.9531 Q1968.5156,417.7656 1968.4063,417.25 Q1968.3594,416.8906 1968.1719,416.7031 Q1967.8438,416.3281 1967.2344,416.1094 Q1966.625,415.8906 1966,415.8906 Q1965.2344,415.8906 1964.5938,416.2188 Q1963.9688,416.5469 1963.4688,417.2969 Q1962.9844,418.0469 1962.9844,419.0781 L1962.9844,420.1719 Q1962.9844,421.4063 1963.875,422.2344 Q1964.7656,423.0469 1966.3594,423.0469 Q1967.2969,423.0469 1967.9531,422.7969 Q1968.3438,422.6406 1968.7656,422.2031 Q1969.0313,421.9375 1969.1719,421.8594 Q1969.3281,421.7813 1969.5313,421.7813 Q1969.8594,421.7813 1970.1094,422.0469 Q1970.375,422.2969 1970.375,422.6406 Q1970.375,422.9844 1970.0313,423.3906 Q1969.5313,423.9688 1968.7344,424.2969 Q1967.6563,424.75 1966.3594,424.75 Q1964.8438,424.75 1963.6406,424.125 Q1962.6563,423.625 1961.9688,422.5625 Q1961.2813,421.4844 1961.2813,420.2031 L1961.2813,419.0469 Q1961.2813,417.7188 1961.8906,416.5781 Q1962.5156,415.4219 1963.6094,414.8125 Q1964.7031,414.1875 1965.9375,414.1875 Q1966.6719,414.1875 1967.3125,414.3594 Q1967.9688,414.5156 1968.5156,414.875 Z " fill="#000000"/><text fill="#000000" font-family="sans-serif" font-size="14" lengthAdjust="spacing" textLength="56" x="1986.25" y="424.7285">Validator</text><line style="stroke:#181818;stroke-width:0.5;" x1="1880.5" x2="2115.5" y1="435" y2="435"/><text fill="#000000" font-family="sans-serif" font-size="14" lengthAdjust="spacing" textLength="224" x="1885.5" y="453.5332">xHumanIntelligibleConditions: String</text><text fill="#000000" font-family="sans-serif" font-size="14" lengthAdjust="spacing" textLength="225" x="1885.5" y="471.1426">yHumanIntelligibleConditions: String</text><line style="stroke:#181818;stroke-width:0.5;" x1="1880.5" x2="2115.5" y1="478.2188" y2="478.2188"/><text fill="#000000" font-family="sans-serif" font-size="14" lengthAdjust="spacing" textLength="156" x="1885.5" y="496.752">validateX(Double x): void</text><text fill="#000000" font-family="sans-serif" font-size="14" lengthAdjust="spacing" textLength="145" x="1885.5" y="514.3613">validateY(Float y): void</text></g><!--class CommandHandler--><g id="elem_CommandHandler"><rect codeLine="136" fill="#F1F1F1" height="118.4375" id="CommandHandler" rx="2.5" ry="2.5" style="stroke:#181818;stroke-width:0.5;" width="296" x="941" y="403"/><ellipse cx="1028.25" cy="419" fill="#ADD1B2" rx="11" ry="11" style="stroke:#181818;stroke-width:1.0;"/><path d="M1031.0156,414.875 Q1031.1719,414.6563 1031.3594,414.5469 Q1031.5469,414.4375 1031.7656,414.4375 Q1032.1406,414.4375 1032.375,414.7031 Q1032.6094,414.9531 1032.6094,415.5625 L1032.6094,417.0156 Q1032.6094,417.625 1032.375,417.8906 Q1032.1406,418.1563 1031.7656,418.1563 Q1031.4219,418.1563 1031.2188,417.9531 Q1031.0156,417.7656 1030.9063,417.25 Q1030.8594,416.8906 1030.6719,416.7031 Q1030.3438,416.3281 1029.7344,416.1094 Q1029.125,415.8906 1028.5,415.8906 Q1027.7344,415.8906 1027.0938,416.2188 Q1026.4688,416.5469 1025.9688,417.2969 Q1025.4844,418.0469 1025.4844,419.0781 L1025.4844,420.1719 Q1025.4844,421.4063 1026.375,422.2344 Q1027.2656,423.0469 1028.8594,423.0469 Q1029.7969,423.0469 1030.4531,422.7969 Q1030.8438,422.6406 1031.2656,422.2031 Q1031.5313,421.9375 1031.6719,421.8594 Q1031.8281,421.7813 1032.0313,421.7813 Q1032.3594,421.7813 1032.6094,422.0469 Q1032.875,422.2969 1032.875,422.6406 Q1032.875,422.9844 1032.5313,423.3906 Q1032.0313,423.9688 1031.2344,424.2969 Q1030.1563,424.75 1028.8594,424.75 Q1027.3438,424.75 1026.1406,424.125 Q1025.1563,423.625 1024.4688,422.5625 Q1023.7813,421.4844 1023.7813,420.2031 L1023.7813,419.0469 Q1023.7813,417.7188 1024.3906,416.5781 Q1025.0156,415.4219 1026.1094,414.8125 Q1027.2031,414.1875 1028.4375,414.1875 Q1029.1719,414.1875 1029.8125,414.3594 Q1030.4688,414.5156 1031.0156,414.875 Z " fill="#000000"/><text fill="#000000" font-family="sans-serif" font-size="14" lengthAdjust="spacing" textLength="113" x="1048.75" y="424.7285">CommandHandler</text><line style="stroke:#181818;stroke-width:0.5;" x1="942" x2="1236" y1="435" y2="435"/><text fill="#000000" font-family="sans-serif" font-size="14" lengthAdjust="spacing" textLength="135" x="947" y="453.5332">commands: HashMap</text><line style="stroke:#181818;stroke-width:0.5;" x1="942" x2="1236" y1="460.6094" y2="460.6094"/><text fill="#000000" font-family="sans-serif" font-size="14" lengthAdjust="spacing" textLength="284" x="947" y="479.1426">add(Command command): CommandHandler</text><text fill="#000000" font-family="sans-serif" font-size="14" lengthAdjust="spacing" textLength="242" x="947" y="496.752">getCommand(String name): Command</text><text fill="#000000" font-family="sans-serif" font-size="14" lengthAdjust="spacing" textLength="186" x="947" y="514.3613">getAllCommands(): Collection</text></g><!--class Enviroment--><g id="elem_Enviroment"><rect codeLine="142" fill="#F1F1F1" height="65.6094" id="Enviroment" rx="2.5" ry="2.5" style="stroke:#181818;stroke-width:0.5;" width="486" x="420" y="429"/><ellipse cx="623.25" cy="445" fill="#ADD1B2" rx="11" ry="11" style="stroke:#181818;stroke-width:1.0;"/><path d="M626.0156,440.875 Q626.1719,440.6563 626.3594,440.5469 Q626.5469,440.4375 626.7656,440.4375 Q627.1406,440.4375 627.375,440.7031 Q627.6094,440.9531 627.6094,441.5625 L627.6094,443.0156 Q627.6094,443.625 627.375,443.8906 Q627.1406,444.1563 626.7656,444.1563 Q626.4219,444.1563 626.2188,443.9531 Q626.0156,443.7656 625.9063,443.25 Q625.8594,442.8906 625.6719,442.7031 Q625.3438,442.3281 624.7344,442.1094 Q624.125,441.8906 623.5,441.8906 Q622.7344,441.8906 622.0938,442.2188 Q621.4688,442.5469 620.9688,443.2969 Q620.4844,444.0469 620.4844,445.0781 L620.4844,446.1719 Q620.4844,447.4063 621.375,448.2344 Q622.2656,449.0469 623.8594,449.0469 Q624.7969,449.0469 625.4531,448.7969 Q625.8438,448.6406 626.2656,448.2031 Q626.5313,447.9375 626.6719,447.8594 Q626.8281,447.7813 627.0313,447.7813 Q627.3594,447.7813 627.6094,448.0469 Q627.875,448.2969 627.875,448.6406 Q627.875,448.9844 627.5313,449.3906 Q627.0313,449.9688 626.2344,450.2969 Q625.1563,450.75 623.8594,450.75 Q622.3438,450.75 621.1406,450.125 Q620.1563,449.625 619.4688,448.5625 Q618.7813,447.4844 618.7813,446.2031 L618.7813,445.0469 Q618.7813,443.7188 619.3906,442.5781 Q620.0156,441.4219 621.1094,440.8125 Q622.2031,440.1875 623.4375,440.1875 Q624.1719,440.1875 624.8125,440.3594 Q625.4688,440.5156 626.0156,440.875 Z " fill="#000000"/><text fill="#000000" font-family="sans-serif" font-size="14" lengthAdjust="spacing" textLength="71" x="643.75" y="450.7285">Enviroment</text><line style="stroke:#181818;stroke-width:0.5;" x1="421" x2="905" y1="461" y2="461"/><line style="stroke:#181818;stroke-width:0.5;" x1="421" x2="905" y1="469" y2="469"/><text fill="#000000" font-family="sans-serif" font-size="14" lengthAdjust="spacing" textLength="474" x="426" y="487.5332">executeCommand(Command command, CommandRequest request): String</text></g><!--class CommandRequest--><g id="elem_CommandRequest"><rect codeLine="148" fill="#F1F1F1" height="329.75" id="CommandRequest" rx="2.5" ry="2.5" style="stroke:#181818;stroke-width:0.5;" width="270" x="94" y="297"/><ellipse cx="166.25" cy="313" fill="#ADD1B2" rx="11" ry="11" style="stroke:#181818;stroke-width:1.0;"/><path d="M169.0156,308.875 Q169.1719,308.6563 169.3594,308.5469 Q169.5469,308.4375 169.7656,308.4375 Q170.1406,308.4375 170.375,308.7031 Q170.6094,308.9531 170.6094,309.5625 L170.6094,311.0156 Q170.6094,311.625 170.375,311.8906 Q170.1406,312.1563 169.7656,312.1563 Q169.4219,312.1563 169.2188,311.9531 Q169.0156,311.7656 168.9063,311.25 Q168.8594,310.8906 168.6719,310.7031 Q168.3438,310.3281 167.7344,310.1094 Q167.125,309.8906 166.5,309.8906 Q165.7344,309.8906 165.0938,310.2188 Q164.4688,310.5469 163.9688,311.2969 Q163.4844,312.0469 163.4844,313.0781 L163.4844,314.1719 Q163.4844,315.4063 164.375,316.2344 Q165.2656,317.0469 166.8594,317.0469 Q167.7969,317.0469 168.4531,316.7969 Q168.8438,316.6406 169.2656,316.2031 Q169.5313,315.9375 169.6719,315.8594 Q169.8281,315.7813 170.0313,315.7813 Q170.3594,315.7813 170.6094,316.0469 Q170.875,316.2969 170.875,316.6406 Q170.875,316.9844 170.5313,317.3906 Q170.0313,317.9688 169.2344,318.2969 Q168.1563,318.75 166.8594,318.75 Q165.3438,318.75 164.1406,318.125 Q163.1563,317.625 162.4688,316.5625 Q161.7813,315.4844 161.7813,314.2031 L161.7813,313.0469 Q161.7813,311.7188 162.3906,310.5781 Q163.0156,309.4219 164.1094,308.8125 Q165.2031,308.1875 166.4375,308.1875 Q167.1719,308.1875 167.8125,308.3594 Q168.4688,308.5156 169.0156,308.875 Z " fill="#000000"/><text fill="#000000" font-family="sans-serif" font-size="14" lengthAdjust="spacing" textLength="117" x="186.75" y="318.7285">CommandRequest</text><line style="stroke:#181818;stroke-width:0.5;" x1="95" x2="363" y1="329" y2="329"/><text fill="#000000" font-family="sans-serif" font-size="14" lengthAdjust="spacing" textLength="65" x="100" y="347.5332">user: User</text><text fill="#000000" font-family="sans-serif" font-size="14" lengthAdjust="spacing" textLength="78" x="100" y="365.1426">route: String</text><text fill="#000000" font-family="sans-serif" font-size="14" lengthAdjust="spacing" textLength="95" x="100" y="382.752">args: HashMap</text><text fill="#000000" font-family="sans-serif" font-size="14" lengthAdjust="spacing" textLength="139" x="100" y="400.3613">status: RequestStatus</text><text fill="#000000" font-family="sans-serif" font-size="14" lengthAdjust="spacing" textLength="104" x="100" y="417.9707">response: String</text><text fill="#000000" font-family="sans-serif" font-size="14" lengthAdjust="spacing" textLength="123" x="100" y="435.5801">sharedData: Object</text><line style="stroke:#181818;stroke-width:0.5;" x1="95" x2="363" y1="442.6563" y2="442.6563"/><text fill="#000000" font-family="sans-serif" font-size="14" lengthAdjust="spacing" textLength="96" x="100" y="461.1895">getUser(): User</text><text fill="#000000" font-family="sans-serif" font-size="14" lengthAdjust="spacing" textLength="153" x="100" y="478.7988">setUser(User user): void</text><text fill="#000000" font-family="sans-serif" font-size="14" lengthAdjust="spacing" textLength="171" x="100" y="496.4082">getStatus(): RequestStatus</text><text fill="#000000" font-family="sans-serif" font-size="14" lengthAdjust="spacing" textLength="238" x="100" y="514.0176">setStatus(RequestStatus status): void</text><text fill="#000000" font-family="sans-serif" font-size="14" lengthAdjust="spacing" textLength="139" x="100" y="531.627">getResponse(): String</text><text fill="#000000" font-family="sans-serif" font-size="14" lengthAdjust="spacing" textLength="227" x="100" y="549.2363">setResponse(String response): void</text><text fill="#000000" font-family="sans-serif" font-size="14" lengthAdjust="spacing" textLength="113" x="100" y="566.8457">getRoute(): String</text><text fill="#000000" font-family="sans-serif" font-size="14" lengthAdjust="spacing" textLength="155" x="100" y="584.4551">getSharedData(): Object</text><text fill="#000000" font-family="sans-serif" font-size="14" lengthAdjust="spacing" textLength="258" x="100" y="602.0645">setSharedData(Object sharedData): void</text><text fill="#000000" font-family="sans-serif" font-size="14" lengthAdjust="spacing" textLength="126" x="100" y="619.6738">getArgs(): HashMap</text></g><!--class IllegalArgumentException--><g id="elem_IllegalArgumentException"><rect fill="#F1F1F1" height="48" id="IllegalArgumentException" rx="2.5" ry="2.5" style="stroke:#181818;stroke-width:0.5;" width="190" x="4651" y="854"/><ellipse cx="4666" cy="870" fill="#ADD1B2" rx="11" ry="11" style="stroke:#181818;stroke-width:1.0;"/><path d="M4668.7656,865.875 Q4668.9219,865.6563 4669.1094,865.5469 Q4669.2969,865.4375 4669.5156,865.4375 Q4669.8906,865.4375 4670.125,865.7031 Q4670.3594,865.9531 4670.3594,866.5625 L4670.3594,868.0156 Q4670.3594,868.625 4670.125,868.8906 Q4669.8906,869.1563 4669.5156,869.1563 Q4669.1719,869.1563 4668.9688,868.9531 Q4668.7656,868.7656 4668.6563,868.25 Q4668.6094,867.8906 4668.4219,867.7031 Q4668.0938,867.3281 4667.4844,867.1094 Q4666.875,866.8906 4666.25,866.8906 Q4665.4844,866.8906 4664.8438,867.2188 Q4664.2188,867.5469 4663.7188,868.2969 Q4663.2344,869.0469 4663.2344,870.0781 L4663.2344,871.1719 Q4663.2344,872.4063 4664.125,873.2344 Q4665.0156,874.0469 4666.6094,874.0469 Q4667.5469,874.0469 4668.2031,873.7969 Q4668.5938,873.6406 4669.0156,873.2031 Q4669.2813,872.9375 4669.4219,872.8594 Q4669.5781,872.7813 4669.7813,872.7813 Q4670.1094,872.7813 4670.3594,873.0469 Q4670.625,873.2969 4670.625,873.6406 Q4670.625,873.9844 4670.2813,874.3906 Q4669.7813,874.9688 4668.9844,875.2969 Q4667.9063,875.75 4666.6094,875.75 Q4665.0938,875.75 4663.8906,875.125 Q4662.9063,874.625 4662.2188,873.5625 Q4661.5313,872.4844 4661.5313,871.2031 L4661.5313,870.0469 Q4661.5313,868.7188 4662.1406,867.5781 Q4662.7656,866.4219 4663.8594,865.8125 Q4664.9531,865.1875 4666.1875,865.1875 Q4666.9219,865.1875 4667.5625,865.3594 Q4668.2188,865.5156 4668.7656,865.875 Z " fill="#000000"/><text fill="#000000" font-family="sans-serif" font-size="14" lengthAdjust="spacing" textLength="158" x="4680" y="875.7285">IllegalArgumentException</text><line style="stroke:#181818;stroke-width:0.5;" x1="4652" x2="4840" y1="886" y2="886"/><line style="stroke:#181818;stroke-width:0.5;" x1="4652" x2="4840" y1="894" y2="894"/></g><!--class Serializable--><g id="elem_Serializable"><rect fill="#F1F1F1" height="48" id="Serializable" rx="2.5" ry="2.5" style="stroke:#181818;stroke-width:0.5;" width="104" x="2091" y="854"/><ellipse cx="2106" cy="870" fill="#ADD1B2" rx="11" ry="11" style="stroke:#181818;stroke-width:1.0;"/><path d="M2108.7656,865.875 Q2108.9219,865.6563 2109.1094,865.5469 Q2109.2969,865.4375 2109.5156,865.4375 Q2109.8906,865.4375 2110.125,865.7031 Q2110.3594,865.9531 2110.3594,866.5625 L2110.3594,868.0156 Q2110.3594,868.625 2110.125,868.8906 Q2109.8906,869.1563 2109.5156,869.1563 Q2109.1719,869.1563 2108.9688,868.9531 Q2108.7656,868.7656 2108.6563,868.25 Q2108.6094,867.8906 2108.4219,867.7031 Q2108.0938,867.3281 2107.4844,867.1094 Q2106.875,866.8906 2106.25,866.8906 Q2105.4844,866.8906 2104.8438,867.2188 Q2104.2188,867.5469 2103.7188,868.2969 Q2103.2344,869.0469 2103.2344,870.0781 L2103.2344,871.1719 Q2103.2344,872.4063 2104.125,873.2344 Q2105.0156,874.0469 2106.6094,874.0469 Q2107.5469,874.0469 2108.2031,873.7969 Q2108.5938,873.6406 2109.0156,873.2031 Q2109.2813,872.9375 2109.4219,872.8594 Q2109.5781,872.7813 2109.7813,872.7813 Q2110.1094,872.7813 2110.3594,873.0469 Q2110.625,873.2969 2110.625,873.6406 Q2110.625,873.9844 2110.2813,874.3906 Q2109.7813,874.9688 2108.9844,875.2969 Q2107.9063,875.75 2106.6094,875.75 Q2105.0938,875.75 2103.8906,875.125 Q2102.9063,874.625 2102.2188,873.5625 Q2101.5313,872.4844 2101.5313,871.2031 L2101.5313,870.0469 Q2101.5313,868.7188 2102.1406,867.5781 Q2102.7656,866.4219 2103.8594,865.8125 Q2104.9531,865.1875 2106.1875,865.1875 Q2106.9219,865.1875 2107.5625,865.3594 Q2108.2188,865.5156 2108.7656,865.875 Z " fill="#000000"/><text fill="#000000" font-family="sans-serif" font-size="14" lengthAdjust="spacing" textLength="72" x="2120" y="875.7285">Serializable</text><line style="stroke:#181818;stroke-width:0.5;" x1="2092" x2="2194" y1="886" y2="886"/><line style="stroke:#181818;stroke-width:0.5;" x1="2092" x2="2194" y1="894" y2="894"/></g><!--class UncheckedExecutionException--><g id="elem_UncheckedExecutionException"><rect fill="#F1F1F1" height="48" id="UncheckedExecutionException" rx="2.5" ry="2.5" style="stroke:#181818;stroke-width:0.5;" width="224" x="4217" y="854"/><ellipse cx="4232" cy="870" fill="#ADD1B2" rx="11" ry="11" style="stroke:#181818;stroke-width:1.0;"/><path d="M4234.7656,865.875 Q4234.9219,865.6563 4235.1094,865.5469 Q4235.2969,865.4375 4235.5156,865.4375 Q4235.8906,865.4375 4236.125,865.7031 Q4236.3594,865.9531 4236.3594,866.5625 L4236.3594,868.0156 Q4236.3594,868.625 4236.125,868.8906 Q4235.8906,869.1563 4235.5156,869.1563 Q4235.1719,869.1563 4234.9688,868.9531 Q4234.7656,868.7656 4234.6563,868.25 Q4234.6094,867.8906 4234.4219,867.7031 Q4234.0938,867.3281 4233.4844,867.1094 Q4232.875,866.8906 4232.25,866.8906 Q4231.4844,866.8906 4230.8438,867.2188 Q4230.2188,867.5469 4229.7188,868.2969 Q4229.2344,869.0469 4229.2344,870.0781 L4229.2344,871.1719 Q4229.2344,872.4063 4230.125,873.2344 Q4231.0156,874.0469 4232.6094,874.0469 Q4233.5469,874.0469 4234.2031,873.7969 Q4234.5938,873.6406 4235.0156,873.2031 Q4235.2813,872.9375 4235.4219,872.8594 Q4235.5781,872.7813 4235.7813,872.7813 Q4236.1094,872.7813 4236.3594,873.0469 Q4236.625,873.2969 4236.625,873.6406 Q4236.625,873.9844 4236.2813,874.3906 Q4235.7813,874.9688 4234.9844,875.2969 Q4233.9063,875.75 4232.6094,875.75 Q4231.0938,875.75 4229.8906,875.125 Q4228.9063,874.625 4228.2188,873.5625 Q4227.5313,872.4844 4227.5313,871.2031 L4227.5313,870.0469 Q4227.5313,868.7188 4228.1406,867.5781 Q4228.7656,866.4219 4229.8594,865.8125 Q4230.9531,865.1875 4232.1875,865.1875 Q4232.9219,865.1875 4233.5625,865.3594 Q4234.2188,865.5156 4234.7656,865.875 Z " fill="#000000"/><text fill="#000000" font-family="sans-serif" font-size="14" lengthAdjust="spacing" textLength="192" x="4246" y="875.7285">UncheckedExecutionException</text><line style="stroke:#181818;stroke-width:0.5;" x1="4218" x2="4440" y1="886" y2="886"/><line style="stroke:#181818;stroke-width:0.5;" x1="4218" x2="4440" y1="894" y2="894"/></g><!--class Comparable--><g id="elem_Comparable"><rect fill="#F1F1F1" height="48" id="Comparable" rx="2.5" ry="2.5" style="stroke:#181818;stroke-width:0.5;" width="109" x="2964.5" y="854"/><ellipse cx="2979.5" cy="870" fill="#ADD1B2" rx="11" ry="11" style="stroke:#181818;stroke-width:1.0;"/><path d="M2982.2656,865.875 Q2982.4219,865.6563 2982.6094,865.5469 Q2982.7969,865.4375 2983.0156,865.4375 Q2983.3906,865.4375 2983.625,865.7031 Q2983.8594,865.9531 2983.8594,866.5625 L2983.8594,868.0156 Q2983.8594,868.625 2983.625,868.8906 Q2983.3906,869.1563 2983.0156,869.1563 Q2982.6719,869.1563 2982.4688,868.9531 Q2982.2656,868.7656 2982.1563,868.25 Q2982.1094,867.8906 2981.9219,867.7031 Q2981.5938,867.3281 2980.9844,867.1094 Q2980.375,866.8906 2979.75,866.8906 Q2978.9844,866.8906 2978.3438,867.2188 Q2977.7188,867.5469 2977.2188,868.2969 Q2976.7344,869.0469 2976.7344,870.0781 L2976.7344,871.1719 Q2976.7344,872.4063 2977.625,873.2344 Q2978.5156,874.0469 2980.1094,874.0469 Q2981.0469,874.0469 2981.7031,873.7969 Q2982.0938,873.6406 2982.5156,873.2031 Q2982.7813,872.9375 2982.9219,872.8594 Q2983.0781,872.7813 2983.2813,872.7813 Q2983.6094,872.7813 2983.8594,873.0469 Q2984.125,873.2969 2984.125,873.6406 Q2984.125,873.9844 2983.7813,874.3906 Q2983.2813,874.9688 2982.4844,875.2969 Q2981.4063,875.75 2980.1094,875.75 Q2978.5938,875.75 2977.3906,875.125 Q2976.4063,874.625 2975.7188,873.5625 Q2975.0313,872.4844 2975.0313,871.2031 L2975.0313,870.0469 Q2975.0313,868.7188 2975.6406,867.5781 Q2976.2656,866.4219 2977.3594,865.8125 Q2978.4531,865.1875 2979.6875,865.1875 Q2980.4219,865.1875 2981.0625,865.3594 Q2981.7188,865.5156 2982.2656,865.875 Z " fill="#000000"/><text fill="#000000" font-family="sans-serif" font-size="14" lengthAdjust="spacing" textLength="77" x="2993.5" y="875.7285">Comparable</text><line style="stroke:#181818;stroke-width:0.5;" x1="2965.5" x2="3072.5" y1="886" y2="886"/><line style="stroke:#181818;stroke-width:0.5;" x1="2965.5" x2="3072.5" y1="894" y2="894"/></g><!--link CasterException to IllegalArgumentException--><g id="link_CasterException_IllegalArgumentException"><path codeLine="168" d="M4746,486.15 C4746,558.69 4746,763.09 4746,835.76 " fill="none" id="CasterException-to-IllegalArgumentException" style="stroke:#181818;stroke-width:1.0;"/><polygon fill="none" points="4746,853.76,4752,835.76,4740,835.76,4746,853.76" style="stroke:#181818;stroke-width:1.0;"/></g><!--link CasterUtil to Serializable--><g id="link_CasterUtil_Serializable"><path codeLine="169" d="M4564.99,503.74 C4560.5,585.07 4537.59,766.51 4424,846 C4415.6,851.88 2957.26,853.83 2947,854 C2663.22,858.83 2341.2384,869.8438 2213.1884,874.4438 " fill="none" id="CasterUtil-to-Serializable" style="stroke:#181818;stroke-width:1.0;stroke-dasharray:7.0,7.0;"/><polygon fill="none" points="2195.2,875.09,2213.4038,880.4399,2212.973,868.4477,2195.2,875.09" style="stroke:#181818;stroke-width:1.0;"/></g><!--link Argument to Serializable--><g id="link_Argument_Serializable"><path codeLine="170" d="M3743.04,556.74 C3739.35,646.93 3717.89,779.16 3630,846 C3622.45,851.74 2956.48,853.81 2947,854 C2663.24,859.72 2341.2497,870.2503 2213.1897,874.5903 " fill="none" id="Argument-to-Serializable" style="stroke:#181818;stroke-width:1.0;stroke-dasharray:7.0,7.0;"/><polygon fill="none" points="2195.2,875.2,2213.3929,880.5869,2212.9864,868.5938,2195.2,875.2" style="stroke:#181818;stroke-width:1.0;"/></g><!--link TerminateException to UncheckedExecutionException--><g id="link_TerminateException_UncheckedExecutionException"><path codeLine="171" d="M4329,486.15 C4329,558.69 4329,763.09 4329,835.76 " fill="none" id="TerminateException-to-UncheckedExecutionException" style="stroke:#181818;stroke-width:1.0;"/><polygon fill="none" points="4329,853.76,4335,835.76,4323,835.76,4329,853.76" style="stroke:#181818;stroke-width:1.0;"/></g><!--link User to Serializable--><g id="link_User_Serializable"><path codeLine="172" d="M1394.54,539.02 C1403.2,628.62 1432.32,774.36 1529,846 C1551.4,862.6 1928.4743,872.3647 2072.7843,875.5347 " fill="none" id="User-to-Serializable" style="stroke:#181818;stroke-width:1.0;stroke-dasharray:7.0,7.0;"/><polygon fill="none" points="2090.78,875.93,2072.9161,869.5361,2072.6526,881.5332,2090.78,875.93" style="stroke:#181818;stroke-width:1.0;"/></g><!--link Vehicle to Comparable--><g id="link_Vehicle_Comparable"><path codeLine="173" d="M3019,750.25 C3019,793.39 3019,813.02 3019,835.83 " fill="none" id="Vehicle-to-Comparable" style="stroke:#181818;stroke-width:1.0;stroke-dasharray:7.0,7.0;"/><polygon fill="none" points="3019,853.83,3025,835.83,3013,835.83,3019,853.83" style="stroke:#181818;stroke-width:1.0;"/></g><!--link Vehicle to Serializable--><g id="link_Vehicle_Serializable"><path codeLine="174" d="M2921.47,750.42 C2897.16,787.98 2867.09,821.77 2830,846 C2803.54,863.29 2368.8269,872.8437 2213.1069,875.7537 " fill="none" id="Vehicle-to-Serializable" style="stroke:#181818;stroke-width:1.0;stroke-dasharray:7.0,7.0;"/><polygon fill="none" points="2195.11,876.09,2213.219,881.7526,2212.9948,869.7547,2195.11,876.09" style="stroke:#181818;stroke-width:1.0;"/></g><!--link Caster to Serializable--><g id="link_Caster_Serializable"><path codeLine="175" d="M2261.24,539.42 C2227.6,635.44 2177.7308,777.8421 2157.0108,836.9921 " fill="none" id="Caster-to-Serializable" style="stroke:#181818;stroke-width:1.0;stroke-dasharray:7.0,7.0;"/><polygon fill="none" points="2151.06,853.98,2162.6734,838.9757,2151.3482,835.0085,2151.06,853.98" style="stroke:#181818;stroke-width:1.0;"/></g><!--link Validator to Serializable--><g id="link_Validator_Serializable"><path codeLine="176" d="M2590.56,591.64 C2560.34,678.18 2507.26,786.89 2420,846 C2384.44,870.09 2283.0275,875.3688 2213.1275,876.5388 " fill="none" id="Validator-to-Serializable" style="stroke:#181818;stroke-width:1.0;stroke-dasharray:7.0,7.0;"/><polygon fill="none" points="2195.13,876.84,2213.2279,882.5379,2213.0271,870.5396,2195.13,876.84" style="stroke:#181818;stroke-width:1.0;"/></g><!--link Coordinates to Serializable--><g id="link_Coordinates_Serializable"><path codeLine="177" d="M1769.05,547.78 C1766.91,636.08 1778.96,771.7 1862,846 C1878.69,860.93 1996.4165,869.3533 2072.9665,873.5133 " fill="none" id="Coordinates-to-Serializable" style="stroke:#181818;stroke-width:1.0;stroke-dasharray:7.0,7.0;"/><polygon fill="none" points="2090.94,874.49,2073.2921,867.5221,2072.6409,879.5044,2090.94,874.49" style="stroke:#181818;stroke-width:1.0;"/></g><!--link Caster to Serializable--><g id="link_Caster_Serializable"><path codeLine="178" d="M1603.62,503.69 C1595.65,583.29 1591.06,759.37 1691,846 C1720.64,871.7 1960.5904,876.0547 2073.0004,876.7747 " fill="none" id="Caster-to-Serializable-1" style="stroke:#181818;stroke-width:1.0;stroke-dasharray:7.0,7.0;"/><polygon fill="none" points="2091,876.89,2073.0388,870.7748,2072.9619,882.7746,2091,876.89" style="stroke:#181818;stroke-width:1.0;"/></g><!--link Validator to Serializable--><g id="link_Validator_Serializable"><path codeLine="179" d="M2010.8,521.27 C2029.02,598.26 2066.39,736.86 2121,846 C2122.3,848.6 2114.26,835.956 2115.86,838.516 " fill="none" id="Validator-to-Serializable-1" style="stroke:#181818;stroke-width:1.0;stroke-dasharray:7.0,7.0;"/><polygon fill="none" points="2125.4,853.78,2120.948,835.336,2110.772,841.696,2125.4,853.78" style="stroke:#181818;stroke-width:1.0;"/></g><!--link CommandRequest to Serializable--><g id="link_CommandRequest_Serializable"><path codeLine="180" d="M261.18,627.29 C285.98,707.48 329.24,797.02 404,846 C440.17,869.7 1786.6401,875.7458 2072.7201,876.7658 " fill="none" id="CommandRequest-to-Serializable" style="stroke:#181818;stroke-width:1.0;stroke-dasharray:7.0,7.0;"/><polygon fill="none" points="2090.72,876.83,2072.7415,870.7659,2072.6987,882.7658,2090.72,876.83" style="stroke:#181818;stroke-width:1.0;"/></g><!--SRC=[fLZDSjiu3BxdANXqPbezW0uxatNYIMQwJQTnkicHbc2RBIswfEJQpURT5wH8IgHbczgT728I0F53V03eBIr-q1MG3MLLzftkQARML4AP5LJL8CdRLS6fKgVesTJykziNiAsPg93_FKdYkMOScGdHktFnL4jMhN8oQwf2d-C9dqIm_Ov_LzkJDelDXbQbEcErvSXkvAhPG5KR6ogwWPoqDk2oX48ouqvlSqTvWqnpRzdyi8N0O0NrDyqqQMLQYUkSx0GhaRnovEls55n_HhrwwPNWtYqefxr7Uh_eqBJz6FP73JX4RGHKJcwaf8TFJDMu3TMEIQ49ERdptwrxtNhIVVOaq5vh1lApYjKOPJNneKQDAeY78L-7-aU51StTGz7KCB5wlyBF1bHDPFk_CyWI4XCe0vVGARdKCMTpa1jMqHf2H2Jfh36Xj3fM8JwMjBZ8cprM_30JyWdapa3rVOIi3WYJSDFKQo7PRvfaQqbhkg0AJWV5SMJFofY4UL3cHACOFnlSYt9pJTKQoYzurYyXo_3E7qfzrLOMryzMFCwD- -2C5DHuAx_1cXKSlA6yLHOPMGWyrrohqWdb5veamOJk5jSvqJeCXbQiWY_Y5qYi45nGdTXLirc0V5p-lGRWUCu3NjKA95AM3V0fPa-piHXTMX5DS6Mc_HeE8a9pne2NVnuCT6pzqKmVoCbYr4QN- -WEeQxdw-GwTbtJUzvh1kl_IfSA7m9DS47GUe8uQ68N2IJFmc1e-h8JTd4mPtOnKTRydkUThohqe_VTlzY0ls-zCRr_fG5dv8rr9RhiG29sq7WNvy2HX77QVVZ422xq53nCQWIToSRdSV4T2bFpVpOKZM_NH21f8GG7Mbc0JaLfJcMc4TIsMmTwiBfi4LfpCN6Gsbc1oo2Skb73jTQ7Sc0I-6no_cZxBi3QaL04kYE6MOozGOweroVK5SePBeJq_VY-mUghquDpjc8B3gYrPAPhzDjPvqsQG9XeQJ9HhgKBwJ2OH8fc1aTBEsdNnWPE8zPnZ8Aj4qh4hhTY782Ts4WKzyNEGpcj0UjklXML7j-odUzXbxBoM2ZhXpNgrlkSbAB1MyJlGr25NpJqFGqtNljbMcc6bahsGI5xjM4wTCx-5vFZSl4oWDhNKN0Tq18YU9-MseTn27YPt1w5oT5URV8UqX9ZZQCT1tbcN7KSxgLmtwxREDhPC2TwblgBRlNxe2pTLEtetJXjXTsKOFOYB7Sl0JtfSsxNTf3W72vSZhUtzzHuwoP-fpGoyGCv-HBmG-6vE5hsqs6q35cavirEPZdHRHWNKZGrXC-j8BogfdM3E_Q09xFKSg0m5LKmtXdDE6FHNi-s3Lz7qsfKTiTCtjgMO3fe5MZsMAFon81YBGmE-MgD2rg_wktR571EXC8w8l5mykHzc_Gd4XLGx63InM7m5UbYQouuzVUAZn__-OCyO3QkA7SFLK-zIlWD8ylm07o1CSJjRwehOiAF3cE4phykZVtFLR66uWUKTmORk7_6XV25bc39qMF9o4pDm3T68b6BBU-Z3FErUepKXMxuVuyQxyRPBfHmq8dIT2pvBm00]--></g></svg>