<svg xmlns="http://www.w3.org/2000/svg" viewBox="-20 -20 440 440" class="graph" id="graph">
    <polygon points="200,200 370,200 200,285" fill-opacity="0.5" fill="#1638b2"/>
    <rect x="30" y="30" width="170" height="170" fill-opacity="0.5" fill="#1638b2"/>
    <path d="M 200 115 A 80 80 0 0 0 115 200 L 200 200" fill-opacity="0.5" fill="#1638b2" transform="rotate(90, 200, 200)" />

    <line x1="0" y1="200" x2="400" y2="200" stroke="#000000"/>
    <line x1="200" y1="0" x2="200" y2="400" stroke="#000000"/>
    
    <line x1="370" y1="198" x2="370" y2="202" stroke="#000000"/>
    <line x1="285" y1="198" x2="285" y2="202" stroke="#000000"/>
    <line x1="115" y1="198" x2="115" y2="202" stroke="#000000"/>
    <line x1="30" y1="198" x2="30" y2="202" stroke="#000000"/>

    <line x1="198" y1="30" x2="202" y2="30" stroke="#000000"/>
    <line x1="198" y1="115" x2="202" y2="115" stroke="#000000"/>
    <line x1="198" y1="285" x2="202" y2="285" stroke="#000000"/>
    <line x1="198" y1="370" x2="202" y2="370" stroke="#000000"/>

    <polygon points="400,200 392,203 392,197" fill="#000000" stroke="#000000"/>
    <polygon points="200,0 197,8 203,8" fill="#000000" stroke="#000000"/>

    <text x="365" y="190" style="font-family: sans-serif">R</text>
    <text x="273" y="190" style="font-family: sans-serif">R/2</text>
    <text x="98" y="190" style="font-family: sans-serif">-R/2</text>
    <text x="20" y="190" style="font-family: sans-serif">-R</text>
    
    <text x="206" y="35" style="font-family: sans-serif">R</text>
    <text x="206" y="120" style="font-family: sans-serif">R/2</text>
    <text x="206" y="289" style="font-family: sans-serif">-R/2</text>
    <text x="206" y="373" style="font-family: sans-serif">-R</text>
</svg>