<?xml version="1.0" encoding="us-ascii" standalone="no"?><svg xmlns="http://www.w3.org/2000/svg" xmlns:xlink="http://www.w3.org/1999/xlink" contentStyleType="text/css" height="1066px" preserveAspectRatio="none" style="width:6509px;height:1066px;background:#FFFFFF;" version="1.1" viewBox="0 0 6509 1066" width="6509px" zoomAndPan="magnify"><defs/><g><!--cluster utils--><g id="cluster_utils"><path d="M2326.5,6 L2357.5,6 A3.75,3.75 0 0 1 2360,8.5 L2367,29.6094 L3337.5,29.6094 A2.5,2.5 0 0 1 3340,32.1094 L3340,365.5 A2.5,2.5 0 0 1 3337.5,368 L2326.5,368 A2.5,2.5 0 0 1 2324,365.5 L2324,8.5 A2.5,2.5 0 0 1 2326.5,6 " fill="none" style="stroke:#000000;stroke-width:1.5;"/><line style="stroke:#000000;stroke-width:1.5;" x1="2324" x2="2367" y1="29.6094" y2="29.6094"/><text fill="#000000" font-family="sans-serif" font-size="14" font-weight="bold" lengthAdjust="spacing" textLength="30" x="2328" y="22.5332">utils</text></g><!--cluster commands--><g id="cluster_commands"><path d="M2350.5,50 L2426.5,50 A3.75,3.75 0 0 1 2429,52.5 L2436,73.6094 L2749.5,73.6094 A2.5,2.5 0 0 1 2752,76.1094 L2752,341.5 A2.5,2.5 0 0 1 2749.5,344 L2350.5,344 A2.5,2.5 0 0 1 2348,341.5 L2348,52.5 A2.5,2.5 0 0 1 2350.5,50 " fill="none" style="stroke:#000000;stroke-width:1.5;"/><line style="stroke:#000000;stroke-width:1.5;" x1="2348" x2="2436" y1="73.6094" y2="73.6094"/><text fill="#000000" font-family="sans-serif" font-size="14" font-weight="bold" lengthAdjust="spacing" textLength="75" x="2352" y="66.5332">commands</text></g><!--cluster handlers--><g id="cluster_handlers"><path d="M2778.5,138 L2841.5,138 A3.75,3.75 0 0 1 2844,140.5 L2851,161.6094 L3313.5,161.6094 A2.5,2.5 0 0 1 3316,164.1094 L3316,253.5 A2.5,2.5 0 0 1 3313.5,256 L2778.5,256 A2.5,2.5 0 0 1 2776,253.5 L2776,140.5 A2.5,2.5 0 0 1 2778.5,138 " fill="none" style="stroke:#000000;stroke-width:1.5;"/><line style="stroke:#000000;stroke-width:1.5;" x1="2776" x2="2851" y1="161.6094" y2="161.6094"/><text fill="#000000" font-family="sans-serif" font-size="14" font-weight="bold" lengthAdjust="spacing" textLength="62" x="2780" y="154.5332">handlers</text></g><!--cluster server--><g id="cluster_server"><path d="M8.5,466 L56.5,466 A3.75,3.75 0 0 1 59,468.5 L66,489.6094 L6499.5,489.6094 A2.5,2.5 0 0 1 6502,492.1094 L6502,1056.5 A2.5,2.5 0 0 1 6499.5,1059 L8.5,1059 A2.5,2.5 0 0 1 6,1056.5 L6,468.5 A2.5,2.5 0 0 1 8.5,466 " fill="none" style="stroke:#000000;stroke-width:1.5;"/><line style="stroke:#000000;stroke-width:1.5;" x1="6" x2="66" y1="489.6094" y2="489.6094"/><text fill="#000000" font-family="sans-serif" font-size="14" font-weight="bold" lengthAdjust="spacing" textLength="47" x="10" y="482.5332">server</text></g><!--cluster commands--><g id="cluster_commands"><path d="M32.5,633.5 L108.5,633.5 A3.75,3.75 0 0 1 111,636 L118,657.1094 L5204.5,657.1094 A2.5,2.5 0 0 1 5207,659.6094 L5207,1032.5 A2.5,2.5 0 0 1 5204.5,1035 L32.5,1035 A2.5,2.5 0 0 1 30,1032.5 L30,636 A2.5,2.5 0 0 1 32.5,633.5 " fill="none" style="stroke:#000000;stroke-width:1.5;"/><line style="stroke:#000000;stroke-width:1.5;" x1="30" x2="118" y1="657.1094" y2="657.1094"/><text fill="#000000" font-family="sans-serif" font-size="14" font-weight="bold" lengthAdjust="spacing" textLength="75" x="34" y="650.0332">commands</text></g><!--cluster handlers--><g id="cluster_handlers"><path d="M5233.5,510 L5296.5,510 A3.75,3.75 0 0 1 5299,512.5 L5306,533.6094 L6475.5,533.6094 A2.5,2.5 0 0 1 6478,536.1094 L6478,889.5 A2.5,2.5 0 0 1 6475.5,892 L5233.5,892 A2.5,2.5 0 0 1 5231,889.5 L5231,512.5 A2.5,2.5 0 0 1 5233.5,510 " fill="none" style="stroke:#000000;stroke-width:1.5;"/><line style="stroke:#000000;stroke-width:1.5;" x1="5231" x2="5306" y1="533.6094" y2="533.6094"/><text fill="#000000" font-family="sans-serif" font-size="14" font-weight="bold" lengthAdjust="spacing" textLength="62" x="5235" y="526.5332">handlers</text></g><!--class Command--><g id="elem_Command"><rect codeLine="4" fill="#F1F1F1" height="241.7031" id="Command" rx="2.5" ry="2.5" style="stroke:#181818;stroke-width:0.5;" width="372" x="2364" y="86"/><ellipse cx="2513.75" cy="102" fill="#ADD1B2" rx="11" ry="11" style="stroke:#181818;stroke-width:1.0;"/><path d="M2516.5156,97.875 Q2516.6719,97.6563 2516.8594,97.5469 Q2517.0469,97.4375 2517.2656,97.4375 Q2517.6406,97.4375 2517.875,97.7031 Q2518.1094,97.9531 2518.1094,98.5625 L2518.1094,100.0156 Q2518.1094,100.625 2517.875,100.8906 Q2517.6406,101.1563 2517.2656,101.1563 Q2516.9219,101.1563 2516.7188,100.9531 Q2516.5156,100.7656 2516.4063,100.25 Q2516.3594,99.8906 2516.1719,99.7031 Q2515.8438,99.3281 2515.2344,99.1094 Q2514.625,98.8906 2514,98.8906 Q2513.2344,98.8906 2512.5938,99.2188 Q2511.9688,99.5469 2511.4688,100.2969 Q2510.9844,101.0469 2510.9844,102.0781 L2510.9844,103.1719 Q2510.9844,104.4063 2511.875,105.2344 Q2512.7656,106.0469 2514.3594,106.0469 Q2515.2969,106.0469 2515.9531,105.7969 Q2516.3438,105.6406 2516.7656,105.2031 Q2517.0313,104.9375 2517.1719,104.8594 Q2517.3281,104.7813 2517.5313,104.7813 Q2517.8594,104.7813 2518.1094,105.0469 Q2518.375,105.2969 2518.375,105.6406 Q2518.375,105.9844 2518.0313,106.3906 Q2517.5313,106.9688 2516.7344,107.2969 Q2515.6563,107.75 2514.3594,107.75 Q2512.8438,107.75 2511.6406,107.125 Q2510.6563,106.625 2509.9688,105.5625 Q2509.2813,104.4844 2509.2813,103.2031 L2509.2813,102.0469 Q2509.2813,100.7188 2509.8906,99.5781 Q2510.5156,98.4219 2511.6094,97.8125 Q2512.7031,97.1875 2513.9375,97.1875 Q2514.6719,97.1875 2515.3125,97.3594 Q2515.9688,97.5156 2516.5156,97.875 Z " fill="#000000"/><text fill="#000000" font-family="sans-serif" font-size="14" lengthAdjust="spacing" textLength="64" x="2534.25" y="107.7285">Command</text><line style="stroke:#181818;stroke-width:0.5;" x1="2365" x2="2735" y1="118" y2="118"/><rect fill="none" height="6" style="stroke:#C82930;stroke-width:1.0;" width="6" x="2372" y="129.3047"/><text fill="#000000" font-family="sans-serif" font-size="14" lengthAdjust="spacing" textLength="84" x="2384" y="136.5332">name : String</text><rect fill="none" height="6" style="stroke:#C82930;stroke-width:1.0;" width="6" x="2372" y="146.9141"/><text fill="#000000" font-family="sans-serif" font-size="14" lengthAdjust="spacing" textLength="118" x="2384" y="154.1426">description : String</text><rect fill="none" height="6" style="stroke:#C82930;stroke-width:1.0;" width="6" x="2372" y="164.5234"/><text fill="#000000" font-family="sans-serif" font-size="14" lengthAdjust="spacing" textLength="236" x="2384" y="171.752">arguments : ArrayList&lt;Argument&lt;?&gt;&gt;</text><polygon fill="none" points="2375,180.1328,2379,184.1328,2375,188.1328,2371,184.1328" style="stroke:#B38D22;stroke-width:1.0;"/><text fill="#000000" font-family="sans-serif" font-size="14" lengthAdjust="spacing" textLength="153" x="2384" y="189.3613">enviroment : Enviroment</text><line style="stroke:#181818;stroke-width:0.5;" x1="2365" x2="2735" y1="196.4375" y2="196.4375"/><ellipse cx="2375" cy="210.7422" fill="#84BE84" rx="3" ry="3" style="stroke:#038048;stroke-width:1.0;"/><text fill="#000000" font-family="sans-serif" font-size="14" lengthAdjust="spacing" textLength="284" x="2384" y="214.9707">Command(name : String, description : String)</text><ellipse cx="2375" cy="228.3516" fill="#84BE84" rx="3" ry="3" style="stroke:#038048;stroke-width:1.0;"/><text fill="#000000" font-family="sans-serif" font-size="14" lengthAdjust="spacing" textLength="329" x="2384" y="232.5801">setEnviroment(enviroment : Enviroment) : Command</text><polygon fill="#FFFF44" points="2375,240.9609,2379,244.9609,2375,248.9609,2371,244.9609" style="stroke:#B38D22;stroke-width:1.0;"/><text fill="#000000" font-family="sans-serif" font-size="14" lengthAdjust="spacing" textLength="220" x="2384" y="250.1895">initArgs(args : Argument&lt;?&gt;) : void</text><ellipse cx="2375" cy="263.5703" fill="#84BE84" rx="3" ry="3" style="stroke:#038048;stroke-width:1.0;"/><text fill="#000000" font-family="sans-serif" font-size="14" lengthAdjust="spacing" textLength="228" x="2384" y="267.7988">getArgs() : ArrayList&lt;Argument&lt;?&gt;&gt;</text><ellipse cx="2375" cy="281.1797" fill="#84BE84" rx="3" ry="3" style="stroke:#038048;stroke-width:1.0;"/><text fill="#000000" font-family="sans-serif" font-size="14" lengthAdjust="spacing" textLength="115" x="2384" y="285.4082">getName() : String</text><ellipse cx="2375" cy="298.7891" fill="#84BE84" rx="3" ry="3" style="stroke:#038048;stroke-width:1.0;"/><text fill="#000000" font-family="sans-serif" font-size="14" lengthAdjust="spacing" textLength="150" x="2384" y="303.0176">getDescription() : String</text><ellipse cx="2375" cy="316.3984" fill="#84BE84" rx="3" ry="3" style="stroke:#038048;stroke-width:1.0;"/><text fill="#000000" font-family="sans-serif" font-size="14" font-style="italic" lengthAdjust="spacing" textLength="346" x="2384" y="320.627">execute(args : HashMap&lt;String,?&gt;) : ArrayList&lt;String&gt;</text></g><!--class Enviroment--><g id="elem_Enviroment"><rect codeLine="20" fill="#F1F1F1" height="65.6094" id="Enviroment" rx="2.5" ry="2.5" style="stroke:#181818;stroke-width:0.5;" width="507" x="2792.5" y="174"/><ellipse cx="3006.25" cy="190" fill="#ADD1B2" rx="11" ry="11" style="stroke:#181818;stroke-width:1.0;"/><path d="M3009.0156,185.875 Q3009.1719,185.6563 3009.3594,185.5469 Q3009.5469,185.4375 3009.7656,185.4375 Q3010.1406,185.4375 3010.375,185.7031 Q3010.6094,185.9531 3010.6094,186.5625 L3010.6094,188.0156 Q3010.6094,188.625 3010.375,188.8906 Q3010.1406,189.1563 3009.7656,189.1563 Q3009.4219,189.1563 3009.2188,188.9531 Q3009.0156,188.7656 3008.9063,188.25 Q3008.8594,187.8906 3008.6719,187.7031 Q3008.3438,187.3281 3007.7344,187.1094 Q3007.125,186.8906 3006.5,186.8906 Q3005.7344,186.8906 3005.0938,187.2188 Q3004.4688,187.5469 3003.9688,188.2969 Q3003.4844,189.0469 3003.4844,190.0781 L3003.4844,191.1719 Q3003.4844,192.4063 3004.375,193.2344 Q3005.2656,194.0469 3006.8594,194.0469 Q3007.7969,194.0469 3008.4531,193.7969 Q3008.8438,193.6406 3009.2656,193.2031 Q3009.5313,192.9375 3009.6719,192.8594 Q3009.8281,192.7813 3010.0313,192.7813 Q3010.3594,192.7813 3010.6094,193.0469 Q3010.875,193.2969 3010.875,193.6406 Q3010.875,193.9844 3010.5313,194.3906 Q3010.0313,194.9688 3009.2344,195.2969 Q3008.1563,195.75 3006.8594,195.75 Q3005.3438,195.75 3004.1406,195.125 Q3003.1563,194.625 3002.4688,193.5625 Q3001.7813,192.4844 3001.7813,191.2031 L3001.7813,190.0469 Q3001.7813,188.7188 3002.3906,187.5781 Q3003.0156,186.4219 3004.1094,185.8125 Q3005.2031,185.1875 3006.4375,185.1875 Q3007.1719,185.1875 3007.8125,185.3594 Q3008.4688,185.5156 3009.0156,185.875 Z " fill="#000000"/><text fill="#000000" font-family="sans-serif" font-size="14" lengthAdjust="spacing" textLength="71" x="3026.75" y="195.7285">Enviroment</text><line style="stroke:#181818;stroke-width:0.5;" x1="2793.5" x2="3298.5" y1="206" y2="206"/><line style="stroke:#181818;stroke-width:0.5;" x1="2793.5" x2="3298.5" y1="214" y2="214"/><ellipse cx="2803.5" cy="228.3047" fill="#84BE84" rx="3" ry="3" style="stroke:#038048;stroke-width:1.0;"/><text fill="#000000" font-family="sans-serif" font-size="14" lengthAdjust="spacing" textLength="481" x="2812.5" y="232.5332">executeCommand(command : Command, args : HashMap&lt;String,?&gt;) : String</text></g><!--class Add--><g id="elem_Add"><rect codeLine="28" fill="#F1F1F1" height="83.2188" id="Add" rx="2.5" ry="2.5" style="stroke:#181818;stroke-width:0.5;" width="255" x="46.5" y="669.5"/><ellipse cx="157.25" cy="685.5" fill="#ADD1B2" rx="11" ry="11" style="stroke:#181818;stroke-width:1.0;"/><path d="M160.0156,681.375 Q160.1719,681.1563 160.3594,681.0469 Q160.5469,680.9375 160.7656,680.9375 Q161.1406,680.9375 161.375,681.2031 Q161.6094,681.4531 161.6094,682.0625 L161.6094,683.5156 Q161.6094,684.125 161.375,684.3906 Q161.1406,684.6563 160.7656,684.6563 Q160.4219,684.6563 160.2188,684.4531 Q160.0156,684.2656 159.9063,683.75 Q159.8594,683.3906 159.6719,683.2031 Q159.3438,682.8281 158.7344,682.6094 Q158.125,682.3906 157.5,682.3906 Q156.7344,682.3906 156.0938,682.7188 Q155.4688,683.0469 154.9688,683.7969 Q154.4844,684.5469 154.4844,685.5781 L154.4844,686.6719 Q154.4844,687.9063 155.375,688.7344 Q156.2656,689.5469 157.8594,689.5469 Q158.7969,689.5469 159.4531,689.2969 Q159.8438,689.1406 160.2656,688.7031 Q160.5313,688.4375 160.6719,688.3594 Q160.8281,688.2813 161.0313,688.2813 Q161.3594,688.2813 161.6094,688.5469 Q161.875,688.7969 161.875,689.1406 Q161.875,689.4844 161.5313,689.8906 Q161.0313,690.4688 160.2344,690.7969 Q159.1563,691.25 157.8594,691.25 Q156.3438,691.25 155.1406,690.625 Q154.1563,690.125 153.4688,689.0625 Q152.7813,687.9844 152.7813,686.7031 L152.7813,685.5469 Q152.7813,684.2188 153.3906,683.0781 Q154.0156,681.9219 155.1094,681.3125 Q156.2031,680.6875 157.4375,680.6875 Q158.1719,680.6875 158.8125,680.8594 Q159.4688,681.0156 160.0156,681.375 Z " fill="#000000"/><text fill="#000000" font-family="sans-serif" font-size="14" lengthAdjust="spacing" textLength="25" x="177.75" y="691.2285">Add</text><line style="stroke:#181818;stroke-width:0.5;" x1="47.5" x2="300.5" y1="701.5" y2="701.5"/><line style="stroke:#181818;stroke-width:0.5;" x1="47.5" x2="300.5" y1="709.5" y2="709.5"/><ellipse cx="57.5" cy="723.8047" fill="#84BE84" rx="3" ry="3" style="stroke:#038048;stroke-width:1.0;"/><text fill="#000000" font-family="sans-serif" font-size="14" lengthAdjust="spacing" textLength="229" x="66.5" y="728.0332">Add(String name, String description)</text><ellipse cx="57.5" cy="741.4141" fill="#84BE84" rx="3" ry="3" style="stroke:#038048;stroke-width:1.0;"/><text fill="#000000" font-family="sans-serif" font-size="14" lengthAdjust="spacing" textLength="172" x="66.5" y="745.6426">ArrayList&lt;String&gt; execute()</text></g><!--class Clear--><g id="elem_Clear"><rect codeLine="33" fill="#F1F1F1" height="83.2188" id="Clear" rx="2.5" ry="2.5" style="stroke:#181818;stroke-width:0.5;" width="264" x="337" y="669.5"/><ellipse cx="447.75" cy="685.5" fill="#ADD1B2" rx="11" ry="11" style="stroke:#181818;stroke-width:1.0;"/><path d="M450.5156,681.375 Q450.6719,681.1563 450.8594,681.0469 Q451.0469,680.9375 451.2656,680.9375 Q451.6406,680.9375 451.875,681.2031 Q452.1094,681.4531 452.1094,682.0625 L452.1094,683.5156 Q452.1094,684.125 451.875,684.3906 Q451.6406,684.6563 451.2656,684.6563 Q450.9219,684.6563 450.7188,684.4531 Q450.5156,684.2656 450.4063,683.75 Q450.3594,683.3906 450.1719,683.2031 Q449.8438,682.8281 449.2344,682.6094 Q448.625,682.3906 448,682.3906 Q447.2344,682.3906 446.5938,682.7188 Q445.9688,683.0469 445.4688,683.7969 Q444.9844,684.5469 444.9844,685.5781 L444.9844,686.6719 Q444.9844,687.9063 445.875,688.7344 Q446.7656,689.5469 448.3594,689.5469 Q449.2969,689.5469 449.9531,689.2969 Q450.3438,689.1406 450.7656,688.7031 Q451.0313,688.4375 451.1719,688.3594 Q451.3281,688.2813 451.5313,688.2813 Q451.8594,688.2813 452.1094,688.5469 Q452.375,688.7969 452.375,689.1406 Q452.375,689.4844 452.0313,689.8906 Q451.5313,690.4688 450.7344,690.7969 Q449.6563,691.25 448.3594,691.25 Q446.8438,691.25 445.6406,690.625 Q444.6563,690.125 443.9688,689.0625 Q443.2813,687.9844 443.2813,686.7031 L443.2813,685.5469 Q443.2813,684.2188 443.8906,683.0781 Q444.5156,681.9219 445.6094,681.3125 Q446.7031,680.6875 447.9375,680.6875 Q448.6719,680.6875 449.3125,680.8594 Q449.9688,681.0156 450.5156,681.375 Z " fill="#000000"/><text fill="#000000" font-family="sans-serif" font-size="14" lengthAdjust="spacing" textLength="34" x="468.25" y="691.2285">Clear</text><line style="stroke:#181818;stroke-width:0.5;" x1="338" x2="600" y1="701.5" y2="701.5"/><line style="stroke:#181818;stroke-width:0.5;" x1="338" x2="600" y1="709.5" y2="709.5"/><ellipse cx="348" cy="723.8047" fill="#84BE84" rx="3" ry="3" style="stroke:#038048;stroke-width:1.0;"/><text fill="#000000" font-family="sans-serif" font-size="14" lengthAdjust="spacing" textLength="238" x="357" y="728.0332">Clear(String name, String description)</text><ellipse cx="348" cy="741.4141" fill="#84BE84" rx="3" ry="3" style="stroke:#038048;stroke-width:1.0;"/><text fill="#000000" font-family="sans-serif" font-size="14" lengthAdjust="spacing" textLength="172" x="357" y="745.6426">ArrayList&lt;String&gt; execute()</text></g><!--class CountLessThanEnginePower--><g id="elem_CountLessThanEnginePower"><rect codeLine="38" fill="#F1F1F1" height="83.2188" id="CountLessThanEnginePower" rx="2.5" ry="2.5" style="stroke:#181818;stroke-width:0.5;" width="414" x="636" y="669.5"/><ellipse cx="746.75" cy="685.5" fill="#ADD1B2" rx="11" ry="11" style="stroke:#181818;stroke-width:1.0;"/><path d="M749.5156,681.375 Q749.6719,681.1563 749.8594,681.0469 Q750.0469,680.9375 750.2656,680.9375 Q750.6406,680.9375 750.875,681.2031 Q751.1094,681.4531 751.1094,682.0625 L751.1094,683.5156 Q751.1094,684.125 750.875,684.3906 Q750.6406,684.6563 750.2656,684.6563 Q749.9219,684.6563 749.7188,684.4531 Q749.5156,684.2656 749.4063,683.75 Q749.3594,683.3906 749.1719,683.2031 Q748.8438,682.8281 748.2344,682.6094 Q747.625,682.3906 747,682.3906 Q746.2344,682.3906 745.5938,682.7188 Q744.9688,683.0469 744.4688,683.7969 Q743.9844,684.5469 743.9844,685.5781 L743.9844,686.6719 Q743.9844,687.9063 744.875,688.7344 Q745.7656,689.5469 747.3594,689.5469 Q748.2969,689.5469 748.9531,689.2969 Q749.3438,689.1406 749.7656,688.7031 Q750.0313,688.4375 750.1719,688.3594 Q750.3281,688.2813 750.5313,688.2813 Q750.8594,688.2813 751.1094,688.5469 Q751.375,688.7969 751.375,689.1406 Q751.375,689.4844 751.0313,689.8906 Q750.5313,690.4688 749.7344,690.7969 Q748.6563,691.25 747.3594,691.25 Q745.8438,691.25 744.6406,690.625 Q743.6563,690.125 742.9688,689.0625 Q742.2813,687.9844 742.2813,686.7031 L742.2813,685.5469 Q742.2813,684.2188 742.8906,683.0781 Q743.5156,681.9219 744.6094,681.3125 Q745.7031,680.6875 746.9375,680.6875 Q747.6719,680.6875 748.3125,680.8594 Q748.9688,681.0156 749.5156,681.375 Z " fill="#000000"/><text fill="#000000" font-family="sans-serif" font-size="14" lengthAdjust="spacing" textLength="184" x="767.25" y="691.2285">CountLessThanEnginePower</text><line style="stroke:#181818;stroke-width:0.5;" x1="637" x2="1049" y1="701.5" y2="701.5"/><line style="stroke:#181818;stroke-width:0.5;" x1="637" x2="1049" y1="709.5" y2="709.5"/><ellipse cx="647" cy="723.8047" fill="#84BE84" rx="3" ry="3" style="stroke:#038048;stroke-width:1.0;"/><text fill="#000000" font-family="sans-serif" font-size="14" lengthAdjust="spacing" textLength="388" x="656" y="728.0332">CountLessThanEnginePower(String name, String description)</text><ellipse cx="647" cy="741.4141" fill="#84BE84" rx="3" ry="3" style="stroke:#038048;stroke-width:1.0;"/><text fill="#000000" font-family="sans-serif" font-size="14" lengthAdjust="spacing" textLength="172" x="656" y="745.6426">ArrayList&lt;String&gt; execute()</text></g><!--class ExecuteScript--><g id="elem_ExecuteScript"><rect codeLine="43" fill="#F1F1F1" height="83.2188" id="ExecuteScript" rx="2.5" ry="2.5" style="stroke:#181818;stroke-width:0.5;" width="316" x="4588" y="669.5"/><ellipse cx="4698.75" cy="685.5" fill="#ADD1B2" rx="11" ry="11" style="stroke:#181818;stroke-width:1.0;"/><path d="M4701.5156,681.375 Q4701.6719,681.1563 4701.8594,681.0469 Q4702.0469,680.9375 4702.2656,680.9375 Q4702.6406,680.9375 4702.875,681.2031 Q4703.1094,681.4531 4703.1094,682.0625 L4703.1094,683.5156 Q4703.1094,684.125 4702.875,684.3906 Q4702.6406,684.6563 4702.2656,684.6563 Q4701.9219,684.6563 4701.7188,684.4531 Q4701.5156,684.2656 4701.4063,683.75 Q4701.3594,683.3906 4701.1719,683.2031 Q4700.8438,682.8281 4700.2344,682.6094 Q4699.625,682.3906 4699,682.3906 Q4698.2344,682.3906 4697.5938,682.7188 Q4696.9688,683.0469 4696.4688,683.7969 Q4695.9844,684.5469 4695.9844,685.5781 L4695.9844,686.6719 Q4695.9844,687.9063 4696.875,688.7344 Q4697.7656,689.5469 4699.3594,689.5469 Q4700.2969,689.5469 4700.9531,689.2969 Q4701.3438,689.1406 4701.7656,688.7031 Q4702.0313,688.4375 4702.1719,688.3594 Q4702.3281,688.2813 4702.5313,688.2813 Q4702.8594,688.2813 4703.1094,688.5469 Q4703.375,688.7969 4703.375,689.1406 Q4703.375,689.4844 4703.0313,689.8906 Q4702.5313,690.4688 4701.7344,690.7969 Q4700.6563,691.25 4699.3594,691.25 Q4697.8438,691.25 4696.6406,690.625 Q4695.6563,690.125 4694.9688,689.0625 Q4694.2813,687.9844 4694.2813,686.7031 L4694.2813,685.5469 Q4694.2813,684.2188 4694.8906,683.0781 Q4695.5156,681.9219 4696.6094,681.3125 Q4697.7031,680.6875 4698.9375,680.6875 Q4699.6719,680.6875 4700.3125,680.8594 Q4700.9688,681.0156 4701.5156,681.375 Z " fill="#000000"/><text fill="#000000" font-family="sans-serif" font-size="14" lengthAdjust="spacing" textLength="86" x="4719.25" y="691.2285">ExecuteScript</text><line style="stroke:#181818;stroke-width:0.5;" x1="4589" x2="4903" y1="701.5" y2="701.5"/><line style="stroke:#181818;stroke-width:0.5;" x1="4589" x2="4903" y1="709.5" y2="709.5"/><ellipse cx="4599" cy="723.8047" fill="#84BE84" rx="3" ry="3" style="stroke:#038048;stroke-width:1.0;"/><text fill="#000000" font-family="sans-serif" font-size="14" lengthAdjust="spacing" textLength="290" x="4608" y="728.0332">ExecuteScript(String name, String description)</text><ellipse cx="4599" cy="741.4141" fill="#84BE84" rx="3" ry="3" style="stroke:#038048;stroke-width:1.0;"/><text fill="#000000" font-family="sans-serif" font-size="14" lengthAdjust="spacing" textLength="172" x="4608" y="745.6426">ArrayList&lt;String&gt; execute()</text></g><!--class Exit--><g id="elem_Exit"><rect codeLine="48" fill="#F1F1F1" height="83.2188" id="Exit" rx="2.5" ry="2.5" style="stroke:#181818;stroke-width:0.5;" width="252" x="4939" y="669.5"/><ellipse cx="5049.75" cy="685.5" fill="#ADD1B2" rx="11" ry="11" style="stroke:#181818;stroke-width:1.0;"/><path d="M5052.5156,681.375 Q5052.6719,681.1563 5052.8594,681.0469 Q5053.0469,680.9375 5053.2656,680.9375 Q5053.6406,680.9375 5053.875,681.2031 Q5054.1094,681.4531 5054.1094,682.0625 L5054.1094,683.5156 Q5054.1094,684.125 5053.875,684.3906 Q5053.6406,684.6563 5053.2656,684.6563 Q5052.9219,684.6563 5052.7188,684.4531 Q5052.5156,684.2656 5052.4063,683.75 Q5052.3594,683.3906 5052.1719,683.2031 Q5051.8438,682.8281 5051.2344,682.6094 Q5050.625,682.3906 5050,682.3906 Q5049.2344,682.3906 5048.5938,682.7188 Q5047.9688,683.0469 5047.4688,683.7969 Q5046.9844,684.5469 5046.9844,685.5781 L5046.9844,686.6719 Q5046.9844,687.9063 5047.875,688.7344 Q5048.7656,689.5469 5050.3594,689.5469 Q5051.2969,689.5469 5051.9531,689.2969 Q5052.3438,689.1406 5052.7656,688.7031 Q5053.0313,688.4375 5053.1719,688.3594 Q5053.3281,688.2813 5053.5313,688.2813 Q5053.8594,688.2813 5054.1094,688.5469 Q5054.375,688.7969 5054.375,689.1406 Q5054.375,689.4844 5054.0313,689.8906 Q5053.5313,690.4688 5052.7344,690.7969 Q5051.6563,691.25 5050.3594,691.25 Q5048.8438,691.25 5047.6406,690.625 Q5046.6563,690.125 5045.9688,689.0625 Q5045.2813,687.9844 5045.2813,686.7031 L5045.2813,685.5469 Q5045.2813,684.2188 5045.8906,683.0781 Q5046.5156,681.9219 5047.6094,681.3125 Q5048.7031,680.6875 5049.9375,680.6875 Q5050.6719,680.6875 5051.3125,680.8594 Q5051.9688,681.0156 5052.5156,681.375 Z " fill="#000000"/><text fill="#000000" font-family="sans-serif" font-size="14" lengthAdjust="spacing" textLength="22" x="5070.25" y="691.2285">Exit</text><line style="stroke:#181818;stroke-width:0.5;" x1="4940" x2="5190" y1="701.5" y2="701.5"/><line style="stroke:#181818;stroke-width:0.5;" x1="4940" x2="5190" y1="709.5" y2="709.5"/><ellipse cx="4950" cy="723.8047" fill="#84BE84" rx="3" ry="3" style="stroke:#038048;stroke-width:1.0;"/><text fill="#000000" font-family="sans-serif" font-size="14" lengthAdjust="spacing" textLength="226" x="4959" y="728.0332">Exit(String name, String description)</text><ellipse cx="4950" cy="741.4141" fill="#84BE84" rx="3" ry="3" style="stroke:#038048;stroke-width:1.0;"/><text fill="#000000" font-family="sans-serif" font-size="14" lengthAdjust="spacing" textLength="172" x="4959" y="745.6426">ArrayList&lt;String&gt; execute()</text></g><!--class FilterGreaterThanFuelConsumption--><g id="elem_FilterGreaterThanFuelConsumption"><rect codeLine="53" fill="#F1F1F1" height="83.2188" id="FilterGreaterThanFuelConsumption" rx="2.5" ry="2.5" style="stroke:#181818;stroke-width:0.5;" width="455" x="1085.5" y="669.5"/><ellipse cx="1196.25" cy="685.5" fill="#ADD1B2" rx="11" ry="11" style="stroke:#181818;stroke-width:1.0;"/><path d="M1199.0156,681.375 Q1199.1719,681.1563 1199.3594,681.0469 Q1199.5469,680.9375 1199.7656,680.9375 Q1200.1406,680.9375 1200.375,681.2031 Q1200.6094,681.4531 1200.6094,682.0625 L1200.6094,683.5156 Q1200.6094,684.125 1200.375,684.3906 Q1200.1406,684.6563 1199.7656,684.6563 Q1199.4219,684.6563 1199.2188,684.4531 Q1199.0156,684.2656 1198.9063,683.75 Q1198.8594,683.3906 1198.6719,683.2031 Q1198.3438,682.8281 1197.7344,682.6094 Q1197.125,682.3906 1196.5,682.3906 Q1195.7344,682.3906 1195.0938,682.7188 Q1194.4688,683.0469 1193.9688,683.7969 Q1193.4844,684.5469 1193.4844,685.5781 L1193.4844,686.6719 Q1193.4844,687.9063 1194.375,688.7344 Q1195.2656,689.5469 1196.8594,689.5469 Q1197.7969,689.5469 1198.4531,689.2969 Q1198.8438,689.1406 1199.2656,688.7031 Q1199.5313,688.4375 1199.6719,688.3594 Q1199.8281,688.2813 1200.0313,688.2813 Q1200.3594,688.2813 1200.6094,688.5469 Q1200.875,688.7969 1200.875,689.1406 Q1200.875,689.4844 1200.5313,689.8906 Q1200.0313,690.4688 1199.2344,690.7969 Q1198.1563,691.25 1196.8594,691.25 Q1195.3438,691.25 1194.1406,690.625 Q1193.1563,690.125 1192.4688,689.0625 Q1191.7813,687.9844 1191.7813,686.7031 L1191.7813,685.5469 Q1191.7813,684.2188 1192.3906,683.0781 Q1193.0156,681.9219 1194.1094,681.3125 Q1195.2031,680.6875 1196.4375,680.6875 Q1197.1719,680.6875 1197.8125,680.8594 Q1198.4688,681.0156 1199.0156,681.375 Z " fill="#000000"/><text fill="#000000" font-family="sans-serif" font-size="14" lengthAdjust="spacing" textLength="225" x="1216.75" y="691.2285">FilterGreaterThanFuelConsumption</text><line style="stroke:#181818;stroke-width:0.5;" x1="1086.5" x2="1539.5" y1="701.5" y2="701.5"/><line style="stroke:#181818;stroke-width:0.5;" x1="1086.5" x2="1539.5" y1="709.5" y2="709.5"/><ellipse cx="1096.5" cy="723.8047" fill="#84BE84" rx="3" ry="3" style="stroke:#038048;stroke-width:1.0;"/><text fill="#000000" font-family="sans-serif" font-size="14" lengthAdjust="spacing" textLength="429" x="1105.5" y="728.0332">FilterGreaterThanFuelConsumption(String name, String description)</text><ellipse cx="1096.5" cy="741.4141" fill="#84BE84" rx="3" ry="3" style="stroke:#038048;stroke-width:1.0;"/><text fill="#000000" font-family="sans-serif" font-size="14" lengthAdjust="spacing" textLength="172" x="1105.5" y="745.6426">ArrayList&lt;String&gt; execute()</text></g><!--class FilterStartsWithName--><g id="elem_FilterStartsWithName"><rect codeLine="58" fill="#F1F1F1" height="83.2188" id="FilterStartsWithName" rx="2.5" ry="2.5" style="stroke:#181818;stroke-width:0.5;" width="363" x="1575.5" y="669.5"/><ellipse cx="1686.25" cy="685.5" fill="#ADD1B2" rx="11" ry="11" style="stroke:#181818;stroke-width:1.0;"/><path d="M1689.0156,681.375 Q1689.1719,681.1563 1689.3594,681.0469 Q1689.5469,680.9375 1689.7656,680.9375 Q1690.1406,680.9375 1690.375,681.2031 Q1690.6094,681.4531 1690.6094,682.0625 L1690.6094,683.5156 Q1690.6094,684.125 1690.375,684.3906 Q1690.1406,684.6563 1689.7656,684.6563 Q1689.4219,684.6563 1689.2188,684.4531 Q1689.0156,684.2656 1688.9063,683.75 Q1688.8594,683.3906 1688.6719,683.2031 Q1688.3438,682.8281 1687.7344,682.6094 Q1687.125,682.3906 1686.5,682.3906 Q1685.7344,682.3906 1685.0938,682.7188 Q1684.4688,683.0469 1683.9688,683.7969 Q1683.4844,684.5469 1683.4844,685.5781 L1683.4844,686.6719 Q1683.4844,687.9063 1684.375,688.7344 Q1685.2656,689.5469 1686.8594,689.5469 Q1687.7969,689.5469 1688.4531,689.2969 Q1688.8438,689.1406 1689.2656,688.7031 Q1689.5313,688.4375 1689.6719,688.3594 Q1689.8281,688.2813 1690.0313,688.2813 Q1690.3594,688.2813 1690.6094,688.5469 Q1690.875,688.7969 1690.875,689.1406 Q1690.875,689.4844 1690.5313,689.8906 Q1690.0313,690.4688 1689.2344,690.7969 Q1688.1563,691.25 1686.8594,691.25 Q1685.3438,691.25 1684.1406,690.625 Q1683.1563,690.125 1682.4688,689.0625 Q1681.7813,687.9844 1681.7813,686.7031 L1681.7813,685.5469 Q1681.7813,684.2188 1682.3906,683.0781 Q1683.0156,681.9219 1684.1094,681.3125 Q1685.2031,680.6875 1686.4375,680.6875 Q1687.1719,680.6875 1687.8125,680.8594 Q1688.4688,681.0156 1689.0156,681.375 Z " fill="#000000"/><text fill="#000000" font-family="sans-serif" font-size="14" lengthAdjust="spacing" textLength="133" x="1706.75" y="691.2285">FilterStartsWithName</text><line style="stroke:#181818;stroke-width:0.5;" x1="1576.5" x2="1937.5" y1="701.5" y2="701.5"/><line style="stroke:#181818;stroke-width:0.5;" x1="1576.5" x2="1937.5" y1="709.5" y2="709.5"/><ellipse cx="1586.5" cy="723.8047" fill="#84BE84" rx="3" ry="3" style="stroke:#038048;stroke-width:1.0;"/><text fill="#000000" font-family="sans-serif" font-size="14" lengthAdjust="spacing" textLength="337" x="1595.5" y="728.0332">FilterStartsWithName(String name, String description)</text><ellipse cx="1586.5" cy="741.4141" fill="#84BE84" rx="3" ry="3" style="stroke:#038048;stroke-width:1.0;"/><text fill="#000000" font-family="sans-serif" font-size="14" lengthAdjust="spacing" textLength="172" x="1595.5" y="745.6426">ArrayList&lt;String&gt; execute()</text></g><!--class Help--><g id="elem_Help"><rect codeLine="63" fill="#F1F1F1" height="83.2188" id="Help" rx="2.5" ry="2.5" style="stroke:#181818;stroke-width:0.5;" width="258" x="1974" y="669.5"/><ellipse cx="2084.75" cy="685.5" fill="#ADD1B2" rx="11" ry="11" style="stroke:#181818;stroke-width:1.0;"/><path d="M2087.5156,681.375 Q2087.6719,681.1563 2087.8594,681.0469 Q2088.0469,680.9375 2088.2656,680.9375 Q2088.6406,680.9375 2088.875,681.2031 Q2089.1094,681.4531 2089.1094,682.0625 L2089.1094,683.5156 Q2089.1094,684.125 2088.875,684.3906 Q2088.6406,684.6563 2088.2656,684.6563 Q2087.9219,684.6563 2087.7188,684.4531 Q2087.5156,684.2656 2087.4063,683.75 Q2087.3594,683.3906 2087.1719,683.2031 Q2086.8438,682.8281 2086.2344,682.6094 Q2085.625,682.3906 2085,682.3906 Q2084.2344,682.3906 2083.5938,682.7188 Q2082.9688,683.0469 2082.4688,683.7969 Q2081.9844,684.5469 2081.9844,685.5781 L2081.9844,686.6719 Q2081.9844,687.9063 2082.875,688.7344 Q2083.7656,689.5469 2085.3594,689.5469 Q2086.2969,689.5469 2086.9531,689.2969 Q2087.3438,689.1406 2087.7656,688.7031 Q2088.0313,688.4375 2088.1719,688.3594 Q2088.3281,688.2813 2088.5313,688.2813 Q2088.8594,688.2813 2089.1094,688.5469 Q2089.375,688.7969 2089.375,689.1406 Q2089.375,689.4844 2089.0313,689.8906 Q2088.5313,690.4688 2087.7344,690.7969 Q2086.6563,691.25 2085.3594,691.25 Q2083.8438,691.25 2082.6406,690.625 Q2081.6563,690.125 2080.9688,689.0625 Q2080.2813,687.9844 2080.2813,686.7031 L2080.2813,685.5469 Q2080.2813,684.2188 2080.8906,683.0781 Q2081.5156,681.9219 2082.6094,681.3125 Q2083.7031,680.6875 2084.9375,680.6875 Q2085.6719,680.6875 2086.3125,680.8594 Q2086.9688,681.0156 2087.5156,681.375 Z " fill="#000000"/><text fill="#000000" font-family="sans-serif" font-size="14" lengthAdjust="spacing" textLength="28" x="2105.25" y="691.2285">Help</text><line style="stroke:#181818;stroke-width:0.5;" x1="1975" x2="2231" y1="701.5" y2="701.5"/><line style="stroke:#181818;stroke-width:0.5;" x1="1975" x2="2231" y1="709.5" y2="709.5"/><ellipse cx="1985" cy="723.8047" fill="#84BE84" rx="3" ry="3" style="stroke:#038048;stroke-width:1.0;"/><text fill="#000000" font-family="sans-serif" font-size="14" lengthAdjust="spacing" textLength="232" x="1994" y="728.0332">Help(String name, String description)</text><ellipse cx="1985" cy="741.4141" fill="#84BE84" rx="3" ry="3" style="stroke:#038048;stroke-width:1.0;"/><text fill="#000000" font-family="sans-serif" font-size="14" lengthAdjust="spacing" textLength="172" x="1994" y="745.6426">ArrayList&lt;String&gt; execute()</text></g><!--class Info--><g id="elem_Info"><rect codeLine="68" fill="#F1F1F1" height="83.2188" id="Info" rx="2.5" ry="2.5" style="stroke:#181818;stroke-width:0.5;" width="253" x="2267.5" y="669.5"/><ellipse cx="2378.25" cy="685.5" fill="#ADD1B2" rx="11" ry="11" style="stroke:#181818;stroke-width:1.0;"/><path d="M2381.0156,681.375 Q2381.1719,681.1563 2381.3594,681.0469 Q2381.5469,680.9375 2381.7656,680.9375 Q2382.1406,680.9375 2382.375,681.2031 Q2382.6094,681.4531 2382.6094,682.0625 L2382.6094,683.5156 Q2382.6094,684.125 2382.375,684.3906 Q2382.1406,684.6563 2381.7656,684.6563 Q2381.4219,684.6563 2381.2188,684.4531 Q2381.0156,684.2656 2380.9063,683.75 Q2380.8594,683.3906 2380.6719,683.2031 Q2380.3438,682.8281 2379.7344,682.6094 Q2379.125,682.3906 2378.5,682.3906 Q2377.7344,682.3906 2377.0938,682.7188 Q2376.4688,683.0469 2375.9688,683.7969 Q2375.4844,684.5469 2375.4844,685.5781 L2375.4844,686.6719 Q2375.4844,687.9063 2376.375,688.7344 Q2377.2656,689.5469 2378.8594,689.5469 Q2379.7969,689.5469 2380.4531,689.2969 Q2380.8438,689.1406 2381.2656,688.7031 Q2381.5313,688.4375 2381.6719,688.3594 Q2381.8281,688.2813 2382.0313,688.2813 Q2382.3594,688.2813 2382.6094,688.5469 Q2382.875,688.7969 2382.875,689.1406 Q2382.875,689.4844 2382.5313,689.8906 Q2382.0313,690.4688 2381.2344,690.7969 Q2380.1563,691.25 2378.8594,691.25 Q2377.3438,691.25 2376.1406,690.625 Q2375.1563,690.125 2374.4688,689.0625 Q2373.7813,687.9844 2373.7813,686.7031 L2373.7813,685.5469 Q2373.7813,684.2188 2374.3906,683.0781 Q2375.0156,681.9219 2376.1094,681.3125 Q2377.2031,680.6875 2378.4375,680.6875 Q2379.1719,680.6875 2379.8125,680.8594 Q2380.4688,681.0156 2381.0156,681.375 Z " fill="#000000"/><text fill="#000000" font-family="sans-serif" font-size="14" lengthAdjust="spacing" textLength="23" x="2398.75" y="691.2285">Info</text><line style="stroke:#181818;stroke-width:0.5;" x1="2268.5" x2="2519.5" y1="701.5" y2="701.5"/><line style="stroke:#181818;stroke-width:0.5;" x1="2268.5" x2="2519.5" y1="709.5" y2="709.5"/><ellipse cx="2278.5" cy="723.8047" fill="#84BE84" rx="3" ry="3" style="stroke:#038048;stroke-width:1.0;"/><text fill="#000000" font-family="sans-serif" font-size="14" lengthAdjust="spacing" textLength="227" x="2287.5" y="728.0332">Info(String name, String description)</text><ellipse cx="2278.5" cy="741.4141" fill="#84BE84" rx="3" ry="3" style="stroke:#038048;stroke-width:1.0;"/><text fill="#000000" font-family="sans-serif" font-size="14" lengthAdjust="spacing" textLength="172" x="2287.5" y="745.6426">ArrayList&lt;String&gt; execute()</text></g><!--class RemoveById--><g id="elem_RemoveById"><rect codeLine="73" fill="#F1F1F1" height="83.2188" id="RemoveById" rx="2.5" ry="2.5" style="stroke:#181818;stroke-width:0.5;" width="309" x="4243.5" y="669.5"/><ellipse cx="4354.25" cy="685.5" fill="#ADD1B2" rx="11" ry="11" style="stroke:#181818;stroke-width:1.0;"/><path d="M4357.0156,681.375 Q4357.1719,681.1563 4357.3594,681.0469 Q4357.5469,680.9375 4357.7656,680.9375 Q4358.1406,680.9375 4358.375,681.2031 Q4358.6094,681.4531 4358.6094,682.0625 L4358.6094,683.5156 Q4358.6094,684.125 4358.375,684.3906 Q4358.1406,684.6563 4357.7656,684.6563 Q4357.4219,684.6563 4357.2188,684.4531 Q4357.0156,684.2656 4356.9063,683.75 Q4356.8594,683.3906 4356.6719,683.2031 Q4356.3438,682.8281 4355.7344,682.6094 Q4355.125,682.3906 4354.5,682.3906 Q4353.7344,682.3906 4353.0938,682.7188 Q4352.4688,683.0469 4351.9688,683.7969 Q4351.4844,684.5469 4351.4844,685.5781 L4351.4844,686.6719 Q4351.4844,687.9063 4352.375,688.7344 Q4353.2656,689.5469 4354.8594,689.5469 Q4355.7969,689.5469 4356.4531,689.2969 Q4356.8438,689.1406 4357.2656,688.7031 Q4357.5313,688.4375 4357.6719,688.3594 Q4357.8281,688.2813 4358.0313,688.2813 Q4358.3594,688.2813 4358.6094,688.5469 Q4358.875,688.7969 4358.875,689.1406 Q4358.875,689.4844 4358.5313,689.8906 Q4358.0313,690.4688 4357.2344,690.7969 Q4356.1563,691.25 4354.8594,691.25 Q4353.3438,691.25 4352.1406,690.625 Q4351.1563,690.125 4350.4688,689.0625 Q4349.7813,687.9844 4349.7813,686.7031 L4349.7813,685.5469 Q4349.7813,684.2188 4350.3906,683.0781 Q4351.0156,681.9219 4352.1094,681.3125 Q4353.2031,680.6875 4354.4375,680.6875 Q4355.1719,680.6875 4355.8125,680.8594 Q4356.4688,681.0156 4357.0156,681.375 Z " fill="#000000"/><text fill="#000000" font-family="sans-serif" font-size="14" lengthAdjust="spacing" textLength="79" x="4374.75" y="691.2285">RemoveById</text><line style="stroke:#181818;stroke-width:0.5;" x1="4244.5" x2="4551.5" y1="701.5" y2="701.5"/><line style="stroke:#181818;stroke-width:0.5;" x1="4244.5" x2="4551.5" y1="709.5" y2="709.5"/><ellipse cx="4254.5" cy="723.8047" fill="#84BE84" rx="3" ry="3" style="stroke:#038048;stroke-width:1.0;"/><text fill="#000000" font-family="sans-serif" font-size="14" lengthAdjust="spacing" textLength="283" x="4263.5" y="728.0332">RemoveById(String name, String description)</text><ellipse cx="4254.5" cy="741.4141" fill="#84BE84" rx="3" ry="3" style="stroke:#038048;stroke-width:1.0;"/><text fill="#000000" font-family="sans-serif" font-size="14" lengthAdjust="spacing" textLength="172" x="4263.5" y="745.6426">ArrayList&lt;String&gt; execute()</text></g><!--class RemoveFirst--><g id="elem_RemoveFirst"><rect codeLine="78" fill="#F1F1F1" height="83.2188" id="RemoveFirst" rx="2.5" ry="2.5" style="stroke:#181818;stroke-width:0.5;" width="310" x="3898" y="669.5"/><ellipse cx="4008.75" cy="685.5" fill="#ADD1B2" rx="11" ry="11" style="stroke:#181818;stroke-width:1.0;"/><path d="M4011.5156,681.375 Q4011.6719,681.1563 4011.8594,681.0469 Q4012.0469,680.9375 4012.2656,680.9375 Q4012.6406,680.9375 4012.875,681.2031 Q4013.1094,681.4531 4013.1094,682.0625 L4013.1094,683.5156 Q4013.1094,684.125 4012.875,684.3906 Q4012.6406,684.6563 4012.2656,684.6563 Q4011.9219,684.6563 4011.7188,684.4531 Q4011.5156,684.2656 4011.4063,683.75 Q4011.3594,683.3906 4011.1719,683.2031 Q4010.8438,682.8281 4010.2344,682.6094 Q4009.625,682.3906 4009,682.3906 Q4008.2344,682.3906 4007.5938,682.7188 Q4006.9688,683.0469 4006.4688,683.7969 Q4005.9844,684.5469 4005.9844,685.5781 L4005.9844,686.6719 Q4005.9844,687.9063 4006.875,688.7344 Q4007.7656,689.5469 4009.3594,689.5469 Q4010.2969,689.5469 4010.9531,689.2969 Q4011.3438,689.1406 4011.7656,688.7031 Q4012.0313,688.4375 4012.1719,688.3594 Q4012.3281,688.2813 4012.5313,688.2813 Q4012.8594,688.2813 4013.1094,688.5469 Q4013.375,688.7969 4013.375,689.1406 Q4013.375,689.4844 4013.0313,689.8906 Q4012.5313,690.4688 4011.7344,690.7969 Q4010.6563,691.25 4009.3594,691.25 Q4007.8438,691.25 4006.6406,690.625 Q4005.6563,690.125 4004.9688,689.0625 Q4004.2813,687.9844 4004.2813,686.7031 L4004.2813,685.5469 Q4004.2813,684.2188 4004.8906,683.0781 Q4005.5156,681.9219 4006.6094,681.3125 Q4007.7031,680.6875 4008.9375,680.6875 Q4009.6719,680.6875 4010.3125,680.8594 Q4010.9688,681.0156 4011.5156,681.375 Z " fill="#000000"/><text fill="#000000" font-family="sans-serif" font-size="14" lengthAdjust="spacing" textLength="80" x="4029.25" y="691.2285">RemoveFirst</text><line style="stroke:#181818;stroke-width:0.5;" x1="3899" x2="4207" y1="701.5" y2="701.5"/><line style="stroke:#181818;stroke-width:0.5;" x1="3899" x2="4207" y1="709.5" y2="709.5"/><ellipse cx="3909" cy="723.8047" fill="#84BE84" rx="3" ry="3" style="stroke:#038048;stroke-width:1.0;"/><text fill="#000000" font-family="sans-serif" font-size="14" lengthAdjust="spacing" textLength="284" x="3918" y="728.0332">RemoveFirst(String name, String description)</text><ellipse cx="3909" cy="741.4141" fill="#84BE84" rx="3" ry="3" style="stroke:#038048;stroke-width:1.0;"/><text fill="#000000" font-family="sans-serif" font-size="14" lengthAdjust="spacing" textLength="172" x="3918" y="745.6426">ArrayList&lt;String&gt; execute()</text></g><!--class RemoveHead--><g id="elem_RemoveHead"><rect codeLine="83" fill="#F1F1F1" height="83.2188" id="RemoveHead" rx="2.5" ry="2.5" style="stroke:#181818;stroke-width:0.5;" width="315" x="3547.5" y="669.5"/><ellipse cx="3658.25" cy="685.5" fill="#ADD1B2" rx="11" ry="11" style="stroke:#181818;stroke-width:1.0;"/><path d="M3661.0156,681.375 Q3661.1719,681.1563 3661.3594,681.0469 Q3661.5469,680.9375 3661.7656,680.9375 Q3662.1406,680.9375 3662.375,681.2031 Q3662.6094,681.4531 3662.6094,682.0625 L3662.6094,683.5156 Q3662.6094,684.125 3662.375,684.3906 Q3662.1406,684.6563 3661.7656,684.6563 Q3661.4219,684.6563 3661.2188,684.4531 Q3661.0156,684.2656 3660.9063,683.75 Q3660.8594,683.3906 3660.6719,683.2031 Q3660.3438,682.8281 3659.7344,682.6094 Q3659.125,682.3906 3658.5,682.3906 Q3657.7344,682.3906 3657.0938,682.7188 Q3656.4688,683.0469 3655.9688,683.7969 Q3655.4844,684.5469 3655.4844,685.5781 L3655.4844,686.6719 Q3655.4844,687.9063 3656.375,688.7344 Q3657.2656,689.5469 3658.8594,689.5469 Q3659.7969,689.5469 3660.4531,689.2969 Q3660.8438,689.1406 3661.2656,688.7031 Q3661.5313,688.4375 3661.6719,688.3594 Q3661.8281,688.2813 3662.0313,688.2813 Q3662.3594,688.2813 3662.6094,688.5469 Q3662.875,688.7969 3662.875,689.1406 Q3662.875,689.4844 3662.5313,689.8906 Q3662.0313,690.4688 3661.2344,690.7969 Q3660.1563,691.25 3658.8594,691.25 Q3657.3438,691.25 3656.1406,690.625 Q3655.1563,690.125 3654.4688,689.0625 Q3653.7813,687.9844 3653.7813,686.7031 L3653.7813,685.5469 Q3653.7813,684.2188 3654.3906,683.0781 Q3655.0156,681.9219 3656.1094,681.3125 Q3657.2031,680.6875 3658.4375,680.6875 Q3659.1719,680.6875 3659.8125,680.8594 Q3660.4688,681.0156 3661.0156,681.375 Z " fill="#000000"/><text fill="#000000" font-family="sans-serif" font-size="14" lengthAdjust="spacing" textLength="85" x="3678.75" y="691.2285">RemoveHead</text><line style="stroke:#181818;stroke-width:0.5;" x1="3548.5" x2="3861.5" y1="701.5" y2="701.5"/><line style="stroke:#181818;stroke-width:0.5;" x1="3548.5" x2="3861.5" y1="709.5" y2="709.5"/><ellipse cx="3558.5" cy="723.8047" fill="#84BE84" rx="3" ry="3" style="stroke:#038048;stroke-width:1.0;"/><text fill="#000000" font-family="sans-serif" font-size="14" lengthAdjust="spacing" textLength="289" x="3567.5" y="728.0332">RemoveHead(String name, String description)</text><ellipse cx="3558.5" cy="741.4141" fill="#84BE84" rx="3" ry="3" style="stroke:#038048;stroke-width:1.0;"/><text fill="#000000" font-family="sans-serif" font-size="14" lengthAdjust="spacing" textLength="172" x="3567.5" y="745.6426">ArrayList&lt;String&gt; execute()</text></g><!--class RemoveLower--><g id="elem_RemoveLower"><rect codeLine="88" fill="#F1F1F1" height="83.2188" id="RemoveLower" rx="2.5" ry="2.5" style="stroke:#181818;stroke-width:0.5;" width="320" x="3192" y="669.5"/><ellipse cx="3302.75" cy="685.5" fill="#ADD1B2" rx="11" ry="11" style="stroke:#181818;stroke-width:1.0;"/><path d="M3305.5156,681.375 Q3305.6719,681.1563 3305.8594,681.0469 Q3306.0469,680.9375 3306.2656,680.9375 Q3306.6406,680.9375 3306.875,681.2031 Q3307.1094,681.4531 3307.1094,682.0625 L3307.1094,683.5156 Q3307.1094,684.125 3306.875,684.3906 Q3306.6406,684.6563 3306.2656,684.6563 Q3305.9219,684.6563 3305.7188,684.4531 Q3305.5156,684.2656 3305.4063,683.75 Q3305.3594,683.3906 3305.1719,683.2031 Q3304.8438,682.8281 3304.2344,682.6094 Q3303.625,682.3906 3303,682.3906 Q3302.2344,682.3906 3301.5938,682.7188 Q3300.9688,683.0469 3300.4688,683.7969 Q3299.9844,684.5469 3299.9844,685.5781 L3299.9844,686.6719 Q3299.9844,687.9063 3300.875,688.7344 Q3301.7656,689.5469 3303.3594,689.5469 Q3304.2969,689.5469 3304.9531,689.2969 Q3305.3438,689.1406 3305.7656,688.7031 Q3306.0313,688.4375 3306.1719,688.3594 Q3306.3281,688.2813 3306.5313,688.2813 Q3306.8594,688.2813 3307.1094,688.5469 Q3307.375,688.7969 3307.375,689.1406 Q3307.375,689.4844 3307.0313,689.8906 Q3306.5313,690.4688 3305.7344,690.7969 Q3304.6563,691.25 3303.3594,691.25 Q3301.8438,691.25 3300.6406,690.625 Q3299.6563,690.125 3298.9688,689.0625 Q3298.2813,687.9844 3298.2813,686.7031 L3298.2813,685.5469 Q3298.2813,684.2188 3298.8906,683.0781 Q3299.5156,681.9219 3300.6094,681.3125 Q3301.7031,680.6875 3302.9375,680.6875 Q3303.6719,680.6875 3304.3125,680.8594 Q3304.9688,681.0156 3305.5156,681.375 Z " fill="#000000"/><text fill="#000000" font-family="sans-serif" font-size="14" lengthAdjust="spacing" textLength="90" x="3323.25" y="691.2285">RemoveLower</text><line style="stroke:#181818;stroke-width:0.5;" x1="3193" x2="3511" y1="701.5" y2="701.5"/><line style="stroke:#181818;stroke-width:0.5;" x1="3193" x2="3511" y1="709.5" y2="709.5"/><ellipse cx="3203" cy="723.8047" fill="#84BE84" rx="3" ry="3" style="stroke:#038048;stroke-width:1.0;"/><text fill="#000000" font-family="sans-serif" font-size="14" lengthAdjust="spacing" textLength="294" x="3212" y="728.0332">RemoveLower(String name, String description)</text><ellipse cx="3203" cy="741.4141" fill="#84BE84" rx="3" ry="3" style="stroke:#038048;stroke-width:1.0;"/><text fill="#000000" font-family="sans-serif" font-size="14" lengthAdjust="spacing" textLength="172" x="3212" y="745.6426">ArrayList&lt;String&gt; execute()</text></g><!--class Save--><g id="elem_Save"><rect codeLine="93" fill="#F1F1F1" height="83.2188" id="Save" rx="2.5" ry="2.5" style="stroke:#181818;stroke-width:0.5;" width="262" x="4615" y="936"/><ellipse cx="4725.75" cy="952" fill="#ADD1B2" rx="11" ry="11" style="stroke:#181818;stroke-width:1.0;"/><path d="M4728.5156,947.875 Q4728.6719,947.6563 4728.8594,947.5469 Q4729.0469,947.4375 4729.2656,947.4375 Q4729.6406,947.4375 4729.875,947.7031 Q4730.1094,947.9531 4730.1094,948.5625 L4730.1094,950.0156 Q4730.1094,950.625 4729.875,950.8906 Q4729.6406,951.1563 4729.2656,951.1563 Q4728.9219,951.1563 4728.7188,950.9531 Q4728.5156,950.7656 4728.4063,950.25 Q4728.3594,949.8906 4728.1719,949.7031 Q4727.8438,949.3281 4727.2344,949.1094 Q4726.625,948.8906 4726,948.8906 Q4725.2344,948.8906 4724.5938,949.2188 Q4723.9688,949.5469 4723.4688,950.2969 Q4722.9844,951.0469 4722.9844,952.0781 L4722.9844,953.1719 Q4722.9844,954.4063 4723.875,955.2344 Q4724.7656,956.0469 4726.3594,956.0469 Q4727.2969,956.0469 4727.9531,955.7969 Q4728.3438,955.6406 4728.7656,955.2031 Q4729.0313,954.9375 4729.1719,954.8594 Q4729.3281,954.7813 4729.5313,954.7813 Q4729.8594,954.7813 4730.1094,955.0469 Q4730.375,955.2969 4730.375,955.6406 Q4730.375,955.9844 4730.0313,956.3906 Q4729.5313,956.9688 4728.7344,957.2969 Q4727.6563,957.75 4726.3594,957.75 Q4724.8438,957.75 4723.6406,957.125 Q4722.6563,956.625 4721.9688,955.5625 Q4721.2813,954.4844 4721.2813,953.2031 L4721.2813,952.0469 Q4721.2813,950.7188 4721.8906,949.5781 Q4722.5156,948.4219 4723.6094,947.8125 Q4724.7031,947.1875 4725.9375,947.1875 Q4726.6719,947.1875 4727.3125,947.3594 Q4727.9688,947.5156 4728.5156,947.875 Z " fill="#000000"/><text fill="#000000" font-family="sans-serif" font-size="14" lengthAdjust="spacing" textLength="32" x="4746.25" y="957.7285">Save</text><line style="stroke:#181818;stroke-width:0.5;" x1="4616" x2="4876" y1="968" y2="968"/><line style="stroke:#181818;stroke-width:0.5;" x1="4616" x2="4876" y1="976" y2="976"/><ellipse cx="4626" cy="990.3047" fill="#84BE84" rx="3" ry="3" style="stroke:#038048;stroke-width:1.0;"/><text fill="#000000" font-family="sans-serif" font-size="14" lengthAdjust="spacing" textLength="236" x="4635" y="994.5332">Save(String name, String description)</text><ellipse cx="4626" cy="1007.9141" fill="#84BE84" rx="3" ry="3" style="stroke:#038048;stroke-width:1.0;"/><text fill="#000000" font-family="sans-serif" font-size="14" lengthAdjust="spacing" textLength="172" x="4635" y="1012.1426">ArrayList&lt;String&gt; execute()</text></g><!--class Show--><g id="elem_Show"><rect codeLine="98" fill="#F1F1F1" height="83.2188" id="Show" rx="2.5" ry="2.5" style="stroke:#181818;stroke-width:0.5;" width="264" x="2893" y="669.5"/><ellipse cx="3003.75" cy="685.5" fill="#ADD1B2" rx="11" ry="11" style="stroke:#181818;stroke-width:1.0;"/><path d="M3006.5156,681.375 Q3006.6719,681.1563 3006.8594,681.0469 Q3007.0469,680.9375 3007.2656,680.9375 Q3007.6406,680.9375 3007.875,681.2031 Q3008.1094,681.4531 3008.1094,682.0625 L3008.1094,683.5156 Q3008.1094,684.125 3007.875,684.3906 Q3007.6406,684.6563 3007.2656,684.6563 Q3006.9219,684.6563 3006.7188,684.4531 Q3006.5156,684.2656 3006.4063,683.75 Q3006.3594,683.3906 3006.1719,683.2031 Q3005.8438,682.8281 3005.2344,682.6094 Q3004.625,682.3906 3004,682.3906 Q3003.2344,682.3906 3002.5938,682.7188 Q3001.9688,683.0469 3001.4688,683.7969 Q3000.9844,684.5469 3000.9844,685.5781 L3000.9844,686.6719 Q3000.9844,687.9063 3001.875,688.7344 Q3002.7656,689.5469 3004.3594,689.5469 Q3005.2969,689.5469 3005.9531,689.2969 Q3006.3438,689.1406 3006.7656,688.7031 Q3007.0313,688.4375 3007.1719,688.3594 Q3007.3281,688.2813 3007.5313,688.2813 Q3007.8594,688.2813 3008.1094,688.5469 Q3008.375,688.7969 3008.375,689.1406 Q3008.375,689.4844 3008.0313,689.8906 Q3007.5313,690.4688 3006.7344,690.7969 Q3005.6563,691.25 3004.3594,691.25 Q3002.8438,691.25 3001.6406,690.625 Q3000.6563,690.125 2999.9688,689.0625 Q2999.2813,687.9844 2999.2813,686.7031 L2999.2813,685.5469 Q2999.2813,684.2188 2999.8906,683.0781 Q3000.5156,681.9219 3001.6094,681.3125 Q3002.7031,680.6875 3003.9375,680.6875 Q3004.6719,680.6875 3005.3125,680.8594 Q3005.9688,681.0156 3006.5156,681.375 Z " fill="#000000"/><text fill="#000000" font-family="sans-serif" font-size="14" lengthAdjust="spacing" textLength="34" x="3024.25" y="691.2285">Show</text><line style="stroke:#181818;stroke-width:0.5;" x1="2894" x2="3156" y1="701.5" y2="701.5"/><line style="stroke:#181818;stroke-width:0.5;" x1="2894" x2="3156" y1="709.5" y2="709.5"/><ellipse cx="2904" cy="723.8047" fill="#84BE84" rx="3" ry="3" style="stroke:#038048;stroke-width:1.0;"/><text fill="#000000" font-family="sans-serif" font-size="14" lengthAdjust="spacing" textLength="238" x="2913" y="728.0332">Show(String name, String description)</text><ellipse cx="2904" cy="741.4141" fill="#84BE84" rx="3" ry="3" style="stroke:#038048;stroke-width:1.0;"/><text fill="#000000" font-family="sans-serif" font-size="14" lengthAdjust="spacing" textLength="172" x="2913" y="745.6426">ArrayList&lt;String&gt; execute()</text></g><!--class UpdateById--><g id="elem_UpdateById"><rect codeLine="103" fill="#F1F1F1" height="83.2188" id="UpdateById" rx="2.5" ry="2.5" style="stroke:#181818;stroke-width:0.5;" width="302" x="2556" y="669.5"/><ellipse cx="2666.75" cy="685.5" fill="#ADD1B2" rx="11" ry="11" style="stroke:#181818;stroke-width:1.0;"/><path d="M2669.5156,681.375 Q2669.6719,681.1563 2669.8594,681.0469 Q2670.0469,680.9375 2670.2656,680.9375 Q2670.6406,680.9375 2670.875,681.2031 Q2671.1094,681.4531 2671.1094,682.0625 L2671.1094,683.5156 Q2671.1094,684.125 2670.875,684.3906 Q2670.6406,684.6563 2670.2656,684.6563 Q2669.9219,684.6563 2669.7188,684.4531 Q2669.5156,684.2656 2669.4063,683.75 Q2669.3594,683.3906 2669.1719,683.2031 Q2668.8438,682.8281 2668.2344,682.6094 Q2667.625,682.3906 2667,682.3906 Q2666.2344,682.3906 2665.5938,682.7188 Q2664.9688,683.0469 2664.4688,683.7969 Q2663.9844,684.5469 2663.9844,685.5781 L2663.9844,686.6719 Q2663.9844,687.9063 2664.875,688.7344 Q2665.7656,689.5469 2667.3594,689.5469 Q2668.2969,689.5469 2668.9531,689.2969 Q2669.3438,689.1406 2669.7656,688.7031 Q2670.0313,688.4375 2670.1719,688.3594 Q2670.3281,688.2813 2670.5313,688.2813 Q2670.8594,688.2813 2671.1094,688.5469 Q2671.375,688.7969 2671.375,689.1406 Q2671.375,689.4844 2671.0313,689.8906 Q2670.5313,690.4688 2669.7344,690.7969 Q2668.6563,691.25 2667.3594,691.25 Q2665.8438,691.25 2664.6406,690.625 Q2663.6563,690.125 2662.9688,689.0625 Q2662.2813,687.9844 2662.2813,686.7031 L2662.2813,685.5469 Q2662.2813,684.2188 2662.8906,683.0781 Q2663.5156,681.9219 2664.6094,681.3125 Q2665.7031,680.6875 2666.9375,680.6875 Q2667.6719,680.6875 2668.3125,680.8594 Q2668.9688,681.0156 2669.5156,681.375 Z " fill="#000000"/><text fill="#000000" font-family="sans-serif" font-size="14" lengthAdjust="spacing" textLength="72" x="2687.25" y="691.2285">UpdateById</text><line style="stroke:#181818;stroke-width:0.5;" x1="2557" x2="2857" y1="701.5" y2="701.5"/><line style="stroke:#181818;stroke-width:0.5;" x1="2557" x2="2857" y1="709.5" y2="709.5"/><ellipse cx="2567" cy="723.8047" fill="#84BE84" rx="3" ry="3" style="stroke:#038048;stroke-width:1.0;"/><text fill="#000000" font-family="sans-serif" font-size="14" lengthAdjust="spacing" textLength="276" x="2576" y="728.0332">UpdateById(String name, String description)</text><ellipse cx="2567" cy="741.4141" fill="#84BE84" rx="3" ry="3" style="stroke:#038048;stroke-width:1.0;"/><text fill="#000000" font-family="sans-serif" font-size="14" lengthAdjust="spacing" textLength="172" x="2576" y="745.6426">ArrayList&lt;String&gt; execute()</text></g><!--class CollectionHandler--><g id="elem_CollectionHandler"><rect codeLine="124" fill="#F1F1F1" height="329.75" id="CollectionHandler" rx="2.5" ry="2.5" style="stroke:#181818;stroke-width:0.5;" width="556" x="5247" y="546"/><ellipse cx="5465.25" cy="562" fill="#ADD1B2" rx="11" ry="11" style="stroke:#181818;stroke-width:1.0;"/><path d="M5468.0156,557.875 Q5468.1719,557.6563 5468.3594,557.5469 Q5468.5469,557.4375 5468.7656,557.4375 Q5469.1406,557.4375 5469.375,557.7031 Q5469.6094,557.9531 5469.6094,558.5625 L5469.6094,560.0156 Q5469.6094,560.625 5469.375,560.8906 Q5469.1406,561.1563 5468.7656,561.1563 Q5468.4219,561.1563 5468.2188,560.9531 Q5468.0156,560.7656 5467.9063,560.25 Q5467.8594,559.8906 5467.6719,559.7031 Q5467.3438,559.3281 5466.7344,559.1094 Q5466.125,558.8906 5465.5,558.8906 Q5464.7344,558.8906 5464.0938,559.2188 Q5463.4688,559.5469 5462.9688,560.2969 Q5462.4844,561.0469 5462.4844,562.0781 L5462.4844,563.1719 Q5462.4844,564.4063 5463.375,565.2344 Q5464.2656,566.0469 5465.8594,566.0469 Q5466.7969,566.0469 5467.4531,565.7969 Q5467.8438,565.6406 5468.2656,565.2031 Q5468.5313,564.9375 5468.6719,564.8594 Q5468.8281,564.7813 5469.0313,564.7813 Q5469.3594,564.7813 5469.6094,565.0469 Q5469.875,565.2969 5469.875,565.6406 Q5469.875,565.9844 5469.5313,566.3906 Q5469.0313,566.9688 5468.2344,567.2969 Q5467.1563,567.75 5465.8594,567.75 Q5464.3438,567.75 5463.1406,567.125 Q5462.1563,566.625 5461.4688,565.5625 Q5460.7813,564.4844 5460.7813,563.2031 L5460.7813,562.0469 Q5460.7813,560.7188 5461.3906,559.5781 Q5462.0156,558.4219 5463.1094,557.8125 Q5464.2031,557.1875 5465.4375,557.1875 Q5466.1719,557.1875 5466.8125,557.3594 Q5467.4688,557.5156 5468.0156,557.875 Z " fill="#000000"/><text fill="#000000" font-family="sans-serif" font-size="14" lengthAdjust="spacing" textLength="111" x="5485.75" y="567.7285">CollectionHandler</text><line style="stroke:#181818;stroke-width:0.5;" x1="5248" x2="5802" y1="578" y2="578"/><rect fill="none" height="6" style="stroke:#C82930;stroke-width:1.0;" width="6" x="5255" y="589.3047"/><text fill="#000000" font-family="sans-serif" font-size="14" lengthAdjust="spacing" textLength="220" x="5267" y="596.5332">collection : PriorityQueue&lt;Vehicle&gt;</text><rect fill="none" height="6" style="stroke:#C82930;stroke-width:1.0;" width="6" x="5255" y="606.9141"/><text fill="#000000" font-family="sans-serif" font-size="14" lengthAdjust="spacing" textLength="103" x="5267" y="614.1426">createdAt : Date</text><line style="stroke:#181818;stroke-width:0.5;" x1="5248" x2="5802" y1="621.2188" y2="621.2188"/><ellipse cx="5258" cy="635.5234" fill="#84BE84" rx="3" ry="3" style="stroke:#038048;stroke-width:1.0;"/><text fill="#000000" font-family="sans-serif" font-size="14" lengthAdjust="spacing" textLength="121" x="5267" y="639.752">CollectionHandler()</text><ellipse cx="5258" cy="653.1328" fill="#84BE84" rx="3" ry="3" style="stroke:#038048;stroke-width:1.0;"/><text fill="#000000" font-family="sans-serif" font-size="14" lengthAdjust="spacing" textLength="223" x="5267" y="657.3613">CollectionHandler(filename : String)</text><ellipse cx="5258" cy="670.7422" fill="#84BE84" rx="3" ry="3" style="stroke:#038048;stroke-width:1.0;"/><text fill="#000000" font-family="sans-serif" font-size="14" lengthAdjust="spacing" textLength="253" x="5267" y="674.9707">getCollection() : PriorityQueue&lt;Vehicle&gt;</text><ellipse cx="5258" cy="688.3516" fill="#84BE84" rx="3" ry="3" style="stroke:#038048;stroke-width:1.0;"/><text fill="#000000" font-family="sans-serif" font-size="14" lengthAdjust="spacing" textLength="448" x="5267" y="692.5801">removeElements(compareFunction : Function&lt;Vehicle,Boolean&gt;) : void</text><ellipse cx="5258" cy="705.9609" fill="#84BE84" rx="3" ry="3" style="stroke:#038048;stroke-width:1.0;"/><text fill="#000000" font-family="sans-serif" font-size="14" lengthAdjust="spacing" textLength="530" x="5267" y="710.1895">removeElements(compareFunction : Function&lt;Vehicle,Boolean&gt;, count : long) : void</text><ellipse cx="5258" cy="723.5703" fill="#84BE84" rx="3" ry="3" style="stroke:#038048;stroke-width:1.0;"/><text fill="#000000" font-family="sans-serif" font-size="14" lengthAdjust="spacing" textLength="425" x="5267" y="727.7988">countElements(compareFunction : Function&lt;Vehicle,Boolean&gt;) : int</text><ellipse cx="5258" cy="741.1797" fill="#84BE84" rx="3" ry="3" style="stroke:#038048;stroke-width:1.0;"/><text fill="#000000" font-family="sans-serif" font-size="14" lengthAdjust="spacing" textLength="513" x="5267" y="745.4082">getElements(compareFunction : Function&lt;Vehicle,Boolean&gt;) : ArrayList&lt;Vehicle&gt;</text><ellipse cx="5258" cy="758.7891" fill="#84BE84" rx="3" ry="3" style="stroke:#038048;stroke-width:1.0;"/><text fill="#000000" font-family="sans-serif" font-size="14" lengthAdjust="spacing" textLength="137" x="5267" y="763.0176">add(v : Vehicle) : void</text><ellipse cx="5258" cy="776.3984" fill="#84BE84" rx="3" ry="3" style="stroke:#038048;stroke-width:1.0;"/><text fill="#000000" font-family="sans-serif" font-size="14" lengthAdjust="spacing" textLength="165" x="5267" y="780.627">getById(id : long) : Vehicle</text><ellipse cx="5258" cy="794.0078" fill="#84BE84" rx="3" ry="3" style="stroke:#038048;stroke-width:1.0;"/><text fill="#000000" font-family="sans-serif" font-size="14" lengthAdjust="spacing" textLength="92" x="5267" y="798.2363">pop() : Vehicle</text><ellipse cx="5258" cy="811.6172" fill="#84BE84" rx="3" ry="3" style="stroke:#038048;stroke-width:1.0;"/><text fill="#000000" font-family="sans-serif" font-size="14" lengthAdjust="spacing" textLength="61" x="5267" y="815.8457">size() : int</text><ellipse cx="5258" cy="829.2266" fill="#84BE84" rx="3" ry="3" style="stroke:#038048;stroke-width:1.0;"/><text fill="#000000" font-family="sans-serif" font-size="14" lengthAdjust="spacing" textLength="113" x="5267" y="833.4551">createdAt() : Date</text><ellipse cx="5258" cy="846.8359" fill="#84BE84" rx="3" ry="3" style="stroke:#038048;stroke-width:1.0;"/><text fill="#000000" font-family="sans-serif" font-size="14" lengthAdjust="spacing" textLength="108" x="5267" y="851.0645">type() : Class&lt;?&gt;</text><ellipse cx="5258" cy="864.4453" fill="#84BE84" rx="3" ry="3" style="stroke:#038048;stroke-width:1.0;"/><text fill="#000000" font-family="sans-serif" font-size="14" lengthAdjust="spacing" textLength="79" x="5267" y="868.6738">clear() : void</text></g><!--class ServerEnviroment--><g id="elem_ServerEnviroment"><rect codeLine="143" fill="#F1F1F1" height="136.0469" id="ServerEnviroment" rx="2.5" ry="2.5" style="stroke:#181818;stroke-width:0.5;" width="623" x="5838.5" y="643"/><ellipse cx="6089.25" cy="659" fill="#ADD1B2" rx="11" ry="11" style="stroke:#181818;stroke-width:1.0;"/><path d="M6092.0156,654.875 Q6092.1719,654.6563 6092.3594,654.5469 Q6092.5469,654.4375 6092.7656,654.4375 Q6093.1406,654.4375 6093.375,654.7031 Q6093.6094,654.9531 6093.6094,655.5625 L6093.6094,657.0156 Q6093.6094,657.625 6093.375,657.8906 Q6093.1406,658.1563 6092.7656,658.1563 Q6092.4219,658.1563 6092.2188,657.9531 Q6092.0156,657.7656 6091.9063,657.25 Q6091.8594,656.8906 6091.6719,656.7031 Q6091.3438,656.3281 6090.7344,656.1094 Q6090.125,655.8906 6089.5,655.8906 Q6088.7344,655.8906 6088.0938,656.2188 Q6087.4688,656.5469 6086.9688,657.2969 Q6086.4844,658.0469 6086.4844,659.0781 L6086.4844,660.1719 Q6086.4844,661.4063 6087.375,662.2344 Q6088.2656,663.0469 6089.8594,663.0469 Q6090.7969,663.0469 6091.4531,662.7969 Q6091.8438,662.6406 6092.2656,662.2031 Q6092.5313,661.9375 6092.6719,661.8594 Q6092.8281,661.7813 6093.0313,661.7813 Q6093.3594,661.7813 6093.6094,662.0469 Q6093.875,662.2969 6093.875,662.6406 Q6093.875,662.9844 6093.5313,663.3906 Q6093.0313,663.9688 6092.2344,664.2969 Q6091.1563,664.75 6089.8594,664.75 Q6088.3438,664.75 6087.1406,664.125 Q6086.1563,663.625 6085.4688,662.5625 Q6084.7813,661.4844 6084.7813,660.2031 L6084.7813,659.0469 Q6084.7813,657.7188 6085.3906,656.5781 Q6086.0156,655.4219 6087.1094,654.8125 Q6088.2031,654.1875 6089.4375,654.1875 Q6090.1719,654.1875 6090.8125,654.3594 Q6091.4688,654.5156 6092.0156,654.875 Z " fill="#000000"/><text fill="#000000" font-family="sans-serif" font-size="14" lengthAdjust="spacing" textLength="113" x="6109.75" y="664.7285">ServerEnviroment</text><line style="stroke:#181818;stroke-width:0.5;" x1="5839.5" x2="6460.5" y1="675" y2="675"/><rect fill="none" height="6" style="stroke:#C82930;stroke-width:1.0;" width="6" x="5846.5" y="686.3047"/><text fill="#000000" font-family="sans-serif" font-size="14" lengthAdjust="spacing" textLength="231" x="5858.5" y="693.5332">collectionHandler : CollectionHandler</text><rect fill="none" height="6" style="stroke:#C82930;stroke-width:1.0;" width="6" x="5846.5" y="703.9141"/><text fill="#000000" font-family="sans-serif" font-size="14" lengthAdjust="spacing" textLength="235" x="5858.5" y="711.1426">commandHandler : CommandHandler</text><line style="stroke:#181818;stroke-width:0.5;" x1="5839.5" x2="6460.5" y1="718.2188" y2="718.2188"/><ellipse cx="5849.5" cy="732.5234" fill="#84BE84" rx="3" ry="3" style="stroke:#038048;stroke-width:1.0;"/><text fill="#000000" font-family="sans-serif" font-size="14" lengthAdjust="spacing" textLength="597" x="5858.5" y="736.752">ServerEnviroment(collectionHandler : CollectionHandler, commandHandler : CommandHandler)</text><ellipse cx="5849.5" cy="750.1328" fill="#84BE84" rx="3" ry="3" style="stroke:#038048;stroke-width:1.0;"/><text fill="#000000" font-family="sans-serif" font-size="14" lengthAdjust="spacing" textLength="268" x="5858.5" y="754.3613">getCommandHandler() : CommandHandler</text><ellipse cx="5849.5" cy="767.7422" fill="#84BE84" rx="3" ry="3" style="stroke:#038048;stroke-width:1.0;"/><text fill="#000000" font-family="sans-serif" font-size="14" lengthAdjust="spacing" textLength="264" x="5858.5" y="771.9707">getCollectionHandler() : CollectionHandler</text></g><!--reverse link Command to Add--><g id="link_Command_Add"><path codeLine="108" d="M2345.5834,219.9454 C1839.7634,250.7854 486.22,343.06 319,458 C244.54,509.18 203.32,611.99 185.25,669.21 " fill="none" id="Command-backto-Add" style="stroke:#181818;stroke-width:1.0;"/><polygon fill="none" points="2363.55,218.85,2345.2182,213.9566,2345.9485,225.9343,2363.55,218.85" style="stroke:#181818;stroke-width:1.0;"/></g><!--reverse link Command to Clear--><g id="link_Command_Clear"><path codeLine="109" d="M2345.6866,212.148 C1918.7366,223.728 902.6,270.42 618,458 C541.83,508.21 499.22,611.9 480.56,669.39 " fill="none" id="Command-backto-Clear" style="stroke:#181818;stroke-width:1.0;"/><polygon fill="none" points="2363.68,211.66,2345.5239,206.1502,2345.8493,218.1458,2363.68,211.66" style="stroke:#181818;stroke-width:1.0;"/></g><!--reverse link Command to CountLessThanEnginePower--><g id="link_Command_CountLessThanEnginePower"><path codeLine="110" d="M2346.0272,225.6158 C1999.4772,257.8258 1288.21,336.4 1068,458 C976.1,508.75 902.71,611.73 866.88,669.09 " fill="none" id="Command-backto-CountLessThanEnginePower" style="stroke:#181818;stroke-width:1.0;"/><polygon fill="none" points="2363.95,223.95,2345.472,219.6416,2346.5825,231.5901,2363.95,223.95" style="stroke:#181818;stroke-width:1.0;"/></g><!--reverse link Command to FilterGreaterThanFuelConsumption--><g id="link_Command_FilterGreaterThanFuelConsumption"><path codeLine="111" d="M2345.6773,226.4367 C2137.3173,251.3467 1813.58,310.58 1558,458 C1463.92,512.27 1382.22,612.9 1341.17,669.19 " fill="none" id="Command-backto-FilterGreaterThanFuelConsumption" style="stroke:#181818;stroke-width:1.0;"/><polygon fill="none" points="2363.55,224.3,2344.965,220.4792,2346.3895,232.3943,2363.55,224.3" style="stroke:#181818;stroke-width:1.0;"/></g><!--reverse link Command to FilterStartsWithName--><g id="link_Command_FilterStartsWithName"><path codeLine="112" d="M2346.6355,265.4369 C2223.0555,305.9469 2078.9,365.43 1957,458 C1878.49,517.62 1813.17,614.82 1780.17,669.43 " fill="none" id="Command-backto-FilterStartsWithName" style="stroke:#181818;stroke-width:1.0;"/><polygon fill="none" points="2363.74,259.83,2344.7666,259.7354,2348.5045,271.1384,2363.74,259.83" style="stroke:#181818;stroke-width:1.0;"/></g><!--reverse link Command to Help--><g id="link_Command_Help"><path codeLine="113" d="M2370.9708,339.6973 C2324.2808,378.1173 2289.4,411.41 2250,458 C2193.25,525.09 2145.9,616.99 2121.28,669.26 " fill="none" id="Command-backto-Help" style="stroke:#181818;stroke-width:1.0;"/><polygon fill="none" points="2384.87,328.26,2367.1584,335.0642,2374.7832,344.3304,2384.87,328.26" style="stroke:#181818;stroke-width:1.0;"/></g><!--reverse link Command to Info--><g id="link_Command_Info"><path codeLine="114" d="M2507.2895,345.4295 C2472.9995,455.7995 2429.5,595.78 2406.67,669.23 " fill="none" id="Command-backto-Info" style="stroke:#181818;stroke-width:1.0;"/><polygon fill="none" points="2512.63,328.24,2501.5597,343.6494,2513.0194,347.2097,2512.63,328.24" style="stroke:#181818;stroke-width:1.0;"/></g><!--link RemoveById to Command--><g id="link_RemoveById_Command"><path codeLine="115" d="M4383.67,669.44 C4360.61,611.01 4309.25,505.02 4226,458 C4208.44,448.08 2794.96,382.88 2776,376 C2744.63,364.63 2728.8062,357.514 2700.6362,338.324 " fill="none" id="RemoveById-to-Command" style="stroke:#181818;stroke-width:1.0;"/><polygon fill="none" points="2685.76,328.19,2697.2582,343.2827,2704.0142,333.3653,2685.76,328.19" style="stroke:#181818;stroke-width:1.0;"/></g><!--link RemoveFirst to Command--><g id="link_RemoveFirst_Command"><path codeLine="116" d="M4038.21,669.14 C4014.7,610.85 3962.82,505.6 3880,458 C3853.34,442.68 2804.82,386.74 2776,376 C2744.96,364.43 2729.3988,357.3502 2701.4188,338.3002 " fill="none" id="RemoveFirst-to-Command" style="stroke:#181818;stroke-width:1.0;"/><polygon fill="none" points="2686.54,328.17,2698.0421,343.2598,2704.7956,333.3405,2686.54,328.17" style="stroke:#181818;stroke-width:1.0;"/></g><!--link RemoveHead to Command--><g id="link_RemoveHead_Command"><path codeLine="117" d="M3689.48,669.02 C3665.16,611.08 3612.2,506.83 3530,458 C3493.77,436.48 2815.23,391.39 2776,376 C2745.62,364.08 2730.5959,357.0945 2702.9859,338.2845 " fill="none" id="RemoveHead-to-Command" style="stroke:#181818;stroke-width:1.0;"/><polygon fill="none" points="2688.11,328.15,2699.6077,343.2432,2706.364,333.3259,2688.11,328.15" style="stroke:#181818;stroke-width:1.0;"/></g><!--link RemoveLower to Command--><g id="link_RemoveLower_Command"><path codeLine="118" d="M3335.1,669.09 C3309.37,612.21 3254.8,510.35 3175,458 C3137.16,433.17 2817.31,394.5 2776,376 C2747.44,363.21 2733.8979,356.4809 2707.3579,338.3309 " fill="none" id="RemoveLower-to-Command" style="stroke:#181818;stroke-width:1.0;"/><polygon fill="none" points="2692.5,328.17,2703.9709,343.2835,2710.7448,333.3783,2692.5,328.17" style="stroke:#181818;stroke-width:1.0;"/></g><!--link Show to Command--><g id="link_Show_Command"><path codeLine="119" d="M3006.99,669.37 C2982.42,616.81 2934.66,524.18 2876,458 C2861.54,441.69 2800.944,394.748 2726.524,338.868 " fill="none" id="Show-to-Command" style="stroke:#181818;stroke-width:1.0;"/><polygon fill="none" points="2712.13,328.06,2722.9213,343.666,2730.1266,334.0701,2712.13,328.06" style="stroke:#181818;stroke-width:1.0;"/></g><!--link UpdateById to Command--><g id="link_UpdateById_Command"><path codeLine="120" d="M2694.25,669.23 C2671.28,595.78 2627.4917,455.7898 2592.9817,345.4198 " fill="none" id="UpdateById-to-Command" style="stroke:#181818;stroke-width:1.0;"/><polygon fill="none" points="2587.61,328.24,2587.2551,347.2103,2598.7083,343.6292,2587.61,328.24" style="stroke:#181818;stroke-width:1.0;"/></g><!--link ServerEnviroment to Enviroment--><g id="link_ServerEnviroment_Enviroment"><path codeLine="151" d="M6085.89,642.77 C6024.23,582.89 5925.24,498.64 5821,458 C5364.83,280.15 3912.8448,227.6839 3317.6948,213.3339 " fill="none" id="ServerEnviroment-to-Enviroment" style="stroke:#181818;stroke-width:1.0;"/><polygon fill="none" points="3299.7,212.9,3317.5501,219.3321,3317.8394,207.3356,3299.7,212.9" style="stroke:#181818;stroke-width:1.0;"/></g><!--SRC=[lLXHRzem47xlhuYqbw12Vy24Mb4AenARkh5rprvo1Ml1Zco7ZdNzxxET62TsF99AInvQkFlEzztbVFQHe-Gdsa9K29pnwEKYaazUoHAwtoEI6h5waWnn7irBHKskdab4q1wYzz56C4osZYu5dZ2S2qn928BOjjW34Lm2PeoXunfpCPrLqkdDzNN3u5q4v80PLKffiJXzQQ0k3TkumMxSIcZac78GTjauu6ualrK-77wOO27fyrX6LWPr2aKP7IXE7OTRA0r6tLAW3Jx9kBH1Ir8ruCv66iQze1zSC9I8rmX-GL88CAnNYEy-ednQ9QxaRicLOilhzQBysoYbdKnE1iml9Pj6fvek3Gtp-gfgjCaUH_yYw0HfM4bUXXC7TW3MjUPdQUenbBAuzADBVrmvhPUMMr5UtaxP7jMuklij0yGyxrewZ7zQ4B46ph_AzxWWMqpWWJv32wK0S12MYnAoqOjwr1hQWVZWDXfu6EzBd0bW7nWW-K-zZcK1sPmINkpBdkSoEsSm8EkDG4pmxrZiL6yBC6s21c6tWYpts2ZX8DxloHFrl2lX8Dw_m9uUuFPuxxT1gngGoH8pBW9Kj6v0BYj0eQmerO1CrgrjkQORXCi67VnTguJ3UD_HPz-x50xY_LkUoWRQka-iwZypqPVvAtELkJBNzUcVIKgVoMGoKJUN7cXzq-Y33rm3UYnnxZJglLJpkEXXhlfx3xXgo1tWHQx0jdFsDD4ThgUDQaKzJTOTtrffe_POPx3T3BtcXJdDCaXK1QnAY3k39YU0708U6AOCY-Fd0WgOFi8E9nbSknQwoDAPckhkv2VlJkjuZ4Td4KyuWyQuEVAdCckbXx8EL2yZfj_A8WCz9gkHA4SCbWKn0PkFPe7nBQLoyvBGlFds1SSoquMUX3CgusjVNaFUIXTxaxpCsbiNinqqa5eaPxc315Rgy7ok-pTEQu5N9WuqftaSrdByknpQ_IXFzQZrBHKfZdbfErTROdhZXfBemT2Bm3yezG1i9_3mLghgMi_UZiopqVkyRb0NkAUomo3kv79ypalhRgi3uj4vPeqDshGA9S0xW4qJkwhzo66RfHEwwOAl5ty1]--></g></svg>