<?xml version="1.0" encoding="us-ascii" standalone="no"?><svg xmlns="http://www.w3.org/2000/svg" xmlns:xlink="http://www.w3.org/1999/xlink" contentStyleType="text/css" height="1046px" preserveAspectRatio="none" style="width:4798px;height:1046px;background:#FFFFFF;" version="1.1" viewBox="0 0 4798 1046" width="4798px" zoomAndPan="magnify"><defs/><g><!--cluster utils--><g id="cluster_utils"><path d="M8.5,6 L39.5,6 A3.75,3.75 0 0 1 42,8.5 L49,29.6094 L4788.5,29.6094 A2.5,2.5 0 0 1 4791,32.1094 L4791,1036.5 A2.5,2.5 0 0 1 4788.5,1039 L8.5,1039 A2.5,2.5 0 0 1 6,1036.5 L6,8.5 A2.5,2.5 0 0 1 8.5,6 " fill="none" style="stroke:#000000;stroke-width:1.5;"/><line style="stroke:#000000;stroke-width:1.5;" x1="6" x2="49" y1="29.6094" y2="29.6094"/><text fill="#000000" font-family="sans-serif" font-size="14" font-weight="bold" lengthAdjust="spacing" textLength="30" x="10" y="22.5332">utils</text></g><!--cluster commands--><g id="cluster_commands"><path d="M3417.5,226 L3493.5,226 A3.75,3.75 0 0 1 3496,228.5 L3503,249.6094 L4764.5,249.6094 A2.5,2.5 0 0 1 4767,252.1094 L4767,517.5 A2.5,2.5 0 0 1 4764.5,520 L3417.5,520 A2.5,2.5 0 0 1 3415,517.5 L3415,228.5 A2.5,2.5 0 0 1 3417.5,226 " fill="none" style="stroke:#000000;stroke-width:1.5;"/><line style="stroke:#000000;stroke-width:1.5;" x1="3415" x2="3503" y1="249.6094" y2="249.6094"/><text fill="#000000" font-family="sans-serif" font-size="14" font-weight="bold" lengthAdjust="spacing" textLength="75" x="3419" y="242.5332">commands</text></g><!--cluster types--><g id="cluster_types"><path d="M4589.5,323 L4628.5,323 A3.75,3.75 0 0 1 4631,325.5 L4638,346.6094 L4740.5,346.6094 A2.5,2.5 0 0 1 4743,349.1094 L4743,420.5 A2.5,2.5 0 0 1 4740.5,423 L4589.5,423 A2.5,2.5 0 0 1 4587,420.5 L4587,325.5 A2.5,2.5 0 0 1 4589.5,323 " fill="none" style="stroke:#000000;stroke-width:1.5;"/><line style="stroke:#000000;stroke-width:1.5;" x1="4587" x2="4638" y1="346.6094" y2="346.6094"/><text fill="#000000" font-family="sans-serif" font-size="14" font-weight="bold" lengthAdjust="spacing" textLength="38" x="4591" y="339.5332">types</text></g><!--cluster exceptions--><g id="cluster_exceptions"><path d="M4375.5,323 L4454.5,323 A3.75,3.75 0 0 1 4457,325.5 L4464,346.6094 L4560.5,346.6094 A2.5,2.5 0 0 1 4563,349.1094 L4563,420.5 A2.5,2.5 0 0 1 4560.5,423 L4375.5,423 A2.5,2.5 0 0 1 4373,420.5 L4373,325.5 A2.5,2.5 0 0 1 4375.5,323 " fill="none" style="stroke:#000000;stroke-width:1.5;"/><line style="stroke:#000000;stroke-width:1.5;" x1="4373" x2="4464" y1="346.6094" y2="346.6094"/><text fill="#000000" font-family="sans-serif" font-size="14" font-weight="bold" lengthAdjust="spacing" textLength="78" x="4377" y="339.5332">exceptions</text></g><!--cluster handlers--><g id="cluster_handlers"><path d="M2496.5,288 L2559.5,288 A3.75,3.75 0 0 1 2562,290.5 L2569,311.6094 L3388.5,311.6094 A2.5,2.5 0 0 1 3391,314.1094 L3391,455.5 A2.5,2.5 0 0 1 3388.5,458 L2496.5,458 A2.5,2.5 0 0 1 2494,455.5 L2494,290.5 A2.5,2.5 0 0 1 2496.5,288 " fill="none" style="stroke:#000000;stroke-width:1.5;"/><line style="stroke:#000000;stroke-width:1.5;" x1="2494" x2="2569" y1="311.6094" y2="311.6094"/><text fill="#000000" font-family="sans-serif" font-size="14" font-weight="bold" lengthAdjust="spacing" textLength="62" x="2498" y="304.5332">handlers</text></g><!--cluster request--><g id="cluster_request"><path d="M1909.5,182 L1965.5,182 A3.75,3.75 0 0 1 1968,184.5 L1975,205.6094 L2467.5,205.6094 A2.5,2.5 0 0 1 2470,208.1094 L2470,561.5 A2.5,2.5 0 0 1 2467.5,564 L1909.5,564 A2.5,2.5 0 0 1 1907,561.5 L1907,184.5 A2.5,2.5 0 0 1 1909.5,182 " fill="none" style="stroke:#000000;stroke-width:1.5;"/><line style="stroke:#000000;stroke-width:1.5;" x1="1907" x2="1975" y1="205.6094" y2="205.6094"/><text fill="#000000" font-family="sans-serif" font-size="14" font-weight="bold" lengthAdjust="spacing" textLength="55" x="1911" y="198.5332">request</text></g><!--cluster vehicle--><g id="cluster_vehicle"><path d="M32.5,50 L85.5,50 A3.75,3.75 0 0 1 88,52.5 L95,73.6094 L1880.5,73.6094 A2.5,2.5 0 0 1 1883,76.1094 L1883,1012.5 A2.5,2.5 0 0 1 1880.5,1015 L32.5,1015 A2.5,2.5 0 0 1 30,1012.5 L30,52.5 A2.5,2.5 0 0 1 32.5,50 " fill="none" style="stroke:#000000;stroke-width:1.5;"/><line style="stroke:#000000;stroke-width:1.5;" x1="30" x2="95" y1="73.6094" y2="73.6094"/><text fill="#000000" font-family="sans-serif" font-size="14" font-weight="bold" lengthAdjust="spacing" textLength="52" x="34" y="66.5332">vehicle</text></g><!--cluster components--><g id="cluster_components"><path d="M1200.5,261.5 L1288.5,261.5 A3.75,3.75 0 0 1 1291,264 L1298,285.1094 L1856.5,285.1094 A2.5,2.5 0 0 1 1859,287.6094 L1859,942 A2.5,2.5 0 0 1 1856.5,944.5 L1200.5,944.5 A2.5,2.5 0 0 1 1198,942 L1198,264 A2.5,2.5 0 0 1 1200.5,261.5 " fill="none" style="stroke:#000000;stroke-width:1.5;"/><line style="stroke:#000000;stroke-width:1.5;" x1="1198" x2="1298" y1="285.1094" y2="285.1094"/><text fill="#000000" font-family="sans-serif" font-size="14" font-weight="bold" lengthAdjust="spacing" textLength="87" x="1202" y="278.0332">components</text></g><!--class Argument--><g id="elem_Argument"><rect codeLine="12" fill="#F1F1F1" height="206.4844" id="Argument" rx="2.5" ry="2.5" style="stroke:#181818;stroke-width:0.5;" width="516" x="3838" y="280"/><ellipse cx="4061.25" cy="296" fill="#ADD1B2" rx="11" ry="11" style="stroke:#181818;stroke-width:1.0;"/><path d="M4064.0156,291.875 Q4064.1719,291.6563 4064.3594,291.5469 Q4064.5469,291.4375 4064.7656,291.4375 Q4065.1406,291.4375 4065.375,291.7031 Q4065.6094,291.9531 4065.6094,292.5625 L4065.6094,294.0156 Q4065.6094,294.625 4065.375,294.8906 Q4065.1406,295.1563 4064.7656,295.1563 Q4064.4219,295.1563 4064.2188,294.9531 Q4064.0156,294.7656 4063.9063,294.25 Q4063.8594,293.8906 4063.6719,293.7031 Q4063.3438,293.3281 4062.7344,293.1094 Q4062.125,292.8906 4061.5,292.8906 Q4060.7344,292.8906 4060.0938,293.2188 Q4059.4688,293.5469 4058.9688,294.2969 Q4058.4844,295.0469 4058.4844,296.0781 L4058.4844,297.1719 Q4058.4844,298.4063 4059.375,299.2344 Q4060.2656,300.0469 4061.8594,300.0469 Q4062.7969,300.0469 4063.4531,299.7969 Q4063.8438,299.6406 4064.2656,299.2031 Q4064.5313,298.9375 4064.6719,298.8594 Q4064.8281,298.7813 4065.0313,298.7813 Q4065.3594,298.7813 4065.6094,299.0469 Q4065.875,299.2969 4065.875,299.6406 Q4065.875,299.9844 4065.5313,300.3906 Q4065.0313,300.9688 4064.2344,301.2969 Q4063.1563,301.75 4061.8594,301.75 Q4060.3438,301.75 4059.1406,301.125 Q4058.1563,300.625 4057.4688,299.5625 Q4056.7813,298.4844 4056.7813,297.2031 L4056.7813,296.0469 Q4056.7813,294.7188 4057.3906,293.5781 Q4058.0156,292.4219 4059.1094,291.8125 Q4060.2031,291.1875 4061.4375,291.1875 Q4062.1719,291.1875 4062.8125,291.3594 Q4063.4688,291.5156 4064.0156,291.875 Z " fill="#000000"/><text fill="#000000" font-family="sans-serif" font-size="14" lengthAdjust="spacing" textLength="61" x="4081.75" y="301.7285">Argument</text><line style="stroke:#181818;stroke-width:0.5;" x1="3839" x2="4353" y1="312" y2="312"/><rect fill="none" height="6" style="stroke:#C82930;stroke-width:1.0;" width="6" x="3846" y="323.3047"/><text fill="#000000" font-family="sans-serif" font-size="14" lengthAdjust="spacing" textLength="84" x="3858" y="330.5332">name : String</text><rect fill="none" height="6" style="stroke:#C82930;stroke-width:1.0;" width="6" x="3846" y="340.9141"/><text fill="#000000" font-family="sans-serif" font-size="14" lengthAdjust="spacing" textLength="111" x="3858" y="348.1426">decription : String</text><rect fill="none" height="6" style="stroke:#C82930;stroke-width:1.0;" width="6" x="3846" y="358.5234"/><text fill="#000000" font-family="sans-serif" font-size="14" lengthAdjust="spacing" textLength="55" x="3858" y="365.752">value : T</text><rect fill="none" height="6" style="stroke:#C82930;stroke-width:1.0;" width="6" x="3846" y="376.1328"/><text fill="#000000" font-family="sans-serif" font-size="14" lengthAdjust="spacing" textLength="208" x="3858" y="383.3613">castToType : Function&lt;String,T&gt;</text><line style="stroke:#181818;stroke-width:0.5;" x1="3839" x2="4353" y1="390.4375" y2="390.4375"/><ellipse cx="3849" cy="404.7422" fill="#84BE84" rx="3" ry="3" style="stroke:#038048;stroke-width:1.0;"/><text fill="#000000" font-family="sans-serif" font-size="14" lengthAdjust="spacing" textLength="490" x="3858" y="408.9707">Argument(name : String, decription : String, castToType : Function&lt;String,T&gt;)</text><ellipse cx="3849" cy="422.3516" fill="#84BE84" rx="3" ry="3" style="stroke:#038048;stroke-width:1.0;"/><text fill="#000000" font-family="sans-serif" font-size="14" lengthAdjust="spacing" textLength="186" x="3858" y="426.5801">setValue(value : String) : void</text><ellipse cx="3849" cy="439.9609" fill="#84BE84" rx="3" ry="3" style="stroke:#038048;stroke-width:1.0;"/><text fill="#000000" font-family="sans-serif" font-size="14" lengthAdjust="spacing" textLength="87" x="3858" y="444.1895">getValue() : T</text><ellipse cx="3849" cy="457.5703" fill="#84BE84" rx="3" ry="3" style="stroke:#038048;stroke-width:1.0;"/><text fill="#000000" font-family="sans-serif" font-size="14" lengthAdjust="spacing" textLength="115" x="3858" y="461.7988">getName() : String</text><ellipse cx="3849" cy="475.1797" fill="#84BE84" rx="3" ry="3" style="stroke:#038048;stroke-width:1.0;"/><text fill="#000000" font-family="sans-serif" font-size="14" lengthAdjust="spacing" textLength="150" x="3858" y="479.4082">getDescription() : String</text></g><!--class Command--><g id="elem_Command"><rect codeLine="24" fill="#F1F1F1" height="241.7031" id="Command" rx="2.5" ry="2.5" style="stroke:#181818;stroke-width:0.5;" width="372" x="3431" y="262"/><ellipse cx="3580.75" cy="278" fill="#ADD1B2" rx="11" ry="11" style="stroke:#181818;stroke-width:1.0;"/><path d="M3583.5156,273.875 Q3583.6719,273.6563 3583.8594,273.5469 Q3584.0469,273.4375 3584.2656,273.4375 Q3584.6406,273.4375 3584.875,273.7031 Q3585.1094,273.9531 3585.1094,274.5625 L3585.1094,276.0156 Q3585.1094,276.625 3584.875,276.8906 Q3584.6406,277.1563 3584.2656,277.1563 Q3583.9219,277.1563 3583.7188,276.9531 Q3583.5156,276.7656 3583.4063,276.25 Q3583.3594,275.8906 3583.1719,275.7031 Q3582.8438,275.3281 3582.2344,275.1094 Q3581.625,274.8906 3581,274.8906 Q3580.2344,274.8906 3579.5938,275.2188 Q3578.9688,275.5469 3578.4688,276.2969 Q3577.9844,277.0469 3577.9844,278.0781 L3577.9844,279.1719 Q3577.9844,280.4063 3578.875,281.2344 Q3579.7656,282.0469 3581.3594,282.0469 Q3582.2969,282.0469 3582.9531,281.7969 Q3583.3438,281.6406 3583.7656,281.2031 Q3584.0313,280.9375 3584.1719,280.8594 Q3584.3281,280.7813 3584.5313,280.7813 Q3584.8594,280.7813 3585.1094,281.0469 Q3585.375,281.2969 3585.375,281.6406 Q3585.375,281.9844 3585.0313,282.3906 Q3584.5313,282.9688 3583.7344,283.2969 Q3582.6563,283.75 3581.3594,283.75 Q3579.8438,283.75 3578.6406,283.125 Q3577.6563,282.625 3576.9688,281.5625 Q3576.2813,280.4844 3576.2813,279.2031 L3576.2813,278.0469 Q3576.2813,276.7188 3576.8906,275.5781 Q3577.5156,274.4219 3578.6094,273.8125 Q3579.7031,273.1875 3580.9375,273.1875 Q3581.6719,273.1875 3582.3125,273.3594 Q3582.9688,273.5156 3583.5156,273.875 Z " fill="#000000"/><text fill="#000000" font-family="sans-serif" font-size="14" lengthAdjust="spacing" textLength="64" x="3601.25" y="283.7285">Command</text><line style="stroke:#181818;stroke-width:0.5;" x1="3432" x2="3802" y1="294" y2="294"/><rect fill="none" height="6" style="stroke:#C82930;stroke-width:1.0;" width="6" x="3439" y="305.3047"/><text fill="#000000" font-family="sans-serif" font-size="14" lengthAdjust="spacing" textLength="84" x="3451" y="312.5332">name : String</text><rect fill="none" height="6" style="stroke:#C82930;stroke-width:1.0;" width="6" x="3439" y="322.9141"/><text fill="#000000" font-family="sans-serif" font-size="14" lengthAdjust="spacing" textLength="118" x="3451" y="330.1426">description : String</text><rect fill="none" height="6" style="stroke:#C82930;stroke-width:1.0;" width="6" x="3439" y="340.5234"/><text fill="#000000" font-family="sans-serif" font-size="14" lengthAdjust="spacing" textLength="236" x="3451" y="347.752">arguments : ArrayList&lt;Argument&lt;?&gt;&gt;</text><polygon fill="none" points="3442,356.1328,3446,360.1328,3442,364.1328,3438,360.1328" style="stroke:#B38D22;stroke-width:1.0;"/><text fill="#000000" font-family="sans-serif" font-size="14" lengthAdjust="spacing" textLength="153" x="3451" y="365.3613">enviroment : Enviroment</text><line style="stroke:#181818;stroke-width:0.5;" x1="3432" x2="3802" y1="372.4375" y2="372.4375"/><ellipse cx="3442" cy="386.7422" fill="#84BE84" rx="3" ry="3" style="stroke:#038048;stroke-width:1.0;"/><text fill="#000000" font-family="sans-serif" font-size="14" lengthAdjust="spacing" textLength="284" x="3451" y="390.9707">Command(name : String, description : String)</text><ellipse cx="3442" cy="404.3516" fill="#84BE84" rx="3" ry="3" style="stroke:#038048;stroke-width:1.0;"/><text fill="#000000" font-family="sans-serif" font-size="14" lengthAdjust="spacing" textLength="329" x="3451" y="408.5801">setEnviroment(enviroment : Enviroment) : Command</text><polygon fill="#FFFF44" points="3442,416.9609,3446,420.9609,3442,424.9609,3438,420.9609" style="stroke:#B38D22;stroke-width:1.0;"/><text fill="#000000" font-family="sans-serif" font-size="14" lengthAdjust="spacing" textLength="220" x="3451" y="426.1895">initArgs(args : Argument&lt;?&gt;) : void</text><ellipse cx="3442" cy="439.5703" fill="#84BE84" rx="3" ry="3" style="stroke:#038048;stroke-width:1.0;"/><text fill="#000000" font-family="sans-serif" font-size="14" lengthAdjust="spacing" textLength="228" x="3451" y="443.7988">getArgs() : ArrayList&lt;Argument&lt;?&gt;&gt;</text><ellipse cx="3442" cy="457.1797" fill="#84BE84" rx="3" ry="3" style="stroke:#038048;stroke-width:1.0;"/><text fill="#000000" font-family="sans-serif" font-size="14" lengthAdjust="spacing" textLength="115" x="3451" y="461.4082">getName() : String</text><ellipse cx="3442" cy="474.7891" fill="#84BE84" rx="3" ry="3" style="stroke:#038048;stroke-width:1.0;"/><text fill="#000000" font-family="sans-serif" font-size="14" lengthAdjust="spacing" textLength="150" x="3451" y="479.0176">getDescription() : String</text><ellipse cx="3442" cy="492.3984" fill="#84BE84" rx="3" ry="3" style="stroke:#038048;stroke-width:1.0;"/><text fill="#000000" font-family="sans-serif" font-size="14" font-style="italic" lengthAdjust="spacing" textLength="346" x="3451" y="496.627">execute(args : HashMap&lt;String,?&gt;) : ArrayList&lt;String&gt;</text></g><!--class OnlyForServer--><g id="elem_OnlyForServer"><rect codeLine="5" fill="#F1F1F1" height="48" id="OnlyForServer" rx="2.5" ry="2.5" style="stroke:#181818;stroke-width:0.5;" width="124" x="4603" y="359"/><ellipse cx="4618" cy="375" fill="#B4A7E5" rx="11" ry="11" style="stroke:#181818;stroke-width:1.0;"/><path d="M4618.9531,371.6406 L4618.9531,378.2969 L4620.6719,378.2969 Q4621.2813,378.2969 4621.5469,378.5313 Q4621.8125,378.7656 4621.8125,379.1563 Q4621.8125,379.5313 4621.5469,379.7656 Q4621.2813,380 4620.6719,380 L4615.5313,380 Q4614.9219,380 4614.6563,379.7656 Q4614.3906,379.5313 4614.3906,379.1406 Q4614.3906,378.7656 4614.6563,378.5313 Q4614.9219,378.2969 4615.5313,378.2969 L4617.25,378.2969 L4617.25,371.6406 L4615.5313,371.6406 Q4614.9219,371.6406 4614.6563,371.4063 Q4614.3906,371.1719 4614.3906,370.7813 Q4614.3906,370.4063 4614.6563,370.1719 Q4614.9219,369.9375 4615.5313,369.9375 L4620.6719,369.9375 Q4621.2813,369.9375 4621.5469,370.1719 Q4621.8125,370.4063 4621.8125,370.7813 Q4621.8125,371.1719 4621.5469,371.4063 Q4621.2813,371.6406 4620.6719,371.6406 L4618.9531,371.6406 Z " fill="#000000"/><text fill="#000000" font-family="sans-serif" font-size="14" font-style="italic" lengthAdjust="spacing" textLength="92" x="4632" y="380.7285">OnlyForServer</text><line style="stroke:#181818;stroke-width:0.5;" x1="4604" x2="4726" y1="391" y2="391"/><line style="stroke:#181818;stroke-width:0.5;" x1="4604" x2="4726" y1="399" y2="399"/></g><!--class TerminateException--><g id="elem_TerminateException"><rect codeLine="9" fill="#F1F1F1" height="48" id="TerminateException" rx="2.5" ry="2.5" style="stroke:#181818;stroke-width:0.5;" width="157" x="4389.5" y="359"/><ellipse cx="4404.5" cy="375" fill="#ADD1B2" rx="11" ry="11" style="stroke:#181818;stroke-width:1.0;"/><path d="M4407.2656,370.875 Q4407.4219,370.6563 4407.6094,370.5469 Q4407.7969,370.4375 4408.0156,370.4375 Q4408.3906,370.4375 4408.625,370.7031 Q4408.8594,370.9531 4408.8594,371.5625 L4408.8594,373.0156 Q4408.8594,373.625 4408.625,373.8906 Q4408.3906,374.1563 4408.0156,374.1563 Q4407.6719,374.1563 4407.4688,373.9531 Q4407.2656,373.7656 4407.1563,373.25 Q4407.1094,372.8906 4406.9219,372.7031 Q4406.5938,372.3281 4405.9844,372.1094 Q4405.375,371.8906 4404.75,371.8906 Q4403.9844,371.8906 4403.3438,372.2188 Q4402.7188,372.5469 4402.2188,373.2969 Q4401.7344,374.0469 4401.7344,375.0781 L4401.7344,376.1719 Q4401.7344,377.4063 4402.625,378.2344 Q4403.5156,379.0469 4405.1094,379.0469 Q4406.0469,379.0469 4406.7031,378.7969 Q4407.0938,378.6406 4407.5156,378.2031 Q4407.7813,377.9375 4407.9219,377.8594 Q4408.0781,377.7813 4408.2813,377.7813 Q4408.6094,377.7813 4408.8594,378.0469 Q4409.125,378.2969 4409.125,378.6406 Q4409.125,378.9844 4408.7813,379.3906 Q4408.2813,379.9688 4407.4844,380.2969 Q4406.4063,380.75 4405.1094,380.75 Q4403.5938,380.75 4402.3906,380.125 Q4401.4063,379.625 4400.7188,378.5625 Q4400.0313,377.4844 4400.0313,376.2031 L4400.0313,375.0469 Q4400.0313,373.7188 4400.6406,372.5781 Q4401.2656,371.4219 4402.3594,370.8125 Q4403.4531,370.1875 4404.6875,370.1875 Q4405.4219,370.1875 4406.0625,370.3594 Q4406.7188,370.5156 4407.2656,370.875 Z " fill="#000000"/><text fill="#000000" font-family="sans-serif" font-size="14" lengthAdjust="spacing" textLength="125" x="4418.5" y="380.7285">TerminateException</text><line style="stroke:#181818;stroke-width:0.5;" x1="4390.5" x2="4545.5" y1="391" y2="391"/><line style="stroke:#181818;stroke-width:0.5;" x1="4390.5" x2="4545.5" y1="399" y2="399"/></g><!--class CommandHandler--><g id="elem_CommandHandler"><rect codeLine="40" fill="#F1F1F1" height="118.4375" id="CommandHandler" rx="2.5" ry="2.5" style="stroke:#181818;stroke-width:0.5;" width="322" x="3053" y="324"/><ellipse cx="3153.25" cy="340" fill="#ADD1B2" rx="11" ry="11" style="stroke:#181818;stroke-width:1.0;"/><path d="M3156.0156,335.875 Q3156.1719,335.6563 3156.3594,335.5469 Q3156.5469,335.4375 3156.7656,335.4375 Q3157.1406,335.4375 3157.375,335.7031 Q3157.6094,335.9531 3157.6094,336.5625 L3157.6094,338.0156 Q3157.6094,338.625 3157.375,338.8906 Q3157.1406,339.1563 3156.7656,339.1563 Q3156.4219,339.1563 3156.2188,338.9531 Q3156.0156,338.7656 3155.9063,338.25 Q3155.8594,337.8906 3155.6719,337.7031 Q3155.3438,337.3281 3154.7344,337.1094 Q3154.125,336.8906 3153.5,336.8906 Q3152.7344,336.8906 3152.0938,337.2188 Q3151.4688,337.5469 3150.9688,338.2969 Q3150.4844,339.0469 3150.4844,340.0781 L3150.4844,341.1719 Q3150.4844,342.4063 3151.375,343.2344 Q3152.2656,344.0469 3153.8594,344.0469 Q3154.7969,344.0469 3155.4531,343.7969 Q3155.8438,343.6406 3156.2656,343.2031 Q3156.5313,342.9375 3156.6719,342.8594 Q3156.8281,342.7813 3157.0313,342.7813 Q3157.3594,342.7813 3157.6094,343.0469 Q3157.875,343.2969 3157.875,343.6406 Q3157.875,343.9844 3157.5313,344.3906 Q3157.0313,344.9688 3156.2344,345.2969 Q3155.1563,345.75 3153.8594,345.75 Q3152.3438,345.75 3151.1406,345.125 Q3150.1563,344.625 3149.4688,343.5625 Q3148.7813,342.4844 3148.7813,341.2031 L3148.7813,340.0469 Q3148.7813,338.7188 3149.3906,337.5781 Q3150.0156,336.4219 3151.1094,335.8125 Q3152.2031,335.1875 3153.4375,335.1875 Q3154.1719,335.1875 3154.8125,335.3594 Q3155.4688,335.5156 3156.0156,335.875 Z " fill="#000000"/><text fill="#000000" font-family="sans-serif" font-size="14" lengthAdjust="spacing" textLength="113" x="3173.75" y="345.7285">CommandHandler</text><line style="stroke:#181818;stroke-width:0.5;" x1="3054" x2="3374" y1="356" y2="356"/><rect fill="none" height="6" style="stroke:#C82930;stroke-width:1.0;" width="6" x="3061" y="367.3047"/><text fill="#000000" font-family="sans-serif" font-size="14" lengthAdjust="spacing" textLength="260" x="3073" y="374.5332">commands : HashMap&lt;String,Command&gt;</text><line style="stroke:#181818;stroke-width:0.5;" x1="3054" x2="3374" y1="381.6094" y2="381.6094"/><ellipse cx="3064" cy="395.9141" fill="#84BE84" rx="3" ry="3" style="stroke:#038048;stroke-width:1.0;"/><text fill="#000000" font-family="sans-serif" font-size="14" lengthAdjust="spacing" textLength="296" x="3073" y="400.1426">add(command : Command) : CommandHandler</text><ellipse cx="3064" cy="413.5234" fill="#84BE84" rx="3" ry="3" style="stroke:#038048;stroke-width:1.0;"/><text fill="#000000" font-family="sans-serif" font-size="14" lengthAdjust="spacing" textLength="254" x="3073" y="417.752">getCommand(name : String) : Command</text><ellipse cx="3064" cy="431.1328" fill="#84BE84" rx="3" ry="3" style="stroke:#038048;stroke-width:1.0;"/><text fill="#000000" font-family="sans-serif" font-size="14" lengthAdjust="spacing" textLength="270" x="3073" y="435.3613">getAllCommands() : Collection&lt;Command&gt;</text></g><!--class Enviroment--><g id="elem_Enviroment"><rect codeLine="47" fill="#F1F1F1" height="65.6094" id="Enviroment" rx="2.5" ry="2.5" style="stroke:#181818;stroke-width:0.5;" width="507" x="2510.5" y="350"/><ellipse cx="2724.25" cy="366" fill="#ADD1B2" rx="11" ry="11" style="stroke:#181818;stroke-width:1.0;"/><path d="M2727.0156,361.875 Q2727.1719,361.6563 2727.3594,361.5469 Q2727.5469,361.4375 2727.7656,361.4375 Q2728.1406,361.4375 2728.375,361.7031 Q2728.6094,361.9531 2728.6094,362.5625 L2728.6094,364.0156 Q2728.6094,364.625 2728.375,364.8906 Q2728.1406,365.1563 2727.7656,365.1563 Q2727.4219,365.1563 2727.2188,364.9531 Q2727.0156,364.7656 2726.9063,364.25 Q2726.8594,363.8906 2726.6719,363.7031 Q2726.3438,363.3281 2725.7344,363.1094 Q2725.125,362.8906 2724.5,362.8906 Q2723.7344,362.8906 2723.0938,363.2188 Q2722.4688,363.5469 2721.9688,364.2969 Q2721.4844,365.0469 2721.4844,366.0781 L2721.4844,367.1719 Q2721.4844,368.4063 2722.375,369.2344 Q2723.2656,370.0469 2724.8594,370.0469 Q2725.7969,370.0469 2726.4531,369.7969 Q2726.8438,369.6406 2727.2656,369.2031 Q2727.5313,368.9375 2727.6719,368.8594 Q2727.8281,368.7813 2728.0313,368.7813 Q2728.3594,368.7813 2728.6094,369.0469 Q2728.875,369.2969 2728.875,369.6406 Q2728.875,369.9844 2728.5313,370.3906 Q2728.0313,370.9688 2727.2344,371.2969 Q2726.1563,371.75 2724.8594,371.75 Q2723.3438,371.75 2722.1406,371.125 Q2721.1563,370.625 2720.4688,369.5625 Q2719.7813,368.4844 2719.7813,367.2031 L2719.7813,366.0469 Q2719.7813,364.7188 2720.3906,363.5781 Q2721.0156,362.4219 2722.1094,361.8125 Q2723.2031,361.1875 2724.4375,361.1875 Q2725.1719,361.1875 2725.8125,361.3594 Q2726.4688,361.5156 2727.0156,361.875 Z " fill="#000000"/><text fill="#000000" font-family="sans-serif" font-size="14" lengthAdjust="spacing" textLength="71" x="2744.75" y="371.7285">Enviroment</text><line style="stroke:#181818;stroke-width:0.5;" x1="2511.5" x2="3016.5" y1="382" y2="382"/><line style="stroke:#181818;stroke-width:0.5;" x1="2511.5" x2="3016.5" y1="390" y2="390"/><ellipse cx="2521.5" cy="404.3047" fill="#84BE84" rx="3" ry="3" style="stroke:#038048;stroke-width:1.0;"/><text fill="#000000" font-family="sans-serif" font-size="14" lengthAdjust="spacing" textLength="481" x="2530.5" y="408.5332">executeCommand(command : Command, args : HashMap&lt;String,?&gt;) : String</text></g><!--class CommandRequest--><g id="elem_CommandRequest"><rect codeLine="53" fill="#F1F1F1" height="329.75" id="CommandRequest" rx="2.5" ry="2.5" style="stroke:#181818;stroke-width:0.5;" width="370" x="2084" y="218"/><ellipse cx="2206.25" cy="234" fill="#ADD1B2" rx="11" ry="11" style="stroke:#181818;stroke-width:1.0;"/><path d="M2209.0156,229.875 Q2209.1719,229.6563 2209.3594,229.5469 Q2209.5469,229.4375 2209.7656,229.4375 Q2210.1406,229.4375 2210.375,229.7031 Q2210.6094,229.9531 2210.6094,230.5625 L2210.6094,232.0156 Q2210.6094,232.625 2210.375,232.8906 Q2210.1406,233.1563 2209.7656,233.1563 Q2209.4219,233.1563 2209.2188,232.9531 Q2209.0156,232.7656 2208.9063,232.25 Q2208.8594,231.8906 2208.6719,231.7031 Q2208.3438,231.3281 2207.7344,231.1094 Q2207.125,230.8906 2206.5,230.8906 Q2205.7344,230.8906 2205.0938,231.2188 Q2204.4688,231.5469 2203.9688,232.2969 Q2203.4844,233.0469 2203.4844,234.0781 L2203.4844,235.1719 Q2203.4844,236.4063 2204.375,237.2344 Q2205.2656,238.0469 2206.8594,238.0469 Q2207.7969,238.0469 2208.4531,237.7969 Q2208.8438,237.6406 2209.2656,237.2031 Q2209.5313,236.9375 2209.6719,236.8594 Q2209.8281,236.7813 2210.0313,236.7813 Q2210.3594,236.7813 2210.6094,237.0469 Q2210.875,237.2969 2210.875,237.6406 Q2210.875,237.9844 2210.5313,238.3906 Q2210.0313,238.9688 2209.2344,239.2969 Q2208.1563,239.75 2206.8594,239.75 Q2205.3438,239.75 2204.1406,239.125 Q2203.1563,238.625 2202.4688,237.5625 Q2201.7813,236.4844 2201.7813,235.2031 L2201.7813,234.0469 Q2201.7813,232.7188 2202.3906,231.5781 Q2203.0156,230.4219 2204.1094,229.8125 Q2205.2031,229.1875 2206.4375,229.1875 Q2207.1719,229.1875 2207.8125,229.3594 Q2208.4688,229.5156 2209.0156,229.875 Z " fill="#000000"/><text fill="#000000" font-family="sans-serif" font-size="14" lengthAdjust="spacing" textLength="117" x="2226.75" y="239.7285">CommandRequest</text><line style="stroke:#181818;stroke-width:0.5;" x1="2085" x2="2453" y1="250" y2="250"/><rect fill="none" height="6" style="stroke:#C82930;stroke-width:1.0;" width="6" x="2092" y="261.3047"/><text fill="#000000" font-family="sans-serif" font-size="14" lengthAdjust="spacing" textLength="143" x="2104" y="268.5332">status : RequestStatus</text><rect fill="none" height="6" style="stroke:#C82930;stroke-width:1.0;" width="6" x="2092" y="278.9141"/><text fill="#000000" font-family="sans-serif" font-size="14" lengthAdjust="spacing" textLength="108" x="2104" y="286.1426">response : String</text><rect fill="none" height="6" style="stroke:#C82930;stroke-width:1.0;" width="6" x="2092" y="296.5234"/><text fill="#000000" font-family="sans-serif" font-size="14" lengthAdjust="spacing" textLength="110" x="2104" y="303.752">command : String</text><rect fill="none" height="6" style="stroke:#C82930;stroke-width:1.0;" width="6" x="2092" y="314.1328"/><text fill="#000000" font-family="sans-serif" font-size="14" lengthAdjust="spacing" textLength="197" x="2104" y="321.3613">args : ArrayList&lt;Argument&lt;?&gt;&gt;</text><rect fill="none" height="6" style="stroke:#C82930;stroke-width:1.0;" width="6" x="2092" y="331.7422"/><text fill="#000000" font-family="sans-serif" font-size="14" lengthAdjust="spacing" textLength="238" x="2104" y="338.9707">argsCache : HashMap&lt;String,Object&gt;</text><line style="stroke:#181818;stroke-width:0.5;" x1="2085" x2="2453" y1="346.0469" y2="346.0469"/><ellipse cx="2095" cy="360.3516" fill="#84BE84" rx="3" ry="3" style="stroke:#038048;stroke-width:1.0;"/><text fill="#000000" font-family="sans-serif" font-size="14" lengthAdjust="spacing" textLength="237" x="2104" y="364.5801">CommandRequest(command : String)</text><ellipse cx="2095" cy="377.9609" fill="#84BE84" rx="3" ry="3" style="stroke:#038048;stroke-width:1.0;"/><text fill="#000000" font-family="sans-serif" font-size="14" lengthAdjust="spacing" textLength="143" x="2104" y="382.1895">getCommand() : String</text><ellipse cx="2095" cy="395.5703" fill="#84BE84" rx="3" ry="3" style="stroke:#038048;stroke-width:1.0;"/><text fill="#000000" font-family="sans-serif" font-size="14" lengthAdjust="spacing" textLength="250" x="2104" y="399.7988">setStatus(status : RequestStatus) : void</text><ellipse cx="2095" cy="413.1797" fill="#84BE84" rx="3" ry="3" style="stroke:#038048;stroke-width:1.0;"/><text fill="#000000" font-family="sans-serif" font-size="14" lengthAdjust="spacing" textLength="175" x="2104" y="417.4082">getStatus() : RequestStatus</text><ellipse cx="2095" cy="430.7891" fill="#84BE84" rx="3" ry="3" style="stroke:#038048;stroke-width:1.0;"/><text fill="#000000" font-family="sans-serif" font-size="14" lengthAdjust="spacing" textLength="239" x="2104" y="435.0176">setResponse(response : String) : void</text><ellipse cx="2095" cy="448.3984" fill="#84BE84" rx="3" ry="3" style="stroke:#038048;stroke-width:1.0;"/><text fill="#000000" font-family="sans-serif" font-size="14" lengthAdjust="spacing" textLength="143" x="2104" y="452.627">getResponse() : String</text><ellipse cx="2095" cy="466.0078" fill="#84BE84" rx="3" ry="3" style="stroke:#038048;stroke-width:1.0;"/><text fill="#000000" font-family="sans-serif" font-size="14" lengthAdjust="spacing" textLength="228" x="2104" y="470.2363">getArgs() : ArrayList&lt;Argument&lt;?&gt;&gt;</text><ellipse cx="2095" cy="483.6172" fill="#84BE84" rx="3" ry="3" style="stroke:#038048;stroke-width:1.0;"/><text fill="#000000" font-family="sans-serif" font-size="14" lengthAdjust="spacing" textLength="251" x="2104" y="487.8457">addArg(argument : Argument&lt;?&gt;) : void</text><ellipse cx="2095" cy="501.2266" fill="#84BE84" rx="3" ry="3" style="stroke:#038048;stroke-width:1.0;"/><text fill="#000000" font-family="sans-serif" font-size="14" lengthAdjust="spacing" textLength="337" x="2104" y="505.4551">addArgs(arguments : ArrayList&lt;Argument&lt;?&gt;&gt;) : void</text><ellipse cx="2095" cy="518.8359" fill="#84BE84" rx="3" ry="3" style="stroke:#038048;stroke-width:1.0;"/><text fill="#000000" font-family="sans-serif" font-size="14" lengthAdjust="spacing" textLength="269" x="2104" y="523.0645">getArgsCache() : HashMap&lt;String,Object&gt;</text><ellipse cx="2095" cy="536.4453" fill="#84BE84" rx="3" ry="3" style="stroke:#038048;stroke-width:1.0;"/><text fill="#000000" font-family="sans-serif" font-size="14" lengthAdjust="spacing" textLength="344" x="2104" y="540.6738">setArgsCache(cache : HashMap&lt;String,Object&gt;) : void</text></g><!--class RequestStatus--><g id="elem_RequestStatus"><rect codeLine="72" fill="#F1F1F1" height="100.8281" id="RequestStatus" rx="2.5" ry="2.5" style="stroke:#181818;stroke-width:0.5;" width="125" x="1923.5" y="332.5"/><ellipse cx="1938.5" cy="348.5" fill="#EB937F" rx="11" ry="11" style="stroke:#181818;stroke-width:1.0;"/><path d="M1937.3594,349.2969 L1937.3594,351.7969 L1941.6875,351.7969 L1941.6875,350.875 Q1941.6875,350.2656 1941.9219,350 Q1942.1719,349.7344 1942.5469,349.7344 Q1942.9219,349.7344 1943.1563,350 Q1943.3906,350.2656 1943.3906,350.875 L1943.3906,353.5 L1935.3906,353.5 Q1934.7656,353.5 1934.5,353.2656 Q1934.25,353.0313 1934.25,352.6406 Q1934.25,352.2656 1934.5156,352.0313 Q1934.7813,351.7969 1935.3906,351.7969 L1935.6563,351.7969 L1935.6563,345.1406 L1935.3906,345.1406 Q1934.7656,345.1406 1934.5,344.9063 Q1934.25,344.6719 1934.25,344.2813 Q1934.25,343.9063 1934.5,343.6719 Q1934.7656,343.4375 1935.3906,343.4375 L1943.0156,343.4375 L1943.0156,346.0313 Q1943.0156,346.6406 1942.7813,346.9063 Q1942.5625,347.1563 1942.1719,347.1563 Q1941.7969,347.1563 1941.5625,346.9063 Q1941.3281,346.6406 1941.3281,346.0313 L1941.3281,345.1406 L1937.3594,345.1406 L1937.3594,347.5938 L1938.8438,347.5938 Q1938.8438,346.9375 1938.9688,346.75 Q1939.2344,346.3438 1939.7031,346.3438 Q1940.0781,346.3438 1940.3125,346.6094 Q1940.5469,346.8594 1940.5469,347.4688 L1940.5469,349.4375 Q1940.5469,349.9844 1940.4219,350.1719 Q1940.1563,350.5625 1939.7031,350.5625 Q1939.2344,350.5625 1938.9688,350.1563 Q1938.8438,349.9688 1938.8438,349.2969 L1937.3594,349.2969 Z " fill="#000000"/><text fill="#000000" font-family="sans-serif" font-size="14" lengthAdjust="spacing" textLength="93" x="1952.5" y="354.2285">RequestStatus</text><line style="stroke:#181818;stroke-width:0.5;" x1="1924.5" x2="2047.5" y1="364.5" y2="364.5"/><text fill="#000000" font-family="sans-serif" font-size="14" lengthAdjust="spacing" textLength="73" x="1929.5" y="383.0332">FULLFILED</text><text fill="#000000" font-family="sans-serif" font-size="14" lengthAdjust="spacing" textLength="60" x="1929.5" y="400.6426">PENDING</text><text fill="#000000" font-family="sans-serif" font-size="14" lengthAdjust="spacing" textLength="72" x="1929.5" y="418.252">REJECTED</text><line style="stroke:#181818;stroke-width:0.5;" x1="1924.5" x2="2047.5" y1="425.3281" y2="425.3281"/></g><!--class CasterException--><g id="elem_CasterException"><rect codeLine="113" fill="#F1F1F1" height="65.6094" id="CasterException" rx="2.5" ry="2.5" style="stroke:#181818;stroke-width:0.5;" width="215" x="966.5" y="350"/><ellipse cx="1018.25" cy="366" fill="#ADD1B2" rx="11" ry="11" style="stroke:#181818;stroke-width:1.0;"/><path d="M1021.0156,361.875 Q1021.1719,361.6563 1021.3594,361.5469 Q1021.5469,361.4375 1021.7656,361.4375 Q1022.1406,361.4375 1022.375,361.7031 Q1022.6094,361.9531 1022.6094,362.5625 L1022.6094,364.0156 Q1022.6094,364.625 1022.375,364.8906 Q1022.1406,365.1563 1021.7656,365.1563 Q1021.4219,365.1563 1021.2188,364.9531 Q1021.0156,364.7656 1020.9063,364.25 Q1020.8594,363.8906 1020.6719,363.7031 Q1020.3438,363.3281 1019.7344,363.1094 Q1019.125,362.8906 1018.5,362.8906 Q1017.7344,362.8906 1017.0938,363.2188 Q1016.4688,363.5469 1015.9688,364.2969 Q1015.4844,365.0469 1015.4844,366.0781 L1015.4844,367.1719 Q1015.4844,368.4063 1016.375,369.2344 Q1017.2656,370.0469 1018.8594,370.0469 Q1019.7969,370.0469 1020.4531,369.7969 Q1020.8438,369.6406 1021.2656,369.2031 Q1021.5313,368.9375 1021.6719,368.8594 Q1021.8281,368.7813 1022.0313,368.7813 Q1022.3594,368.7813 1022.6094,369.0469 Q1022.875,369.2969 1022.875,369.6406 Q1022.875,369.9844 1022.5313,370.3906 Q1022.0313,370.9688 1021.2344,371.2969 Q1020.1563,371.75 1018.8594,371.75 Q1017.3438,371.75 1016.1406,371.125 Q1015.1563,370.625 1014.4688,369.5625 Q1013.7813,368.4844 1013.7813,367.2031 L1013.7813,366.0469 Q1013.7813,364.7188 1014.3906,363.5781 Q1015.0156,362.4219 1016.1094,361.8125 Q1017.2031,361.1875 1018.4375,361.1875 Q1019.1719,361.1875 1019.8125,361.3594 Q1020.4688,361.5156 1021.0156,361.875 Z " fill="#000000"/><text fill="#000000" font-family="sans-serif" font-size="14" lengthAdjust="spacing" textLength="103" x="1038.75" y="371.7285">CasterException</text><line style="stroke:#181818;stroke-width:0.5;" x1="967.5" x2="1180.5" y1="382" y2="382"/><line style="stroke:#181818;stroke-width:0.5;" x1="967.5" x2="1180.5" y1="390" y2="390"/><ellipse cx="977.5" cy="404.3047" fill="#84BE84" rx="3" ry="3" style="stroke:#038048;stroke-width:1.0;"/><text fill="#000000" font-family="sans-serif" font-size="14" lengthAdjust="spacing" textLength="189" x="986.5" y="408.5332">CasterException(String string)</text></g><!--class Vehicle--><g id="elem_Vehicle"><rect codeLine="117" fill="#F1F1F1" height="593.8906" id="Vehicle" rx="2.5" ry="2.5" style="stroke:#181818;stroke-width:0.5;" width="885" x="46.5" y="86"/><ellipse cx="461.75" cy="102" fill="#ADD1B2" rx="11" ry="11" style="stroke:#181818;stroke-width:1.0;"/><path d="M464.5156,97.875 Q464.6719,97.6563 464.8594,97.5469 Q465.0469,97.4375 465.2656,97.4375 Q465.6406,97.4375 465.875,97.7031 Q466.1094,97.9531 466.1094,98.5625 L466.1094,100.0156 Q466.1094,100.625 465.875,100.8906 Q465.6406,101.1563 465.2656,101.1563 Q464.9219,101.1563 464.7188,100.9531 Q464.5156,100.7656 464.4063,100.25 Q464.3594,99.8906 464.1719,99.7031 Q463.8438,99.3281 463.2344,99.1094 Q462.625,98.8906 462,98.8906 Q461.2344,98.8906 460.5938,99.2188 Q459.9688,99.5469 459.4688,100.2969 Q458.9844,101.0469 458.9844,102.0781 L458.9844,103.1719 Q458.9844,104.4063 459.875,105.2344 Q460.7656,106.0469 462.3594,106.0469 Q463.2969,106.0469 463.9531,105.7969 Q464.3438,105.6406 464.7656,105.2031 Q465.0313,104.9375 465.1719,104.8594 Q465.3281,104.7813 465.5313,104.7813 Q465.8594,104.7813 466.1094,105.0469 Q466.375,105.2969 466.375,105.6406 Q466.375,105.9844 466.0313,106.3906 Q465.5313,106.9688 464.7344,107.2969 Q463.6563,107.75 462.3594,107.75 Q460.8438,107.75 459.6406,107.125 Q458.6563,106.625 457.9688,105.5625 Q457.2813,104.4844 457.2813,103.2031 L457.2813,102.0469 Q457.2813,100.7188 457.8906,99.5781 Q458.5156,98.4219 459.6094,97.8125 Q460.7031,97.1875 461.9375,97.1875 Q462.6719,97.1875 463.3125,97.3594 Q463.9688,97.5156 464.5156,97.875 Z " fill="#000000"/><text fill="#000000" font-family="sans-serif" font-size="14" lengthAdjust="spacing" textLength="46" x="482.25" y="107.7285">Vehicle</text><line style="stroke:#181818;stroke-width:0.5;" x1="47.5" x2="930.5" y1="118" y2="118"/><rect fill="none" height="6" style="stroke:#C82930;stroke-width:1.0;" width="6" x="54.5" y="129.3047"/><text fill="#000000" font-family="sans-serif" font-size="14" lengthAdjust="spacing" textLength="42" x="66.5" y="136.5332">long id</text><rect fill="none" height="6" style="stroke:#C82930;stroke-width:1.0;" width="6" x="54.5" y="146.9141"/><text fill="#000000" font-family="sans-serif" font-size="14" lengthAdjust="spacing" textLength="76" x="66.5" y="154.1426">String name</text><rect fill="none" height="6" style="stroke:#C82930;stroke-width:1.0;" width="6" x="54.5" y="164.5234"/><text fill="#000000" font-family="sans-serif" font-size="14" lengthAdjust="spacing" textLength="155" x="66.5" y="171.752">Coordinates coordinates</text><rect fill="none" height="6" style="stroke:#C82930;stroke-width:1.0;" width="6" x="54.5" y="182.1328"/><text fill="#000000" font-family="sans-serif" font-size="14" lengthAdjust="spacing" textLength="246" x="66.5" y="189.3613">java.time.ZonedDateTime creationDate</text><rect fill="none" height="6" style="stroke:#C82930;stroke-width:1.0;" width="6" x="54.5" y="199.7422"/><text fill="#000000" font-family="sans-serif" font-size="14" lengthAdjust="spacing" textLength="118" x="66.5" y="206.9707">Float enginePower</text><rect fill="none" height="6" style="stroke:#C82930;stroke-width:1.0;" width="6" x="54.5" y="217.3516"/><text fill="#000000" font-family="sans-serif" font-size="14" lengthAdjust="spacing" textLength="158" x="66.5" y="224.5801">Integer numberOfWheels</text><rect fill="none" height="6" style="stroke:#C82930;stroke-width:1.0;" width="6" x="54.5" y="234.9609"/><text fill="#000000" font-family="sans-serif" font-size="14" lengthAdjust="spacing" textLength="137" x="66.5" y="242.1895">float fuelConsumption</text><rect fill="none" height="6" style="stroke:#C82930;stroke-width:1.0;" width="6" x="54.5" y="252.5703"/><text fill="#000000" font-family="sans-serif" font-size="14" lengthAdjust="spacing" textLength="119" x="66.5" y="259.7988">FuelType fuelType</text><text fill="#000000" font-family="sans-serif" font-size="14" lengthAdjust="spacing" textLength="4" x="66.5" y="277.4082">&#160;</text><rect fill="none" height="6" style="stroke:#C82930;stroke-width:1.0;" width="6" x="54.5" y="287.7891"/><text fill="#000000" font-family="sans-serif" font-size="14" lengthAdjust="spacing" textLength="149" x="66.5" y="295.0176">static long currentMaxId</text><rect fill="none" height="6" style="stroke:#C82930;stroke-width:1.0;" width="6" x="54.5" y="305.3984"/><text fill="#000000" font-family="sans-serif" font-size="14" lengthAdjust="spacing" textLength="335" x="66.5" y="312.627">static Map&lt;String, Consumer&lt;String&gt;&gt; mutableFields</text><line style="stroke:#181818;stroke-width:0.5;" x1="47.5" x2="930.5" y1="319.7031" y2="319.7031"/><ellipse cx="57.5" cy="334.0078" fill="#84BE84" rx="3" ry="3" style="stroke:#038048;stroke-width:1.0;"/><text fill="#000000" font-family="sans-serif" font-size="14" lengthAdjust="spacing" textLength="859" x="66.5" y="338.2363">Vehicle(String name, Coordinates coordinates, Float enginePower, Integer numberOfWheels, float fuelConsumption, FuelType fuelType)</text><ellipse cx="57.5" cy="351.6172" fill="#84BE84" rx="3" ry="3" style="stroke:#038048;stroke-width:1.0;"/><text fill="#000000" font-family="sans-serif" font-size="14" lengthAdjust="spacing" textLength="233" x="66.5" y="355.8457">static Set&lt;String&gt; getMutableFields()</text><ellipse cx="57.5" cy="369.2266" fill="#84BE84" rx="3" ry="3" style="stroke:#038048;stroke-width:1.0;"/><text fill="#000000" font-family="sans-serif" font-size="14" lengthAdjust="spacing" textLength="301" x="66.5" y="373.4551">void setFieldByName(String name, String value)</text><ellipse cx="57.5" cy="386.8359" fill="#84BE84" rx="3" ry="3" style="stroke:#038048;stroke-width:1.0;"/><text fill="#000000" font-family="sans-serif" font-size="14" lengthAdjust="spacing" textLength="72" x="66.5" y="391.0645">long getId()</text><ellipse cx="57.5" cy="404.4453" fill="#84BE84" rx="3" ry="3" style="stroke:#038048;stroke-width:1.0;"/><text fill="#000000" font-family="sans-serif" font-size="14" lengthAdjust="spacing" textLength="107" x="66.5" y="408.6738">String getName()</text><ellipse cx="57.5" cy="422.0547" fill="#84BE84" rx="3" ry="3" style="stroke:#038048;stroke-width:1.0;"/><text fill="#000000" font-family="sans-serif" font-size="14" lengthAdjust="spacing" textLength="188" x="66.5" y="426.2832">Coordinates getCoordinates()</text><ellipse cx="57.5" cy="439.6641" fill="#84BE84" rx="3" ry="3" style="stroke:#038048;stroke-width:1.0;"/><text fill="#000000" font-family="sans-serif" font-size="14" lengthAdjust="spacing" textLength="279" x="66.5" y="443.8926">java.time.ZonedDateTime getCreationDate()</text><ellipse cx="57.5" cy="457.2734" fill="#84BE84" rx="3" ry="3" style="stroke:#038048;stroke-width:1.0;"/><text fill="#000000" font-family="sans-serif" font-size="14" lengthAdjust="spacing" textLength="149" x="66.5" y="461.502">Float getEnginePower()</text><ellipse cx="57.5" cy="474.8828" fill="#84BE84" rx="3" ry="3" style="stroke:#038048;stroke-width:1.0;"/><text fill="#000000" font-family="sans-serif" font-size="14" lengthAdjust="spacing" textLength="189" x="66.5" y="479.1113">Integer getNumberOfWheels()</text><ellipse cx="57.5" cy="492.4922" fill="#84BE84" rx="3" ry="3" style="stroke:#038048;stroke-width:1.0;"/><text fill="#000000" font-family="sans-serif" font-size="14" lengthAdjust="spacing" textLength="172" x="66.5" y="496.7207">float getFuelConsumption()</text><ellipse cx="57.5" cy="510.1016" fill="#84BE84" rx="3" ry="3" style="stroke:#038048;stroke-width:1.0;"/><text fill="#000000" font-family="sans-serif" font-size="14" lengthAdjust="spacing" textLength="154" x="66.5" y="514.3301">FuelType getFuelType()</text><ellipse cx="57.5" cy="527.7109" fill="#84BE84" rx="3" ry="3" style="stroke:#038048;stroke-width:1.0;"/><text fill="#000000" font-family="sans-serif" font-size="14" lengthAdjust="spacing" textLength="171" x="66.5" y="531.9395">void setName(String name)</text><ellipse cx="57.5" cy="545.3203" fill="#84BE84" rx="3" ry="3" style="stroke:#038048;stroke-width:1.0;"/><text fill="#000000" font-family="sans-serif" font-size="14" lengthAdjust="spacing" textLength="291" x="66.5" y="549.5488">void setCoordinates(Coordinates coordinates)</text><ellipse cx="57.5" cy="562.9297" fill="#84BE84" rx="3" ry="3" style="stroke:#038048;stroke-width:1.0;"/><text fill="#000000" font-family="sans-serif" font-size="14" lengthAdjust="spacing" textLength="260" x="66.5" y="567.1582">void setEnginePower(Float enginePower)</text><ellipse cx="57.5" cy="580.5391" fill="#84BE84" rx="3" ry="3" style="stroke:#038048;stroke-width:1.0;"/><text fill="#000000" font-family="sans-serif" font-size="14" lengthAdjust="spacing" textLength="328" x="66.5" y="584.7676">void setNumberOfWheels(Integer numberOfWheels)</text><ellipse cx="57.5" cy="598.1484" fill="#84BE84" rx="3" ry="3" style="stroke:#038048;stroke-width:1.0;"/><text fill="#000000" font-family="sans-serif" font-size="14" lengthAdjust="spacing" textLength="307" x="66.5" y="602.377">void setFuelConsumption(float fuelConsumption)</text><ellipse cx="57.5" cy="615.7578" fill="#84BE84" rx="3" ry="3" style="stroke:#038048;stroke-width:1.0;"/><text fill="#000000" font-family="sans-serif" font-size="14" lengthAdjust="spacing" textLength="238" x="66.5" y="619.9863">void setFuelType(FuelType fuelType)</text><ellipse cx="57.5" cy="633.3672" fill="#84BE84" rx="3" ry="3" style="stroke:#038048;stroke-width:1.0;"/><text fill="#000000" font-family="sans-serif" font-size="14" lengthAdjust="spacing" textLength="292" x="66.5" y="637.5957">static void setCurrentMaxId(long currentMaxId)</text><ellipse cx="57.5" cy="650.9766" fill="#84BE84" rx="3" ry="3" style="stroke:#038048;stroke-width:1.0;"/><text fill="#000000" font-family="sans-serif" font-size="14" lengthAdjust="spacing" textLength="100" x="66.5" y="655.2051">String toString()</text><ellipse cx="57.5" cy="668.5859" fill="#84BE84" rx="3" ry="3" style="stroke:#038048;stroke-width:1.0;"/><text fill="#000000" font-family="sans-serif" font-size="14" lengthAdjust="spacing" textLength="158" x="66.5" y="672.8145">int compareTo(Vehicle v)</text></g><!--class Caster--><g id="elem_Caster"><rect codeLine="152" fill="#F1F1F1" height="153.6563" id="Caster" rx="2.5" ry="2.5" style="stroke:#181818;stroke-width:0.5;" width="411" x="164.5" y="792.5"/><ellipse cx="344.75" cy="808.5" fill="#ADD1B2" rx="11" ry="11" style="stroke:#181818;stroke-width:1.0;"/><path d="M347.5156,804.375 Q347.6719,804.1563 347.8594,804.0469 Q348.0469,803.9375 348.2656,803.9375 Q348.6406,803.9375 348.875,804.2031 Q349.1094,804.4531 349.1094,805.0625 L349.1094,806.5156 Q349.1094,807.125 348.875,807.3906 Q348.6406,807.6563 348.2656,807.6563 Q347.9219,807.6563 347.7188,807.4531 Q347.5156,807.2656 347.4063,806.75 Q347.3594,806.3906 347.1719,806.2031 Q346.8438,805.8281 346.2344,805.6094 Q345.625,805.3906 345,805.3906 Q344.2344,805.3906 343.5938,805.7188 Q342.9688,806.0469 342.4688,806.7969 Q341.9844,807.5469 341.9844,808.5781 L341.9844,809.6719 Q341.9844,810.9063 342.875,811.7344 Q343.7656,812.5469 345.3594,812.5469 Q346.2969,812.5469 346.9531,812.2969 Q347.3438,812.1406 347.7656,811.7031 Q348.0313,811.4375 348.1719,811.3594 Q348.3281,811.2813 348.5313,811.2813 Q348.8594,811.2813 349.1094,811.5469 Q349.375,811.7969 349.375,812.1406 Q349.375,812.4844 349.0313,812.8906 Q348.5313,813.4688 347.7344,813.7969 Q346.6563,814.25 345.3594,814.25 Q343.8438,814.25 342.6406,813.625 Q341.6563,813.125 340.9688,812.0625 Q340.2813,810.9844 340.2813,809.7031 L340.2813,808.5469 Q340.2813,807.2188 340.8906,806.0781 Q341.5156,804.9219 342.6094,804.3125 Q343.7031,803.6875 344.9375,803.6875 Q345.6719,803.6875 346.3125,803.8594 Q346.9688,804.0156 347.5156,804.375 Z " fill="#000000"/><text fill="#000000" font-family="sans-serif" font-size="14" lengthAdjust="spacing" textLength="42" x="365.25" y="814.2285">Caster</text><line style="stroke:#181818;stroke-width:0.5;" x1="165.5" x2="574.5" y1="824.5" y2="824.5"/><ellipse cx="175.5" cy="838.8047" fill="none" rx="3" ry="3" style="stroke:#038048;stroke-width:1.0;"/><text fill="#000000" font-family="sans-serif" font-size="14" lengthAdjust="spacing" textLength="273" x="184.5" y="843.0332">static final Function&lt;String, Long&gt; castToId</text><ellipse cx="175.5" cy="856.4141" fill="none" rx="3" ry="3" style="stroke:#038048;stroke-width:1.0;"/><text fill="#000000" font-family="sans-serif" font-size="14" lengthAdjust="spacing" textLength="303" x="184.5" y="860.6426">static final Function&lt;String, String&gt; castToName</text><ellipse cx="175.5" cy="874.0234" fill="none" rx="3" ry="3" style="stroke:#038048;stroke-width:1.0;"/><text fill="#000000" font-family="sans-serif" font-size="14" lengthAdjust="spacing" textLength="345" x="184.5" y="878.252">static final Function&lt;String, Float&gt; castToEnginePower</text><ellipse cx="175.5" cy="891.6328" fill="none" rx="3" ry="3" style="stroke:#038048;stroke-width:1.0;"/><text fill="#000000" font-family="sans-serif" font-size="14" lengthAdjust="spacing" textLength="385" x="184.5" y="895.8613">static final Function&lt;String, Integer&gt; castToNumberOfWheels</text><ellipse cx="175.5" cy="909.2422" fill="none" rx="3" ry="3" style="stroke:#038048;stroke-width:1.0;"/><text fill="#000000" font-family="sans-serif" font-size="14" lengthAdjust="spacing" textLength="373" x="184.5" y="913.4707">static final Function&lt;String, Float&gt; castToFuelConsumption</text><ellipse cx="175.5" cy="926.8516" fill="none" rx="3" ry="3" style="stroke:#038048;stroke-width:1.0;"/><text fill="#000000" font-family="sans-serif" font-size="14" lengthAdjust="spacing" textLength="350" x="184.5" y="931.0801">static final Function&lt;String, FuelType&gt; castToFuelType</text><line style="stroke:#181818;stroke-width:0.5;" x1="165.5" x2="574.5" y1="938.1563" y2="938.1563"/></g><!--class Validator--><g id="elem_Validator"><rect codeLine="161" fill="#F1F1F1" height="259.3125" id="Validator" rx="2.5" ry="2.5" style="stroke:#181818;stroke-width:0.5;" width="421" x="610.5" y="740"/><ellipse cx="788.75" cy="756" fill="#ADD1B2" rx="11" ry="11" style="stroke:#181818;stroke-width:1.0;"/><path d="M791.5156,751.875 Q791.6719,751.6563 791.8594,751.5469 Q792.0469,751.4375 792.2656,751.4375 Q792.6406,751.4375 792.875,751.7031 Q793.1094,751.9531 793.1094,752.5625 L793.1094,754.0156 Q793.1094,754.625 792.875,754.8906 Q792.6406,755.1563 792.2656,755.1563 Q791.9219,755.1563 791.7188,754.9531 Q791.5156,754.7656 791.4063,754.25 Q791.3594,753.8906 791.1719,753.7031 Q790.8438,753.3281 790.2344,753.1094 Q789.625,752.8906 789,752.8906 Q788.2344,752.8906 787.5938,753.2188 Q786.9688,753.5469 786.4688,754.2969 Q785.9844,755.0469 785.9844,756.0781 L785.9844,757.1719 Q785.9844,758.4063 786.875,759.2344 Q787.7656,760.0469 789.3594,760.0469 Q790.2969,760.0469 790.9531,759.7969 Q791.3438,759.6406 791.7656,759.2031 Q792.0313,758.9375 792.1719,758.8594 Q792.3281,758.7813 792.5313,758.7813 Q792.8594,758.7813 793.1094,759.0469 Q793.375,759.2969 793.375,759.6406 Q793.375,759.9844 793.0313,760.3906 Q792.5313,760.9688 791.7344,761.2969 Q790.6563,761.75 789.3594,761.75 Q787.8438,761.75 786.6406,761.125 Q785.6563,760.625 784.9688,759.5625 Q784.2813,758.4844 784.2813,757.2031 L784.2813,756.0469 Q784.2813,754.7188 784.8906,753.5781 Q785.5156,752.4219 786.6094,751.8125 Q787.7031,751.1875 788.9375,751.1875 Q789.6719,751.1875 790.3125,751.3594 Q790.9688,751.5156 791.5156,751.875 Z " fill="#000000"/><text fill="#000000" font-family="sans-serif" font-size="14" lengthAdjust="spacing" textLength="56" x="809.25" y="761.7285">Validator</text><line style="stroke:#181818;stroke-width:0.5;" x1="611.5" x2="1030.5" y1="772" y2="772"/><ellipse cx="621.5" cy="786.3047" fill="none" rx="3" ry="3" style="stroke:#038048;stroke-width:1.0;"/><text fill="#000000" font-family="sans-serif" font-size="14" lengthAdjust="spacing" textLength="286" x="630.5" y="790.5332">static String nameHumanIntelligibleConditions</text><ellipse cx="621.5" cy="803.9141" fill="none" rx="3" ry="3" style="stroke:#038048;stroke-width:1.0;"/><text fill="#000000" font-family="sans-serif" font-size="14" lengthAdjust="spacing" textLength="333" x="630.5" y="808.1426">static String enginePowerHumanIntelligibleConditions</text><ellipse cx="621.5" cy="821.5234" fill="none" rx="3" ry="3" style="stroke:#038048;stroke-width:1.0;"/><text fill="#000000" font-family="sans-serif" font-size="14" lengthAdjust="spacing" textLength="361" x="630.5" y="825.752">static String numberOfWheelsHumanIntelligibleConditions</text><ellipse cx="621.5" cy="839.1328" fill="none" rx="3" ry="3" style="stroke:#038048;stroke-width:1.0;"/><text fill="#000000" font-family="sans-serif" font-size="14" lengthAdjust="spacing" textLength="357" x="630.5" y="843.3613">static String fuelConsumptionHumanIntelligibleConditions</text><ellipse cx="621.5" cy="856.7422" fill="none" rx="3" ry="3" style="stroke:#038048;stroke-width:1.0;"/><text fill="#000000" font-family="sans-serif" font-size="14" lengthAdjust="spacing" textLength="248" x="630.5" y="860.9707">static ArrayList&lt;String&gt; fuelTypeValues</text><ellipse cx="621.5" cy="874.3516" fill="none" rx="3" ry="3" style="stroke:#038048;stroke-width:1.0;"/><text fill="#000000" font-family="sans-serif" font-size="14" lengthAdjust="spacing" textLength="306" x="630.5" y="878.5801">static String fuelTypeHumanIntelligibleConditions</text><line style="stroke:#181818;stroke-width:0.5;" x1="611.5" x2="1030.5" y1="885.6563" y2="885.6563"/><ellipse cx="621.5" cy="899.9609" fill="#84BE84" rx="3" ry="3" style="stroke:#038048;stroke-width:1.0;"/><text fill="#000000" font-family="sans-serif" font-size="14" lengthAdjust="spacing" textLength="238" x="630.5" y="904.1895">static void validateName(String name)</text><ellipse cx="621.5" cy="917.5703" fill="#84BE84" rx="3" ry="3" style="stroke:#038048;stroke-width:1.0;"/><text fill="#000000" font-family="sans-serif" font-size="14" lengthAdjust="spacing" textLength="358" x="630.5" y="921.7988">static void validateCoordinates(Coordinates coordinates)</text><ellipse cx="621.5" cy="935.1797" fill="#84BE84" rx="3" ry="3" style="stroke:#038048;stroke-width:1.0;"/><text fill="#000000" font-family="sans-serif" font-size="14" lengthAdjust="spacing" textLength="327" x="630.5" y="939.4082">static void validateEnginePower(Float enginePower)</text><ellipse cx="621.5" cy="952.7891" fill="#84BE84" rx="3" ry="3" style="stroke:#038048;stroke-width:1.0;"/><text fill="#000000" font-family="sans-serif" font-size="14" lengthAdjust="spacing" textLength="395" x="630.5" y="957.0176">static void validateNumberOfWheels(Integer numberOfWheels)</text><ellipse cx="621.5" cy="970.3984" fill="#84BE84" rx="3" ry="3" style="stroke:#038048;stroke-width:1.0;"/><text fill="#000000" font-family="sans-serif" font-size="14" lengthAdjust="spacing" textLength="374" x="630.5" y="974.627">static void validateFuelConsumption(float fuelConsumption)</text><ellipse cx="621.5" cy="988.0078" fill="#84BE84" rx="3" ry="3" style="stroke:#038048;stroke-width:1.0;"/><text fill="#000000" font-family="sans-serif" font-size="14" lengthAdjust="spacing" textLength="305" x="630.5" y="992.2363">static void validateFuelType(FuelType fuelType)</text></g><!--class Coordinates--><g id="elem_Coordinates"><rect codeLine="81" fill="#F1F1F1" height="171.2656" id="Coordinates" rx="2.5" ry="2.5" style="stroke:#181818;stroke-width:0.5;" width="212" x="1534" y="297.5"/><ellipse cx="1597.25" cy="313.5" fill="#ADD1B2" rx="11" ry="11" style="stroke:#181818;stroke-width:1.0;"/><path d="M1600.0156,309.375 Q1600.1719,309.1563 1600.3594,309.0469 Q1600.5469,308.9375 1600.7656,308.9375 Q1601.1406,308.9375 1601.375,309.2031 Q1601.6094,309.4531 1601.6094,310.0625 L1601.6094,311.5156 Q1601.6094,312.125 1601.375,312.3906 Q1601.1406,312.6563 1600.7656,312.6563 Q1600.4219,312.6563 1600.2188,312.4531 Q1600.0156,312.2656 1599.9063,311.75 Q1599.8594,311.3906 1599.6719,311.2031 Q1599.3438,310.8281 1598.7344,310.6094 Q1598.125,310.3906 1597.5,310.3906 Q1596.7344,310.3906 1596.0938,310.7188 Q1595.4688,311.0469 1594.9688,311.7969 Q1594.4844,312.5469 1594.4844,313.5781 L1594.4844,314.6719 Q1594.4844,315.9063 1595.375,316.7344 Q1596.2656,317.5469 1597.8594,317.5469 Q1598.7969,317.5469 1599.4531,317.2969 Q1599.8438,317.1406 1600.2656,316.7031 Q1600.5313,316.4375 1600.6719,316.3594 Q1600.8281,316.2813 1601.0313,316.2813 Q1601.3594,316.2813 1601.6094,316.5469 Q1601.875,316.7969 1601.875,317.1406 Q1601.875,317.4844 1601.5313,317.8906 Q1601.0313,318.4688 1600.2344,318.7969 Q1599.1563,319.25 1597.8594,319.25 Q1596.3438,319.25 1595.1406,318.625 Q1594.1563,318.125 1593.4688,317.0625 Q1592.7813,315.9844 1592.7813,314.7031 L1592.7813,313.5469 Q1592.7813,312.2188 1593.3906,311.0781 Q1594.0156,309.9219 1595.1094,309.3125 Q1596.2031,308.6875 1597.4375,308.6875 Q1598.1719,308.6875 1598.8125,308.8594 Q1599.4688,309.0156 1600.0156,309.375 Z " fill="#000000"/><text fill="#000000" font-family="sans-serif" font-size="14" lengthAdjust="spacing" textLength="77" x="1617.75" y="319.2285">Coordinates</text><line style="stroke:#181818;stroke-width:0.5;" x1="1535" x2="1745" y1="329.5" y2="329.5"/><rect fill="none" height="6" style="stroke:#C82930;stroke-width:1.0;" width="6" x="1542" y="340.8047"/><text fill="#000000" font-family="sans-serif" font-size="14" lengthAdjust="spacing" textLength="53" x="1554" y="348.0332">double x</text><rect fill="none" height="6" style="stroke:#C82930;stroke-width:1.0;" width="6" x="1542" y="358.4141"/><text fill="#000000" font-family="sans-serif" font-size="14" lengthAdjust="spacing" textLength="38" x="1554" y="365.6426">float y</text><line style="stroke:#181818;stroke-width:0.5;" x1="1535" x2="1745" y1="372.7188" y2="372.7188"/><ellipse cx="1545" cy="387.0234" fill="#84BE84" rx="3" ry="3" style="stroke:#038048;stroke-width:1.0;"/><text fill="#000000" font-family="sans-serif" font-size="14" lengthAdjust="spacing" textLength="186" x="1554" y="391.252">Coordinates(double x, float y)</text><ellipse cx="1545" cy="404.6328" fill="#84BE84" rx="3" ry="3" style="stroke:#038048;stroke-width:1.0;"/><text fill="#000000" font-family="sans-serif" font-size="14" lengthAdjust="spacing" textLength="85" x="1554" y="408.8613">double getX()</text><ellipse cx="1545" cy="422.2422" fill="#84BE84" rx="3" ry="3" style="stroke:#038048;stroke-width:1.0;"/><text fill="#000000" font-family="sans-serif" font-size="14" lengthAdjust="spacing" textLength="70" x="1554" y="426.4707">float getY()</text><ellipse cx="1545" cy="439.8516" fill="#84BE84" rx="3" ry="3" style="stroke:#038048;stroke-width:1.0;"/><text fill="#000000" font-family="sans-serif" font-size="14" lengthAdjust="spacing" textLength="120" x="1554" y="444.0801">void setX(double x)</text><ellipse cx="1545" cy="457.4609" fill="#84BE84" rx="3" ry="3" style="stroke:#038048;stroke-width:1.0;"/><text fill="#000000" font-family="sans-serif" font-size="14" lengthAdjust="spacing" textLength="106" x="1554" y="461.6895">void setY(float y)</text></g><!--class Caster--><g id="elem_Caster"><rect codeLine="91" fill="#F1F1F1" height="83.2188" id="Caster" rx="2.5" ry="2.5" style="stroke:#181818;stroke-width:0.5;" width="309" x="1214.5" y="828"/><ellipse cx="1343.75" cy="844" fill="#ADD1B2" rx="11" ry="11" style="stroke:#181818;stroke-width:1.0;"/><path d="M1346.5156,839.875 Q1346.6719,839.6563 1346.8594,839.5469 Q1347.0469,839.4375 1347.2656,839.4375 Q1347.6406,839.4375 1347.875,839.7031 Q1348.1094,839.9531 1348.1094,840.5625 L1348.1094,842.0156 Q1348.1094,842.625 1347.875,842.8906 Q1347.6406,843.1563 1347.2656,843.1563 Q1346.9219,843.1563 1346.7188,842.9531 Q1346.5156,842.7656 1346.4063,842.25 Q1346.3594,841.8906 1346.1719,841.7031 Q1345.8438,841.3281 1345.2344,841.1094 Q1344.625,840.8906 1344,840.8906 Q1343.2344,840.8906 1342.5938,841.2188 Q1341.9688,841.5469 1341.4688,842.2969 Q1340.9844,843.0469 1340.9844,844.0781 L1340.9844,845.1719 Q1340.9844,846.4063 1341.875,847.2344 Q1342.7656,848.0469 1344.3594,848.0469 Q1345.2969,848.0469 1345.9531,847.7969 Q1346.3438,847.6406 1346.7656,847.2031 Q1347.0313,846.9375 1347.1719,846.8594 Q1347.3281,846.7813 1347.5313,846.7813 Q1347.8594,846.7813 1348.1094,847.0469 Q1348.375,847.2969 1348.375,847.6406 Q1348.375,847.9844 1348.0313,848.3906 Q1347.5313,848.9688 1346.7344,849.2969 Q1345.6563,849.75 1344.3594,849.75 Q1342.8438,849.75 1341.6406,849.125 Q1340.6563,848.625 1339.9688,847.5625 Q1339.2813,846.4844 1339.2813,845.2031 L1339.2813,844.0469 Q1339.2813,842.7188 1339.8906,841.5781 Q1340.5156,840.4219 1341.6094,839.8125 Q1342.7031,839.1875 1343.9375,839.1875 Q1344.6719,839.1875 1345.3125,839.3594 Q1345.9688,839.5156 1346.5156,839.875 Z " fill="#000000"/><text fill="#000000" font-family="sans-serif" font-size="14" lengthAdjust="spacing" textLength="42" x="1364.25" y="849.7285">Caster</text><line style="stroke:#181818;stroke-width:0.5;" x1="1215.5" x2="1522.5" y1="860" y2="860"/><ellipse cx="1225.5" cy="874.3047" fill="none" rx="3" ry="3" style="stroke:#038048;stroke-width:1.0;"/><text fill="#000000" font-family="sans-serif" font-size="14" lengthAdjust="spacing" textLength="283" x="1234.5" y="878.5332">static final Function&lt;String, Double&gt; castToX</text><ellipse cx="1225.5" cy="891.9141" fill="none" rx="3" ry="3" style="stroke:#038048;stroke-width:1.0;"/><text fill="#000000" font-family="sans-serif" font-size="14" lengthAdjust="spacing" textLength="271" x="1234.5" y="896.1426">static final Function&lt;String, Float&gt; castToY</text><line style="stroke:#181818;stroke-width:0.5;" x1="1215.5" x2="1522.5" y1="903.2188" y2="903.2188"/></g><!--class Validator--><g id="elem_Validator"><rect codeLine="96" fill="#F1F1F1" height="118.4375" id="Validator" rx="2.5" ry="2.5" style="stroke:#181818;stroke-width:0.5;" width="284" x="1559" y="810.5"/><ellipse cx="1668.75" cy="826.5" fill="#ADD1B2" rx="11" ry="11" style="stroke:#181818;stroke-width:1.0;"/><path d="M1671.5156,822.375 Q1671.6719,822.1563 1671.8594,822.0469 Q1672.0469,821.9375 1672.2656,821.9375 Q1672.6406,821.9375 1672.875,822.2031 Q1673.1094,822.4531 1673.1094,823.0625 L1673.1094,824.5156 Q1673.1094,825.125 1672.875,825.3906 Q1672.6406,825.6563 1672.2656,825.6563 Q1671.9219,825.6563 1671.7188,825.4531 Q1671.5156,825.2656 1671.4063,824.75 Q1671.3594,824.3906 1671.1719,824.2031 Q1670.8438,823.8281 1670.2344,823.6094 Q1669.625,823.3906 1669,823.3906 Q1668.2344,823.3906 1667.5938,823.7188 Q1666.9688,824.0469 1666.4688,824.7969 Q1665.9844,825.5469 1665.9844,826.5781 L1665.9844,827.6719 Q1665.9844,828.9063 1666.875,829.7344 Q1667.7656,830.5469 1669.3594,830.5469 Q1670.2969,830.5469 1670.9531,830.2969 Q1671.3438,830.1406 1671.7656,829.7031 Q1672.0313,829.4375 1672.1719,829.3594 Q1672.3281,829.2813 1672.5313,829.2813 Q1672.8594,829.2813 1673.1094,829.5469 Q1673.375,829.7969 1673.375,830.1406 Q1673.375,830.4844 1673.0313,830.8906 Q1672.5313,831.4688 1671.7344,831.7969 Q1670.6563,832.25 1669.3594,832.25 Q1667.8438,832.25 1666.6406,831.625 Q1665.6563,831.125 1664.9688,830.0625 Q1664.2813,828.9844 1664.2813,827.7031 L1664.2813,826.5469 Q1664.2813,825.2188 1664.8906,824.0781 Q1665.5156,822.9219 1666.6094,822.3125 Q1667.7031,821.6875 1668.9375,821.6875 Q1669.6719,821.6875 1670.3125,821.8594 Q1670.9688,822.0156 1671.5156,822.375 Z " fill="#000000"/><text fill="#000000" font-family="sans-serif" font-size="14" lengthAdjust="spacing" textLength="56" x="1689.25" y="832.2285">Validator</text><line style="stroke:#181818;stroke-width:0.5;" x1="1560" x2="1842" y1="842.5" y2="842.5"/><ellipse cx="1570" cy="856.8047" fill="none" rx="3" ry="3" style="stroke:#038048;stroke-width:1.0;"/><text fill="#000000" font-family="sans-serif" font-size="14" lengthAdjust="spacing" textLength="257" x="1579" y="861.0332">static String xHumanIntelligibleConditions</text><ellipse cx="1570" cy="874.4141" fill="none" rx="3" ry="3" style="stroke:#038048;stroke-width:1.0;"/><text fill="#000000" font-family="sans-serif" font-size="14" lengthAdjust="spacing" textLength="258" x="1579" y="878.6426">static String yHumanIntelligibleConditions</text><line style="stroke:#181818;stroke-width:0.5;" x1="1560" x2="1842" y1="885.7188" y2="885.7188"/><ellipse cx="1570" cy="900.0234" fill="#84BE84" rx="3" ry="3" style="stroke:#038048;stroke-width:1.0;"/><text fill="#000000" font-family="sans-serif" font-size="14" lengthAdjust="spacing" textLength="189" x="1579" y="904.252">static void validateX(Double x)</text><ellipse cx="1570" cy="917.6328" fill="#84BE84" rx="3" ry="3" style="stroke:#038048;stroke-width:1.0;"/><text fill="#000000" font-family="sans-serif" font-size="14" lengthAdjust="spacing" textLength="178" x="1579" y="921.8613">static void validateY(Float y)</text></g><!--class FuelType--><g id="elem_FuelType"><rect codeLine="106" fill="#F1F1F1" height="100.8281" id="FuelType" rx="2.5" ry="2.5" style="stroke:#181818;stroke-width:0.5;" width="99" x="1338.5" y="332.5"/><ellipse cx="1356.65" cy="348.5" fill="#EB937F" rx="11" ry="11" style="stroke:#181818;stroke-width:1.0;"/><path d="M1355.5094,349.2969 L1355.5094,351.7969 L1359.8375,351.7969 L1359.8375,350.875 Q1359.8375,350.2656 1360.0719,350 Q1360.3219,349.7344 1360.6969,349.7344 Q1361.0719,349.7344 1361.3063,350 Q1361.5406,350.2656 1361.5406,350.875 L1361.5406,353.5 L1353.5406,353.5 Q1352.9156,353.5 1352.65,353.2656 Q1352.4,353.0313 1352.4,352.6406 Q1352.4,352.2656 1352.6656,352.0313 Q1352.9313,351.7969 1353.5406,351.7969 L1353.8063,351.7969 L1353.8063,345.1406 L1353.5406,345.1406 Q1352.9156,345.1406 1352.65,344.9063 Q1352.4,344.6719 1352.4,344.2813 Q1352.4,343.9063 1352.65,343.6719 Q1352.9156,343.4375 1353.5406,343.4375 L1361.1656,343.4375 L1361.1656,346.0313 Q1361.1656,346.6406 1360.9313,346.9063 Q1360.7125,347.1563 1360.3219,347.1563 Q1359.9469,347.1563 1359.7125,346.9063 Q1359.4781,346.6406 1359.4781,346.0313 L1359.4781,345.1406 L1355.5094,345.1406 L1355.5094,347.5938 L1356.9938,347.5938 Q1356.9938,346.9375 1357.1188,346.75 Q1357.3844,346.3438 1357.8531,346.3438 Q1358.2281,346.3438 1358.4625,346.6094 Q1358.6969,346.8594 1358.6969,347.4688 L1358.6969,349.4375 Q1358.6969,349.9844 1358.5719,350.1719 Q1358.3063,350.5625 1357.8531,350.5625 Q1357.3844,350.5625 1357.1188,350.1563 Q1356.9938,349.9688 1356.9938,349.2969 L1355.5094,349.2969 Z " fill="#000000"/><text fill="#000000" font-family="sans-serif" font-size="14" lengthAdjust="spacing" textLength="60" x="1371.35" y="354.2285">FuelType</text><line style="stroke:#181818;stroke-width:0.5;" x1="1339.5" x2="1436.5" y1="364.5" y2="364.5"/><text fill="#000000" font-family="sans-serif" font-size="14" lengthAdjust="spacing" textLength="75" x="1344.5" y="383.0332">KEROSENE</text><text fill="#000000" font-family="sans-serif" font-size="14" lengthAdjust="spacing" textLength="64" x="1344.5" y="400.6426">NUCLEAR</text><text fill="#000000" font-family="sans-serif" font-size="14" lengthAdjust="spacing" textLength="87" x="1344.5" y="418.252">ANTIMATTER</text><line style="stroke:#181818;stroke-width:0.5;" x1="1339.5" x2="1436.5" y1="425.3281" y2="425.3281"/></g><!--reverse link Coordinates to Caster--><g id="link_Coordinates_Caster"><path codeLine="103" d="M1584.8296,482.6341 C1526.0396,587.7441 1435.95,748.81 1391.81,827.72 " fill="none" id="Coordinates-backto-Caster" style="stroke:#181818;stroke-width:1.0;"/><ellipse cx="1588.7348" cy="475.6521" fill="#FFFFFF" rx="8" ry="8" style="stroke:#181818;stroke-width:1.0;"/><line style="stroke:#181818;stroke-width:1.0;" x1="1584.8296" x2="1592.64" y1="482.6341" y2="468.67"/><line style="stroke:#181818;stroke-width:1.0;" x1="1581.7527" x2="1595.7169" y1="471.7469" y2="479.5573"/></g><!--reverse link Coordinates to Validator--><g id="link_Coordinates_Validator"><path codeLine="104" d="M1652.6589,484.5446 C1664.9889,582.4646 1682.96,725.2 1693.66,810.23 " fill="none" id="Coordinates-backto-Validator" style="stroke:#181818;stroke-width:1.0;"/><ellipse cx="1651.6595" cy="476.6073" fill="#FFFFFF" rx="8" ry="8" style="stroke:#181818;stroke-width:1.0;"/><line style="stroke:#181818;stroke-width:1.0;" x1="1652.6589" x2="1650.66" y1="484.5446" y2="468.67"/><line style="stroke:#181818;stroke-width:1.0;" x1="1643.7221" x2="1659.5968" y1="477.6068" y2="475.6079"/></g><!--reverse link Vehicle to Caster--><g id="link_Vehicle_Caster"><path codeLine="176" d="M412.4458,695.6787 C402.3058,736.9887 396.51,760.56 388.71,792.33 " fill="none" id="Vehicle-backto-Caster" style="stroke:#181818;stroke-width:1.0;"/><ellipse cx="414.3529" cy="687.9094" fill="#FFFFFF" rx="8" ry="8" style="stroke:#181818;stroke-width:1.0;"/><line style="stroke:#181818;stroke-width:1.0;" x1="412.4458" x2="416.26" y1="695.6787" y2="680.14"/><line style="stroke:#181818;stroke-width:1.0;" x1="406.5836" x2="422.1223" y1="686.0023" y2="689.8164"/></g><!--reverse link Vehicle to Validator--><g id="link_Vehicle_Validator"><path codeLine="177" d="M700.9711,693.3407 C715.1211,714.0007 719.86,720.9 732.82,739.82 " fill="none" id="Vehicle-backto-Validator" style="stroke:#181818;stroke-width:1.0;"/><ellipse cx="696.4506" cy="686.7403" fill="#FFFFFF" rx="8" ry="8" style="stroke:#181818;stroke-width:1.0;"/><line style="stroke:#181818;stroke-width:1.0;" x1="700.9711" x2="691.93" y1="693.3407" y2="680.14"/><line style="stroke:#181818;stroke-width:1.0;" x1="689.8502" x2="703.0509" y1="691.2609" y2="682.2198"/></g><!--SRC=[hLZRSk8u47tdArorBwP2vWEcKcnbmPwmIyWKySmc-wROWcZMsAmaiw5I-VVHrSYw64Y69rjzKUkSxbQRBSZ_1MiODHIL97eTHEotLMjvlTc0gj3BfeZkjz1SvpzKKOXN88VHNLNkqnhVGxo3E7fzQzNU1eud-9B3BKLrPRlBIq18b46yGHMWCD5w0NzI_HglcmsigENhCgh01aQVetkAKRMsP0NCCPA-0nexK3RSFBFMSq1eLcSC32PCcohdJgwaYr4sxcXVjC75dM16llr7nrmFBTy4qkyyo5Y7AZM7x6bNeyBINcljeNCe8Lom08NCWuPGc4AYO_RfERnCP2gTIGivnWjGY1AcS8qnsCyHeLSQvwlVnrqAVejWjKEu5XdoEKhQ5-k0AbgN9pSW3my7jt5WEuwOsiEA3rM8il19p4uc3zKU9KobC1YU1i4leLVglO8dGZ78wHihOfWt5EgeRm1vlWLRdQqozaDmSdbiP8kHCxelF3DmIeZDhj19fHifjnEgxLbE5ChEXWCKHQoC3gmO1AbzN8oyIH9YLl9KbaecwPhKPGbbNJl1EHLqo9vNoxC2NyVZ76OKzT7YLAw72mp_Qo2X8IgMKcnJGIYW3TzNoU_5kwM48TcotXzi0eVJX1h0YRKlTISWVuOk57TFFnWHOtyRKE77TYZ3S4u4QuQr1mb3x4SdNEJARDYBfzXWgI2D7Mp3tbkRlgvmNfzXXSMaiMxH9pKpQKFYutszlniAcaMe9n5DJAkyDqMSVOr2XLMpwPBJBOdqstoUpkR9jBFwDLbCPuildRLbycSooGn5Rrdku3FAI-WPprYgCZe5WBwXQbBNk11JbIrNDs_TF36_BnxHggm1ZVQEvC9q6ci78wq_z1We9KRPG-oJIrCcVlIAEGkSkOTsjpwjnzWRYS6U0GyRlVZSwd77gnRbqOgTitIcicWg0XchsUtXRFkKXwZD7wr0RMUUmDbCXmf0wzxOvMRHoqt3MjMCpUnbYTQ8nJsfgmA9IJniBE3SoMtWGppjGRwxtVxZspt6wGaKchbzSNcfoEnLQM7hUXBbd3Qm54EuY-XVoVBkFbaaZc3nRJ9FhfVE-lKYczrUPrco353hZiqYUEFJnxwXkl9OWKsi-ydn-ztf7BAwovfPMqtrKbF81nrBOYAP7vujhHzW1pvHj86V_c5DgPWobOozHJc6W8VD5omJoJIirgY2N-l_BG8l8vv8QrQZZA8dYEzMVpz3MDhxoefVCGPPhf5c8p2oDzByhjJ3m3F5i4mKoEGDngofteANMU5NCowCI6uAiPvtnz6ceO1bVefWMP21nQNY93RG7eK07ha0ZGAOZFmmZDoJEvyoge1XEx7pPdnhdY6sRNIx5U8_zk93etCWzIA-KcrZWJ7RObOuVfLP- -qo2DuzSWmxN4MsQYWPkPcHZuvTgc-Zv82vewGfu75sM70qsyijxVBYxgjfKhhyEGYxZNT8pmGea68XK_FuJX86u-g2uS_KO2vP27dpkSzOG7PgkhSG6RKUEzKVo4zQomU78CG6O3wK0GopEjRjTpSyrlgTZjy_GCnhNgLoVfWLPvdg4fV62xlNdpMw986-VSo9oeisY71pFokSjES6EEf8POlfIrmJuRirC8JP4n6lprE78lz0TApQVJRlgFnks4QrVopwing91LqdCJu8udjQKpSSgnLzB9vtTJlboFcBhMrsujzUSlGKNFNZuH_hjqR9w4xecTHDqM52b_PlWvy0]--></g></svg>